<?xml version="1.0" encoding="UTF-8"?>
<svg id="Calque_1" xmlns="http://www.w3.org/2000/svg" version="1.1" viewBox="0 0 283.46 206.54">
  <!-- Generator: Adobe Illustrator 30.0.0, SVG Export Plug-In . SVG Version: 2.1.1 Build 123)  -->
  <defs>
    <style>
      .st0 {
        fill: #f4bfd5;
      }

      .st1 {
        fill: #1d1d1b;
      }
    </style>
  </defs>
  <g>
    <path d="M207.12,10.91c-3.36-3.36-7.29-6.02-11.79-7.97-4.5-1.96-9.29-2.93-14.38-2.93s-9.88.98-14.38,2.93c-4.5,1.96-8.41,4.61-11.74,7.97-3.33,3.36-5.97,7.29-7.92,11.79-.6,1.37-1.1,2.77-1.52,4.2-.41-1.43-.92-2.83-1.52-4.2-1.96-4.5-4.61-8.43-7.97-11.79-3.36-3.36-7.29-6.02-11.79-7.97-4.5-1.96-9.29-2.93-14.38-2.93s-9.88.98-14.38,2.93c-4.5,1.96-8.41,4.61-11.74,7.97-3.33,3.36-5.97,7.29-7.92,11.79-1.24,2.84-2.08,5.81-2.54,8.89-.36-.18-.75-.28-1.18-.28h-33.65c-.65,0-1.21.23-1.66.68-.46.46-.68,1.01-.68,1.66v11.64c0,.65.23,1.21.68,1.66.46.46,1.01.68,1.66.68h11.25c.65,0,1.11.21,1.37.64.26.42.23.9-.1,1.42-1.44,2.09-3.36,3.59-5.77,4.5-2.41.91-4.86,1.37-7.34,1.37s-4.81-.5-6.99-1.52c-2.19-1.01-4.09-2.35-5.72-4.01-1.63-1.66-2.92-3.6-3.86-5.82-.95-2.22-1.42-4.56-1.42-7.04s.47-4.74,1.42-6.99c.94-2.25,2.23-4.22,3.86-5.92,1.63-1.7,3.54-3.05,5.72-4.06,2.18-1.01,4.51-1.52,6.99-1.52,3.46,0,6.44.75,8.95,2.25,2.51,1.5,4.78,3.49,6.8,5.97.46.52,1.01.83,1.66.93.65.1,1.24-.02,1.76-.34l11.74-7.53c.52-.33.86-.83,1.03-1.52.16-.68.08-1.29-.24-1.81-3.33-5.15-7.65-9.19-12.96-12.13C51.17,1.57,44.93.1,37.76.1c-5.22,0-10.11.98-14.67,2.93-4.57,1.96-8.56,4.61-11.98,7.97-3.42,3.36-6.13,7.29-8.12,11.79-1.99,4.5-2.98,9.29-2.98,14.38s.99,9.88,2.98,14.38c1.99,4.5,4.7,8.41,8.12,11.74,3.42,3.33,7.42,5.97,11.98,7.92,4.56,1.96,9.45,2.93,14.67,2.93,4.76,0,9.26-.8,13.5-2.4,4.24-1.6,8-3.8,11.3-6.6,3.29-2.8,5.98-6.13,8.07-9.98,1.53-2.82,2.62-5.82,3.27-9,.46,1.8,1.06,3.56,1.81,5.28,1.96,4.5,4.6,8.43,7.92,11.79,3.33,3.36,7.24,6.02,11.74,7.97,4.5,1.96,9.29,2.93,14.38,2.93s9.88-.98,14.38-2.93c4.5-1.96,8.43-4.61,11.79-7.97,3.36-3.36,6.02-7.29,7.97-11.79.6-1.37,1.1-2.77,1.52-4.2.41,1.43.92,2.83,1.52,4.2,1.96,4.5,4.6,8.43,7.92,11.79,3.33,3.36,7.24,6.02,11.74,7.97,4.5,1.96,9.29,2.93,14.38,2.93s9.88-.98,14.38-2.93c4.5-1.96,8.43-4.61,11.79-7.97,3.36-3.36,6.02-7.29,7.97-11.79,1.96-4.5,2.93-9.29,2.93-14.38s-.98-9.88-2.93-14.38c-1.96-4.5-4.61-8.43-7.97-11.79ZM126.08,44.11c-.91,2.22-2.19,4.17-3.81,5.87-1.63,1.7-3.52,3.05-5.67,4.06-2.15,1.01-4.44,1.52-6.85,1.52s-4.7-.5-6.85-1.52c-2.15-1.01-4.03-2.36-5.62-4.06-1.6-1.69-2.85-3.65-3.77-5.87-.91-2.22-1.37-4.56-1.37-7.04s.46-4.74,1.37-6.99c.91-2.25,2.17-4.21,3.77-5.87,1.6-1.66,3.47-3,5.62-4.01,2.15-1.01,4.43-1.52,6.85-1.52s4.7.51,6.85,1.52c2.15,1.01,4.04,2.35,5.67,4.01,1.63,1.66,2.9,3.62,3.81,5.87.91,2.25,1.37,4.58,1.37,6.99s-.46,4.83-1.37,7.04ZM197.29,44.11c-.91,2.22-2.19,4.17-3.81,5.87-1.63,1.7-3.52,3.05-5.67,4.06-2.15,1.01-4.44,1.52-6.85,1.52s-4.7-.5-6.85-1.52c-2.15-1.01-4.03-2.36-5.62-4.06-1.6-1.69-2.85-3.65-3.77-5.87-.91-2.22-1.37-4.56-1.37-7.04s.46-4.74,1.37-6.99c.91-2.25,2.17-4.21,3.77-5.87,1.6-1.66,3.47-3,5.62-4.01,2.15-1.01,4.43-1.52,6.85-1.52s4.7.51,6.85,1.52c2.15,1.01,4.04,2.35,5.67,4.01,1.63,1.66,2.9,3.62,3.81,5.87.91,2.25,1.37,4.58,1.37,6.99s-.46,4.83-1.37,7.04Z"/>
    <path d="M280.73,21.91c-1.83-4.5-4.5-8.38-8.02-11.64-6.52-6-14.9-9-25.14-9h-26.7c-.65,0-1.21.23-1.66.68-.46.46-.68,1.01-.68,1.66v66.91c0,.65.23,1.21.68,1.66.46.46,1.01.68,1.66.68h26.7c5.09,0,9.73-.75,13.94-2.25,4.21-1.5,7.94-3.72,11.2-6.65,3.52-3.26,6.19-7.16,8.02-11.69,1.82-4.53,2.74-9.6,2.74-15.21s-.91-10.66-2.74-15.16ZM262.39,46.22c-1.01,2.32-2.3,4.11-3.86,5.38s-3.33,2.14-5.28,2.59c-1.96.46-3.85.68-5.67.68h-7.34c-.65,0-1.21-.23-1.66-.68-.46-.46-.68-1.01-.68-1.66v-30.71c0-.65.23-1.21.68-1.66s1.01-.68,1.66-.68h7.34c1.82,0,3.7.23,5.62.68,1.92.46,3.68,1.32,5.28,2.59,1.6,1.27,2.9,3.07,3.91,5.38,1.01,2.32,1.52,5.33,1.52,9.05s-.51,6.73-1.52,9.05Z"/>
  </g>
  <g>
    <path d="M145.18,70.59c-1.42-.9-3.01-1.34-4.66-.67-1.4.57-2.81,1.18-4.08,1.99-3.65,2.33-4.58,6.58-2.36,10.29.35.59.68,1.22,1.13,1.73.61.69,1.22,1.48,2,1.88,6.17,3.14,11.96-2.93,12.05-8.15-.19-2.81-1.41-5.38-4.09-7.07Z"/>
    <g>
      <path d="M255.07,110.56c-.09-.18-.19-.36-.29-.54-.09-.18-.19-.36-.29-.54-.09-.18-.19-.36-.29-.54-.09-.18-.19-.36-.29-.54-.09-.18-.19-.36-.29-.54-.09-.18-.19-.36-.29-.54-.09-.18-.19-.36-.29-.54-.09-.18-.19-.36-.29-.54-.09-.18-.19-.36-.29-.54-.09-.18-.19-.36-.29-.54-.09-.18-.19-.36-.29-.54-.09-.18-.19-.36-.29-.54-.09-.18-.19-.36-.29-.54-.09-.18-.19-.36-.29-.54-.15-.31-.32-.62-.51-.92-1.14-1.82-2.46-3.33-3.97-4.56,3.76-.03,7.54-2.13,9.45-5.39,2.9-4.94,3.37-10.28,2.54-15.79-.71-4.7-2.29-9.12-4.53-13.34-.54-1.01-1.11-1.97-1.74-2.87-.09-.14-.19-.28-.28-.41-.09-.14-.19-.28-.28-.42-.09-.14-.19-.28-.28-.42-.09-.14-.19-.28-.28-.42-.09-.14-.19-.28-.28-.42-.09-.14-.19-.28-.28-.42-.09-.14-.19-.28-.28-.42-.09-.14-.19-.28-.28-.42-.09-.14-.19-.28-.28-.42-.09-.14-.19-.28-.28-.42-.09-.14-.19-.28-.28-.42-.09-.14-.19-.28-.28-.42-.09-.14-.19-.28-.28-.42-.09-.14-.19-.28-.28-.42-2.94-4.45-6.95-7.58-12.32-9.15-3.77-1.1-7.6-1.43-11.5-1.28-3.01.11-5.87.86-8.49,2.32-4.52,2.52-8.89,5.3-12.99,8.47-2.02,1.56-4.43,2-6.82,1.65-1.79-.26-3.48-1.19-5.21-1.86-3.68-1.42-7.41-2.78-11.41-2.63-3,.11-6.01.51-8.98,1-1.98.32-3.89,1.03-5.84,1.54-.9.24-1.8.49-2.71.61-1.14.16-2.32.12-3.45.33-.7.12-1.3.14-1.91-.21-.31-.18-.65-.31-.97-.46-4.71-2.17-9.69-2.58-14.78-2.22-2.77.2-5.5.61-8.12,1.59-4.13,1.55-7.89,3.78-11.31,6.53-1.22.98-2.49,1.59-3.98,1.87-.57.11-1.14.25-1.71.35-2.28.41-4.51.42-6.61-.8-.66-.39-1.08-.86-1.31-1.61-.62-2.02-1.64-3.8-3.28-5.19-.55-.46-1-1.04-1.57-1.47-.94-.71-1.88-1.46-2.92-1.98-1.45-.73-3.09-.69-4.67-.95-2.13-.35-4.22-.38-6.35-.25-3.41.22-6.39,1.41-9.04,3.55-2.27,1.84-4.08,4.04-5.57,6.53-.97,1.62-1.79,3.29-2.49,5-.06.15-.12.3-.18.44-.06.15-.12.3-.18.45-.06.15-.12.3-.18.44-.06.15-.12.3-.18.45-.06.15-.12.3-.18.44-.06.15-.12.3-.18.44-.06.15-.12.3-.18.44-.06.15-.12.3-.18.44-.06.15-.12.3-.18.44-.06.15-.12.3-.18.44-.06.15-.12.3-.18.45-.06.15-.12.3-.18.44-.06.15-.12.3-.18.44-.06.15-.12.3-.18.44-1.55,3.65-2.56,7.5-3.33,11.44-1.36,6.99-2.32,14.01-2.4,21.14-.02,2.3-.17,4.6-.24,6.9-.01.44-.03.88-.05,1.32-1.74-4.68-2.99-9.5-3.43-14.52-.33-3.69-1.1-7.26-2.75-10.63-1.71-3.48-4.21-6-8.07-6.98-4-1.01-7.97-.7-11.89.4-2.24.63-4.05,1.96-5.15,4.01-.1.16-.2.33-.29.5-.1.16-.2.33-.29.5-.1.16-.2.33-.29.5-.1.16-.2.33-.29.5-.1.16-.2.33-.29.5-.1.16-.2.33-.29.5-.1.16-.2.33-.29.5-.1.16-.2.33-.29.5-.1.16-.2.33-.29.5-.1.16-.2.33-.29.5-.1.16-.2.33-.29.5-.1.16-.2.33-.29.5-.1.16-.2.33-.29.5-.1.16-.2.33-.29.5-.12.2-.24.4-.35.62-.97,1.88-1.83,3.85-2.45,5.87-1.07,3.47-1.01,7.03-.24,10.58.92,4.26,1.95,8.49,4.32,12.22,3.51,5.5,6.98,11.04,10.74,16.38,2.96,4.2,6.03,8.39,9.56,12.11,5.35,5.63,13.1,7.07,20.43,3.88,3.39-1.47,6.14-3.89,8.45-6.71,2.59-3.15,5.02-6.44,7.34-9.8,1.14-1.65,3.79-2.18,5.4-1.57,2,.75,3.73,1.89,5.28,3.35,1.48,1.4,3.04,2.71,4.58,4.04.54.47,1.11.92,1.7,1.32,3.03,2.02,7.16,2.94,10.49.13.48-.4,1.36-.56,2.01-.48,3.03.39,5.43,1.92,7.24,4.36,1.13,1.52,2.16,3.13,3.31,4.63,1.77,2.3,3.98,4.09,6.69,5.16,2.03.8,4.1,1.53,6.21,2.08,6.48,1.72,12.91,1.25,19.16-1.03,1.53-.56,2.92-.85,4.48-.46,1.52.38,2.85.98,3.82,2.3.75,1.02,1.6,1.97,2.5,2.86,2.77,2.75,5.69,5.3,9.4,6.75,4.78,1.88,9.76,1.85,14.72,1.29,5.86-.67,10.78-3.46,14.86-7.6,5.82-5.89,8.92-13.1,9.65-21.34.02-.27.11-.53.2-.95.39.29.65.51.93.68,1.35.81,2.62,1.85,4.08,2.36,7.14,2.5,14.18,1.88,21.01-1.16,3.12-1.39,5.4-3.85,7.33-6.65,4.04-5.86,6.73-12.11,5.99-19.44-.25-2.47-.66-4.9-1.89-7.08ZM137.22,85.52c-.79-.4-1.4-1.19-2-1.88-.45-.51-.78-1.14-1.13-1.73-.16-.27-.3-.54-.43-.81.61-.98,1.48-1.85,2.58-2.56,1.32-.84,2.79-1.47,4.24-2.07,1.71-.7,3.37-.24,4.84.69,1.47.93,2.52,2.12,3.21,3.46-1.76,4.08-6.41,7.38-11.31,4.89ZM209.04,111.32c-.45,1.12-2.33,1.68-3.44,1.22-3.89-1.63-7.62-1.88-11.24.82.64-2.08.54-4.17-.02-6.25-.04-.18-.09-.36-.13-.53-.04-.18-.09-.36-.13-.53-.04-.18-.09-.36-.13-.54-.04-.18-.09-.36-.13-.53-.04-.18-.09-.36-.13-.53-.04-.18-.09-.36-.13-.53-.01-.06-.03-.12-.04-.17.91.11,1.73.21,2.54.32,1.8.24,3.55.03,5.27-.54.35-.12.95-.11,1.16.11,2.26,2.33,5.1,3.74,8.02,4.96.16.07.33.13.49.2-.85.65-1.52,1.48-1.95,2.56ZM174.67,122.31c1.53-.72,3.15-1.06,4.86-.76,1.1.2,2.21.37,3.33.45.97.07,1.91.03,2.82-.17-.13.15-.26.3-.4.45-.75.85-1.44,1.78-2.32,2.48-3.01,2.39-5.35,2.59-8.44-.19-.45-.41-.85-.85-1.19-1.31.35-.39.81-.71,1.33-.96ZM227.71,93.35c-1.76-.1-3.54-.31-5.24-.73-.24-.06-.47-.13-.69-.21.49-1.04,1.32-1.73,2.55-2.03,3.71-.92,7.06-.04,10.14,2.06.52.36,1.03.73,1.54,1.11-2.76-.21-5.54-.05-8.3-.2Z"/>
      <path d="M214.75,132.81c-.09.4-.17.65-.19.91-.7,7.92-3.68,14.86-9.28,20.53-3.92,3.98-8.66,6.67-14.29,7.31-4.78.54-9.57.56-14.16-1.24-3.56-1.4-6.37-3.85-9.04-6.49-.86-.85-1.68-1.77-2.4-2.75-.94-1.27-2.21-1.85-3.68-2.21-1.51-.38-2.84-.1-4.31.44-6.02,2.19-12.2,2.64-18.43.99-2.03-.54-4.02-1.23-5.97-2-2.6-1.03-4.73-2.75-6.43-4.97-1.11-1.45-2.1-2.99-3.18-4.46-1.74-2.34-4.05-3.82-6.97-4.2-.63-.08-1.48.07-1.94.46-3.2,2.71-7.18,1.82-10.09-.12-.57-.38-1.12-.82-1.64-1.27-1.48-1.28-2.98-2.54-4.4-3.88-1.49-1.41-3.15-2.51-5.07-3.23-1.55-.58-4.1-.07-5.2,1.51-2.23,3.23-4.57,6.39-7.06,9.43-2.22,2.71-4.87,5.04-8.13,6.45-7.05,3.06-14.51,1.68-19.65-3.74-3.39-3.58-6.35-7.6-9.19-11.65-3.61-5.13-6.95-10.46-10.33-15.76-2.28-3.58-3.28-7.65-4.16-11.75-.73-3.42-.79-6.84.24-10.18.6-1.94,1.43-3.84,2.36-5.65,1.09-2.11,2.93-3.47,5.2-4.12,3.92-1.11,7.89-1.42,11.89-.4,3.86.98,6.35,3.49,8.07,6.98,1.65,3.36,2.43,6.94,2.75,10.63.51,5.73,2.07,11.2,4.21,16.51.57,1.41,1.37,2.72,2.07,4.07.12.23.3.41.46.62.07-.02.13-.04.2-.06,0-.29.02-.57,0-.86-.2-2.98-.49-5.96-.6-8.94-.08-2.1.05-4.2.12-6.31.06-2.21.21-4.42.23-6.64.07-6.86,1-13.61,2.31-20.34,1.07-5.48,2.62-10.75,5.51-15.57,1.49-2.49,3.3-4.7,5.57-6.53,2.65-2.14,5.63-3.33,9.04-3.55,2.14-.14,4.22-.11,6.35.25,1.57.26,3.22.22,4.67.95,1.04.53,1.98,1.27,2.92,1.98.57.43,1.02,1.01,1.57,1.47,1.64,1.39,2.66,3.17,3.28,5.19.23.75.64,1.23,1.31,1.61,2.1,1.22,4.33,1.21,6.61.8.57-.1,1.14-.25,1.71-.35,1.49-.28,2.76-.88,3.98-1.87,3.42-2.75,7.18-4.98,11.31-6.53,2.62-.98,5.35-1.39,8.12-1.59,5.09-.36,10.07.05,14.78,2.22.33.15.66.29.97.46.61.35,1.21.33,1.91.21,1.13-.2,2.31-.17,3.45-.33.91-.13,1.82-.38,2.71-.61,1.95-.51,3.86-1.22,5.84-1.54,2.97-.48,5.97-.89,8.98-1,4-.15,7.73,1.21,11.41,2.63,1.72.66,3.42,1.59,5.21,1.86,2.39.35,4.81-.09,6.82-1.65,4.1-3.18,8.47-5.95,12.99-8.47,2.63-1.46,5.48-2.21,8.49-2.32,3.89-.15,7.73.19,11.5,1.28,6.27,1.83,10.68,5.79,13.71,11.5,2.15,4.06,3.68,8.31,4.36,12.83.8,5.29.34,10.44-2.44,15.19-2.15,3.67-6.76,5.81-10.93,5.02-1.96-.37-3.95-.72-5.68-1.77-1.43-.87-2.73-1.97-4.12-2.92-2.97-2.02-6.19-2.87-9.76-1.99-1.46.36-2.34,1.29-2.73,2.72-.87,3.17.75,6.09,4.01,6.9,1.7.42,3.48.64,5.24.73,2.84.15,5.71-.02,8.54.21,6.09.51,10.99,3.19,14.29,8.47,1.37,2.19,1.8,4.67,2.05,7.2.71,7.05-1.87,13.07-5.76,18.7-1.85,2.69-4.04,5.06-7.05,6.4-6.57,2.93-13.34,3.52-20.21,1.11-1.4-.49-2.62-1.49-3.92-2.27-.27-.16-.52-.38-.9-.66ZM69.96,120.72c.06,0,.12,0,.18,0,0,.47.03.94,0,1.41-.04.47-.1.94-.23,1.39-.35,1.15-1.46,1.68-2.5,1.09-1.43-.82-2.95-1.6-3.74-3.17-1.24-2.44-2.64-4.82-3.6-7.37-2.01-5.36-3.23-10.92-3.73-16.64-.28-3.17-1.13-6.19-2.68-9.01-1.2-2.18-2.91-3.67-5.34-4.28-4.37-1.1-8.45-.34-12.27,1.98-.36.22-.67.59-.9.96-1.79,2.95-2.71,6.17-2.41,9.59.47,5.36,2,10.46,4.82,15.06,3.44,5.61,6.93,11.21,10.66,16.63,2.33,3.38,5.04,6.53,7.79,9.59,2.04,2.25,4.82,3.52,7.84,3.82,5.08.51,9.37-1.06,12.52-5.3,1.48-2,3.17-3.85,4.63-5.86,2.31-3.18,4.48-6.45,6.75-9.66,1.76-2.48,3.13-5.17,4.09-8.04,1.77-5.27,3.57-10.54,5.17-15.86,1.84-6.12,3.6-12.27,5.19-18.46,1.46-5.69,1.4-11.33-1.23-16.78-1.33-2.74-3.18-5-5.91-6.28-4.78-2.24-9.29-1.69-13.34,1.87-2.84,2.49-4.76,5.65-6.14,9.07-1.13,2.8-1.83,5.79-2.57,8.74-1.43,5.64-2.47,11.35-2.69,17.19-.12,3.23-.3,6.47-.47,9.7-.14,2.71-.46,5.41-.43,8.12.04,3.51.34,7.01.53,10.51ZM143.49,57.05c-2.94.06-7.34.86-11.59,2.38-4.01,1.43-7.47,3.71-10.12,7.12-.43.55-.46.92.01,1.49.85,1.02,1.73,2.06,2.31,3.23,2.17,4.31,4.05,8.69,4.34,13.65.34,5.82.04,11.55-1.19,17.24-1.35,6.24-3.51,12.29-4.4,18.64-.22,1.56-.65,3.14-.54,4.67.27,3.86,1.61,7.41,3.93,10.51,1.35,1.81,2.99,3.4,4.44,5.14,2.98,3.58,7.03,5.18,11.43,5.79,2.71.37,5.52.25,8.27.13,2.87-.12,5.69-.76,8.05-2.51,1.97-1.46,3.95-2.96,5.68-4.7,3.08-3.1,4.48-6.96,3.84-11.3-.71-4.82-2.93-9.04-6.21-12.63-2.88-3.15-6.25-5.78-9.62-8.4-1.3-1.01-2.72-1.65-4.31-2.03-1.85-.44-3.69-.97-5.52-1.51-.87-.25-1.25-1.12-.68-1.64.7-.64,1.48-1.4,2.35-1.61,2.71-.64,5.1-1.93,7.29-3.5,2.94-2.11,5.77-4.39,8.47-6.8,2.47-2.2,4.06-5.05,4.75-8.3,1.47-6.88.32-13.31-3.49-19.23-.88-1.38-2.09-2.42-3.5-3.24-3.85-2.24-8.06-2.76-14-2.6ZM229.09,97.03c-1.52,0-3.04.03-4.56,0-2.64-.06-5.17-.57-7.46-1.96-2.73-1.66-4.5-5.52-3.99-8.66.71-4.38,4.78-7.92,9.21-8.03,2.77-.07,5.41.49,7.81,1.87,2.06,1.19,4.05,2.49,6.03,3.82,1.66,1.11,3.41,1.43,5.37,1.14,2.51-.37,4.8-1.12,6.1-3.48,1.87-3.41,2.95-7.04,2.5-10.99-.48-4.23-1.77-8.22-3.59-12.04-.73-1.53-1.55-3.14-2.71-4.33-4.28-4.36-9.44-6.87-15.69-6.81-5.31.06-10.2,1.56-14.7,4.35-4.23,2.62-7.69,5.95-9.8,10.55-.31.67-.31,1.16.09,1.83,1.79,3.01,3.48,6.11,3.62,9.7.12,3.17.12,6.36-.11,9.53-.2,2.85-.99,5.61-2.58,8.07-.13.21-.09.65.04.89,1.64,3.07,4.11,5.12,7.43,6.24,2.98,1.01,5.98,2.03,8.84,3.34,2.58,1.18,5.09,2.59,7.42,4.21,2.59,1.8,3.46,5.4,2.36,8.19-.93,2.35-3.17,3.44-5.52,2.51-.93-.36-1.75-1.02-2.57-1.62-1.02-.76-1.96-1.63-2.98-2.39-1.14-.85-2.45-1.28-3.88-1.25-2.15.04-3.77,1.16-3.84,2.92-.07,1.69-.02,3.45.35,5.09.5,2.2,1.3,4.35,2.07,6.48,1.2,3.32,3.56,5.49,6.92,6.51,3.15.95,6.39,1.1,9.62.64,2.86-.41,5.6-1.24,7.99-3.01,4.5-3.33,6.85-8.05,8.42-13.2.89-2.92.73-5.98.1-8.97-1.15-5.41-4.44-8.91-9.68-10.57-2.82-.89-5.73-.84-8.64-.54ZM151.08,102.56c6.94,2.24,12.73,5.69,16.66,11.68.14-.07.2-.09.24-.13.09-.11.17-.22.24-.34,1.34-2.42,3.45-3.79,6.13-4.23,1.66-.27,3.35-.4,5.03-.46,2.69-.08,5.18-.66,7.43-2.22,2.01-1.4,2.99-5.31,1.06-7.39-.99-1.07-2.12-2.01-3.22-2.98-.69-.61-1.54-.78-2.41-.55-1.63.42-3.25.89-4.87,1.33-.75.2-1.48.48-2.24.58-2.41.31-5.53-1.38-6.66-3.55-.56-1.08-.95-2.23-.57-3.44.81-2.59,2.45-4.44,5.07-5.3,2.44-.8,4.85-.5,7.1.62,2.67,1.33,5.26,2.82,7.9,4.22,1.61.86,3.19,1.72,5.01,2.14,5.14,1.18,9.73-2.18,10.07-7.06.21-2.94.15-5.91.02-8.86-.07-1.53-.35-3.11-.88-4.54-1.72-4.61-5.06-7.92-9.28-10.24-2.75-1.52-5.75-2.57-8.65-3.81-.43-.18-.9-.28-1.35-.38-3.74-.85-7.51-.99-11.3-.47-2.67.37-5.27,1.02-7.62,2.43-.55.33-.66.62-.26,1.17,2.19,3.04,3.5,6.47,4.23,10.11,1.22,6.09.81,12.01-2.15,17.59-.79,1.49-1.82,2.84-2.66,4.31-2.57,4.49-6.28,7.6-11.15,9.32-.22.08-.43.21-.89.43ZM186.45,158.25c.39,0,.78.02,1.16,0,.41-.02.82-.1,1.24-.12,5.93-.41,10.71-3.11,14.65-7.41,3.85-4.2,5.79-9.24,6.69-14.82.71-4.39.38-8.56-1.54-12.54-1.4-2.9-3-5.69-6.08-7.22-2.04-1.02-3.54-1-4.91.47-.49.53-1.02,1.01-1.55,1.5-3.33,3.08-6.66,6.16-10,9.24-3.56,3.28-7.67,4.34-12.35,2.99-.63-.18-.91-.07-1.05.58-.84,3.79-2.59,7.16-4.77,10.33-.16.23-.31.57-.26.82.48,2.39,1.09,4.76,2.27,6.91,1.38,2.52,2.97,4.87,5.55,6.35,3.39,1.96,7.09,2.74,10.95,2.94ZM109.71,73.44c-.09,1.73-.03,2.91-.24,4.05-.77,4.18-1.42,8.41-2.53,12.51-1.26,4.64-2.98,9.15-4.49,13.72-1.23,3.71-2.6,7.36-4.99,10.52-.21.28-.43.61-.5.95-.14.62-.4,1.34-.21,1.89.83,2.49,1.59,5.03,2.76,7.36,1.92,3.86,4.82,6.69,9.27,7.61,2.69.56,5.33-.54,6.59-2.98.49-.96.95-1.94,1.32-2.96,2.91-8.05,5.6-16.14,6.4-24.75.48-5.23,1.2-10.45.55-15.72-.48-3.91-1.07-7.81-2.63-11.45-2.2-5.14-5.61-6.73-11.03-6.16-.65.07-.87.3-.76,1.02.26,1.63.39,3.29.51,4.38ZM191.06,96.08c.18.38.32.63.43.9,1.44,3.37,1.92,6.81.14,10.17-1.19,2.25-3.02,3.99-5.17,5.39-1.58,1.03-3.33,1.32-5.16,1.18-1.07-.08-2.14-.25-3.2-.44-1.65-.29-3.21.04-4.68.73-1.19.56-2.03,1.52-2.03,2.9.01,3.05.83,5.87,3.14,7.95,3.09,2.78,5.43,2.58,8.44.19.88-.7,1.57-1.63,2.32-2.48,2.76-3.14,5.56-6.21,8.9-8.79,3.67-2.83,7.46-2.6,11.41-.95,1.11.46,2.99-.1,3.44-1.22.68-1.7,1.96-2.78,3.58-3.51,1.93-.86,3.93-.8,5.82-.01,1.83.76,3.56,1.78,5.33,2.68.49.25.97.53,1.49.72.58.22,1.31.19,1.53-.4.18-.48.03-1.17-.18-1.68-.15-.36-.61-.64-.98-.86-3.17-1.88-6.39-3.65-9.87-4.89-2.63-.94-5.29-1.81-7.86-2.88-2.81-1.17-5.54-2.52-7.72-4.77-.2-.21-.78-.21-1.12-.1-1.66.55-3.34.75-5.07.52-.92-.12-1.84-.23-2.91-.36ZM182.58,92.09c-1.35-1.58-5.55-3.35-7.45-3.16-1.14.11-2.14.55-2.87,1.47-1.06,1.33-.8,2.38.74,3.09,1.32.6,2.63.39,3.97.03,1.68-.45,3.38-.83,5.07-1.25.16-.04.31-.1.54-.18ZM160.94,111.88c-.04.05-.08.11-.12.16.55.52,1.09,1.04,1.64,1.56.03-.03.06-.07.09-.1-.54-.54-1.07-1.08-1.61-1.62Z"/>
      <path d="M154.08,123.86c.03,3.2-1.75,5.77-4.62,6.65-2.01.62-4.07,1.19-6.19.71-.92-.21-1.9-.55-2.65-1.11-2.64-1.97-4.4-4.57-4.93-7.88-.49-3.1,1.07-5.93,3.95-7.22,1.37-.62,2.76-1.13,4.3-.42.47.22,1.09.1,1.64.18,3.73.57,7.84,4.65,8.44,8.36.05.3.05.61.06.72ZM143.42,118.39c-.47.19-1.33.34-1.88.83-.77.69-1.31,1.63-1.92,2.48-.11.16-.16.44-.1.62.32.96.57,1.98,1.06,2.85,1.46,2.59,3.7,3.44,6.48,2.4,2.68-1,3.75-3.09,2.52-5.47-1.21-2.34-3.29-3.39-6.17-3.71Z"/>
      <g>
        <path class="st0" d="M237.73,97.57c-2.82-.89-5.73-.84-8.64-.54-1.52,0-3.04.03-4.56,0-2.64-.06-5.17-.57-7.46-1.96-2.73-1.66-4.5-5.52-3.99-8.66.71-4.38,4.78-7.92,9.21-8.03,2.77-.07,5.41.49,7.81,1.87,2.06,1.19,4.05,2.49,6.03,3.82,1.66,1.11,3.41,1.43,5.37,1.14,2.51-.37,4.8-1.12,6.1-3.48,1.87-3.41,2.95-7.04,2.5-10.99-.48-4.23-1.77-8.22-3.59-12.04-.73-1.53-1.55-3.14-2.71-4.33-4.28-4.36-9.44-6.87-15.69-6.81-5.31.06-10.2,1.56-14.7,4.35-4.23,2.62-7.69,5.95-9.8,10.55-.31.67-.31,1.16.09,1.83,1.79,3.01,3.48,6.11,3.62,9.7.12,3.17.12,6.36-.11,9.53-.2,2.85-.99,5.61-2.58,8.07-.13.21-.09.65.04.89,1.64,3.07,4.11,5.12,7.43,6.24,2.98,1.01,5.98,2.03,8.84,3.34,2.58,1.18,5.09,2.59,7.42,4.21,2.59,1.8,3.46,5.4,2.36,8.19-.93,2.35-3.17,3.44-5.52,2.51-.93-.36-1.75-1.02-2.57-1.62-1.02-.76-1.96-1.63-2.98-2.39-1.14-.85-2.45-1.28-3.88-1.25-2.15.04-3.77,1.16-3.84,2.92-.07,1.69-.02,3.45.35,5.09.5,2.2,1.3,4.35,2.07,6.48,1.2,3.32,3.56,5.49,6.92,6.51,3.15.95,6.39,1.1,9.62.64,2.86-.41,5.6-1.24,7.99-3.01,4.5-3.33,6.85-8.05,8.42-13.2.89-2.92.73-5.98.1-8.97-1.15-5.41-4.44-8.91-9.68-10.57ZM230.55,56c.16.13.33.26.49.38-.17-.12-.33-.25-.49-.38ZM238.57,66.31s0,0,0-.01c0,0,0,0,0,.01ZM238.49,69.17c0,.4,0,.8,0,1.2,0-.4,0-.8,0-1.2ZM245.06,74.94c-.23.32-.5.57-.82.76.32-.19.6-.44.82-.76.25-.35.44-.77.57-1.29.1-.39.18-.79.24-1.2-.06.4-.14.81-.24,1.2-.13.51-.32.94-.57,1.29ZM246,71.31c-.01.14-.02.28-.04.42.01-.14.03-.28.04-.42ZM228.4,53.15c-.06.13-.13.26-.19.38h0c.06-.13.13-.26.19-.38ZM242.8,105.93c-.27-.31-.56-.6-.85-.89.3.29.59.58.85.89ZM242.43,108.78c.27.97.33,2.02.15,3.17-.09.58-.21,1.14-.35,1.69.14-.55.26-1.12.35-1.69.18-1.15.12-2.19-.15-3.17ZM239.46,103.51c.3.1.65.13.93.25-.28-.12-.63-.16-.93-.25-.07.1-.13.2-.2.3.25.31.5.63.75.95-.25-.31-.5-.63-.75-.95.07-.1.13-.2.2-.3ZM240.14,118.78c.25-.45.49-.9.71-1.36-.22.46-.45.91-.71,1.36-.22.4-.62.71-1.01,1,.38-.29.78-.61,1.01-1ZM242.17,113.87c-.09.35-.2.7-.31,1.05.11-.35.22-.69.31-1.05ZM241.6,115.64c-.06.17-.13.35-.2.52.07-.17.14-.34.2-.52ZM236.64,121.62s-.06.06-.09.09c.03-.03.06-.06.09-.09ZM236.14,123.19c-.24-.6.03-1.09.4-1.48-.37.39-.64.87-.4,1.48.23.59.72.8,1.23.85-.51-.05-1-.27-1.23-.85ZM242.01,122.4c.08-.09.15-.18.23-.28.43-.6.82-1.25,1.17-1.92-.35.67-.74,1.32-1.17,1.92-.07.1-.15.19-.23.28ZM244.61,117.51c-.08.2-.16.4-.24.6-.13.31-.26.62-.4.93.14-.31.27-.62.4-.93.08-.2.16-.4.24-.6.1-.26.19-.52.27-.78-.08.26-.17.52-.27.78ZM245,116.34c.98-3.35.61-6.53-1.43-9.42-.16-.22-.32-.44-.5-.66.18.22.34.44.5.66,2.04,2.89,2.41,6.07,1.43,9.42Z"/>
        <path class="st0" d="M167.93,70.91c1.22,6.09.81,12.01-2.15,17.59-.79,1.49-1.82,2.84-2.66,4.31-2.57,4.49-6.28,7.6-11.15,9.32-.22.08-.43.21-.89.43,6.94,2.24,12.73,5.69,16.66,11.68.14-.07.2-.09.24-.13.09-.11.17-.22.24-.34,1.34-2.42,3.45-3.79,6.13-4.23,1.66-.27,3.35-.4,5.03-.46,2.69-.08,5.18-.66,7.43-2.22,2.01-1.4,2.99-5.31,1.06-7.39-.99-1.07-2.12-2.01-3.22-2.98-.69-.61-1.54-.78-2.41-.55-1.63.42-3.25.89-4.87,1.33-.75.2-1.48.48-2.24.58-2.41.31-5.53-1.38-6.66-3.55-.56-1.08-.95-2.23-.57-3.44.81-2.59,2.45-4.44,5.07-5.3,2.44-.8,4.85-.5,7.1.62,2.67,1.33,5.26,2.82,7.9,4.22,1.61.86,3.19,1.72,5.01,2.14,5.14,1.18,9.73-2.18,10.07-7.06.21-2.94.15-5.91.02-8.86-.07-1.53-.35-3.11-.88-4.54-1.72-4.61-5.06-7.92-9.28-10.24-2.75-1.52-5.75-2.57-8.65-3.81-.43-.18-.9-.28-1.35-.38-3.74-.85-7.51-.99-11.3-.47-2.67.37-5.27,1.02-7.62,2.43-.55.33-.66.62-.26,1.17,2.19,3.04,3.5,6.47,4.23,10.11ZM179.83,99.78h0c.4.17.79.37,1.21.49.05.01.09.03.14.04-.05-.01-.09-.02-.14-.04-.42-.12-.81-.32-1.21-.49ZM184.44,101.78c-.24-.11-.41-.36-.6-.57.19.21.37.46.6.57.11.05.23.1.36.14-.13-.04-.25-.09-.36-.14ZM185.87,102c-.14.06-.31.08-.49.06.18.02.36,0,.49-.06.24-.12.42-.38.56-.62-.14.25-.31.51-.56.62ZM186.52,101.21c.06-.1.11-.2.15-.27h0c-.05.07-.1.16-.15.27ZM186.56,100.28c-.13-.46-.36-.79-.63-1.07.28.28.5.61.63,1.07ZM183.33,97.9c-.2-.04-.4-.06-.6-.07.2.01.4.04.6.07ZM182.7,97.83c-.67-.03-1.31.09-1.83.36.52-.28,1.16-.4,1.83-.36ZM177.67,62.06s0-.05,0-.08c0,.03,0,.05,0,.08.02.01.05.03.07.04.04.02.07.05.11.07-.04-.02-.07-.04-.11-.07-.02-.02-.04-.03-.07-.04ZM185.42,65.28c-2.42-1.19-4.82-2.42-7.48-3.06,0,0-.02,0-.03-.01,0,0,.02,0,.03.01,2.65.64,5.06,1.87,7.48,3.06.6.3,1.21.59,1.82.88-.61-.28-1.22-.58-1.82-.88ZM192.28,76.82c.04-.45.08-.91.12-1.36-.03.46-.07.91-.12,1.36-.04.42-.09.85-.15,1.27.05-.42.11-.85.15-1.27ZM192.38,71.83c.02.1.03.2.04.29-.01-.1-.03-.2-.04-.29ZM191.65,69.7c.08.15.16.3.23.46-.07-.16-.15-.31-.23-.46ZM191.79,81.04c-.01.19-.03.37-.04.56,0,.1,0,.2,0,.3,0-.1,0-.2,0-.3,0-.19.02-.37.04-.56ZM191.75,81.9c0,.1.01.2.03.3-.01-.1-.02-.2-.03-.3ZM188.66,66.84c.44.24.84.51,1.21.8-.37-.29-.78-.56-1.21-.8ZM190.57,68.26s.01.01.02.02c0,0-.01-.01-.02-.02ZM191.92,82.85c-.04-.12-.07-.24-.1-.36.03.12.06.24.1.36ZM193.98,85.31c-.37-.14-.74-.4-1.06-.74.32.34.69.6,1.06.74.42.15.87.21,1.32.17-.45.04-.9-.02-1.32-.17ZM195.34,85.47c.15-.01.31-.04.46-.08-.15.04-.31.06-.46.08ZM195.94,85.36c.12-.03.25-.07.37-.12-.12.05-.25.09-.37.12ZM195.76,68.74c.19.22.38.45.56.68-.18-.23-.37-.46-.56-.68ZM197.14,70.59c.1.15.19.3.29.46-.09-.16-.19-.31-.29-.46ZM197.99,72.06c.16.31.3.63.45.96-.14-.33-.29-.65-.45-.96ZM199.68,81.05c.12-.55.18-1.11.18-1.7,0,.59-.06,1.16-.18,1.7ZM198.42,83.64c.14-.18.27-.36.39-.54-.12.18-.25.37-.39.54ZM199.82,78.49c-.01-.12-.02-.25-.04-.38-.13-1.13-.36-2.21-.66-3.22.31,1.02.53,2.09.66,3.22.01.13.03.25.04.38ZM194.97,67.88s-.01-.01-.02-.02c0,0,.01.01.02.02ZM193.43,66.51c-.4-.31-.81-.61-1.24-.88.42.28.84.57,1.24.88ZM186.88,63.34c1.73.42,3.39,1.11,4.92,2.04-1.53-.93-3.19-1.62-4.92-2.04-.18-.05-.37-.09-.55-.14.18.05.37.1.55.14ZM181.57,62.02c-1.01-.14-2.03-.19-3.04-.29,1.01.09,2.03.15,3.04.29ZM178.08,61.76c-.14.02-.27.05-.41.07h0c.13-.02.27-.05.41-.07Z"/>
        <path class="st0" d="M123.61,85.66c-.48-3.91-1.07-7.81-2.63-11.45-2.2-5.14-5.61-6.73-11.03-6.16-.65.07-.87.3-.76,1.02.26,1.63.39,3.29.51,4.38-.09,1.73-.03,2.91-.24,4.05-.78,4.18-1.42,8.41-2.53,12.51-1.26,4.64-2.98,9.15-4.49,13.72-1.23,3.71-2.6,7.36-4.99,10.52-.21.28-.43.61-.5.95-.14.62-.4,1.34-.21,1.89.83,2.49,1.59,5.03,2.76,7.36,1.92,3.86,4.82,6.69,9.27,7.61,2.69.56,5.33-.54,6.59-2.98.49-.96.95-1.94,1.32-2.96,2.91-8.05,5.6-16.14,6.4-24.75.48-5.23,1.2-10.45.55-15.72ZM115.92,74.68c.74.99,1.3,2.04,1.73,3.15-.43-1.1-.99-2.15-1.73-3.15-.38-.51-.81-.93-1.28-1.29.48.35.91.78,1.28,1.29ZM114.11,110.37c-.09.98-.19,1.96-.29,2.93.1-.98.2-1.96.29-2.93.15-1.67.32-3.34.45-5.01-.13,1.67-.3,3.34-.45,5.01ZM113.49,116.67s0-.08,0-.12c.04-.48.09-.95.14-1.43-.05.48-.09.95-.14,1.43,0,.04,0,.08,0,.12ZM114.34,78.86c.18.54.33,1.09.42,1.64.08.49.16.98.22,1.47-.06-.49-.14-.98-.22-1.47-.09-.55-.24-1.1-.42-1.64ZM115.27,86.93c.01-.8,0-1.61-.05-2.42.05.81.07,1.62.05,2.42-.07,4.5-.23,9-.43,13.49.2-4.5.36-8.99.43-13.49ZM114,72.98c-.3-.16-.61-.3-.94-.41.33.11.65.25.94.41ZM111.08,72.81s-.04.07-.07.11c-.05.09-.08.17-.09.24.02-.08.05-.16.09-.24.02-.04.04-.08.07-.11ZM111.52,74.35c-.08-.09-.17-.18-.25-.27.08.09.17.18.25.27.22.23.47.45.71.67-.24-.22-.49-.44-.71-.67ZM113.17,76.12s.05.08.07.11c.16.34.32.68.48,1.03-.15-.35-.31-.69-.48-1.03-.02-.04-.04-.08-.07-.11ZM113.66,117.52s.09,0,.14.01c-.05,0-.09,0-.14-.01h0ZM114.99,114.94c-.08.44-.2.86-.35,1.27.15-.41.27-.84.35-1.27.85-4.48,1.99-8.89,2.75-13.39-.76,4.5-1.9,8.91-2.75,13.39ZM118.92,89.66c.1-2.45.07-4.9-.22-7.36-.14-1.21-.37-2.39-.72-3.52.35,1.13.58,2.31.72,3.52.29,2.46.32,4.92.22,7.36Z"/>
        <path class="st0" d="M102.21,78.59c1.46-5.69,1.4-11.33-1.23-16.78-1.33-2.74-3.18-5-5.91-6.28-4.78-2.24-9.29-1.69-13.34,1.87-2.84,2.49-4.76,5.65-6.14,9.07-1.13,2.8-1.83,5.79-2.57,8.74-1.43,5.64-2.47,11.35-2.69,17.19-.12,3.23-.3,6.47-.47,9.7-.14,2.71-.46,5.41-.43,8.12.04,3.51.34,7.01.53,10.51.06,0,.12,0,.18,0,0,.47.03.94,0,1.41-.04.47-.1.94-.23,1.39-.35,1.15-1.46,1.68-2.5,1.09-1.43-.82-2.95-1.6-3.74-3.17-1.24-2.44-2.64-4.82-3.6-7.37-2.01-5.36-3.23-10.92-3.73-16.64-.28-3.17-1.13-6.19-2.68-9.01-1.2-2.18-2.91-3.67-5.34-4.28-4.37-1.1-8.45-.34-12.27,1.98-.36.22-.67.59-.9.96-1.79,2.95-2.71,6.17-2.41,9.59.47,5.36,2,10.46,4.82,15.06,3.44,5.61,6.93,11.21,10.66,16.63,2.33,3.38,5.04,6.53,7.79,9.59,2.04,2.25,4.82,3.52,7.84,3.82,5.08.51,9.37-1.06,12.52-5.3,1.48-2,3.17-3.85,4.63-5.86,2.31-3.18,4.48-6.45,6.75-9.66,1.76-2.48,3.13-5.17,4.09-8.04,1.77-5.27,3.57-10.54,5.17-15.86,1.84-6.12,3.6-12.27,5.19-18.46Z"/>
        <path class="st0" d="M167.95,128.54c-.71-4.82-2.93-9.04-6.21-12.63-2.88-3.15-6.25-5.78-9.62-8.4-1.3-1.01-2.72-1.65-4.31-2.03-1.85-.44-3.69-.97-5.52-1.51-.87-.25-1.25-1.12-.68-1.64.7-.64,1.48-1.4,2.35-1.61,2.71-.64,5.1-1.93,7.29-3.5,2.94-2.11,5.77-4.39,8.47-6.8,2.47-2.2,4.06-5.05,4.75-8.3,1.47-6.88.32-13.31-3.49-19.23-.88-1.38-2.09-2.42-3.5-3.24-3.85-2.24-8.06-2.76-14-2.6-2.94.06-7.34.86-11.59,2.38-4.01,1.43-7.47,3.71-10.12,7.12-.43.55-.46.92.01,1.49.85,1.02,1.73,2.06,2.31,3.23,2.17,4.31,4.05,8.69,4.34,13.65.34,5.82.04,11.55-1.19,17.24-1.35,6.24-3.51,12.29-4.4,18.64-.22,1.56-.65,3.14-.54,4.67.27,3.86,1.61,7.41,3.93,10.51,1.35,1.81,2.99,3.4,4.44,5.14,2.98,3.58,7.03,5.18,11.43,5.79,2.71.37,5.52.25,8.27.13,2.87-.12,5.69-.76,8.05-2.51,1.97-1.46,3.95-2.96,5.68-4.7,3.08-3.1,4.48-6.96,3.84-11.3ZM160.38,70.44c.02.38,0,.76,0,1.13,0-.38.02-.76,0-1.13ZM158.06,70.9c.1.37.19.75.27,1.13-.08-.38-.17-.75-.27-1.13ZM159,75.32c.09.15.19.29.29.43-.1-.14-.2-.29-.29-.43ZM159.43,75.96c.14-.2.31-.38.46-.58-.14.19-.32.38-.46.58ZM157.89,63.66c-.72-.89-1.59-1.69-2.65-2.39,1.06.7,1.94,1.5,2.65,2.39ZM134.08,82.21c-2.22-3.71-1.29-7.96,2.36-10.29,1.27-.81,2.68-1.42,4.08-1.99,1.65-.68,3.24-.23,4.66.67,2.68,1.7,3.91,4.26,4.09,7.07-.09,5.22-5.88,11.29-12.05,8.15-.79-.4-1.4-1.19-2-1.88-.45-.51-.78-1.14-1.13-1.73ZM149.46,130.51c-2.01.62-4.07,1.19-6.19.71-.92-.21-1.9-.55-2.65-1.11-2.64-1.97-4.4-4.57-4.93-7.88-.49-3.1,1.07-5.93,3.95-7.22,1.37-.62,2.76-1.13,4.3-.42.47.22,1.09.1,1.64.18,3.73.57,7.84,4.65,8.44,8.36.05.3.05.61.06.72.03,3.2-1.75,5.77-4.62,6.65Z"/>
        <path class="st0" d="M202.56,116.11c-2.04-1.02-3.54-1-4.91.47-.49.53-1.02,1.01-1.55,1.5-3.33,3.08-6.66,6.16-10,9.24-3.56,3.28-7.67,4.34-12.35,2.99-.63-.18-.91-.07-1.05.58-.84,3.79-2.59,7.16-4.77,10.33-.16.23-.31.57-.26.82.48,2.39,1.09,4.76,2.27,6.91,1.38,2.52,2.97,4.87,5.55,6.35,3.39,1.96,7.09,2.74,10.95,2.94.39,0,.78.02,1.16,0,.41-.02.82-.1,1.24-.12,5.93-.41,10.71-3.11,14.65-7.41,3.85-4.2,5.79-9.24,6.69-14.82.71-4.39.38-8.56-1.54-12.54-1.4-2.9-3-5.69-6.08-7.22Z"/>
      </g>
    </g>
  </g>
  <g>
    <path class="st0" d="M52.45,198.28c1.13.73,2.24,1.3,3.35,1.72,1.11.42,2.14.63,3.1.63s1.62-.13,2.1-.39c.48-.26.72-.65.72-1.17,0-.27-.1-.49-.31-.64-.21-.16-.49-.29-.83-.39-.34-.1-.75-.19-1.21-.25-.46-.06-.93-.15-1.41-.25-.46-.08-1-.18-1.61-.3s-1.25-.28-1.89-.5c-.65-.22-1.29-.49-1.92-.83-.64-.33-1.2-.76-1.71-1.28-.5-.52-.9-1.14-1.21-1.86-.3-.72-.45-1.57-.45-2.55,0-1.44.28-2.63.84-3.57s1.28-1.69,2.14-2.24c.87-.55,1.83-.94,2.89-1.16,1.06-.22,2.1-.33,3.1-.33,1.75,0,3.32.26,4.71.77,1.39.51,2.72,1.26,3.99,2.24.17.15.26.32.28.53s-.03.4-.16.56l-2.44,3.47c-.13.17-.29.27-.5.31-.21.04-.4,0-.56-.13-1.06-.67-2.06-1.14-2.97-1.42-.92-.28-1.76-.42-2.53-.42-.23,0-.5,0-.8.02-.3.01-.59.05-.86.13-.27.07-.5.19-.67.36-.18.17-.27.4-.27.69s.22.55.66.78c.44.23.94.43,1.5.59.56.17,1.11.3,1.63.39.52.09.86.15,1,.17.75.15,1.58.36,2.47.64.9.28,1.74.7,2.52,1.25.78.55,1.44,1.27,1.97,2.16.53.89.8,2,.8,3.33,0,1.25-.22,2.33-.66,3.24s-1.05,1.65-1.83,2.24c-.78.58-1.72,1.02-2.82,1.3-1.1.28-2.31.42-3.65.42-1.09,0-2.1-.09-3.04-.27-.94-.18-1.82-.42-2.63-.73-.81-.31-1.57-.68-2.27-1.11-.7-.43-1.34-.88-1.92-1.36-.17-.13-.26-.3-.28-.52-.02-.22.03-.41.16-.58l2.41-3.47c.13-.17.29-.27.5-.31.21-.04.4-.01.56.09Z"/>
    <path class="st0" d="M86.12,188.98h-4.38c-.21,0-.39.07-.53.22-.15.15-.22.32-.22.53v15.65c0,.21-.07.39-.2.53-.14.15-.32.22-.55.22h-4.7c-.21,0-.39-.07-.53-.22-.15-.15-.22-.32-.22-.53v-15.65c0-.21-.07-.38-.2-.53-.14-.15-.32-.22-.55-.22h-4.44c-.21,0-.39-.07-.53-.22-.15-.15-.22-.32-.22-.53v-4.26c0-.21.07-.39.22-.53.15-.15.32-.22.53-.22h16.52c.23,0,.41.07.55.22.14.15.2.32.2.53v4.26c0,.21-.07.39-.2.53-.14.15-.32.22-.55.22Z"/>
    <path class="st0" d="M93.01,203.13c0,.44-.08.86-.25,1.25-.17.4-.4.74-.69,1.03s-.64.52-1.03.69c-.4.17-.81.25-1.25.25s-.85-.08-1.24-.25c-.39-.17-.73-.4-1.02-.69s-.52-.64-.69-1.03c-.17-.4-.25-.81-.25-1.25s.08-.84.25-1.22c.17-.38.4-.71.69-1s.63-.52,1.02-.69c.39-.17.8-.25,1.24-.25s.86.08,1.25.25c.4.17.74.4,1.03.69s.52.63.69,1c.17.38.25.78.25,1.22Z"/>
    <path class="st0" d="M132.7,184v21.38c0,.21-.07.39-.22.53-.15.15-.32.22-.53.22h-4.7c-.21,0-.38-.07-.53-.22-.15-.15-.22-.32-.22-.53v-10.08c0-.21-.09-.32-.28-.34s-.35.05-.47.22l-5.27,8.48c-.1.17-.27.25-.5.25s-.41-.08-.53-.25l-5.27-8.48c-.1-.17-.25-.24-.44-.22-.19.02-.28.13-.28.34v10.08c0,.21-.07.39-.22.53-.15.15-.32.22-.53.22h-4.7c-.21,0-.38-.07-.53-.22-.15-.15-.22-.32-.22-.53v-21.38c0-.21.07-.39.22-.53.15-.15.32-.22.53-.22h4.36c.21,0,.43.06.65.19s.39.27.5.44l6.02,8.82c.13.17.27.25.44.25s.3-.08.41-.25l6.02-8.82c.12-.17.3-.31.53-.44s.45-.19.65-.19h4.36c.21,0,.38.07.53.22.15.15.22.32.22.53Z"/>
    <path class="st0" d="M144.65,183.94c.08-.19.22-.35.42-.49.2-.13.41-.2.64-.2h4.38c.21,0,.41.07.61.2.2.14.34.3.42.49l9.14,21.28c.08.19.07.39-.05.59-.11.21-.34.31-.67.31h-5.35c-.23,0-.44-.07-.64-.2-.2-.14-.35-.3-.45-.49l-.84-1.88c-.1-.19-.26-.35-.45-.48-.2-.14-.4-.2-.61-.2h-6.6c-.23,0-.44.07-.64.2-.2.13-.34.3-.42.48l-.88,1.88c-.08.19-.23.35-.42.49-.2.13-.4.2-.61.2h-5.38c-.1,0-.21-.02-.33-.06s-.21-.1-.28-.19c-.07-.08-.12-.19-.14-.31-.02-.13.01-.27.09-.44l9.08-21.19ZM146.5,197.56h2.79c.21,0,.36-.07.45-.2.09-.14.09-.3-.02-.48-.21-.52-.46-1.13-.75-1.83-.29-.7-.56-1.35-.81-1.96-.08-.19-.18-.28-.28-.28s-.2.09-.28.28l-1.56,3.79c-.08.19-.08.35,0,.48.08.14.24.2.47.2Z"/>
    <path class="st0" d="M167.34,206.13h-4.69c-.21,0-.39-.07-.54-.22s-.22-.32-.22-.53v-21.41c0-.21.07-.39.22-.53.15-.15.32-.22.53-.22h9.73c1.21,0,2.33.2,3.35.61s1.89.98,2.61,1.71c.72.73,1.28,1.6,1.69,2.6.41,1,.61,2.11.61,3.32,0,.67-.08,1.33-.23,1.99-.16.66-.38,1.28-.67,1.86-.29.58-.64,1.11-1.03,1.58-.4.47-.85.86-1.35,1.17-.17.13-.28.28-.33.45-.05.18-.02.35.11.52.79,1.04,1.63,2.12,2.5,3.22.88,1.11,1.66,2.12,2.35,3.04.13.17.16.35.09.55s-.2.3-.41.3h-5.82c-.21,0-.43-.06-.67-.17-.24-.11-.42-.26-.55-.42-.66-.88-1.32-1.76-1.98-2.66-.65-.9-1.3-1.8-1.95-2.72-.13-.17-.3-.31-.53-.42-.23-.11-.45-.17-.65-.17h-.68c-.21,0-.38.07-.53.22-.15.15-.22.32-.22.53v5.07c0,.21-.08.39-.22.53s-.33.22-.53.22ZM168.84,193.8h3.3c.25,0,.51-.05.78-.14.27-.09.52-.24.75-.44.23-.2.42-.44.56-.73.14-.29.22-.64.22-1.03,0-.21-.04-.45-.11-.73s-.2-.55-.37-.81c-.18-.26-.42-.48-.72-.66-.3-.18-.67-.27-1.11-.27h-3.3c-.21,0-.38.07-.53.22-.15.15-.22.32-.22.53v3.32c0,.21.07.39.22.53.14.15.32.22.53.22Z"/>
    <path class="st0" d="M200.02,188.98h-4.38c-.21,0-.39.07-.53.22s-.22.32-.22.53v15.65c0,.21-.07.39-.2.53-.14.15-.32.22-.55.22h-4.69c-.21,0-.39-.07-.53-.22-.15-.15-.22-.32-.22-.53v-15.65c0-.21-.07-.38-.2-.53-.14-.15-.32-.22-.55-.22h-4.44c-.21,0-.39-.07-.53-.22s-.22-.32-.22-.53v-4.26c0-.21.07-.39.22-.53s.32-.22.53-.22h16.53c.23,0,.41.07.55.22.13.15.2.32.2.53v4.26c0,.21-.07.39-.2.53-.14.15-.32.22-.55.22Z"/>
    <path class="st0" d="M209.5,206.13h-4.7c-.23,0-.41-.07-.55-.22-.13-.15-.2-.32-.2-.53v-21.38c0-.21.07-.39.2-.53.14-.15.32-.22.55-.22h4.7c.21,0,.38.07.53.22.15.15.22.32.22.53v21.38c0,.21-.07.39-.22.53-.14.15-.32.22-.53.22Z"/>
    <path class="st0" d="M236.6,183.97v21.41c0,.21-.07.39-.22.53-.14.15-.32.22-.53.22h-4.62c-.21,0-.43-.06-.66-.19-.23-.13-.41-.27-.53-.44l-8.15-11.49c-.13-.17-.26-.23-.39-.2-.14.03-.2.15-.2.36v11.2c0,.21-.08.39-.22.53s-.33.22-.53.22h-4.69c-.21,0-.39-.07-.54-.22s-.22-.32-.22-.53v-21.41c0-.21.07-.39.22-.53.15-.15.32-.22.53-.22h4.69c.21,0,.43.06.66.17.23.12.41.26.53.42l8.14,11.49c.13.17.26.24.39.22.13-.02.2-.13.2-.34v-11.2c0-.21.07-.39.22-.53s.32-.22.53-.22h4.63c.21,0,.39.07.53.22s.22.32.22.53Z"/>
    <path class="st1" d="M50.5,196.14c1.13.73,2.24,1.3,3.35,1.72,1.11.42,2.14.63,3.1.63s1.62-.13,2.1-.39c.48-.26.72-.65.72-1.17,0-.27-.1-.49-.31-.64-.21-.16-.49-.29-.83-.39-.34-.1-.75-.19-1.21-.25-.46-.06-.93-.15-1.41-.25-.46-.08-1-.18-1.61-.3s-1.25-.28-1.89-.5c-.65-.22-1.29-.49-1.92-.83-.64-.33-1.2-.76-1.71-1.28-.5-.52-.9-1.14-1.21-1.86-.3-.72-.45-1.57-.45-2.55,0-1.44.28-2.63.84-3.57s1.28-1.69,2.14-2.24c.87-.55,1.83-.94,2.89-1.16,1.06-.22,2.1-.33,3.1-.33,1.75,0,3.32.26,4.71.77,1.39.51,2.72,1.26,3.99,2.24.17.15.26.32.28.53s-.03.4-.16.56l-2.44,3.47c-.13.17-.29.27-.5.31-.21.04-.4,0-.56-.13-1.06-.67-2.06-1.14-2.97-1.42-.92-.28-1.76-.42-2.53-.42-.23,0-.5,0-.8.02-.3.01-.59.05-.86.13-.27.07-.5.19-.67.36-.18.17-.27.4-.27.69s.22.55.66.78c.44.23.94.43,1.5.59.56.17,1.11.3,1.63.39.52.09.86.15,1,.17.75.15,1.58.36,2.47.64.9.28,1.74.7,2.52,1.25.78.55,1.44,1.27,1.97,2.16.53.89.8,2,.8,3.33,0,1.25-.22,2.33-.66,3.24s-1.05,1.65-1.83,2.24c-.78.58-1.72,1.02-2.82,1.3-1.1.28-2.31.42-3.65.42-1.09,0-2.1-.09-3.04-.27-.94-.18-1.82-.42-2.63-.73-.81-.31-1.57-.68-2.27-1.11-.7-.43-1.34-.88-1.92-1.36-.17-.13-.26-.3-.28-.52-.02-.22.03-.41.16-.58l2.41-3.47c.13-.17.29-.27.5-.31.21-.04.4-.01.56.09Z"/>
    <path class="st1" d="M84.17,186.84h-4.38c-.21,0-.39.07-.53.22-.15.15-.22.32-.22.53v15.65c0,.21-.07.39-.2.53-.14.15-.32.22-.55.22h-4.7c-.21,0-.39-.07-.53-.22-.15-.15-.22-.32-.22-.53v-15.65c0-.21-.07-.38-.2-.53-.14-.15-.32-.22-.55-.22h-4.44c-.21,0-.39-.07-.53-.22-.15-.15-.22-.32-.22-.53v-4.26c0-.21.07-.39.22-.53.15-.15.32-.22.53-.22h16.52c.23,0,.41.07.55.22.14.15.2.32.2.53v4.26c0,.21-.07.39-.2.53-.14.15-.32.22-.55.22Z"/>
    <path class="st1" d="M91.06,200.99c0,.44-.08.86-.25,1.25-.17.4-.4.74-.69,1.03s-.64.52-1.03.69c-.4.17-.81.25-1.25.25s-.85-.08-1.24-.25c-.39-.17-.73-.4-1.02-.69s-.52-.64-.69-1.03c-.17-.4-.25-.81-.25-1.25s.08-.84.25-1.22c.17-.38.4-.71.69-1s.63-.52,1.02-.69c.39-.17.8-.25,1.24-.25s.86.08,1.25.25c.4.17.74.4,1.03.69s.52.63.69,1c.17.38.25.78.25,1.22Z"/>
    <path class="st1" d="M130.74,181.87v21.38c0,.21-.07.39-.22.53-.15.15-.32.22-.53.22h-4.7c-.21,0-.38-.07-.53-.22-.15-.15-.22-.32-.22-.53v-10.08c0-.21-.09-.32-.28-.34s-.35.05-.47.22l-5.27,8.48c-.1.17-.27.25-.5.25s-.41-.08-.53-.25l-5.27-8.48c-.1-.17-.25-.24-.44-.22-.19.02-.28.13-.28.34v10.08c0,.21-.07.39-.22.53-.15.15-.32.22-.53.22h-4.7c-.21,0-.38-.07-.53-.22-.15-.15-.22-.32-.22-.53v-21.38c0-.21.07-.39.22-.53.15-.15.32-.22.53-.22h4.36c.21,0,.43.06.65.19s.39.27.5.44l6.02,8.82c.13.17.27.25.44.25s.3-.08.41-.25l6.02-8.82c.12-.17.3-.31.53-.44s.45-.19.65-.19h4.36c.21,0,.38.07.53.22.15.15.22.32.22.53Z"/>
    <path class="st1" d="M142.7,181.8c.08-.19.22-.35.42-.49.2-.13.41-.2.64-.2h4.38c.21,0,.41.07.61.2.2.14.34.3.42.49l9.14,21.28c.08.19.07.39-.05.59-.11.21-.34.31-.67.31h-5.35c-.23,0-.44-.07-.64-.2-.2-.14-.35-.3-.45-.49l-.84-1.88c-.1-.19-.26-.35-.45-.48-.2-.14-.4-.2-.61-.2h-6.6c-.23,0-.44.07-.64.2-.2.13-.34.3-.42.48l-.88,1.88c-.08.19-.23.35-.42.49-.2.13-.4.2-.61.2h-5.38c-.1,0-.21-.02-.33-.06s-.21-.1-.28-.19c-.07-.08-.12-.19-.14-.31-.02-.13.01-.27.09-.44l9.08-21.19ZM144.55,195.42h2.79c.21,0,.36-.07.45-.2.09-.14.09-.3-.02-.48-.21-.52-.46-1.13-.75-1.83-.29-.7-.56-1.35-.81-1.96-.08-.19-.18-.28-.28-.28s-.2.09-.28.28l-1.56,3.79c-.08.19-.08.35,0,.48.08.14.24.2.47.2Z"/>
    <path class="st1" d="M165.39,203.99h-4.69c-.21,0-.39-.07-.54-.22s-.22-.32-.22-.53v-21.41c0-.21.07-.39.22-.53.15-.15.32-.22.53-.22h9.73c1.21,0,2.33.2,3.35.61s1.89.98,2.61,1.71c.72.73,1.28,1.6,1.69,2.6.41,1,.61,2.11.61,3.32,0,.67-.08,1.33-.23,1.99-.16.66-.38,1.28-.67,1.86-.29.58-.64,1.11-1.03,1.58-.4.47-.85.86-1.35,1.17-.17.13-.28.28-.33.45-.05.18-.02.35.11.52.79,1.04,1.63,2.12,2.5,3.22.88,1.11,1.66,2.12,2.35,3.04.13.17.16.35.09.55s-.2.3-.41.3h-5.82c-.21,0-.43-.06-.67-.17-.24-.11-.42-.26-.55-.42-.66-.88-1.32-1.76-1.98-2.66-.65-.9-1.3-1.8-1.95-2.72-.13-.17-.3-.31-.53-.42-.23-.11-.45-.17-.65-.17h-.68c-.21,0-.38.07-.53.22-.15.15-.22.32-.22.53v5.07c0,.21-.08.39-.22.53s-.33.22-.53.22ZM166.89,191.66h3.3c.25,0,.51-.05.78-.14.27-.09.52-.24.75-.44.23-.2.42-.44.56-.73.14-.29.22-.64.22-1.03,0-.21-.04-.45-.11-.73s-.2-.55-.37-.81c-.18-.26-.42-.48-.72-.66-.3-.18-.67-.27-1.11-.27h-3.3c-.21,0-.38.07-.53.22-.15.15-.22.32-.22.53v3.32c0,.21.07.39.22.53.14.15.32.22.53.22Z"/>
    <path class="st1" d="M198.07,186.84h-4.38c-.21,0-.39.07-.53.22s-.22.32-.22.53v15.65c0,.21-.07.39-.2.53-.14.15-.32.22-.55.22h-4.69c-.21,0-.39-.07-.53-.22-.15-.15-.22-.32-.22-.53v-15.65c0-.21-.07-.38-.2-.53-.14-.15-.32-.22-.55-.22h-4.44c-.21,0-.39-.07-.53-.22s-.22-.32-.22-.53v-4.26c0-.21.07-.39.22-.53s.32-.22.53-.22h16.53c.23,0,.41.07.55.22.13.15.2.32.2.53v4.26c0,.21-.07.39-.2.53-.14.15-.32.22-.55.22Z"/>
    <path class="st1" d="M207.55,203.99h-4.7c-.23,0-.41-.07-.55-.22-.13-.15-.2-.32-.2-.53v-21.38c0-.21.07-.39.2-.53.14-.15.32-.22.55-.22h4.7c.21,0,.38.07.53.22.15.15.22.32.22.53v21.38c0,.21-.07.39-.22.53-.14.15-.32.22-.53.22Z"/>
    <path class="st1" d="M234.65,181.83v21.41c0,.21-.07.39-.22.53-.14.15-.32.22-.53.22h-4.62c-.21,0-.43-.06-.66-.19-.23-.13-.41-.27-.53-.44l-8.15-11.49c-.13-.17-.26-.23-.39-.2-.14.03-.2.15-.2.36v11.2c0,.21-.08.39-.22.53s-.33.22-.53.22h-4.69c-.21,0-.39-.07-.54-.22s-.22-.32-.22-.53v-21.41c0-.21.07-.39.22-.53.15-.15.32-.22.53-.22h4.69c.21,0,.43.06.66.17.23.12.41.26.53.42l8.14,11.49c.13.17.26.24.39.22.13-.02.2-.13.2-.34v-11.2c0-.21.07-.39.22-.53s.32-.22.53-.22h4.63c.21,0,.39.07.53.22s.22.32.22.53Z"/>
  </g>
</svg>