<?xml version="1.0" encoding="UTF-8"?>
<svg id="Calque_1" xmlns="http://www.w3.org/2000/svg" version="1.1" viewBox="0 0 214.5 283.46">
  <!-- Generator: Adobe Illustrator 30.0.0, SVG Export Plug-In . SVG Version: 2.1.1 Build 123)  -->
  <defs>
    <style>
      .st0 {
        fill: #264895;
      }

      .st1 {
        fill: none;
      }

      .st2 {
        fill: #e25821;
      }
    </style>
  </defs>
  <path class="st2" d="M130.94,88.91c-1.07-1.7-2.23-3.34-3.45-4.94-1.31-1.72-3.04-3.02-4.96-3.97-4.63-2.29-9.34-3.52-14.14-3.57-4.8.04-9.51,1.27-14.14,3.57-1.93.95-3.65,2.25-4.96,3.97-1.22,1.6-2.38,3.24-3.45,4.94-1.03,1.64-1.43,3.48-1.26,5.43.03.33.03.65.03.98,0,.02,0,.03,0,.05h23.79s23.79,0,23.79,0c0-.02,0-.04,0-.05,0-.33,0-.66.03-.98.17-1.95-.23-3.79-1.26-5.43Z"/>
  <path class="st0" d="M47.86,51.88c.12-.58.23-1,.28-1.42,1.1-8.27.9-16.55,0-24.81-.46-4.21-1.54-8.31-3.03-12.29-.23-.61-.4-1.25-.59-1.88-.22-.7.05-1.21.67-1.53.51-.26,1.03-.53,1.57-.69,1.55-.44,3.1-.3,4.61.19,1.77.58,2.68,1.82,2.73,3.67.03,1.11.02,2.22-.07,3.32-.24,2.78-.55,5.56-.81,8.34-.31,3.37-1.33,6.59-2.05,9.88-.48,2.21-1.03,4.4-1.55,6.6-.08.35-.11.7.04,1.13.15-.31.33-.62.43-.95.59-1.92,1.26-3.83,1.7-5.78.91-4.02,2.41-7.84,3.82-11.7,1.54-4.25,3.07-8.5,3.91-12.96.22-1.17.95-1.83,2.02-2.06,1.32-.29,2.66-.5,4.01-.65,1.16-.13,2.17.38,3.09,1.03.81.58.94,1.45.66,2.32-.39,1.21-.8,2.43-1.39,3.54-.92,1.74-1.96,3.41-3,5.09-1.95,3.14-3.94,6.24-6.13,9.23-2.15,2.95-4.09,6.07-5.51,9.45-.78,1.85-1.28,3.81-1.89,5.72-.23.73-.41,1.48-.67,2.44.35-.2.53-.26.65-.38,4.39-4.73,9.49-8.57,15-11.88,2.89-1.74,6.16-2.48,9.36-3.37,3.53-.99,7.15-.92,10.77-.7,3.74.23,7.44.78,11.08,1.65,3.59.85,6.72,2.69,9.26,5.36,1.63,1.72,2.36,3.92,2.51,6.29.08,1.16-.2,1.44-1.41,1.5-1.62.08-3.2-.2-4.71-.76-2.2-.82-4.3-1.82-6.28-3.1-1.17-.75-2.45-1.32-3.69-1.96-.29-.15-.61-.25-.89-.42-2.3-1.37-4.85-2.01-7.43-2.51-3.01-.59-6.06-.49-9.08-.09-6.38.84-12.42,2.69-17.96,6.04-2.16,1.31-3.99,3.02-5.89,4.65-.68.58-1.04,1.41-1.44,2.18.08.06.15.12.23.18.39-.39.81-.76,1.18-1.17,3.91-4.24,8.9-6.68,14.28-8.36,1.82-.57,3.78-.77,5.7-.93,3.27-.27,6.56-.31,9.84-.57,3.24-.25,6.19.58,8.93,2.2,3.88,2.31,7.85,4.5,11.26,7.5,1.59,1.4,2.98,3.04,4.37,4.66.88,1.01,1.32,2.25,1.24,3.64-.13,2.24-1.45,2.98-3.56,2.07-.44-.19-.84-.53-1.18-.88-.85-.89-1.69-1.79-2.47-2.74-1.3-1.59-2.59-3.19-3.8-4.84-2.39-3.27-5.76-5.08-9.46-6.33-2.33-.78-4.69-1.52-7.17-1.69-.78-.05-1.56-.16-2.33-.16-3.04-.01-6.08-.08-9.11.04-2.9.11-5.69.85-8.22,2.34-1.66.98-3.26,2.05-4.88,3.09-1.48.96-2.95,1.94-4.45,2.88-.31.19-.73.22-1.27.36-.18.72-.41,1.54-.58,2.38-.28,1.45-.5,1.64-2.2,1.67,0-.48-.03-.96,0-1.44.12-1.64-.8-2.77-2.03-3.57-2.86-1.84-5.79-3.59-8.73-5.31-1.59-.93-3.25-1.76-4.91-2.56-.69-.33-1.46-.6-2.22-.7-2.2-.29-4.4-.56-6.61-.69-.92-.05-1.86.25-2.79.4-2.39.4-4.76.89-7.16,1.19-2.49.31-3.99-1.02-4.2-3.5-.03-.41-.03-.82-.03-1.23.02-1.25.54-2.21,1.65-2.83.25-.14.49-.31.76-.4,3.21-1.12,6.49-1.79,9.91-1.43,2.22.23,4.35.8,6.4,1.7,3.05,1.35,6.08,2.73,8.61,4.95.92.81,1.76,1.72,2.63,2.59,1.13,1.13,2.28,2.25,3.39,3.4.63.65,1.21,1.34,1.8,2.02.67.76,1.24,1.62,2.36,2.01-.17-.34-.29-.7-.5-1.01-4.14-6.03-8.79-11.57-14.94-15.69-2.91-1.95-6.01-3.36-9.55-3.69-1.23-.11-2.45-.24-3.67-.38-1.82-.21-3.08-1.22-3.97-2.78-.4-.7-.42-1.41-.07-2.12.98-2.01,2.39-3.5,4.67-4.03,1.97-.46,3.88-.46,5.82.19,2.99,1.01,5.53,2.56,7.54,5.07,2.36,2.95,4.95,5.7,7.34,8.63,2.48,3.04,4.42,6.42,5.76,10.13.28.77.65,1.51,1.04,2.23.59,1.09,1.08,2.19,1.1,3.48.01.97.64,1.61,1.54,2.3Z"/>
  <path class="st0" d="M161.44,45.62c-.36-.08-.64-.18-.94-.2-8.78-.53-17.15,1.08-25.16,4.71-4.71,2.13-8.97,4.95-12.95,8.23-.57.47-1.16.93-1.8,1.29-.56.32-1.19.58-1.82.71-1.7.36-2.67-.23-3.2-1.88-.51-1.6-.47-3.17.4-4.64.46-.77.99-1.51,1.56-2.2,2.5-2.98,5.73-4.84,9.33-6.19,7.72-2.89,15.68-3.85,23.86-3,3.26.34,6.51.83,9.76,1.3.72.1,1.43.36,2.13.61,1.31.47,2.61.98,3.91,1.49.83.33,1.66.68,2.32,1.32-.26.69-.6,1.03-1.33.74-.38-.15-.79-.21-1.19-.32-1.66-.48-3.29-.48-4.98-.03-3.06.81-6.17,1.49-9.02,2.89-5.16,2.55-10.1,5.44-14.37,9.41-2.88,2.68-5.13,5.87-7.61,8.86-1.31,1.58-2.62,3.16-3.94,4.73-.74.88-1.73,1.38-2.8,1.72-1.53.48-2.68-.25-3.02-1.81-.33-1.5.07-2.94.27-4.4.2-1.46.79-2.74,1.62-3.95,4.4-6.39,10.15-11.08,17.31-14.14,5.22-2.23,10.59-3.77,16.22-4.41,1.43-.16,2.87-.19,4.3-.29.38-.03.83.09,1.11-.55Z"/>
  <path class="st0" d="M160.38,41.17c-.46-.55-1.06-.95-1.68-1.33-.8-.49-1.65-.93-2.42-1.47-5-3.52-10.71-5.3-16.55-6.74-1.47-.36-2.98-.72-4.48-.75-4.72-.09-9.32.52-13.6,2.77-2.09,1.1-4.4,1.56-6.73,1.86-.32.04-.66.02-.98-.02-1.68-.2-2.47-1.3-2.03-2.94.13-.5.39-1.01.71-1.41,1.4-1.75,3.02-3.24,5.14-4.09.11-.05.23-.09.34-.15,3.38-1.87,7-2.32,10.82-2.26,5.29.09,10.23,1.34,14.9,3.75,4.05,2.09,8.14,4.09,12.14,6.28,3.73,2.04,6.99,4.74,10.07,7.66.77.73,1.47,1.53,1.93,2.82-.86-.25-1.53-.4-2.15-.64-6.46-2.54-13.18-3.78-20.09-3.82-2.65-.02-5.31.48-7.95.82-1.79.23-3.56.61-5.35.86-4.58.64-8.81,2.25-12.84,4.44-1.55.85-3.13,1.59-4.89,1.95-1.59.32-3.2-.71-2.56-2.87.25-.84.7-1.69,1.26-2.36,3.88-4.65,8.64-7.7,14.85-8.28,4.11-.38,8.19-.42,12.27.3,2.22.4,4.46.7,6.69,1.07,3.77.62,7.25,2.06,10.67,3.7.79.38,1.6.73,2.4,1.1.05-.08.09-.16.14-.23Z"/>
  <path class="st0" d="M172.96,46.93c-.36-.4-.68-.75-1.12-1.24.42-.4.79-.89,1.27-1.21,1.25-.86,2.56-1.63,3.83-2.47.39-.26.73-.61,1-1.05-1.84.74-3.39,1.99-5.27,2.96-.03-1.08.24-1.89.76-2.58,2.22-2.9,4.34-5.89,6.74-8.64,2.1-2.41,4.85-4.06,7.9-5.06,2.58-.84,5.22-1.51,7.98-1.24,2.42.23,4.79.73,7.03,1.72.7.31,1.38.74,1.99,1.21,1.29,1,1.69,2.52,1.15,4.08-.5,1.42-1.83,2.38-3.44,2.29-1.56-.09-3.1-.3-4.65-.49-1.34-.17-2.68-.47-4.02-.56-1.05-.07-2.13.03-3.18.17-4.06.57-7.79,1.97-11.06,4.48-.31.23-.58.5-.87.76.05.08.11.16.16.24.37-.21.78-.37,1.12-.62,3.56-2.6,7.67-3.7,11.95-4.21,2.54-.3,5.08.09,7.6.5.93.15,1.85.36,2.77.58.4.09.79.24,1.15.42,2.65,1.4,3.05,2.69,2.04,5.58-.53,1.52-1.47,1.87-2.66,1.71-1.34-.19-2.68-.42-3.99-.74-8.3-2.01-16.3-1.05-24.06,2.37-.38.17-.74.35-1.11.53-.32.16-.64.34-1,.53Z"/>
  <path class="st0" d="M62.61,33.29c.76-.44,1.53-.88,2.28-1.33,2.36-1.4,4.72-2.81,7.08-4.22.28-.17.58-.32.84-.52,3.52-2.72,7.56-4.44,11.59-6.18,1.24-.54,2.49-1.07,3.74-1.58,1.15-.47,2.35-.74,3.61-.61,1.66.17,2.34.96,2.21,2.62-.07.92-.3,1.82-.98,2.47-1.19,1.13-2.4,2.24-3.69,3.24-.44.34-1.15.42-1.75.45-1.27.06-2.54.03-3.82-.02-3.08-.11-6.03.37-8.9,1.56-4.71,1.96-9.34,4.1-13.39,7.24-2.13,1.65-4,3.64-6,5.46-.59.54-1.22,1.04-1.98,1.69-.19-.89-.08-1.5.1-2.13.73-2.51,2.06-4.73,3.28-7.01,1.91-3.54,4.56-6.51,7.14-9.54,3.19-3.76,6.21-7.64,8.45-12.07.84-1.67,3.28-2.91,5.16-2.71,1.58.17,3,.81,4.41,1.48.54.26.64.71.66,1.21.03,1.36-.32,2.63-1.19,3.67-2.61,3.15-5.2,6.29-8.47,8.88-3.13,2.48-6.52,4.56-9.65,7.01-.3.23-.6.48-.89.72.05.07.1.15.16.22Z"/>
  <path class="st0" d="M47.17,48.28c-.78-.88-1.49-1.78-1.83-2.97-1.71-6.01-4.55-11.5-7.85-16.78-.39-.62-.92-1.15-1.34-1.76-.64-.95-1.3-1.89-1.84-2.9-.88-1.63-2.11-2.91-3.66-3.9-.48-.31-1.03-.54-1.46-.91-.61-.53-1.25-1.09-1.67-1.76-1.32-2.11-.96-3.73,1.16-4.99,2.4-1.43,5.01-2.25,7.85-2.09,3.02.16,5.85,2.3,6.68,5.19,1.2,4.18,2.3,8.39,3.44,12.58.58,2.15.88,4.34.94,6.56.1,3.53.25,7.05.29,10.58.01,1.04-.24,2.09-.37,3.14-.12,0-.24.01-.36.02Z"/>
  <path class="st0" d="M50.14,53.16c.26-.45.34-.69.5-.85.59-.57,1.16-1.17,1.83-1.64,1.41-.98,2.89-1.88,4.33-2.82,1.45-.94,3.08-1.34,4.75-1.62,5.52-.92,11.05-.83,16.54.23,1.79.35,3.5,1.16,5.24,1.76,1.04.36,2.07.79,3.13,1.1,4.91,1.45,9.05,4.01,12.14,8.16.44.59.91,1.17,1.41,1.71,1.29,1.39,1.99,3.1,2.6,4.84.08.23.12.48.15.72.16,1.21-.13,1.55-1.35,1.64-1.2.09-2.28-.22-3.25-.92-.53-.38-1.05-.79-1.53-1.24-3.16-2.95-6.68-5.45-10.26-7.85-2.54-1.71-5.37-2.83-8.25-3.81-1.2-.41-2.43-.76-3.65-1.1-.63-.17-1.28-.34-1.93-.38-4.55-.3-9.11-.46-13.64.24-1.94.3-3.85.82-5.78,1.23-.91.19-1.82.35-2.97.58Z"/>
  <path class="st0" d="M164.54,48.58c-.51.32-1.01.64-1.53.95-2.06,1.19-4.19,2.27-6.16,3.59-4.26,2.87-7.86,6.43-10.65,10.79-1.76,2.75-2.94,5.76-4.15,8.77-.9,2.25-1.81,4.5-2.92,6.64-.72,1.4-1.75,2.66-2.75,3.9-.65.81-1.56,1.32-2.62,1.51-1.21.22-1.94-.13-2.58-1.18-.86-1.4-1.01-2.93-.81-4.51.48-3.84,1.65-7.44,3.8-10.69,3.16-4.76,6.91-8.97,11.63-12.24,2.12-1.47,4.27-2.92,6.51-4.21,3.15-1.8,6.5-3.15,10.13-3.64.66-.09,1.35,0,2.02,0,.03.1.05.2.08.3Z"/>
  <path class="st0" d="M166.96,49.47c-.96,1.66-1.86,3.27-2.83,4.84-2.39,3.87-4.87,7.7-7.22,11.6-2.97,4.92-5.01,10.23-6.26,15.84-.28,1.28-.81,2.41-1.79,3.29-1.49,1.35-4.03,1.36-5.54.02-.65-.58-.98-1.27-1-2.16-.02-1.41.19-2.79.66-4.11,1.26-3.56,2.56-7.1,3.84-10.65,1.16-3.21,2.93-6.07,5.17-8.6,1.84-2.09,3.81-4.07,5.83-5.99,2.08-1.97,4.63-3.23,7.2-4.44.65-.31,1.25-.3,1.94.36Z"/>
  <path class="st0" d="M171.05,44.62c-.12-.5-.3-1-.35-1.51-.45-4.45-.87-8.9-1.33-13.34-.37-3.6.02-7.12.97-10.6.41-1.5.85-3,1.37-4.47.97-2.73,2.56-5.03,4.96-6.72,2.25-1.59,5.36-1.65,7.65-.16,1.71,1.11,2.39,2.95,1.78,4.92-.43,1.4-1.2,2.64-2.22,3.65-2.33,2.28-4,4.98-5.34,7.9-1.25,2.72-2.41,5.48-3.62,8.21-1.28,2.92-1.75,6.06-2.56,9.1-.27,1.01-.6,2.01-.91,3.02-.13,0-.26-.01-.39-.02Z"/>
  <path class="st0" d="M169.59,42.64c-.36-.42-.76-.76-1-1.2-1.53-2.83-3.47-5.37-5.4-7.93-1.41-1.87-2.91-3.66-4.64-5.26-.65-.61-1.1-1.44-1.73-2.07-1.54-1.53-3.14-3-4.71-4.51-.71-.68-1.48-1.32-2.08-2.08-2.04-2.6-2-6.05.05-8.37.27-.3.58-.59.92-.81,1.46-.9,5.12-.76,6.48.31,1.47,1.15,2.67,2.52,3.37,4.31.31.79.7,1.61,1.26,2.23,1.97,2.17,2.91,4.86,3.75,7.55,1.09,3.49,2.07,7.01,2.9,10.57.53,2.27.7,4.62,1.02,6.93,0,.06-.07.13-.19.32Z"/>
  <path class="st0" d="M191.46,112.79c-.25-6.24-2.14-12.01-2.1-17.99,1.59-.58,13.77-.68,16.33-.14.22,1.29.58,2.64.67,4.02.17,2.62.2,5.25.28,7.87.03.98-.32,1.49-1.43,1.87-2.14.72-4.29,1.39-6.45,2.04-.78.24-1.61.34-2.4.56-1.02.29-2.03.64-3.03.99-.53.19-1.05.43-1.87.77Z"/>
  <path class="st0" d="M50.65,55.92c1.71-.37,3.21-.23,4.61.6,3,1.79,5.96,3.63,8.41,6.17,2.93,3.05,6.06,5.89,8.7,9.21,1.74,2.2,2.78,4.65,2.73,7.47-.02.97-.22,1.97-.55,2.88-.45,1.27-1.16,1.54-2.42,1.13-.46-.15-.92-.36-1.34-.6-4.17-2.32-7.66-5.36-9.95-9.62-1.32-2.45-2.64-4.91-3.86-7.42-1.23-2.53-2.63-4.91-4.5-7.02-.72-.81-1.4-1.68-1.83-2.81Z"/>
  <path class="st0" d="M43.46,57.46c-.29.68-.89.91-1.41,1.17-4.55,2.28-8.59,5.32-12.5,8.5-2.25,1.83-4.28,3.94-6.33,6.01-2.74,2.77-5.4,5.62-8.11,8.43-.81.84-1.72,1.52-2.85,1.89-1.08.35-1.73.09-2.17-.95-.45-1.06-.45-2.17-.21-3.27.57-2.6,1.67-4.97,3.15-7.17,2.06-3.06,4.93-5.21,7.96-7.23,4.01-2.67,8.37-4.52,12.99-5.77,2.37-.64,4.77-1.22,7.16-1.78.74-.17,1.52-.24,2.31.17Z"/>
  <path class="st0" d="M45.71,55.67c-.68.02-1.35.07-2.03.05-5.93-.18-11.61,1.02-17.02,3.34-2.63,1.13-5.04,2.74-7.57,4.09-2.1,1.12-4.21,2.2-6.34,3.27-.43.22-.93.34-1.41.43-2.17.43-4.01-1.51-3.77-3.17.11-.76.21-1.57.53-2.25.94-2.01,2.34-3.63,4.29-4.78,3.04-1.79,6.24-3.11,9.74-3.63,2.15-.32,4.3-.73,6.46-.88,1.75-.12,3.55-.11,5.27.17,3.11.52,6.19,1.25,9.27,1.96.93.21,1.84.56,2.58,1.39Z"/>
  <path class="st0" d="M46.31,54.11c-1.36-.47-2.66-.86-3.91-1.35-3.2-1.26-6.53-2.07-9.96-2.07-3.57,0-7.14.19-10.66.94-2.74.59-5.41,1.37-7.99,2.46-1.13.48-2.32.84-3.52,1.1-1.81.4-3.11-1.06-2.61-2.88.39-1.41,1.14-2.64,2.21-3.65,1.98-1.88,4.35-3.1,6.97-3.76,1.5-.38,3.07-.57,4.61-.72,5.79-.55,11.24.65,16.49,3.13,2.69,1.27,5.09,2.99,7.62,4.51.81.48,1.1,1.17.73,2.28Z"/>
  <path class="st0" d="M169.28,44.23c-.64-.65-1.12-1.12-1.57-1.61-3.95-4.29-8.44-7.92-13.56-10.73-5.6-3.08-11.53-5.35-17.72-6.96-1.11-.29-2.2-.65-3.3-1.01-.39-.13-.77-.3-1.12-.51-1.47-.91-1.8-2.48-.84-3.92.56-.85,1.32-1.45,2.28-1.79,2.8-.98,5.61-.74,8.33.22,2.49.88,4.81,2.12,6.68,4.06.23.24.47.46.74.65,4.18,2.95,7.61,6.74,11.37,10.17,3.01,2.75,5.5,5.97,7.86,9.29.64.9.62.93.85,2.13Z"/>
  <path class="st0" d="M169.9,50.3c.71,1.04,1.1,2.11.84,3.21-.69,2.95-.28,5.89.03,8.82.52,4.85,1.21,9.69,1.69,14.55.17,1.74,0,3.52-.1,5.27-.04.68-.27,1.38-.54,2.01-.55,1.27-1.56,1.7-2.91,1.39-1.68-.39-2.94-1.24-3.39-3-.34-1.31-.81-2.6-.95-3.93-.92-8.79.14-17.36,3-25.71.4-1.16,1.22-1.9,2.35-2.6Z"/>
  <path class="st0" d="M167.29,51.34c-.6,1.55-1.27,3.09-1.79,4.67-.84,2.57-1.67,5.16-2.35,7.78-1.25,4.86-1.31,9.83-1.23,14.8.03,1.93,0,3.86-.11,5.78-.08,1.53-.56,3-1.33,4.32-.38.66-.91,1.29-1.52,1.73-.5.35-1.25.64-1.82.54-1.11-.19-2.2-.61-3.25-1.05-.64-.27-.91-.87-.94-1.6-.09-2.03.25-4.01.6-5.99,1-5.57,2.82-10.85,5.15-16.01,2.05-4.55,4.66-8.77,6.96-13.16.37-.7.93-1.31,1.41-1.96.08.05.15.11.23.16Z"/>
  <path class="st0" d="M175.29,36.33c.3-.92.48-1.91.92-2.76,1.76-3.47,3.55-6.93,5.45-10.33.65-1.16,1.6-2.18,2.52-3.16,1.45-1.55,2.8-3.2,4.62-4.39,3.34-2.2,6.88-2.31,10.46-.95,3.1,1.18,3.62,3.45,1.67,6.15-1.26,1.74-2.95,2.6-5.07,2.87-2.27.29-4.56.6-6.78,1.16-3.35.85-6.12,2.73-8.34,5.38-1.45,1.73-2.82,3.52-4.23,5.27-.27.34-.58.64-.87.96l-.35-.2Z"/>
  <path class="st0" d="M176.39,51.92c1.69.19,3.14.74,4.52,1.44,3.79,1.91,7.29,4.24,10.42,7.14,1.47,1.36,3.08,2.58,4.61,3.88,2.42,2.05,4.58,4.34,6.44,6.92,1.01,1.4,1.55,2.85,1.13,4.61-.23.95-.26,1.95-.43,2.92-.07.4-.2.8-.4,1.15-.35.6-.84.75-1.46.45-1.5-.72-2.81-1.65-3.75-3.09-1.81-2.78-3.65-5.55-5.51-8.3-3.14-4.66-7.06-8.62-11.3-12.28-1.21-1.04-2.4-2.12-3.58-3.19-.43-.39-.76-.86-.7-1.64Z"/>
  <path class="st0" d="M174.02,48.73c.23-.01.47-.06.69-.04,4.09.3,8.22.36,12.27.96,4.56.68,8.97,1.99,12.76,4.85,1.66,1.25,3.19,2.57,4.03,4.54.7,1.63.62,3.3.28,4.96-.22,1.06-1.54,1.72-2.8,1.32-1.12-.35-2.22-.86-3.23-1.46-.98-.58-1.85-1.36-2.75-2.07-2.81-2.2-5.64-4.38-8.43-6.61-2.29-1.83-4.82-3.1-7.72-3.62-1.39-.25-2.69-.74-3.86-1.53-.47-.32-.9-.68-1.34-1.03.04-.09.07-.18.11-.27Z"/>
  <path class="st0" d="M102.5,74.53c-1.26.09-2.21-.18-3.06-.66-1.28-.72-2.66-1.39-3.7-2.39-3.82-3.71-8.23-6.64-12.49-9.76-3.36-2.46-6.94-4.53-10.71-6.27-1.9-.88-3.86-1.64-5.85-2.27-1.43-.45-2.97-.59-4.46-.83-.81-.14-1.64-.21-2.46-.31,0-.08,0-.17.01-.25.14-.04.28-.11.42-.1,3.69.18,7.43.03,11.04.65,6.13,1.04,11.81,3.44,16.83,7.18,3.03,2.25,6.01,4.57,9.01,6.86.85.65,1.67,1.33,2.56,1.92,1.28.84,2.02,2.02,2.34,3.48.19.87.32,1.76.5,2.78Z"/>
  <path class="st0" d="M173.63,47.24c.59-.27,1.16-.57,1.76-.8,3.67-1.35,7.44-2.32,11.28-2.99,3.77-.66,7.52-.33,11.25.38,1.25.24,2.49.52,3.72.85,2.66.71,4.24,2.55,5.09,5.07.58,1.71-.41,3.34-2.19,3.68-1.35.26-2.59-.08-3.8-.67-2.14-1.04-4.27-2.09-6.46-3.03-4-1.72-8.24-2.48-12.56-2.72-1.3-.07-2.62.11-3.91.29-1.37.19-2.73.33-4.1.24l-.07-.31Z"/>
  <path class="st0" d="M179.43,56.99c1.21.57,2.14,1.37,2.94,2.28,2.01,2.28,4.04,4.54,5.92,6.92,1.06,1.34,1.88,2.88,2.76,4.36.97,1.62,1.88,3.27,2.81,4.91.89,1.57,1.71,3.18,2.07,4.98.07.36.14.73.15,1.1.05,1.49-.51,2.02-1.98,2.21-2.01.26-3.2-.7-4.2-2.32-3-4.83-5.33-9.98-7.42-15.25-.92-2.32-1.94-4.61-2.9-6.92-.28-.68-.59-1.37-.16-2.27Z"/>
  <path class="st0" d="M204.03,138.63c-.62-.14-1.27-.2-1.85-.43-1.99-.79-3.33-2.27-3.96-4.28-.23-.74-.12-1.63.01-2.42.14-.84-.04-1.43-.75-1.89-1.17-.76-1.94-1.9-2.61-3.07-.39-.68-.67-1.55-.64-2.33.09-3.09.59-6.12,1.58-9.06.06-.19.18-.35.26-.52,1.7.38,2.38,1.6,1.76,3.08-.08.19-.15.39-.27.55-1.2,1.69-1.47,3.62-1.44,5.62,0,.49.03.99.12,1.47.22,1.22.86,2.12,2.09,2.5.83.25,1.63.81,2.56.29.12-.61-.29-.97-.55-1.35-.66-.93-.72-1.91-.34-2.93.26-.69.56-1.37.95-1.99.98-1.59,1.66-3.27,2.15-5.07.31-1.13.94-2.17,1.45-3.24.1-.22.25-.48.45-.57.42-.2.89-.39,1.34-.38.14,0,.32.66.38,1.03.17.91-.22,1.58-.77,2.33-1.57,2.2-3.06,4.46-4.42,6.8-.81,1.4-.54,2.28.6,3.33.11-.28.22-.53.3-.78.51-1.6.96-3.22,1.53-4.8.51-1.4,1.34-2.63,2.45-3.65.14-.12.32-.2.59-.37.28,1.65.39,3.11-.79,4.37-1.01,1.07-1.6,2.37-2.05,3.75-.6,1.85-1.48,3.54-2.72,5.07-.56.69-.99,1.5-1.37,2.32-.37.79-.32,1.63.28,2.32.8.93,1.62,1.83,2.47,2.72.41.43.89.8,1.34,1.2-.05.13-.1.26-.15.38Z"/>
  <g>
    <path class="st0" d="M72.51,146.91c.28-.18.58-.37.93-.59.57.88.91,1.79,1.11,2.76.11.54-.07.96-.45,1.33-.79.75-1.57,1.52-2.41,2.33,1.03.48,1.97.59,2.81-.3.67-.71,1.33-1.45,1.99-2.17.44-.49.84-1.01,1.31-1.47.49-.47.91-.48,1.3-.13.4.37.41.78-.13,1.26-1.01.9-2.08,1.73-3.13,2.58-.4.33-.81.65-1.35,1.08.86.5,1.59.91,2.45,1.41-.63.55-1.34.92-1.66,1.51-.29.55-.17,1.32-.22,1.95,1.34.44,4.07.43,5.17.01-.19-.44-.39-.87-.57-1.31-.43-1.04-.38-1.29.42-2.06.26-.25.54-.47.97-.85-.73-.16-1.21-.26-1.83-.4.2-.44.36-.79.56-1.22.52.36.95.65,1.45.99.27-.38.52-.73.81-1.13.34.28.64.52.93.76,1.27-.42,1.26-.42,1.38-1.68.05-.47.16-.93.26-1.47,1.39.49,1.68,1.75,2.41,2.77.24-.46.42-.8.66-1.26.64.66.7,1.38.69,2.19-.87.24-1.71.48-2.77.78.68.51,1.17.37,1.62.28.64-.12,1.28-.3,1.9-.5.81-.26,1.45-.13,1.93.78-.99,1.11-2.7,1.01-3.89,2.17.39.09.64.2.89.18,1.02-.06,2.05-.11,3.07-.25.9-.12,1.71,0,2.49.45,1,.57,2.09.68,3.22.57.15-.02.29-.1.68-.24-.68-.47-1.19-.82-1.82-1.25.23-.7.46-1.43.71-2.16.15-.43.5-.5.9-.46.7.07,1.22.45,1.65.98.22.28.42.58.67.93,1.12-1.06,2.21-2.06,3.93-2.02-.21.91-1.05,1.29-1.44,2.07.57.45,1.12.9,1.77,1.42-1.13.88-2.3,1.47-3.58,1.72-1.49.28-3,.42-4.52.55-6.23.55-12.46.59-18.7.31-1.35-.06-2.69-.27-4.03-.43-1.03-.12-1.66-.63-1.65-1.75,0-.26-.12-.52-.25-1.09-.42.55-.71.86-.92,1.23-.31.53-.53,1.11-.83,1.65-.42.77-.77.92-1.62.66-.88-.26-1.66-.68-2.29-1.38-.4-.45-.85-.85-1.31-1.3-.74.53-.62,1.8-1.83,1.68-.66-.07-1.31-.04-1.79-.67.9-1.49,2.16-2.6,3.57-3.52.35-.23.86-.28,1.3-.28.83,0,1.49-.33,2.13-.82.87-.67,1.81-1.27,2.71-1.91.3-.21.63-.4.9-.64.45-.41.56-.9.14-1.41-.36-.44-.76-.86-1.12-1.31-.28-.35-.57-.71-.76-1.11-.21-.46-.07-.89.39-1.16.87-.51,1.88-.39,2.68.37ZM67.06,158.5c1.11-1.01,2.15-1.96,2.83-3.22-.42-.55-.82-.63-1.29-.21-.93.85-1.86,1.7-2.89,2.65.5.28.9.52,1.35.77Z"/>
    <path class="st0" d="M38.22,139.32c.39.59.78,1.17,1.17,1.76l.21-.05c-.03-.33-.01-.68-.09-1-.32-1.27-.66-2.54-1.03-3.8-.38-1.33-.35-1.45.89-2.36.94.82,1.59,1.85,1.88,3.06.63,2.69.9,5.42.69,8.19-.04.57-.21,1.13-.33,1.69-.1.47-.2.94-.31,1.4.08.05.16.1.25.14.19-.2.46-.37.57-.62,1.47-3.38,3.14-6.71,3.1-10.54,0-.57.09-1.14.16-1.71.04-.35.2-.69.6-.63.28.04.63.22.76.45.46.81.58,1.75.37,2.63-.35,1.47-.74,2.95-1.31,4.34-.78,1.9-1.74,3.71-2.61,5.57-.2.42-.49.85-.06,1.56.29-.48.54-.82.72-1.2,1.2-2.56,2.37-5.14,3.57-7.7.49-1.04.97-2.08,1.54-3.08.46-.81.63-.83,1.89-.69-.03.54,0,1.11-.11,1.65-.79,3.98-2.18,7.73-4.4,11.15-.51.79-1.06,1.56-1.58,2.35-.22.34-.49.54-.92.45-1.2-.24-2.4-.48-3.6-.72-.04-.32-.1-.53-.08-.72.12-.88-.26-1.4-1.09-1.66-.6-.19-.92-.54-.94-1.25-.07-2.3-.22-4.59-.31-6.88-.02-.55.04-1.11.07-1.67l.35-.11Z"/>
    <path class="st0" d="M44.76,152.81c4.21-4.45,6.39-9.75,8.02-15.5.52.11,1,.22,1.51.33.29,1.7-.81,3.12-.68,4.94,1.1-1.31,1.11-2.81,1.74-4.34.37.67.65,1.17.95,1.72.91.03,1.94-.27,2.85.62-.31.37-.59.75-.92,1.09-2.28,2.3-4.51,4.64-6.29,7.37-.66,1.01-1.52,1.8-2.63,2.34-.55.26-1.12.59-1.5,1.05-.82.99-1.72.91-3.04.39Z"/>
    <path class="st0" d="M53.84,155.78c.55-.33.81-.52,1.1-.66,2-.95,3.61-2.34,5.1-3.98,1.51-1.66,3.25-3.13,4.93-4.62.33-.3.87-.44,1.33-.48.3-.03.8.17.89.4.13.32-.02.76-.07,1.15,0,.07-.1.13-.16.18-1.91,1.61-3.34,3.74-5.49,5.1-.82.52-1.55,1.17-2.06,2.12.25-.05.51-.07.73-.17,2.11-.99,3.99-2.29,5.43-4.14.7-.89,1.56-1.45,2.71-1.45.33,0,.66.12,1.25.24-1.35,1.59-2.29,3.19-3.86,4.22-1.37.91-2.79,1.73-4.13,2.68-1.28.91-2.55,1.17-4.04.56-1.09-.44-2.25-.72-3.68-1.16Z"/>
    <path class="st0" d="M49.45,155.05c1.1-2.44,2.55-4.42,4.54-6.03,2.13-1.72,4.2-3.53,6.3-5.29.68-.57,1.46-.87,2.49-.72.15,1.17.13,2.27-.75,3.18-.31.32-.65.62-.99.91-.94.81-1.73,1.73-2.3,2.84-1.54,3.01-4.22,4.46-7.34,5.27-.63.16-1.29.17-1.95-.17Z"/>
    <path class="st0" d="M9.25,120.35c1.16.17,1.79.69,2.19,1.42,1.26,2.3,2.51,4.6,3.68,6.95.73,1.47,1.31,3.01,1.95,4.52.39.92.48,1.37.44,2.49-.27-.16-.55-.25-.71-.44-1.75-1.96-3.55-3.87-5.18-5.92-.67-.84-1.06-1.94-1.38-2.99-.43-1.37-.7-2.79-.97-4.2-.1-.54-.02-1.11-.02-1.83Z"/>
  </g>
  <path class="st0" d="M69.33,102.6c-.58.49-1.15.5-1.7.36-5.46-1.45-11.13-1.46-16.66-2.43-1.89-.33-3.83-.37-5.75-.56-.41-.04-.83-.09-1.2-.24-.21-.08-.48-.37-.48-.56,0-.22.24-.55.45-.62.38-.13.81-.14,1.21-.13,2.5.07,5,.15,7.5.24.32.01.66.06.96.18,1.7.69,3.53.71,5.29,1.08,3.29.68,6.54,1.55,9.8,2.35.17.04.33.18.58.32Z"/>
  <path class="st0" d="M201.96,112.54c.87.95.79,1.84.41,2.76-.83,2.01-1.65,4.02-2.53,6.01-.7,1.59-1.37,3.17-1.01,5.1-.94-.35-1.14-.99-1.11-1.69.02-.52.14-1.06.31-1.56.35-1.05.82-2.06,1.13-3.12.38-1.29.71-2.6.94-3.92.24-1.37.65-2.59,1.86-3.58Z"/>
  <path class="st0" d="M202.67,131.79c.16-1.91,3.07-7.63,4.65-9.1.04.3.09.51.08.72-.07,1.79-.57,3.46-1.46,5.02-.51.89-1.01,1.78-1.51,2.67q-.49.87-1.76.69Z"/>
  <g>
    <path class="st0" d="M196.47,222.65c-.05-.46-.1-.69-.09-.92.09-1.97.11-3.94.3-5.89.21-2.26.23-4.5.04-6.75-.05-.61-.02-1.24-.13-1.84-.5-2.54,1.21-3.75,2.89-5.01.11.1.21.15.21.21.03,3.02.22,6.01-.6,9.02-.69,2.51-.82,5.17-1.26,7.76-.16.92-.52,1.81-.81,2.7-.07.2-.25.36-.53.72Z"/>
    <path class="st0" d="M198.88,218.89c.08-.72.08-1.45.24-2.15.6-2.56,1.27-5.09,1.87-7.65.28-1.18.98-1.99,2.04-2.47.76-.34,1.17-.85,1.25-1.66.01-.12.06-.24.1-.36.3-.99.31-1,1.6-.85-.21,1.76-.6,3.43-1.64,4.93-.65.94-1.22,1.94-1.7,2.98-.82,1.75-1.52,3.55-2.3,5.31-.31.69-.69,1.36-1.04,2.03-.14-.04-.29-.08-.43-.12Z"/>
    <path class="st0" d="M205.61,194.17c.26,1.99.23,2.05-1.47,2.47-.6.15-1.21.23-1.81.37-1.88.43-3.48-.33-5-1.27-1-.62-1.02-1.67-.91-2.86.33.17.61.24.8.41.99.87,2.16,1.13,3.44,1.07,1.19-.06,2.38-.13,3.57-.18.44-.02.89,0,1.38,0Z"/>
    <path class="st0" d="M204.81,192.01c-.31,1.24-.36,1.28-1.38,1.44-2.41.38-4.46-.24-6.06-2.14-.55-.65-1.17-1.46-.67-2.19.53-.78,1.51-.32,2.25-.01.67.28,1.32.66,1.91,1.1,1.04.76,2.13,1.38,3.42,1.59.19.03.36.14.53.21Z"/>
    <path class="st0" d="M205.65,201.19c-1.66-.8-3.16-1.02-4.75-.87-.62.06-1.34-.29-1.93-.62-.6-.34-.52-.88.09-1.22.17-.1.38-.19.57-.21,1.83-.18,3.65-.38,5.48-.48,1-.05,1.27.28,1.15,1.25-.09.66-.37,1.3-.62,2.14Z"/>
    <path class="st0" d="M204.83,177.41c1.23.89,1.65,2.19,1.51,3.63-.11,1.18-.29,2.34.31,3.47-1.41.18-2.88-1.09-3.43-2.83-.61-1.92-.08-3.39,1.61-4.28Z"/>
    <path class="st0" d="M204.29,201.62c.36,2.29-.53,4.04-3.52,4.54-.28-1.42-.56-2.85-.87-4.4,1.52-.61,2.95-.63,4.39-.13Z"/>
    <path class="st0" d="M205.2,187.61c-2.84-.8-4.59-3.03-4.54-5.78,0-.22.24-.54.44-.61.2-.07.59.03.72.19.34.41.66.86.83,1.35.36,1.02,1.04,1.73,1.91,2.32,1.16.79,1.21,1.1.63,2.53Z"/>
  </g>
  <path class="st0" d="M73.63,99.72c3.66-.29,6.92.93,10.04,2.75-.83.25-1.67.31-2.49.14-2.66-.54-5.15-1.57-7.55-2.89Z"/>
  <g>
    <path class="st0" d="M69.34,171.26c-.61,2.05-1.4,3.99-1.48,6.3,1.02-.45,1.46-1.1,1.51-2.01.05-1.02.31-1.93,1.09-2.66.85.15,1.05.78,1.13,1.44.21,1.62-.08,3.1-1.32,4.3-.55.53-1.04,1.12-1.55,1.68.04.07.09.14.13.22.25-.04.53,0,.74-.12,1.43-.8,2.62-1.84,3.11-3.49.2-.66.4-1.32.59-1.95,1.47,0,2.01.53,1.89,1.83-.17,1.72-1.14,2.97-2.53,3.9-1.09.73-2.24,1.36-3.38,2.03-1.03.6-2.09,1.13-3.09,1.78-1.13.74-2.27.82-3.67.31.43-.54.81-1,1.16-1.48.41-.56.87-1.1,1.19-1.71.74-1.46.43-2.57-.98-3.66-1.43,1.08-2.25,3.01-4.36,3.44-.09-1.54.5-2.84.72-4.26-.23-.09-.44-.25-.66-.26-1.56-.05-3.13-.22-4.67-.06-1.27.13-2.19-.19-3.14-.97-2.48-2.02-5.27-3.46-8.4-4.22-.67-.16-1.35-.37-1.96-.68-1.2-.61-2.44-.96-3.79-.83-.32.03-.65,0-1.05,0-.02-.35-.06-.62-.04-.89.11-1.43.24-2.86.34-4.3.08-1.11.48-2.1,1.26-2.87,1.37-1.36,2.76-2.69,4.21-3.97.88-.77,1.94-1.23,3.14-1.25.5-.01,1.11-.02,1.26.53.12.42-.08.93-.14,1.4-.01.07-.08.14-.14.2-1.8,1.93-3.63,3.8-6.12,4.86-.59.25-1.16.54-1.71.8.13.76.51.92,1,.69,1.22-.58,2.54-1.04,3.59-1.84,1.75-1.34,3.33-2.92,4.98-4.4.3-.27.6-.53.83-.73,1.16.17,1.14,1.06,1.31,1.81.83.18,1.64.33,2.17,1.16-.17.26-.33.53-.53.78-1.72,2.15-3.36,4.36-5.61,6.01-.72.53-.68.62-.21,1.73.14-.07.3-.11.41-.22,1.5-1.46,2.97-2.95,4.49-4.39,1.01-.95,2.07-1.87,3.16-2.73.46-.36,1.06-.54,1.87-.94-.06.75-.02,1.22-.14,1.66-.42,1.55-1.51,2.61-2.74,3.53-1.58,1.18-3.18,2.33-4.76,3.51-.35.26-.66.57-.98.85l.08.27c.42.03.84.12,1.25.07.31-.04.63-.21.89-.39,2.64-1.81,5.27-3.63,7.91-5.44.43-.29.88-.56,1.31-.83.88,1.2.73,1.88-.19,2.82-2.15,2.21-4.93,3.36-7.61,4.68-.4.2-.8.4-1.21.61.88.99,1.52,1.11,2.57.61,1.15-.54,2.32-1.03,3.47-1.58,1.7-.81,2.99-2.14,4.29-3.44.11-.11.19-.27.3-.39.37-.4.74-.82,1.37-.49.54.28.9,1.15.59,1.71-.33.6-.79,1.15-1.28,1.63-.82.8-1.73,1.51-2.57,2.29-.54.49-1.02,1.04-1.6,1.64,1.08.02,2.76-.76,3.64-1.64.32-.32.6-.68.9-1.02.83-.94,1.86-1.58,3.25-2.02.12,1.34.11,2.58-.18,3.81-.1.43-.44.6-.85.54-.4-.05-.8-.18-1.19-.28-.77-.21-1.33.06-1.89.81,1.49.52,2.8,1.2,4.28.23.47-.31,1.02-.5,1.63-.78-.17-.35-.33-.67-.47-.99-.42-.95-.23-1.77.55-2.43.75-.64,1.61-.61,2.63.13ZM39.36,167.26c2.58,1.43,7.66-.76,8.39-3.51-1.34.75-2.55,1.58-3.88,2.13-1.38.58-2.87.89-4.51,1.38Z"/>
    <path class="st0" d="M38.34,173.33c.75.38,1.07.92,1.27,1.58.54,1.8.71,3.64.41,5.48-.14.86-.59,1.7-1.03,2.48-.74,1.31-1.1,2.7-1.13,4.24.15-.2.35-.39.45-.61.98-2.13,1.98-4.24,2.88-6.4.34-.82.46-1.74.63-2.62.17-.93.24-1.87.41-2.8.08-.47.29-.91.45-1.37,1.48.61,1.49.65.97,3.53,1.27-.55,2.32-1.31,3.49-1.88.45.52.35.95.03,1.37-.42.56-.87,1.09-1.29,1.65-.49.64-.95,1.3-1.15,2.36.49-.21.81-.26,1.02-.45.75-.64,1.47-1.31,2.19-1.98.87-.81,1.32-.82,2.2,0,.36.33.66.72,1.1,1.21-.94.68-1.81,1.3-2.75,1.98-.31-.43-.56-.79-.89-1.24-.39.22-.75.38-1.07.61-1.26.92-2.49,1.87-3.76,2.78-1.19.85-2.16,1.88-2.84,3.18-.51.98-1.09,1.93-1.63,2.9-.09.17-.12.36-.26.8.38-.26.59-.34.72-.5.46-.58.9-1.17,1.32-1.78,1.9-2.72,4.53-4.49,7.55-5.71,1.35-.54,2.59-1.23,3.76-2.07.41-.29.82-.58,1.32-.15.49.41.57.81.27,1.54-.49,1.19-1.4,2.01-2.37,2.78-1.98,1.57-4.26,2.61-6.58,3.57-.7.29-1.39.61-2.02,1.25.73.36,1.26.06,1.79-.05,2.43-.53,4.45-1.85,6.42-3.27.87-.62,1.68-1.34,2.59-1.88.91-.55,1.87-1.03,2.87-1.37,1.18-.39,1.43-.15,1.68,1.2-.95.85-2.16,1.27-3.3,1.81-1.14.53-2.31,1.02-3.16,2.09,2.12-.61,4.25-1.22,6.44-1.85.2.75-.05,1.22-.44,1.57-.91.83-1.79,1.73-2.82,2.38-.73.46-1.68.63-2.55.82-1.64.36-3.3.69-4.96.92-1.38.19-2.78.27-4.16.28-1.2,0-2.25.28-3.25.93-.71.46-1.48.82-2.39,1.31-.1-.53-.21-.87-.22-1.21-.1-3.98-.19-7.96-.26-11.94-.02-1.23-.04-2.46,0-3.69.06-1.56.71-2.83,2.04-3.78Z"/>
    <path class="st0" d="M98.33,180.62c-.47.29-.96.54-1.4.87-.45.34-.87.51-1.47.34-1.11-.32-2.18-.14-3.22.38-1.06.52-2.15.98-3.46,1.57-.3-.47-.58-.91-1-1.56-.36,1.27.09,2.16.19,3.2-.64-.21-1.14-.35-1.62-.53-.76-.28-1.42-.19-2.07.32-.51.4-1.09.69-1.64,1.03-.84-.68-1.1-1.55-1.33-2.41-.23-.86-.36-1.76-.56-2.79-.57.2-1.08.37-1.73.6,1.09,1.26,1.53,2.64,1.76,4.28-1.44.05-2.52-.95-3.86-1-.08-.65-.15-1.17-.23-1.87-1.2.54-1.98,1.56-3.06,2.06-1.11.52-2.23,1.06-3.39,1.44-1.13.36-2.31.58-3.49.75-1.21.18-2.44.23-3.69.35-.08-.75.3-1.04.8-1.17.75-.2,1.51-.38,2.28-.49,1.14-.16,2.11-.61,2.94-1.41.71-.69,1.39-1.44,2.21-1.95.78-.48,1.72-.69,2.67-1.05-.02-1.22.72-2.09,1.61-2.85.74-.63.91-1.32.48-2.18-.09-.18-.15-.38-.21-.58-.17-.54-.06-.95.51-1.2.67-.29,1.33-.62,1.98-.92,1.03.76,1.05.85.62,1.92-.26.65-.52,1.3-.7,1.97-.11.41-.09.86-.03,1.33.94-.69.95-1.92,1.7-2.73.52.13.53.58.64.96.11.39.15.82.31,1.18.1.22.4.49.6.49.21,0,.51-.27.61-.49.45-1.05.85-2.13,1.27-3.2.2-.52.38-1.06.57-1.59,1.24.56,1.32.69,1.24,1.76-.11,1.46-.53,2.81-1.41,4.01-.33.45-.58.96-1,1.66,1.33.11,2.44.37,3.57.3.47-.03.79-.35.93-.95-.82-.19-1.6-.36-2.5-.56.31-1.12.61-2.16.9-3.2,1.35-.23,2.08.74,3.08,1.39.3-.7.05-1.19-.22-1.68-.14-.25-.37-.45-.49-.71-.2-.42.11-.84.56-.84,1.02,0,1.91.63,2.22,1.63.47,1.51.33,2.92-.74,4.16-.37.43-.76.85-1.14,1.27.81.7.83.71,1.53.19.9-.67,1.65-1.47,2.12-2.51.28-.62.65-1.19,1.03-1.87.64.69,1.16,1.25,1.83,1.97.28-.55.47-.89.62-1.25.19-.45.29-.95.97-.91.82.05,1.46.39,1.59,1.1.09.45-.04.95-.11,1.42-.03.2-.14.38-.22.57l.02-.03ZM74.89,181.22c.76.32,1.33.61,1.9.2.64-.46.9-1.15.82-2.13-.94.66-1.74,1.23-2.72,1.92Z"/>
    <path class="st0" d="M17.53,172.86c-.86-1.54-1.57-2.97-2.43-4.31-.55-.85-1.3-1.57-1.98-2.33-.41-.45-.86-.83-.98-1.51-.62-3.47-1.29-6.94-1.92-10.41-.12-.67-.12-1.36-.17-2.05,1.02-.31,1.77-.13,2.34.58.54.67,1.04,1.37,1.55,2.07.58.8,1.11,1.63,1.71,2.41.61.8,1.06,1.68,1.19,2.67.29,2.24.52,4.48.76,6.72.12,1.14.16,2.29.35,3.42.16.94.01,1.78-.41,2.73Z"/>
    <path class="st0" d="M56.85,191.77c-.71.52-1.34,1.15-2.09,1.5-2.31,1.05-4.63,2.11-7.02,2.96-2.78.99-5.66.78-8.51.15-.45-.1-1.08-.13-1.15-.75-.07-.61.41-.98.91-1.2.63-.28,1.3-.55,1.97-.65,2-.29,3.93-.83,5.88-1.31,2.78-.69,5.62-1.16,8.43-1.74.84-.17,1.19.29,1.59,1.04Z"/>
    <path class="st0" d="M98.32,180.64c.81-.62,1.58-1.31,2.45-1.83.62-.37,1.37-.55,2.08-.72,1.24-.29,1.75.15,1.76,1.45,0,.2-.06.39-.09.6h-1.63c.2.25.28.46.42.53,1.54.74,2.95,1.78,4.72,1.99.69.08,1.36.28,1.96,1.01-1.14.81-2.42,1-3.67,1.24-1.29.25-2.59.44-3.9.1-1.27-.33-2.53-.66-3.93-1.02-.95,1.6-2.54.98-3.99.86-.77-.06-1.5-.36-1.92-1.2.87-.84,1.91-.93,2.97-.79,1.4.2,2.62-.33,4.09-.75-.51-.61-.89-1.06-1.28-1.51,0,0-.02.03-.02.03Z"/>
    <path class="st0" d="M36.58,160.63c.23-2.4,1.59-4.39,2.4-6.54,1.72.02,2.33.62,2.01,2.12-.16.77-.47,1.63-1,2.17-.92.94-2.06,1.67-3.11,2.49l-.3-.24Z"/>
    <path class="st0" d="M64.19,179.21c.52.73.49,1.27.01,1.82-.95,1.08-1.85,2.2-2.82,3.25-.23.25-.66.31-1.08.49-.26-1.17.17-1.96.8-2.61.96-1,2-1.92,3.09-2.95Z"/>
  </g>
  <path class="st0" d="M202.46,135.87c.93-1.52,2.3-2.39,3.46-3.47.08-.08.34-.06.44,0,.1.07.17.29.15.42-.32,1.78-2.05,3.15-4.04,3.04Z"/>
  <path class="st1" d="M104.94,138.64c-.02-.39-.04-.82-.07-1.38.52.15.89.26,1.35.39.05-.48.1-.94.16-1.43q.57.36,1.19,1.82c1.48.25,2.98-.03,4.47-.2,1.45-.16,2.89-.37,4.34-.55.11,1.02-.02,1.39-.84,1.74-.63.26-1.33.45-2.01.49-2.76.18-5.47-.26-8.19-.66-.11-.02-.21-.11-.4-.21Z"/>
  <path class="st0" d="M54.76,74.16c-.67-2.96-1.51-5.88-2.3-8.82-.39-1.47-.79-2.94-1.26-4.38-.34-1.05-.84-2.02-1.92-2.53-.88,1.15-1.23,1.96-1.53,3.91-.47,3.09-1.11,6.14-2.27,9.06-.24.61-.38,1.26-.57,1.88-.51,1.69-.95,3.4-1.56,5.06-1.8,4.88-3.06,9.88-3.81,15.02-.94,6.42-1.83,12.84-2.29,19.32-.31,4.34-.97,8.65-1.49,12.97-.55,4.56-1.23,9.12-1.67,13.69-.38,3.92-.54,7.86-.72,11.8-.16,3.45-.24,6.89-.31,10.34-.13,5.99-.16,11.99-.35,17.98-.13,4.14-.46,8.28-.32,12.43.08,2.3-.06,4.6-.09,6.9-.01,1.11,0,2.22,0,3.32-.01,3.16.02,6.32-.06,9.48-.06,2.5-.4,4.99-.11,7.5.27,2.32.47,4.66.71,6.99.25,2.49.54,4.98.76,7.48.32,3.8.35,7.65.94,11.41,1.21,7.74,2.72,15.44,4.1,23.16.07.38.14.77.21,1.15-.69-.15-1.24-.26-2.03-.43-1.02-2.12-2.13-4.46-2.77-6.96-.98-3.86-1.95-7.73-2.72-11.63-1.25-6.32-2.4-12.67-3.47-19.03-.61-3.64-1.13-7.31-1.38-10.99-.34-4.79-.43-9.59-.52-14.39-.05-2.75.09-5.5.17-8.25.09-2.96.27-5.91.33-8.86.08-4.19.08-8.38.13-12.56.06-4.39.04-8.79.24-13.18.39-8.78.91-17.55,1.37-26.33.12-2.34.03-4.71.39-7,.97-6.21,2.07-12.39,2.84-18.63.66-5.38,1.65-10.71,3.14-15.94,1.26-4.42,2.44-8.87,4.2-13.13.95-2.32,1.88-4.64,2.74-6.99,1.95-5.33,3.27-10.85,4.69-16.33.09-.33.09-.68.14-1.18-1.49.31-2.69.82-3.75,1.59-2.35,1.72-4.69,3.46-6.98,5.27-2.53,2-4.47,4.57-6.56,6.99-2.89,3.35-4.97,7.14-6.15,11.4-.6,2.18-1.04,4.39-.66,6.69.31,1.95,1.34,3.3,3.11,4.14.48.23.82.21,1.21-.15,1.27-1.18,2.43-2.43,3.3-3.95,1.77-3.09,2.89-6.44,3.94-9.81,1.27-4.09,2.8-8.06,5.03-11.75.85-1.41,1.67-2.83,2.55-4.21.42-.67.87-1.36,1.91-1.64-.16.53-.25.91-.39,1.28-.8,2.07-1.59,4.14-2.42,6.19-1.54,3.76-3.11,7.51-4.66,11.27-2.03,4.91-3.52,9.98-4.52,15.19-.57,2.94-1.22,5.87-1.7,8.82-.42,2.59-.59,5.22-1.01,7.81-.69,4.34-1.46,8.66-2.25,12.99-1.01,5.5-1.83,11.01-1.61,16.64.1,2.54-.08,5.09-.26,7.62-.16,2.37-.55,4.73-.73,7.1-.22,2.82-.31,5.66-.51,8.48-.31,4.18-.53,8.36-1.43,12.47-.12.56-.2,1.14-.22,1.71-.21,6.53-.48,13.05-.57,19.58-.07,5.79.02,11.58.14,17.37.09,4.23.33,8.45.51,12.67.04.93.09,1.86.13,2.79-.11,0-.21,0-.32.01-.06-.19-.16-.37-.18-.57-.27-2.24-.69-4.48-.75-6.72-.16-5.91-.14-11.82-.22-17.74-.1-7.89.11-15.77.49-23.64.43-8.82.75-17.64,1.23-26.46.3-5.54.48-11.08.4-16.62-.04-2.55-.04-5.09-.06-7.64,0-.72.13-1.37.56-1.97,2.13-2.98,3.08-6.42,3.66-9.96.35-2.16,0-2.57-2.15-2.98-.11-.02-.24.04-.44.08-.23.47-.53.97-.71,1.5-.2.58-.27,1.2-.42,1.8-.12.5,0,1.07-.5,1.5-.22-3.08-.45-6.16-.69-9.5.57.69.87,1.3,1.35,1.56.92.51,1.94.89,2.95,1.21.79.25,1.29-.14,1.35-.97.05-.65-.05-1.31-.04-1.97,0-.48-.2-.75-.62-.95-1.32-.63-2.68-1.03-4.16-.97-.32.01-.64,0-.95,0-.35-1.34-.16-1.64,1.1-1.57.57.03,1.13.18,1.68.34.75.21,1.47.52,2.22.72.45.12.94.13,1.57.22-.11-.53-.14-.88-.26-1.21-.3-.82-.24-1.56.18-2.35.69-1.32.45-1.82-1.1-2.6-.38.5-.76,1.01-1.19,1.57-.47-.2-.9-.38-1.39-.59.9-1.42,1.88-2.51,3.5-3.09-.44-.25-.69-.38-.93-.54-.24-.16-.46-.35-.86-.66.59-.08.91-.11,1.22-.17,1.02-.19,1.42-.84.82-1.67-.65-.91-.62-1.7-.16-2.6.07-.13.04-.31.07-.58-.63-.34-1.26-.68-1.83-.98-.67.46-1.22.84-1.95,1.35,0-.7.01-1.14,0-1.57-.04-1.18-.49-1.51-1.56-1.08-.56.22-1.07.56-1.5.79-.66-.53-1.2-1.1-1.85-1.47-.76-.42-1.03-.26-1.46.52-.16.29-.34.58-.55.95-.37-.4-.58-.73-.88-.92-.4-.26-.86-.57-1.3-.57-2.06-.03-3.97.56-5.71,1.67-.51.32-.93.77-.88,1.46.14.05.22.1.29.1.12,0,.25-.01.36-.05,2.24-.62,4.4-.05,6.55.49.57.14,1.07.59,1.56.95.2.14.29.42.56.84-1.13-.15-1.98-.44-2.8-.77-1.31-.53-2.63-.56-3.99-.26-1.13.26-1.18.31-1.16,1.61,1.58.67,3.18,1.24,4.97,1.04.92-.1,1.82.07,2.58.63.27.2.59.57.58.85-.03.96-.21,1.91-.36,3.14-1.97-1.96-4-3.33-6.43-4.03-1.18,1.97-.84,3.52,1.07,4.64,1.55.91,3.12,1.83,4.78,2.5.97.39,1.23.9,1.2,1.8-.02.66.05,1.31.04,1.97,0,.25-.11.5-.24,1.02-.52-.68-.89-1.16-1.26-1.63-1.4-1.8-3.35-2.74-5.46-3.38-.53-.16-1.14-.09-1.71-.05-.45.03-.88.2-1.03.82.46.42.93.87,1.42,1.3,1.07.95,2.13,1.92,3.24,2.84.78.65,1.6,1.25,2.44,1.83.44.3.95.49,1.44.7.63.27.95.7.95,1.42.01,2.09.07,4.19.1,6.28,0,.12-.12.25-.29.58-1.82-4.22-4.04-7.88-7.9-10.26-.97,1.28-.99,1.6-.03,2.63.82.89,1.4,1.9,1.93,2.98,1.1,2.25,2.2,4.5,3.43,6.68,1.98,3.5,3.12,7.23,3.23,11.24.11,3.98.09,7.96.13,11.95,0,.11-.02.23-.04.42-.13-.8-.29-1.52-.35-2.25-.11-1.31-.29-2.63-.18-3.92.11-1.34-.12-2.53-.72-3.68-1.67-3.17-3.61-6.16-5.95-8.88-.37-.42-.84-.81-1.34-1.04-.85-.4-1.47.04-1.46.98,0,.45.03.91.13,1.35.43,1.84.93,3.65,1.33,5.5.32,1.5.93,2.79,2.11,3.8,1.84,1.58,3.12,3.56,4.17,5.73.56,1.16,1.06,2.41,2.17,3.24.16.12.23.44.24.66,0,1.72,0,3.45-.03,5.17,0,.2-.11.4-.17.59-.23-.64-.22-1.26-.33-1.85-.2-1.09-.26-2.26-.74-3.22-1.36-2.67-2.84-5.27-4.4-7.83-.67-1.1-1.63-2.03-2.47-3.05-.8.49-1.36.92-1.4,1.77-.15,3.68.41,7.13,3.2,9.86.68.66,1.27,1.4,1.96,2.04,1.54,1.42,2.61,3.13,3.49,5.02.47,1.02.59,2,.54,3.09-.08,1.68-.06,3.36-.05,5.04,0,1.31.1,2.63.07,3.94-.05,2.5-.16,5.01-.26,7.51-.04.98-.11,1.97-.2,2.95-.02.23-.19.45-.29.67-.23-.49-.23-.94-.27-1.38-.1-1.14-.15-2.3-.34-3.43-.6-3.55-2.27-6.66-4.22-9.63-.37-.56-.95-1.02-1.51-1.42-.45-.32-1.02-.52-1.69-.12.08.44.12.89.24,1.31,1.02,3.51,2.21,6.96,3.89,10.22.84,1.64,1.73,3.24,2.26,5.04,1.34,4.48,1.57,9.04,1.44,13.66,0,.17-.08.34-.12.56-.13-.12-.23-.17-.24-.23-.02-.49-.05-.99-.03-1.48.14-3.31-.22-6.54-1.09-9.75-.57-2.08-1.49-4-2.34-5.95-.39-.9-.84-1.78-1.33-2.63-.36-.62-1.14-.64-1.49-.05-.15.24-.13.62-.08.93.14.89.32,1.78.49,2.66.68,3.67,1.32,7.35,2.05,11.01.4,2.02.81,4.04.73,6.1-.08,1.88.41,3.56,1.42,5.12.9,1.41,1.47,2.97,1.54,4.63.08,2.17,0,4.35,0,6.52,0,.1-.09.19-.23.49-.12-.48-.24-.77-.27-1.06-.08-1.02-.1-2.05-.19-3.07-.28-3-.64-5.97-2.66-8.44-.44-.53-.69-1.21-1.04-1.82-.18-.31-.37-.61-.55-.91-1.44.57-1.53.68-1.4,1.96.23,2.29.44,4.57.73,6.85.23,1.79.54,3.57.85,5.35.2,1.18.51,2.32,1.16,3.35.9,1.42,1.76,2.87,2.62,4.32.31.53.64,1.08.78,1.66.38,1.63.67,3.29.99,4.94.01.06-.06.14-.21.42-.81-2.08-1.53-4.02-2.31-5.94-.81-1.97-1.78-3.86-3.29-5.63-.47.53-.91.95-1.25,1.44-.17.24-.24.61-.2.9.23,1.67.5,3.33.78,4.99.33,1.96,1.1,3.68,2.68,4.98.84.69,1.45,1.56,1.91,2.54.12.25.29.48.45.74.38-.08.72-.16,1.08-.24.55.69.97,1.36,1.11,2.21.23,1.37.51,2.73.77,4.1.04.2.04.42.06.62l-.27.12c-1.66-1.89-3.06-3.96-4.17-6.23.21-.25.39-.46.55-.65-.66-1.59-1.79-2.67-3.16-3.61-.65.5-.85,1.15-.93,1.85-.35,3.01.91,5.39,3.02,7.46-.51-.08-.91-.27-1.33-.38-.8-.2-1.1,0-1.37.77-.19.54-.35,1.1-.62,1.6-.58,1.07-.39,2.04.22,3.02,1.3,2.11,3.01,3.67,5.5,4.24,1.04.24,2.08.48,3.1.8.76.24.78.43.35,1.11-1.76-.52-3.49-.99-5.19-1.56-.56-.19-1.05-.61-1.51-1-.59-.5-1.13-1.07-1.67-1.63-.56-.58-1.09-1.18-1.61-1.74-.67.22-.63.68-.58,1.14.14,1.27.32,2.53.41,3.8.13,1.72,1.07,2.8,2.58,3.44.6.25,1.24.47,1.88.53,1.18.12,2.37.13,3.56.17.56.02,1.12,0,1.68,0-1.49.57-2.98.99-4.5,1.22-1.56.24-3.14.29-4.77.43-.17.64-.35,1.27-.5,1.9-.08.32-.14.64-.18.97-.15,1.21.28,1.95,1.48,2.12.87.13,1.82.12,2.67-.1,2.76-.69,5.54-.62,8.33-.34.38.04.74.19,1.12.29-.01.1-.02.2-.04.3-.38,0-.76,0-1.14,0-1.48-.03-2.96-.16-4.43-.09-2.79.14-5.15,1.27-7,3.4-.29.34-.57.72-.74,1.12-.48,1.14.06,2.17,1.28,2.42.43.09.92.14,1.34.04,1.15-.28,2.31-.57,3.42-.98,2.9-1.07,5.84-1.97,8.95-2.12.21-.01.43.06.71.1-.13.15-.17.25-.23.26-3.04.71-6.05,1.53-8.88,2.88-.11.05-.23.07-.36.1-1.64.36-2.88,1.38-4.02,2.51-.42.41-.7,1.02-.89,1.59-.67,2.04.1,3.05,2.24,3.12,2.15.07,4.05-.57,5.67-1.98,1.08-.95,2.12-1.94,3.19-2.9.31-.28.65-.54.97-.81-.53,1.22-1.29,2.22-1.84,3.33-.57,1.15-.94,2.41-1.47,3.81,1.21.11,2.26.43,3.22.25,2.19-.4,4.27-1.18,6.05-2.61,1.11-.89,1.64-1.92,1.04-3.33-.04-.1,0-.23,0-.34.5.33.82.77,1.15,1.2.84,1.11,1.66,2.24,2.54,3.32.51.62,1.22,1.05,2.03,1.05,1.97-.01,3.89-.42,5.88-1.05-.16-.83-.27-1.55-.44-2.26-.9-3.75-1.8-7.5-2.73-11.24-1.18-4.73-1.4-9.58-1.88-14.4-.37-3.72-.6-7.45-.94-11.17-.38-4.17-.94-8.33-1.17-12.51-.27-4.84-.38-9.69-.38-14.53,0-10.06.13-20.12.2-30.18,0-.41.01-.82.04-1.23.36-6.23.74-12.46,1.08-18.69.27-5.08.46-10.17.75-15.26.26-4.51.55-9.02.94-13.52.25-2.82.75-5.62,1.07-8.43.7-6.11.95-12.28,2.17-18.34.77-3.86,1.28-7.78,1.94-11.66.55-3.24,1.13-6.47,1.71-9.71.07-.4.08-.86.68-1.37,0,.7-.05,1.14,0,1.56.26,2.03.45,4.08.85,6.09.35,1.71,1.27,3.21,2.49,4.47,1.56,1.62,3.43,1.64,5.13.14.98-.87,1.37-2,1.6-3.24.86-4.56.55-9.09-.48-13.57ZM19.54,245.63c-1.36-1.5-3.02-2.64-3.94-4.39.08-.55.15-1.05.23-1.65.16.11.36.17.43.3.64,1.08,1.51,1.88,2.57,2.56,1.15.74,1.37,1.82.71,3.17ZM21.57,108.46c-.26-.82-.87-1.63-.25-2.38.84-1.02,2.02-1.24,2.78-.75-.82,1.02-1.65,2.03-2.54,3.13ZM24.74,99.99c-.55.4-.93.76-1.37.98-1.08.54-2.05,1.17-2.52,2.37.13-1.69,2.2-3.57,3.89-3.35ZM21.03,97.23c.68-.95,1.23-1.15,2.79-.91-.39.26-.6.47-.85.56-1.43.47-2.06,1.5-2.18,2.93-.04.43-.14.86-.25,1.44-.61-1.15-.35-2.85.49-4.02Z"/>
  <path class="st0" d="M181.94,133.51c-.08.97-.5,1.53-1.13,1.87-.61.33-1.27.59-1.93.76-.71.18-1.46.2-2.19.34-4.28.81-8.58.68-12.89.27-1.46-.14-2.95-.15-4.42-.07-5.91.34-11.82.37-17.73-.03-1.25-.08-1.49-.17-2.51-.78.46-.69,1.09-.97,1.87-.91.98.08,1.97.15,2.93.36,4.02.87,8.07.82,12.14.61.12,0,.28.02.36-.04.21-.15.39-.34.58-.51-.18-.18-.33-.47-.53-.51-2.47-.57-4.95-1.1-7.43-1.65-.11-.02-.21-.1-.39-.19.4-.58.86-.83,1.56-.74.52.07,1.09.14,1.58,0,1.18-.31,2.17.07,3.16.64.73.43,1.49.81,2.24,1.22.48-1.22.49-1.23-.37-1.83-1.19-.82-2.32-1.7-3.14-2.92-.56-.83-.57-.97-.14-2.13.24.13.5.23.7.39,1.53,1.2,2.93,2.54,3.86,4.26.66,1.23,1.67,1.88,2.98,2.14,1.05.21,2.1.4,3.15.57,1.13.18,1.38.08,1.85-.94,1.4-2.99,1.68-6.07.54-9.21-.21-.58-.48-1.14-.63-1.73-.21-.81.11-1.42.74-1.6.59-.17,1.26.21,1.52.93.62,1.67.54,3.39.31,5.11-.15,1.11-.16,1.11.25,2.13.7-.37.84-.58,1.7-2.93.41-1.12.84-2.24,1.09-3.39.25-1.15.28-2.35.42-3.61h1.29c.31.99.31,1.95.15,2.93-.51,3.03-1.93,5.65-3.64,8.14-.32.47-.69.92-.96,1.43-.56,1.04-1.06,2.1-1.6,3.19.18.05.3.12.4.1,3.7-.69,7.14-1.95,9.8-4.75.72-.76,1.24-1.72,1.84-2.59.3-.44.51-.95.86-1.33.21-.22.71-.43.94-.32.3.14.6.57.65.91.12.96-.1,1.91-.67,2.69-.55.76-1.13,1.53-1.84,2.14-1.43,1.24-2.98,2.32-4.82,2.91-.68.22-1.3.58-1.9,1.02,1.67.15,3.21-.31,4.74-.77,1.52-.46,3.01-1.01,4.67-1.57Z"/>
  <path class="st0" d="M176.86,120.01c1.34.93,1.62,1.99,1.29,3.26-.53,2.06-1.55,3.87-2.76,5.59-.95,1.34-1.86,2.73-3.31,3.58-.77.45-1.62.76-2.45,1.11-.16.07-.37,0-.76,0,.64-.9,1.16-1.67,1.72-2.41,1.01-1.34,2.05-2.67,3.06-4.01,1.15-1.53,1.91-3.24,2.45-5.06.19-.66.47-1.29.76-2.07Z"/>
  <path class="st0" d="M159.35,124.17c2.22,1.92,3.73,5.93,3.34,8.83-1.05.14-1.24.03-1.48-.87-.11-.43-.2-.88-.27-1.32-.26-1.65-.83-3.16-1.97-4.42-.08-.09-.15-.2-.22-.3-.68-1.04-.6-1.31.59-1.93Z"/>
  <path class="st0" d="M162,123.59c.97.13,1.59.66,1.94,1.42,1.1,2.41,1.34,4.94.86,7.54-.1.55-.46.92-1.12,1.09-.08-1.76,0-3.48-.28-5.13-.27-1.63-.89-3.19-1.4-4.92Z"/>
  <path class="st0" d="M153.32,135.23c-2.09.31-7.22-.27-8.14-.91.66-.54,1.42-.65,2.16-.57,1.98.21,4.03.25,5.97,1.48Z"/>
  <g>
    <path class="st0" d="M62.33,253.5c-.31-.36-.56-.8-.93-1.06-1.3-.92-2.64-1.8-3.99-2.65-.52-.33-1.1-.56-1.67-.79-2.71-1.09-4.84-2.94-6.57-5.23-2.47-3.27-4.49-6.78-5.23-10.89-.07-.36-.18-.75-.11-1.09.05-.26.29-.57.53-.69.17-.08.61.04.72.21,1.2,1.81,3.06,2.84,4.72,4.09,2.14,1.6,3.86,3.56,5.4,5.7,1.39,1.93,2.7,3.92,4.07,5.87.39.55.86,1.05,1.3,1.57.51-.39.41-.76.27-1.1-.27-.64-.55-1.29-.91-1.88-1.89-3.18-3.71-6.4-6.05-9.28-.88-1.08-1.31-2.36-1.82-3.61-.43-1.06-.92-2.1-1.46-3.11-.53-.98-.95-1.98-1.23-3.07-.48-1.87-1.12-3.69-1.69-5.53-.18-.59-.34-1.17-.1-1.84,1.12-.01,1.99.31,2.56,1.34,1.25,2.26,2.47,4.54,3.82,6.74,1.45,2.36,2.66,4.81,3.64,7.39.93,2.46,1.85,4.92,2.82,7.36.48,1.22,1.08,2.39,1.59,3.6.46,1.09.91,2.2,1.3,3.32.63,1.82,1.21,3.65,1.85,5.61.04-.09.03,0-.03.05-.55.55-1.02,1.37-1.67,1.55-.66.19-1.51-.22-2.25-.43-5.4-1.53-10.88-1.47-16.38-.85-.8.09-1.58.41-2.35.7-.73.27-1.42.64-2.13.96-.07.03-.16,0-.33,0-.8-.95-1.02-2.15-1.1-3.38-.17-2.43.29-3.03,2.68-3.61,1.85-.44,3.71-.7,5.62-.51.41.04.82.07,1.23.08,3.45.08,6.62,1.06,9.59,2.81,1.09.64,2.27,1.15,3.41,1.71.21.1.45.13.67.2.07-.08.14-.17.22-.25Z"/>
    <path class="st0" d="M61.79,230.31c0-.32.02-.64,0-.96-.34-4.26-.57-8.52-1.08-12.76-.27-2.22-1.03-4.39-1.56-6.58-.26-1.08-.21-1.42.44-2.67,1.88,1.59,3.95,2.84,4.34,5.66.54,3.99,1.02,7.99,1.04,12.01.02,2.83-.16,5.66-.33,8.49-.11,1.89-.13,3.77.19,5.65.44,2.62-.37,5.11-.85,7.8-.33-.24-.54-.34-.67-.5-.33-.42-.72-.83-.9-1.31-.74-1.99-1.67-3.96-2.07-6.02-.87-4.53-1.93-8.99-3.43-13.34-.73-2.11-1.07-4.3-1.3-6.51-.14-1.43-.27-2.87-.53-4.28-.25-1.41-.67-2.79-1-4.18-.42-1.74-.82-3.49-1.27-5.36,1.54-.14,2.76.41,3.95,1.03.14.07.22.33.27.52.84,3.22,1.76,6.42,2.48,9.66.36,1.63.46,3.33.49,5.01.06,2.98.71,5.83,1.46,8.68.11,0,.22-.01.32-.02Z"/>
    <path class="st0" d="M73.08,259.43c.21-.62.37-1.07.61-1.78-.97.38-1.73.67-2.5.97-.04-.07-.08-.13-.12-.2.15-.13.27-.32.44-.39,2.41-.95,4.83-1.88,7.41-2.17,2.86-.32,5.66-.92,8.44-1.67,3.88-1.04,7.79-1.98,11.7-2.92.83-.2,1.7-.26,2.56-.3,1.14-.05,2.28-.01,3.5-.01.59.98.58.98-.25,1.8-.49.49-.99.99-1.44,1.52-2.39,2.79-5.54,4.11-9.05,4.78-1.49.28-2.98.57-4.44.96-1.2.32-2.39.53-3.63.53-3.82,0-7.62-.34-11.41-.74-.56-.06-1.11-.23-1.82-.39Z"/>
    <path class="st0" d="M165.49,216.59c-.75-.31-1.23-.62-1.75-.7-.92-.15-1.86-.2-2.79-.21-1.33-.02-1.35.03-1.44,1.65,2.03.53,3.92.64,5.98-.74Z"/>
    <path class="st0" d="M129.61,233.95c-.39-.81-.94-1.53-1.78-1.94-.1.08-.21.12-.22.18-.25,1.45-.25,2.89.57,4.17,1.47,2.27,3,4.5,4.51,6.75.08.12.23.18.45.35.19-1.04-.02-1.9-.38-2.71-1.03-2.28-2.08-4.55-3.16-6.8Z"/>
    <path class="st0" d="M145.86,229.58c-.68,2.89-1.11,5.8-.58,8.76.08.42.21.82.32,1.24.08,0,.16,0,.24-.01.06-.18.15-.35.17-.53.34-3.09.68-6.18,1-9.28.05-.5-.03-1-.05-1.62-.79.34-.98.91-1.1,1.44Z"/>
  </g>
  <path class="st0" d="M88.5,85.69c6.07,3.39,11.5-.44,8.82-7.46-2.16-2.8-5.29-5.13-8.08-7.46-17.36-19.56-34.16-19.19-35.76-16.51,20.13.82,23.44,19.76,35.02,31.43Z"/>
  <path class="st0" d="M197.06,252.12c.98-.52,1.93-1.1,2.94-1.55,3.28-1.43,5.55-3.89,7.15-7.01.29-.57.49-1.23.59-1.86.18-1.2-.22-1.57-1.45-1.45-1.07.11-1.92.67-2.71,1.36-.84.73-1.69,1.44-2.55,2.14-1.21.98-2.43,1.95-3.66,2.91-.12.09-.29.13-.44.19.24-.61.55-1.09.94-1.5,1.34-1.45,2.72-2.85,4.05-4.31.91-1,1.83-2,2.61-3.1,1.54-2.17,2.57-4.57,2.82-7.27.09-.99-.21-1.77-.97-2.39-.34-.28-.66-.57-.97-.83.6-1.25.71-2.11.29-3.16-.11-.29-.45-.61-.74-.69-1.35-.36-2.66.72-2.59,2.1.03.57.15,1.14.16,1.72,0,.61.02,1.24-.13,1.82-.64,2.55-1.31,5.08-2.01,7.61-.38,1.38-.81,2.75-1.26,4.11-.1.3-.22.69-.78.7.06-.35.09-.63.15-.9.75-3.45,1.44-6.91,2.28-10.34.45-1.85-.45-3.12-1.27-4.42-1.61.04-1.57,1.5-2.37,2.48-.21-.98.14-1.59.52-2.13.96-1.35,2.15-2.52,3.61-3.29,1.76-.93,3.15-2.21,4.31-3.78.68-.92,1.02-1.96.97-3.11,0-.22-.11-.43-.21-.79-1.04.97-1.97,1.84-2.91,2.71-.07-.05-.14-.1-.2-.16.08-.21.14-.43.26-.62.54-.87,1.09-1.74,1.66-2.59.75-1.13,1.09-2.39,1.19-3.71.03-.33-.05-.87-.25-.97-.31-.15-.82-.11-1.15.04-.34.16-.64.52-.82.87-.63,1.2-1.22,2.42-1.78,3.65-.59,1.31-1.04,2.68-1.68,3.96-.67,1.36-1.49,2.64-2.25,3.95-.6,1.03-1.37,1.88-2.66,2.55,0-.74,0-1.3,0-1.85-.05-5.54-.09-11.09-.15-16.63-.04-3.49-.07-6.98-.14-10.47-.05-2.5-.18-5-.24-7.5-.01-.43.03-.98.28-1.28.65-.79.99-1.67,1.28-2.62.13-.42.39-.82.66-1.18.87-1.15,1.68-2.35,2.67-3.38,1.8-1.88,3.28-3.99,4.7-6.15.73-1.12,1.27-2.31,1.43-3.63.21-1.71.43-3.43.47-5.14.14-6.24.2-12.48.28-18.72.01-.82-.03-1.64-.08-2.46-.07-1.04-.43-1.38-1.45-1.41-.33,0-.65.05-.98.06-3.16.12-6.31.23-9.47.36-.55.02-.87-.22-1.03-.69-.14-.4-.19-.83-.32-1.4,4.51-.03,8.84-.06,13.26-.09.05-.61.08-1.08.11-1.49-.21-.09-.29-.15-.36-.14-3.86.02-7.72.06-11.58.04-.75,0-1.14.33-1.46.97-.12-.45-.18-.85-.21-1.25-.16-2.54-.25-5.09-.5-7.62-.46-4.78-1.01-9.56-1.53-14.33-.45-4.08-.8-8.17-1.39-12.23-.62-4.26-1.41-8.5-1.83-12.79-.1-.98-.34-1.94-.56-2.9-.59-2.6-1.25-5.19-1.82-7.79-.93-4.26-2.36-8.37-3.63-12.53-1.45-4.73-3.59-9.17-5.28-13.8-.55-1.51-1.37-2.9-2.59-4-.23-.2-.5-.36-.86-.62-.06,1.48.37,2.67,1,3.78,1.25,2.19,2.13,4.52,2.92,6.91.53,1.6,1.17,3.15,1.74,4.74.61,1.7,1.29,3.38,1.77,5.12,1.83,6.57,3.52,13.17,4.87,19.85.71,3.5,1.25,7.03,1.84,10.55.83,4.94,1.79,9.88,1.78,14.91,0,3.79.47,7.54.71,11.3.35,5.66.79,11.31,1.04,16.97.12,2.58-.17,5.17-.16,7.75,0,4.72.07,9.44.16,14.16.06,3.49.08,6.99.32,10.46.18,2.5.25,4.99.25,7.5,0,3.65.04,7.31.21,10.96.14,2.83.45,5.65.78,8.46.43,3.72.43,7.46.55,11.19.23,7.47.03,14.94-.03,22.41-.03,4.03-1.25,7.86-2.11,11.73-.97,4.37-2.5,8.58-4.02,12.8-1.48,4.11-3.49,7.87-6.06,11.37-.51.69-1.04,1.25-1.91,1.44-.3.07-.56.27-.84.41.02.09.04.18.06.27.64.12,1.29.18,1.91.36,1.14.33,2.1.09,2.9-.78.41-.45.81-.92,1.22-1.38.18-.2.38-.4.53-.57,1.55.41,3.03.77,4.48,1.19,2.52.73,5.09.94,7.68.59,3.06-.41,5.8-1.47,7.78-4.01.58-.74.92-1.53.94-2.45-.68-.58-1.37-.69-2.21-.55-1.33.21-2.69.42-4.03.36-2.87-.13-5.73-.43-8.59-.68-.29-.03-.58-.15-.97-.25.66-.51.66-.57,1.28-.53,2.21.15,4.42.3,6.62.52,1.8.18,3.54-.01,5.21-.64,2.49-.94,3.7-2.91,4.01-5.45.17-1.33-.51-2.09-1.85-2.01-1.05.06-2.1.34-3.11.65-2.94.89-5.87,1.85-8.8,2.77-.26.08-.53.08-.82.13.02-.83,0-.87.5-1.15.68-.38,1.38-.72,2.09-1.04,2.21-.99,4.43-1.96,6.64-2.96,1.86-.84,3.44-2.1,4.8-3.59.5-.55.9-1.3,1.09-2.02.36-1.38-.57-2.24-1.95-1.9-.63.15-1.24.42-1.85.67-2.41.99-4.59,2.38-6.75,3.81-.35.23-.73.44-1.16.71-.35-1.45-.03-2.44,1.16-3.08ZM202.03,237.41c.65-1.82,1.18-3.64,1.13-5.62-.03-1.25.92-2.17,1.65-3.15-.97,2.11-.85,4.4-1.29,6.59-.21,1.02-.73,1.98-1.15,2.96-.08.19-.31.31-.66.35.11-.38.19-.76.32-1.12ZM197.42,272.17l1.36-2.47s.07-.03.09,0l1.36,2.47s0,.07-.04.07h-2.72s-.06-.04-.04-.07ZM194.63,269.74s.02-.05.05-.05h1.23c.74,0,1.34.64,1.27,1.39-.06.66-.63,1.15-1.3,1.15h-1.2s-.05-.02-.05-.05v-2.45ZM191.56,269.74s.02-.05.05-.05h1.19s.05.02.05.05v1.27s.02.05.05.05h1.06s.05.02.05.05v1.09s-.02.05-.05.05h-2.35s-.05-.02-.05-.05v-2.45ZM190.95,270.96c0,.75-.61,1.36-1.36,1.36s-1.36-.61-1.36-1.36.61-1.36,1.36-1.36,1.36.61,1.36,1.36ZM195.46,242.5c-.05-.24-.16-.48-.15-.72.03-.78.12-1.55.16-2.33.13-2.94.24-5.89.36-8.83.02-.4.04-.79.06-1.28.76.12.88.54.98.99.55,2.52.57,5.03-.06,7.54-.39,1.54-.74,3.08-1.35,4.62Z"/>
  <g>
    <path class="st0" d="M105.08,280.38c-.07,0-.26.04-.31.08-.09.07-.14.21-.01.25.09.02.34-.1.38-.15.08-.11-.02-.17-.06-.17Z"/>
    <path class="st0" d="M214.46,130.59c-.01-.26-.03-.52-.03-.78-.03-1.21-.06-2.41-.1-3.62-.08-2.75-.16-5.6-.14-8.38.04-4.86.05-10.52-.49-16.09-.16-1.62-.19-3.25-.23-4.96-.01-.6-.03-1.19-.05-1.79-.03-.87-.04-1.76-.05-2.63-.02-1.66-.04-3.38-.18-5.09-.37-4.59-.51-9.41-.42-14.32.06-3.24.13-6.54.2-9.73.08-3.63.17-7.39.23-11.09.04-2.33.05-4.7.07-6.99.02-2.68.03-5.44.09-8.15.08-3.83-.16-7.22-.74-10.35-.51-2.75-.65-5.45-.43-8.04.1-1.15.07-2.28.04-3.36v-.31c-.06-2.19-.13-4.41-.2-6.56-.04-1.3-.08-2.61-.12-3.91-.09-3.1-2.28-3.63-3.58-3.67h-.32c-2.29-.08-4.65-.16-6.99-.16h-.4c-2.58.01-5.2.04-7.73.07-3.08.04-6.26.07-9.39.07h-.61c-2.69,0-5.42-.06-8.07-.11-2.35-.04-4.79-.09-7.19-.1-.17,0-.33,0-.5,0-1.52,0-3.06.04-4.54.07-1.46.03-2.97.07-4.44.07-.16,0-.33,0-.49,0-2.89-.02-5.84-.07-8.69-.11-2.36-.04-4.79-.08-7.19-.1h-.44c-.82-.01-1.65-.02-2.48-.02-1.91,0-3.38.04-4.76.14-.9.06-1.79.13-2.68.2-2.72.21-5.52.43-8.25.43-.91,0-1.75-.02-2.57-.07-.12,0-.23,0-.35,0-.27,0-.51.02-.74.03-.18.01-.35.02-.5.02h-.12c-.67,0-1.34.02-1.99.03-.65.02-1.27.03-1.89.03-.99,0-1.79-.04-2.5-.14-3.7-.49-7.37-.7-11.73-.86C97.28.13,93.55,0,89.81,0c-3.42,0-6.47.11-9.33.32-1.09.08-2.18.08-3.35.09h-2.12c-8.03,0-16.34.02-24.53,1.05-2.03.26-4.11.38-6.34.38-2.05,0-4.18-.11-6.5-.32-.64-.06-1.22-.09-1.76-.1-1.81-.02-3.62-.05-5.44-.07-4.84-.07-9.85-.14-14.79-.15h-.15c-2.95,0-5.93.12-8.81.23-.69.03-1.38.05-2.08.08-2.36.09-3.6,1.19-4.03,3.58-.08.46-.14.91-.2,1.35l-.06.43c-.62,4.46-.29,8.87.04,13.14.03.43.15,2.02.15,2.02.17,2.28.34,4.43.13,6.55-.38,3.85-.5,7.83-.38,12.18.07,2.66.04,5.39,0,8.03-.02,1.58-.04,3.22-.04,4.84,0,.87,0,1.75-.01,2.62-.02,3.51-.05,7.14.34,10.77.08.77.01,1.62-.07,2.53v.16c-.27,3.13-.27,6.31,0,9.45.32,3.73.65,7.58.38,11.36-.36,4.94-.42,9.53-.18,14.04.36,6.72.14,13.6-.06,20.25-.03.87-.05,1.74-.08,2.61l-.05,1.51c-.09,2.98-.18,6.06-.24,9.1v.26c-.03,1.4-.06,2.85.11,4.33.45,3.79.49,7.71.53,11.5v.83c.04,2.69.11,5.41.17,8.05.05,2.01.1,4.09.14,6.13.05,2.67.08,5.28,0,7.91-.06,2.11-.16,4.26-.25,6.33-.11,2.44-.23,4.97-.28,7.46-.18,7.56-.27,16.52.39,25.56.28,3.81.14,7.18-.42,10.29-.15.81-.15,1.6-.15,2.3v.14c0,.93,0,1.87,0,2.8,0,3.05-.02,6.2.03,9.31.04,2.85.13,5.74.22,8.53.04,1.47.09,2.95.13,4.42l.03.93c.04,1.29.07,2.61.06,3.9-.04,3.11-.11,6.37-.22,9.69-.04,1.24-.11,2.52-.18,3.75-.04.75-.08,1.49-.12,2.24,0,.19-.02.37-.03.56-.04.78-.08,1.59-.06,2.43.08,2.61,1.19,3.81,3.83,4.13,3.42.42,6.95.64,10.48.64,2.38,0,4.83-.1,7.27-.29.54-.04,1.11-.06,1.81-.06.61,0,1.25.02,1.86.03h.3c1.07.03,2.16.08,3.21.12,1.16.05,2.36.1,3.56.12,2.31.05,4.64.07,6.9.09h1.62c2.73.04,5.46.06,8.18.07h1.57c.38,0,.76,0,1.14,0,.35,0,.69-.02,1.04-.02.5,0,.9.02,1.26.06.94.11,1.91.17,2.95.17,1.84,0,3.67-.17,5.24-.34,2.09-.22,4.24-.33,6.39-.33s4.45.11,6.72.34c4.52.45,8.21.67,11.61.7.57,0,1.13,0,1.69,0,3.05,0,6.14-.07,9.13-.13,2.16-.05,4.39-.09,6.58-.11.45,0,.91,0,1.36,0,1.46,0,2.96.02,4.4.04,1.19.02,2.38.03,3.57.04,2.11.01,4.21.02,6.32.02,1.23,0,2.46,0,3.68-.01,1.43,0,2.88-.04,4.28-.06,1.75-.03,3.55-.07,5.31-.07h.36c1.56,0,3.16.06,4.71.11,1.02.04,2.08.07,3.13.09,1.72.04,3.47.05,5.16.07.75,0,1.5.02,2.25.03,1.09.01,2.18.03,3.27.04,2.52.04,5.13.07,7.7.09.19,0,.39,0,.58,0,.94,0,1.89-.01,2.81-.02.91-.01,1.84-.02,2.75-.02.62,0,1.18,0,1.7.02,5.48.12,10.85.23,16.29.23,4.01,0,7.62-.06,11.05-.18,2.89-.1,5.85-.11,8.71-.12,1.49,0,3.03-.01,4.55-.03.58,0,1.14-.05,1.73-.09.28-.02.57-.04.88-.06l1.78-.11.13-1.78c.03-.33.05-.65.08-.96.06-.67.11-1.31.13-1.97.03-1.05.05-2.1.06-3.12.03-1.83.05-3.72.17-5.55.34-5.26.41-9.63.2-13.77-.03-.65-.02-1.32,0-2.03,0-.35.02-.71.02-1.06l.02-3.26c.02-3.92.05-7.84.06-11.77,0-.47-.03-.92-.06-1.34-.02-.24-.03-.48-.04-.71-.07-1.75-.16-3.51-.24-5.22-.19-3.79-.39-7.72-.37-11.54.04-7.67.2-15.47.35-23.02.08-3.95.16-8.04.23-12.06.06-3.74.07-7.54.08-11.21v-2.12c.01-1.94,0-3.9-.02-5.8-.04-4.02-.08-8.17.13-12.21.3-5.99.39-12.05.47-17.92l.04-2.47c0-.48-.02-.94-.04-1.39ZM92.57,281.93c-.53.24-1.51.31-1.75-.06-.12-.23,0-.69.26-.81.17-.07.38-.12.56-.17.41-.12.04-.54-.37-.91-.79-.72-.48-2.09.79-2.22.34-.04.69.04.96.17.22.06.4.82.14.99-.19.12-1.24-.31-.97.24.17.39.81.69,1.06,1.04.3.37.29,1.29-.68,1.72ZM95.95,279.66c-.26.02-.42.07-.42.63,0,.61.06.67.32.86.1.07.18.14.06.32-.16.25-.48.33-.79.35-.58.05-1.09-.24-1.12-.69-.03-.24,0-.62.03-.97.03-.49-.24-.41-.25-.61,0-.18.15-.23.22-.32.19-.29.11-1.19.48-1.39.22-.12.94.05,1.01.37.11.45-.12.88.39,1.02.26.07.37.41.07.44ZM97.13,281.74c-.22.02-.46-.09-.46-.44,0-.56.77-.71.89-.16.05.36-.18.58-.43.59ZM102.72,281.74c-.57.23-.91-.52-.99-.91-.04-.2-.08-.33-.26-.07-.27.39-.51.75-.74.76-.37.03-.57-.41-.74-.86-.06-.19-.17-.14-.25.06-.18.46-.48,1.06-.67,1.09-.5.09-1.09-.19-.96-.84.14-.79.56-2.72,1.32-2.81.36-.04.66-.01.87.31.11.17.21.36.32.55.15.26.22.24.37-.02.18-.3.41-.9.85-.88.29.01.62.17.76.37.42.62.62,1.96.7,2.34.09.45-.09.73-.57.91ZM106.46,281.36c-.16.16-.71.29-.84.16-.21-.21-.14-.4-.46-.24-.59.27-1.59.4-1.47-.59.08-.64.56-.98,1.19-1.02.31-.03.49-.01.76.06.06.02.19-.03.24-.04.11-.03.52-.06.61.12.12.25.24,1.31-.02,1.56ZM109.45,279.78c-.19.14-.3.09-.55.16-.29.09-.36.54-.41.95-.08.65-.34.87-.79.86-.36-.01-.48-.2-.5-.52-.03-.49-.07-1.84.2-2.19.06-.08.14-.15.25-.19.32-.11.67-.12.81.04.15.19.18.15.31.16.24,0,.7.09.78.31.03.12.03.33-.1.42ZM111.83,279.66c-.26.02-.42.07-.42.63,0,.61.06.67.32.86.1.07.18.14.06.32-.16.25-.48.33-.79.35-.58.05-1.09-.24-1.12-.69-.03-.24,0-.62.03-.97.03-.49-.24-.41-.25-.61,0-.18.15-.23.22-.32.19-.29.11-1.19.48-1.39.22-.12.94.05,1.01.37.11.45-.12.88.39,1.02.26.07.37.41.07.44ZM113.74,281.35c-.06.24-.19.34-.44.37-.32.06-.73.02-.8-.4-.06-.4-.03-1.2.03-1.42.07-.37,1.06-.61,1.22-.07.09.27.09,1.13-.01,1.52ZM112.61,278.92c-.04-.44.26-.71.56-.72.27-.02.56.12.54.53-.02.36-.31.5-.58.51-.24.01-.49,0-.52-.32ZM117.26,281.09c-.04.3-.07.48-.42.53-.3.04-.62-.03-.73-.26-.08-.19-.07-1.23-.26-1.24-.06-.03-.14,0-.17.09-.11.36.02,1.42-.53,1.52-.26.04-.77-.04-.81-.36-.04-.34-.09-1.69.07-2.21.14-.45,1.16-.42,1.27-.18.11.24.31.22.53.22,1.01-.01,1.18.98,1.04,1.89ZM118.7,281.34c-.03.26-.16.53-.43.59-.14.03-.24-.04-.22-.2.03-.18-.04-.12-.15-.24-.06-.06-.09-.14-.08-.25,0-.37.49-.52.73-.33.14.11.17.28.15.43ZM123.72,278.71c-.24.08-.7.25-.72.56,0,.11.39.11.54.18.21.11.06.56-.11.65-.36.21-.58.11-.6.64-.03.46-.05.8-.15,1.05-.08.2-.43.31-.76.22-.32-.09-.42-.27-.46-.57-.07-.74-.21-2.57.21-3.07.39-.46,1.24-.53,1.89-.36.38.1.4.62.16.7ZM128.54,280.26c-.11.57-.29,1.46-1.04,1.46-.39,0-.79-.29-1.04-.64-.11-.16-.18-.14-.32.03-.11.14-.23.27-.36.38-.5.39-1.15.22-1.38-.37-.29-.74-.36-1.66-.11-2.34.17-.33.91-.5,1.15-.18.15.18.1.76.15,1.03.06.29.16.22.25.06.19-.31.42-.52.6-.54.32-.03.49.34.64.57.12.19.13.12.18-.08.11-.46.16-.73.28-1.04.17-.41,1.09-.24,1.12.27.04.62-.03.88-.12,1.39ZM130.75,281.19c0,.26-.03.42-.12.53-.25.33-1.36.25-1.44-.24-.03-.22,0-.49.01-.62.03-.9-.04-1.24.02-2.21.09-.56.39-.71.82-.68.44.03.61.17.69.64.09,1.09.01,1.46.01,2.57ZM208.56,248.68c-.17,6.81-.49,13.62-.76,20.43-.09,2.13-.21,4.26-.35,6.39-.07,1.09-.1,1.08-1.15,1.15-.12,0-.25,0-.37.01-14.28.52-28.56.91-42.86.72-3.99-.05-7.96-.36-11.93-.49-5.46-.18-10.92-.09-16.38-.15-7.1-.08-14.21-.19-21.31-.27-1.52-.02-3.04-.05-4.56.05-3.37.22-6.73.09-10.1.03-5.95-.11-11.91-.1-17.86-.14-4.6-.03-9.2,0-13.8-.13-14.82-.43-29.64-.14-44.47-.17-2.34,0-4.68.13-7.02.1-2.25-.03-4.5-.2-6.88-.32-.06-.37-.12-.65-.13-.93-.14-4.39-.31-8.78-.39-13.17-.03-1.64.18-3.28.23-4.92.07-2.26.2-4.52.1-6.77-.21-4.44-.28-8.86.28-13.28.15-1.14.16-2.29.16-3.44,0-12.4,0-24.8-.07-37.21-.03-5.34-.28-10.67-.41-16.01-.04-1.81-.05-3.61-.05-5.42,0-1.77.08-3.53.06-5.3-.03-1.65.02-3.28.34-4.9.14-.71.19-1.48.1-2.2-.81-7.15-1.24-14.32-1.04-21.51.12-4.48-.25-8.94-.49-13.41-.11-2.05-.1-4.1-.13-6.15-.05-3.45.07-6.91-.17-10.34-.78-11.2-.76-22.4-.59-33.61.04-2.42.25-4.84.22-7.26-.07-5.25-.26-10.51-.36-15.76-.04-1.85.08-3.69.07-5.54-.02-2.71-.11-5.42-.13-8.13,0-1.56.01-3.12.11-4.68.28-4.26.57-8.52.92-12.78.36-4.33.8-8.66,1.19-12.99.06-.65.05-1.31.03-1.97-.01-.5.21-.78.68-.86.4-.07.81-.15,1.22-.17,3.07-.2,6.15-.5,9.22-.56,3.16-.06,6.33-.02,9.48.25,6.41.56,12.8.21,19.2-.03,4.96-.19,9.92-.5,14.89-.73.73-.03,1.48.03,2.2.17,2.56.51,5.15.36,7.73.38,4.14.04,8.28.25,12.43.4.94.03,1.88.14,2.83.19,3.2.15,6.4.32,9.6.42,3.12.09,6.24.19,9.36.13,1.96-.04,3.91-.41,5.88-.57,1.27-.1,2.54-.12,3.82-.13,3.49-.04,6.98-.13,10.47-.08,2.38.04,4.75.33,7.13.4,1.68.06,3.36-.05,5.04-.09.7-.02,1.39-.11,2.09-.1,7.35.02,14.7.07,22.05.07,3.9,0,7.8-.16,11.67-.67,2.65-.34,5.3-.48,7.98-.12,1.78.24,3.6.19,5.41.25,3.2.11,6.4.22,9.6.28,1.84.04,3.69-.02,5.54-.04.27,0,.55,0,.94,0-.03.5-.04.89-.07,1.29-.19,2.47-.18,4.9.56,7.32.77,2.52,1.18,5.12,1.34,7.75.04.65.09,1.32.27,1.95.61,2.07.76,4.19.92,6.32.19,2.49.58,4.97.47,7.49-.24,5.37-.32,10.75-.65,16.12-.16,2.57-.63,5.13-1.13,7.67-.8,4.04-1.15,8.13-1.33,12.23-.04,1.02.03,2.05.14,3.07.35,3.27.74,6.53,1.11,9.79.06.57.11,1.15.13,1.72.28,7.67.53,15.34.82,23.02.06,1.6.3,3.19.34,4.79.09,3.28.17,6.56.14,9.85-.08,8.21-.24,16.42-.35,24.63-.12,8.83-.21,17.65-.31,26.48-.03,2.63-.11,5.25-.72,7.83-.19.78-.08,1.63-.09,2.45,0,.39,0,.78,0,1.39-1.57-.86-2.73-1.89-3.94-2.82-1.17-.91-2.01-2.27-3.6-2.72-.25.78-.09,1.45.29,1.96.96,1.27,2.01,2.47,3.05,3.69.18.21.46.35.71.48,1.12.6,2.23.87,3.34-.33.1.3.2.46.22.63.25,3.19.55,6.38.72,9.58.11,2.17.08,4.35.02,6.52-.08,3.2-.15,6.4.3,9.59.12.89.09,1.8.09,2.71,0,2.09,0,4.19-.01,6.28,0,1.52.11,3.02.46,4.52.22.95.31,1.95.31,2.92.01,5.17.07,10.35-.06,15.52Z"/>
  </g>
  <path class="st0" d="M186.75,227.93c-.03-4.43-.01-8.87-.02-13.3,0-2.83-.03-5.67-.01-8.5.02-3,.11-5.99.11-8.99,0-2.38-.08-4.76-.14-7.14-.05-1.68-.13-3.36-.19-5.05-.09-2.67-.21-5.33-.26-8-.03-1.51.07-3.03.12-4.55.05-1.39.09-2.79.16-4.18.09-1.72.25-3.44.28-5.16.03-1.93-.05-3.86-.07-5.78-.01-1.15.08-2.31-.04-3.45-.22-1.97-.12-3.91-.09-5.88.1-5.33.05-10.67-.54-15.99-.21-1.92-.46-3.83-.6-5.76-.31-4.13-.54-8.27-.86-12.4-.37-4.75-.81-9.49-1.22-14.24-.48-5.57-1.16-11.12-2.58-16.53-1.95-7.42-3.96-14.83-6.01-22.23-.7-2.53-1.6-5.01-2.41-7.5-.13-.41-.22-.88-.9-.93,0,.29,0,.53,0,.76,0,2.62.53,5.13,1.41,7.59.97,2.71,1.74,5.47,2.32,8.29.68,3.29,1.35,6.59,2.49,9.78.58,1.62,1.02,3.3,1.31,5,.56,3.24.96,6.5,1.42,9.75.04.26,0,.54,0,.8-.23.04-.35.08-.47.08-2.17-.05-4.35-.18-6.52-.16-7.64.06-15.28.16-22.92.27-5.06.07-10.12.18-15.18.27l-52.44.02h-.12c-.39.07-.63.13-.87.13-5.71-.02-11.42-.06-17.13-.08-.49,0-.99-.01-1.47.06-.25.04-.66.22-.68.37-.03.27.11.68.32.83.56.4,1.16.78,1.81,1.01,2.03.71,4.14,1.07,6.29,1.01,3.11-.08,6.13.48,9.14,1.15,3.77.84,7.55,1.61,11.32,2.41.48.1.96.23,1.42.4,2.22.83,4.54,1.11,6.88,1.22,1.19.06,2.38.13,3.56.25.58.06,1.22.07,1.78.76-.65.09-1.16.24-1.67.23-3.04-.09-6.07-.23-9.11-.34-1.06-.04-2.12-.02-3.19-.02-.73,0-1.47.05-2.2-.01-2.17-.17-4.33-.52-6.49-.55-2.51-.03-4.9-.43-7.21-1.36-1.37-.55-2.72-1.17-4.08-1.74-.72-.3-1.43-.66-2.18-.82-2.21-.5-4.38-1.06-6.5-1.86-1.66-.63-3.4-.49-5.11-.21-.63.1-1.23.33-1.56,1.19.63.03,1.11.06,1.59.07,2.59.07,5.14.3,7.66,1.05,5.04,1.5,10.11,2.87,15.17,4.3.29.08.56.23.84.35-.02.1-.03.19-.05.29-.6,0-1.19.03-1.79,0-1.84-.12-3.68-.3-5.53-.39-2.02-.09-4.01-.22-5.95-.87-.54-.18-1.13-.23-1.7-.27-1.6-.12-3.2-.2-4.79-.32-2.86-.22-5.74-.39-8.59-.73-3.23-.38-6.47-.45-9.72-.39-.89.01-.89.04-1.06,1.21.68.08,1.36.18,2.04.23,7.62.54,15.23,1.16,22.86,1.57,5.31.29,10.64.88,15.97.15.04,0,.08,0,.12,0,4.52.02,9.04.01,13.55.09,1.64.03,3.27.27,4.91.44.73.07,1.3.38,1.51,1.35-.63.03-1.14.07-1.66.07-7.84-.08-15.69-.13-23.53-.27-3.9-.07-7.8-.2-11.69-.47-7.3-.51-14.59-.86-21.91-.86-.49,0-.99,0-1.48.06-.92.11-1.05.31-1,1.57.39,0,.78,0,1.18,0,1.72-.05,3.45-.08,5.17-.16,7.21-.3,14.35.66,21.52,1.01,4.84.23,9.68.42,14.52.63,2.3.1,4.59.21,6.89.36,1.56.1,3.11.25,4.66.4.41.04,1.06-.12,1.05.54-.02.81-.73.47-1.14.45-2.25-.14-4.5-.4-6.76-.49-3.08-.11-6.16-.11-9.23-.15-9.24-.09-18.48-.18-27.72-.27-1.68-.02-3.37,0-5.05,0-1.52,0-3.04-.05-4.56-.04-1.13,0-1.35.26-1.37,1.39,0,.24.06.47.1.74.32.06.59.13.87.16,2.25.22,4.5.39,6.74.65,1.71.2,3.41.48,5.11.77.44.08.94.19,1.38.81-.84.05-1.52.12-2.19.12-2.38,0-4.76-.06-7.15-.02-1.23.02-2.45.17-3.67.3-.37.04-.8.09-.96.7,1.26.1,2.44.23,3.62.27,2.63.09,5.25.12,7.88.19.38.01.84-.12,1.08.34-.21.71-.79.62-1.32.64-2.71.08-5.42.15-8.13.25-.58.02-1.15.17-1.93.3.8.78,1.6.76,2.35.89.81.13,1.62.25,2.41.44.22.05.39.31.71.57-1.36.46-2.59.44-3.81.41-.86-.02-1.72-.09-2.58-.11-.73-.02-1.21.33-1.53,1.07,1.1.41,2.17.36,3.21.46,2.18.21,2.46.29,3.1.97-.78.05-1.47.1-2.15.14-.82.04-1.65.03-2.46.12-.71.08-1.41.25-2.17,1.01.94.16,1.61.28,2.28.38.69.1,1.39.12,2.07.28.46.1.94.33.84,1.1-.54,0-1.05.02-1.56,0-.86-.04-1.72-.16-2.57-.14-.58.02-1.17.21-1.56.9.9.22,1.7.4,2.48.62.34.1.75.2.71.7-.04.44-.34.62-.73.72-.46.12-.9.25-1.4.39.28.88.86,1.28,1.5,1.56,2.55,1.13,5.07,2.35,7.68,3.31,2.78,1.02,5.62,1.84,8.14,3.46.68.44,1.48.72,2.23,1.04,3.55,1.51,7.11,3,10.66,4.52,1.85.79,3.63,1.75,5.52,2.43,2.31.83,4.71,1.43,7.06,2.16,4.24,1.3,8.46,2.65,12.71,3.91,3.38,1,6.79,1.91,10.2,2.84,6.59,1.81,13.29,3.1,20.08,3.71,5.52.5,11.07.63,16.6.89,2.09.1,4.19.06,6.28.1.56.01,1.17-.01,1.47.65-.25.83-.91.88-1.58.86-3.21-.12-6.4.1-9.58.49-2.49.3-4.99.41-7.5.21-1.96-.15-3.93-.28-5.9-.38-.73-.04-1.5-.07-2.2.1-1.54.37-3.09.35-4.65.33-1.85-.02-3.69,0-5.54-.01-.15,0-.31-.05-.54-.1.03-.48.08-.92.07-1.35-.02-.72-.32-1.07-.98-1.22-.95-.23-1.91-.44-2.86-.69-.86-.23-1.61-.11-2.29.5-.88.8-1.79,1.57-2.67,2.37-.19.18-.33.42-.54.69.31.08.5.17.7.19,1.35.09,2.7.15,4.06.24,6.44.44,12.88.52,19.33.57,3.32.02,6.65.14,9.97.27.81.03,1.62.24,2.41.46.24.07.57.4.58.63.04.51-.42.5-.8.5-.08,0-.16,0-.25,0-7.43,0-14.87,0-22.3,0-1.19,0-2.39.02-3.57-.12-4.99-.63-10.01-.35-15.01-.41-7.1-.09-14.21.04-21.31-.14-4.53-.12-9.03.06-13.52.49-.95.09-1.84.34-2.39,1.3.56.54,1.21.81,1.91.83.98.03,1.96-.02,2.94-.08,2.46-.15,4.91-.37,7.37-.49,2.13-.1,4.27-.11,6.4-.15,1.39-.03,2.79-.1,4.18-.05,3.86.14,7.72.44,11.56-.1,2.08-.29,4.16-.38,6.26-.34,4.64.09,9.28.18,13.92.22,2.3.02,4.46.64,6.59,1.41.26.09.48.27.8.45-.47.52-.99.69-1.58.71-.62.03-1.23.05-1.85.05-9.61.03-19.22.09-28.83.08-6.74,0-13.47-.12-20.21-.16-1.31,0-2.63.04-3.94.11-.43.02-.84.17-1.47.3.82.76,1.61,1.11,2.42,1.36,2.71.84,5.42,1.65,8.14,2.44.63.18,1.28.3,1.93.38,4.69.55,9.35,1.28,13.94,2.44,5.85,1.48,11.74,2.8,17.61,4.18,5.75,1.35,11.45,3.01,17.35,3.65,4.73.51,9.47.99,14.22,1.36,2.27.18,4.48.57,6.66,1.16.62.17,1.19.54,1.75.87.21.12.32.41.48.63-.79.64-1.57.64-2.41.45-2.05-.46-4.12-.78-6.23-.63-5.17.37-10.34.38-15.51.15-2.59-.11-5.16.09-7.72.55-3.64.65-7.28,1.27-11,1.26-3.45-.01-6.89.06-10.34-.28-3.66-.36-7.3.26-10.93.64-2.33.24-4.63.78-6.96.9-4.46.24-8.79,1.06-13.05,2.36-1.73.53-3.45,1.06-5.17,1.61-.24.08-.45.26-.89.53.62.17,1,.34,1.38.37,1.22.1,2.45.14,3.68.22,1.18.08,2.37.13,3.55.28,1.14.14,1.79.89,2.09,2.02-.87.67-1.88.85-2.89.91-1.97.12-3.94.15-5.91.2-1.19.03-2.38.04-3.57.09-.19,0-.37.16-.63.28.78.53,1.76.19,2.35.9-.15.68-.68.89-1.17,1.01-.87.23-1.76.4-2.65.5-2.04.23-4.1.3-6.13.62-3.93.62-7.85,1.36-11.76,2.08-1.44.26-1.65.62-1.61,2.09.07,2.63.12,5.25.16,7.88.03,1.68-.08,3.38.06,5.05.32,3.85.67,7.69,1.16,11.52.49,3.88.88,7.75.82,11.66-.01.61.12,1.22.21,1.83.2,1.42.43,2.84.61,4.26.19,1.57.64,1.91,2.18,1.63,2.1-.38,4.21-.73,6.31-1.09.26-.04.51-.11.85-.18-.24-.43-.4-.76-.6-1.06-2.5-3.83-3.83-8.16-5.32-12.41-.75-2.16-1.03-4.48-1.55-6.72-.29-1.24-.63-2.46-1.35-3.55-.59-.89-.75-1.89-.69-2.95.05-.82.06-1.64.07-2.46.02-1.43.05-2.87.04-4.3-.02-1.39-.09-2.78-.15-4.17-.01-.33-.1-.66-.08-.98.09-1.15,1.17-1.71,2.14-1.1.43.27.78.69,1.23,1.1-.98,1.14-1.43,2.41-1.64,3.76-.49,3.2-.37,6.37.54,9.51,1.23,4.24,3.58,7.62,7.29,10.03.32.21.67.36,1.19.64-.07-.46-.08-.66-.13-.84-.67-2.16-1.31-4.32-2.02-6.46-.51-1.52-1.12-3-1.68-4.5-.12-.31-.25-.62-.31-.93-.17-1.03.69-1.85,1.71-1.67.91.16,1.74.69,2.9.6-1.84-3.98-3.62-7.82-6.86-10.87.94-.49,1.6-.24,2.2.23,1.13.87,1.93,1.99,2.49,3.31.64,1.51,1.32,3,1.99,4.5.27.6.61,1.18.79,1.8.87,2.96,2.34,5.6,4.07,8.12,1.11,1.62,1.89,3.36,2.45,5.22.11.38.25.76.37,1.14.26-1.03-.06-1.95-.47-2.82-1.4-2.97-2.13-6.12-2.66-9.33-.7-4.3-1.38-8.6-2.94-12.7-.16-.41-.2-.88-.22-1.33-.03-1.16.4-1.69,1.54-1.81,2.11-.23,4.02.18,5.42,1.95.33.42.67.62,1.23.65,1.19.05,2.22.57,3.09,1.37,1.32,1.22,2.11,2.72,2.32,4.5.37,3.1.87,6.19,1.04,9.3.2,3.6.19,7.22-.19,10.83-.06.54,0,1.09,0,1.64.26-.22.38-.46.44-.72.48-2.33.94-4.67,1.4-7,.82-4.15,2.29-8.05,4.64-11.58.34-.51.92-.95,1.48-1.22.98-.47,1.58-.09,1.72.98.05.4.04.82,0,1.23-.48,4.53-.96,9.06-1.47,13.59-.09.77-.24,1.55-.47,2.29-.94,3.1-1.93,6.19-2.89,9.29-.12.39-.2.8-.29,1.21.36-.32.49-.7.63-1.08.7-1.89,1.37-3.78,2.1-5.65,1.59-4.05,4.11-7.57,6.54-11.12.5-.73,1.17-1.4,1.9-1.91,2.08-1.46,4.23-2.83,6.36-4.22.35-.23.78-.36,1.38-.62.14.92.33,1.63.35,2.35.05,1.79-.35,3.53-1.12,5.13-1.19,2.48-2.34,5-3.79,7.32-1.87,2.99-4.03,5.8-6.06,8.68-.17.24-.32.51-.48.76.42-.14.68-.39.95-.63,1.39-1.28,2.82-2.52,4.17-3.83.94-.91,1.9-1.84,2.64-2.91,1.28-1.85,2.49-3.77,3.56-5.75,1.57-2.9,4.18-4.16,7.18-4.91.69-.17,1.26.06,1.58.65.27.49.53,1.06.54,1.6.01,2.12-.37,4.15-1.39,6.06-2.01,3.77-4.65,7.04-7.63,10.07-.46.47-.88.97-1.3,1.48-.12.15-.14.38-.24.66,2.37-.87,3.26-1.4,5.73-3.53,1.08-.94,2.18-1.71,3.74-1.54.64.07,1.31-.08,1.96-.12.35-.02.69,0,1.29,0-.35.78-.54,1.36-.86,1.86-2.86,4.43-6.13,8.44-10.96,10.88-.4.2-.89.38-1.08,1.03.51-.06.92-.06,1.3-.17,2.61-.7,5.24-1.36,7.82-2.17,2.43-.76,4.82-1.6,7.36-1.99,2.16-.33,3.28,1.24,3.07,2.94-.06.45-.07.92-.23,1.33-.36.96-.77,1.9-1.22,2.81-.2.4-.27.71-.05,1.14,1.02,1.96,1.48,4.09,1.72,6.26.21,1.89.51,3.74,1.23,5.51.13.31.16.66.23.99-1.25-1.71-2.24-3.52-3.32-5.27-1.09-1.77-2.26-3.49-3.44-5.29-.9.36-1.75.7-2.69,1.07.67,1.17,1.51,2,2.36,2.81.86.82,1.73,1.64,2.52,2.53.75.85,1.54,1.69,2.13,2.66-.07.05-.13.11-.2.16-2.99-2.66-5.98-5.33-8.96-7.98-.64.34-1.14.6-1.7.89.67.82,1.24,1.57,1.87,2.26.88.97,1.73,1.98,2.73,2.81,1.95,1.63,4,3.15,6,4.72.35.28.83.48.91,1.14-1.24-.33-2.17-1.01-3.12-1.63-1.62-1.05-3.2-2.16-4.83-3.2-1.52-.97-3.13-1.59-5.01-1.24-.69.13-1.42.02-2.13.02-.01-.08-.02-.16-.04-.24,1.79-.58,3.74-.47,5.58-1.09-.49-1.17-1.27-1.69-2.39-1.83-.64-.08-1.37-.17-1.86-.52-.79-.59-1.61-.73-2.54-.71-3.33.09-6.65.08-9.96-.42-.64-.1-1.31-.01-1.97-.07-.7-.06-1.15.19-1.23.96-1.14-.3-2.17-.57-3.2-.84-.95-.25-1.92-.46-2.86-.73-1.18-.33-2.22-.92-3.12-1.87,1.91-1.61,3.94-2.66,6.19-3.25,2.06-.54,4.16-.98,6.25-1.38,1.11-.21,2.12-.62,3.08-1.18,1.67-.97,3.4-1.85,5-2.91,3.07-2.03,6.28-3.97,7.6-7.74.04-.12.12-.22.16-.33.08-.25.14-.51.24-.86-.39,0-.7-.08-.94.01-.65.24-1.3.51-1.91.84-2.92,1.59-5.73,3.38-8.85,4.59-.37.14-.69.43-1.01.69-2.33,1.91-4.78,3.62-7.62,4.69-.53.2-1.01.55-1.54.78-1.44.64-2.9,1.26-4.35,1.89.22-1.02.87-1.63,1.58-2.14.83-.59,1.73-1.09,2.62-1.61,2.73-1.59,5.52-3.1,8.2-4.79,3.16-1.99,5.81-4.55,7.87-7.69,1.11-1.68,2.3-3.31,3.35-5.02.6-.97,1.07-2.04,1.44-3.11.41-1.16.45-2.4.28-3.59-1.08-.6-1.94-.38-2.8.3-1.59,1.27-2.97,2.74-3.95,4.52-1.8,3.25-4.31,5.87-6.99,8.38-4.03,3.79-8.47,7.16-11.92,11.54-.05.06-.11.12-.18.17-.3.23-.61.46-.92.69-.09-.07-.17-.13-.26-.2.19-.42.34-.87.59-1.25.91-1.41,1.84-2.82,2.79-4.2.3-.44.7-.8,1.04-1.21,1.27-1.56,2.55-3.11,3.78-4.69,1.18-1.52,2.31-3.09,3.45-4.64.7-.96,1.42-1.91,2.06-2.91,2.06-3.2,2.93-6.95,4.65-10.31.18-.35.21-.79.23-1.2.02-.3-.09-.6-.16-1.01-.34.18-.55.28-.75.4-1.77,1.12-3.43,2.39-4.93,3.87-2.46,2.43-4.82,4.96-6.51,8-1.84,3.3-3.43,6.74-4.58,10.35-.52,1.62-1.64,2.77-2.62,4.09-.07-.36-.05-.7.03-1.03.87-3.21,1.67-6.44,2.63-9.62,1.26-4.15,1.97-8.38,2.17-12.71.1-2.25.28-4.5.41-6.75.03-.5-.03-1-.06-1.57-.25.11-.35.12-.39.17-1.89,2.52-3.44,5.21-4.07,8.34-.71,3.5-1.45,7-2.05,10.52-.62,3.6-1.13,7.22-1.6,10.84-.3,2.29-.13,4.59.26,6.87.09.5.09,1.07.74,1.33.69-.86.57-2.09,1.39-2.85.11,2.5-.85,4.58-2.38,6.56-2.11-.99-4.31-1.24-6.51-1.48-5-.55-9.91-.24-14.74,1.26-1.02.32-2.06.55-3.09.83-.43.11-.85.23-1.33.36.1,2.32.62,4.45,1.62,6.45.12.25.48.52.74.53,1.92.11,3.84.25,5.6-.89.85-.55,1.85-.86,2.8-1.23,2.02-.79,4.05-1.58,6.09-2.32,1.43-.52,2.88-.96,4.33-1.4.24-.07.52-.01,1.06-.01-.46.48-.71.85-1.06,1.09-1.36.92-2.68,1.9-4.13,2.66-2.9,1.53-5.89,2.9-9.01,3.95-2.33.79-2.62,2.6-2.39,4.3.21,1.58.85,2.19,2.45,2.45.32.05.65.1.97.16,2.99.52,5.71.08,8.02-2.08.52-.49,1.34-.67,1.86-1.16.54-.52.87-1.24,1.36-1.97,1.75,1.93,3.59,3.57,6.17,4.13,2.78.6,6.18.62,7.4-.15-.32-.23-.61-.44-.89-.66-1.43-1.1-2.87-2.19-4.29-3.31-.4-.32-.81-.69-.48-1.42.33.2.61.35.87.53.93.67,1.84,1.38,2.79,2.02,2.15,1.43,4.3,2.92,6.89,3.45,1.77.36,3.55.68,5.34.89,1.51.18,3.04.09,4.5-.44.6-.22,1.17-.49,1.74-1.29-2.26.16-4.23-.12-6.17-.64-1.91-.51-3.9-.76-5.59-1.93.62-.02,1.21.1,1.8.22,1.49.29,2.97.63,4.47.84.92.13,1.87.06,2.8-.44-.14-.22-.23-.4-.36-.54-1.06-1.11-2.2-2.08-3.63-2.71-.5-.22-1.17-.32-1.42-1,2.93-.64,5.24-.76,6.24-.33-.16.45-.32.9-.47,1.33,2.55,3.01,5.7,4.89,9.49,5.66,1.51.31,2.9-.1,4.36-1.05-.62-.38-1.07-.74-1.58-.94-1.6-.64-3.22-1.22-4.83-1.83-.3-.11-.58-.28-.87-.43.03-.08.07-.15.1-.23.19.02.39.02.58.06,2.49.42,4.83,1.28,7.08,2.43,2.08,1.06,4.31,1.57,6.65,1.62,2.26.04,4.52,0,6.77.14,1.39.08,2.68-.13,3.99-.54,1.6-.5,3.25-.87,4.88-1.27,1.51-.38,3.03-.71,4.54-1.1.37-.09.71-.31,1.1-.49-1.16-1.26-2.62-1.57-4.11-1.01-1.15.43-2.32.82-3.49,1.17-1.35.4-2.65.84-3.71,1.84-.49.46-1.1.84-2,.69.24-.3.38-.55.59-.72.93-.75,1.84-1.52,2.82-2.19,1.84-1.26,3.52-2.68,4.94-4.42.34-.41.73-.78,1.13-1.12.54-.45,1.15-.62,1.83-.32.71.31,1.46.56,2.14.94,2.74,1.55,5.62,2.71,8.72,3.29.21.04.43,0,.79,0-.19-.28-.28-.47-.42-.59-.96-.82-1.94-1.63-2.91-2.45-.94-.79-1.93-1.53-2.79-2.39-1.04-1.04-1.97-2.19-2.95-3.3-.43-.49-.92-.96-1.25-1.51-.49-.81-1.2-1.17-2.09-1.36-1.28-.27-2.57-.55-3.82-.94-1.8-.56-3.58-1.19-5.36-1.85-.8-.3-1.62-.64-2.33-1.11-1.43-.94-2.57-2.18-3.11-3.86-.22-.7-.34-1.43.18-2.16.33.14.64.24.92.38,3.85,1.8,7.84,3.12,12.08,3.69,2.59.35,5.15,1.03,7.71,1.62.83.19,1.63.56,2.43.88.17.07.29.29.57.59-1.58.04-2.89-.29-4.21-.56-3.87-.77-7.75-1.46-11.69-1.69-.25-.02-.51.04-.92.08,1.02,1.09,2.12,1.69,3.31,2.18,1.89.78,3.92.87,5.9,1.2,2.35.4,4.7.77,7.04,1.19,1.31.24,2.57.67,3.43,1.77,1.51,1.95,2.98,3.92,4.42,5.92.38.52.61,1.16.88,1.76.08.19.05.43.08.64-.54-.27-.9-.64-1.2-1.04-1.36-1.85-2.7-3.72-4.07-5.57-1.64-2.2-4.32-2.98-7.1-2.04.47.96,1.26,1.61,1.99,2.31,3.06,2.93,6.12,5.84,9.17,8.77.39.38.73.82,1.18,1.35-1.08.4-1.88.06-2.69-.18-.74-.21-1.49-.43-2.25-.51-2.77-.28-5.4-.94-7.82-2.4-1.15-.69-2.42-1.2-3.67-1.72-1.26-.52-1.44-.41-2.15.96.96.62,1.88,1.32,2.89,1.85,1.05.55,2.18.94,3.28,1.4,1.06.44,2.13.88,3.19,1.31,1.06.43,2.28.38,3.26,1.1-.9.12-1.79.17-2.67.11-1.68-.11-3.35-.3-5.03-.44-.32-.03-.66-.05-.98,0-1.86.31-3.72.63-5.57.97-.59.11-1.16.28-1.84.45.69,1.17,1.56,1.8,2.76,1.79,1.84-.02,3.69-.09,5.53-.21,2.95-.19,5.85-.53,8.71-1.41,2.07-.64,4.26-.88,6.4-1.25,1.54-.27,2.9-.83,4-1.99.56-.59,1.19-1.14,1.84-1.64,1.43-1.09,2.81-2.3,4.37-3.17,2.38-1.33,5.01-2.04,7.71-2.44.26-.04.5-.14.86-.24-.24-.29-.41-.47-.55-.66-.73-1.02-1.69-1.38-2.9-1.06-1.15.3-2.33.5-3.45.9-1.35.47-2.65,1.11-3.98,1.65-.42.17-.81.54-1.44.32.27-.31.47-.55.69-.79,1.36-1.48,2.75-2.94,4.09-4.44.46-.52.87-1.11,1.15-1.73.6-1.35,1.14-2.73,1.63-4.12.25-.73.41-1.51.48-2.28.12-1.31.05-1.36-1.43-1.75-.29.43-.64.88-.91,1.37-1.66,3.07-3.25,6.17-4.96,9.22-1.02,1.82-2.2,3.55-3.33,5.32-.12.19-.37.31-.75.61.11-.42.13-.59.2-.73.99-2.03,1.93-4.09,3-6.07,1.76-3.25,3.59-6.45,5.42-9.67.62-1.09.96-2.22,1.02-3.5.06-1.3.35-2.59.56-3.88.03-.2.19-.38.4-.77.07.44.11.64.14.84.33,2.48.59,4.97,1.02,7.43.26,1.53.78,3.02,1.18,4.53.29,1.1.31,2.22-.11,3.27-.31.8-1.23.88-1.92,1.22-.18.09-.38.16-.56.26-1.02.53-2.09,1.6-2.48,2.56,2.53-.97,5.17-1.3,7.35-2.78,1.85,2.08,3.62,4.06,5.45,6.1-6.36-.21-9.06.18-12.26,1.73-3.16,1.54-8.1,6.32-8.84,8.55,1.08.37,2.16.75,3.25,1.11.27.09.57.15.84.12,1.92-.2,3.87-.36,5.59-1.35,1.81-1.05,3.57-2.19,5.33-3.32,3.34-2.14,6.95-3.08,10.91-2.63.23.03.46.15.68.23,0,.08-.02.16-.02.24-2.65,0-5.26.1-7.66,1.4-2.34,1.26-4.19,3.07-6.05,4.97,1.09.6,1.15.62,2.12.61,1.36,0,2.72-.11,4.06-.02,2.16.14,4.17-.11,5.93-1.52.28-.23.64-.51,1.21-.18-.67.71-1.3,1.38-2.08,2.22.88,0,1.48.02,2.07-.01.18-.01.38-.16.5-.31,1.59-1.87,3.37-3.61,4.3-5.96.48-1.22,1.07-2.4,1.59-3.61,1.12-2.66,2.1-5.36,2.33-8.26.18-2.19.76-4.3,1.48-6.34,1.23-3.51,1.63-7.12,1.62-10.79,0-4.11-.12-8.21-.15-12.32ZM69.06,112.59c-3.4-.19-6.79-.45-10.18-.68-1.19-.08-2.37-.14-3.56-.24-.42-.03-.84-.14-1.46-.25.63-.61,1.21-.65,1.76-.66,5-.1,10.01-.35,14.98.42.52.08,1.03.25,1.53.42.14.05.23.26.39.44-1.17.58-2.33.62-3.46.56ZM75.21,268.3c-1.9-1.35-3.81-2.7-5.7-4.08-.8-.58-1.41-1.33-1.82-2.32.61-.2.95.17,1.24.45,1.26,1.18,2.77,1.87,4.39,2.37.32.1.72.3.87.58.59,1.05,1.09,2.15,1.68,3.34-.28-.14-.5-.21-.68-.34ZM78.05,265.49c0-.09.01-.19.02-.28,1.77.17,3.54.34,5.43.52-.85.88-3.64.68-5.45-.25ZM114.76,127.54c.67,1.73,1.26,3.48,1.22,5.36-.01.61-.13,1.22-.27,1.82-.28,1.23-1.07,2.01-2.29,2.33-.74.2-1.49.36-2.23.54-.07-.09-.13-.19-.2-.28.72-1.6,1.54-3.17,2.12-4.82.57-1.65.89-3.38,1.33-5.14.15.08.29.12.32.19ZM107.65,136.64c2.07-4.09,2.91-8.53,3.79-12.96.26-1.33.56-2.65.87-3.97.06-.26.23-.49.48-1.01,0,.01,0,.02.01.04,0-.01.01-.02.02-.04.16.44.25.58.26.73.39,4.56.56,9.11-.95,13.54-.44,1.28-.94,2.54-1.38,3.82-.18.51-.5.74-1.01.71,0,0,0,0,0,0-.01,0-.02,0-.03,0-.69-.04-1.38-.11-2.13-.17.03-.31,0-.53.07-.69ZM105.32,138.86c-.11-.02-.21-.11-.4-.21-.02-.39-.04-.82-.07-1.38.52.15.89.26,1.35.39.05-.48.1-.94.16-1.43q.57.36,1.19,1.82c1.48.25,2.98-.03,4.47-.2,1.45-.16,2.89-.37,4.34-.55.11,1.02-.02,1.39-.84,1.74-.63.26-1.33.45-2.01.49-2.76.18-5.47-.26-8.19-.66ZM112.82,146.78c1.15-.66,1.84-.63,2.68.21-1.02.37-1.83.23-2.68-.21ZM113.63,144.36c.75.13,1.53.11,2.6.17-.42.31-.58.52-.76.54-1.01.1-2.03.19-3.04.19-.32,0-.68-.25-.96-.47-.45-.35-.85-.77-1.27-1.17-1.14-1.1-2.28-2.2-3.48-3.35.19-.02.41-.07.61-.06,2.13.12,4.25.28,6.38.38,1.4.07,1.85.19,2.67,1.02-1.9.3-3.75.1-5.53.6,1.75.61,3.62.14,5.62.7-.9.64-1.71.56-2.49.56-.81,0-1.63,0-2.61,0,.64.98,1.53.77,2.26.89ZM121.16,139.28c-.32,0-.7.04-.76-.42-.06-.47.26-.65.66-.72.04,0,.08-.01.12-.02,2-.21,4-.43,6-.63.57-.06,1.15-.05,1.72-.04,2.21.06,3.98-.83,5.42-2.44,1.46-1.64,3.06-3.17,5.01-4.14,4.57-2.28,8.83-5.21,13.89-6.49,3.3-.83,6.51-1.97,9.65-3.33,1.5-.65,3.1-1.07,4.65-1.61,1.09-.37,2.18-.73,3.25-1.15,1.99-.79,4-1.43,6.12-1.8,1.39-.25,2.72-.89,4.07-1.36.34-.12.65-.29.98-.44.97,2.02,2.47,21.1,1.86,24.23-.6,0-1.16,0-1.73,0-3.86-.03-7.73-.27-11.57-.03-5.94.37-11.89.36-17.84.51-3.81.09-7.64.11-11.44-.16-5.13-.36-10.25-.31-15.38-.06-1.56.07-3.12.07-4.68.09ZM148.5,142.75c-6.42.06-12.78-.62-19.17-.98-.57-.03-1.14-.13-1.6-.83,1.51-.48,2.94-.56,4.36-.54,2.83.05,5.66.24,8.49.32,5,.14,10.01.28,15.01.35,5.49.08,10.99.14,16.48.1,3.81-.03,7.63-.26,11.44-.4.16,0,.32.03.65.05.04.61.08,1.22.13,1.9-1.4-.08-2.62-.21-3.84-.21-3.57-.02-7.13-.04-10.68.46-3.71.52-7.44.45-11.18.19-3.35-.24-6.72-.43-10.08-.4ZM101.3,190.87c-4.31.04-8.6.26-12.89.87-3.85.55-7.76.78-11.64,1.08-2.58.2-5.16.28-7.74.4-.66.03-1.28-.1-1.9-.77.66-.27,1.19-.54,1.76-.7,3.5-.97,7.04-1.62,10.7-1.32,2.44.2,4.82-.1,7.2-.65,3.89-.9,7.81-1.23,11.85-.87,3.7.33,7.46.08,11.2.07.2,0,.41-.03.61-.09,3.24-1.03,6.64-1.06,9.96-1.53,7.39-1.05,14.83-.7,22.25-.58,1.27.02,2.54.06,3.82.09,1.19.03,1.37.17,1.92,1.63-.52.05-.91.12-1.3.11-2.71-.08-5.41-.21-8.12-.24-2.46-.03-4.92-.06-7.38.07-4.1.21-8.19.5-12.26,1.12-3.08.46-6.18.82-9.29,1.05-2.9.22-5.82.25-8.74.28ZM122.41,258.79c.7-.57,1.38-.47,1.89.05.54.56.66,1.35.19,2.02-.42.6-.93,1.14-1.42,1.7-1.59,1.82-3.17,3.66-4.79,5.45-.63.7-1.36,1.3-2.06,1.93-.14.12-.34.18-.51.27-.05-.06-.1-.11-.15-.17,1.64-3.07,3.25-6.16,4.96-9.18.45-.79,1.17-1.48,1.88-2.06ZM114.36,266.42c.99-3.6,1.97-7.19,2.99-10.78.09-.31.35-.77.58-.8.28-.04.65.26.9.51.58.56.71,1.27.46,2.04-.06.19-.13.39-.21.58-1.36,2.85-2.72,5.7-4.09,8.54-.13.27-.34.51-.52.76l-.18-.07c.02-.26.01-.53.08-.78ZM113.7,253.89c.07,1.22.1,2.45.05,3.68-.07,1.8-.09,3.61-.36,5.39-.32,2.1-.88,4.16-1.34,6.23-.03.13-.18.24-.33.42-.14-.16-.18-.19-.19-.22-.39-4.05-1.56-8.06-.8-12.18.23-1.28.58-2.55.92-3.81.11-.41.37-.79.57-1.2.97.27,1.44.85,1.48,1.7ZM134.32,248.85c-.17-.19-.32-.35-.46-.52-.07-.1-.12-.22-.15-.34-.73-2.77-2.37-5-4.19-7.16-1.91-2.26-3.56-4.72-5.01-7.3-.65-1.16-1.57-1.85-3.06-2.44.04.27.05.51.11.73.72,2.74,2.09,5.17,3.77,7.42.96,1.28,2,2.5,2.98,3.76.27.34.47.73.55,1.28-.2-.06-.41-.09-.58-.2-.2-.13-.38-.31-.54-.5-1.14-1.42-2.67-2-4.43-2.08-2.34-.11-4.67-.34-6.92-1.06-.62-.2-1.2-.1-1.67.51,1.18,1.12,2.44,1.98,3.98,2.4,2.81.76,5.61,1.56,8.43,2.31,1.38.37,2.59.98,3.64,2.19-.34.07-.55.16-.75.15-.41-.01-.82-.07-1.22-.13-2.81-.35-5.61-.76-8.43-1.05-3.29-.34-6.32-1.34-9.08-3.19-1.81-1.22-2.79-3.59-2.28-6.07,1.58-.37,3.2-.76,4.91-.58,1.8.19,3.6.34,5.4.5.24.02.48,0,.83,0-.05-.34-.03-.62-.14-.85-.26-.6-.54-1.2-.88-1.76-1.77-2.83-2.41-5.99-2.67-9.26-.02-.2,0-.4,0-.63.82-.61,1.7-.61,2.59-.36,1.38.39,2.77.79,4.12,1.27,3.94,1.39,6.61,4.25,8.5,7.82,1.47,2.77,2.33,5.78,2.73,8.91.19,1.46.27,2.94.36,4.42.04.6.11,1.24-.45,1.81ZM146.41,262.06c-.24-.36-.35-.47-.41-.61-.13-.3-.24-.61-.33-.93-.92-3.36-2.9-5.84-6.09-7.32-.22-.1-.42-.26-.65-.36-1.55-.67-2.12-1.88-1.85-3.49.51-3-.02-5.89-.84-8.75-.64-2.21-1.18-4.45-1.95-6.61-.65-1.81-1.59-3.51-2.35-5.28-.83-1.92-1.62-3.85-2.37-5.81-.29-.76-.44-1.58-.04-2.41.58-.08.86.34,1.1.67.44.59.85,1.22,1.14,1.89.97,2.17,1.88,4.37,2.81,6.56,1.35,3.16,1.91,6.54,2.74,9.84.96,3.84,2.34,7.52,3.73,11.2.55,1.45,1.59,2.51,2.97,3.49.27-1.08.17-1.97-.03-2.84-.24-1.04-.56-2.06-.91-3.07-.82-2.37-1.67-4.72-2.51-7.08-.81-2.28-1.68-4.54-2.43-6.85-.61-1.87-1.1-3.78-1.62-5.69-.16-.59-.21-1.21-.31-1.82-.16-1.01-.3-2.02-.48-3.03-.22-1.25-.11-2.45.47-3.59.96-1.86,2.3-3.39,4.01-4.59.94-.66,1.99-.98,3.13-.91,1.93.11,2.7,1.32,1.74,2.98-1.3,2.26-2.05,4.74-3.11,7.1-1.3,2.88-1.44,5.87-1.01,8.93.65,4.62,1.95,9.05,3.5,13.44.67,1.88,1,3.89,1.47,5.84.04.16.08.33.06.49-.26,1.91.15,3.74.62,5.58.24.92.13,1.86-.24,3.03ZM146.45,246.83c0,.29-.02.57-.05.86,0,.07-.08.13-.16.23-.41.02-.53-.3-.58-.61-.93-5.82-2.59-11.53-2.41-17.5.06-2.01.17-4.02,1.06-5.88,1.03-2.15,2.6-3.83,4.56-5.28,2.12,1.82,3.21,4.05,3.2,6.72,0,.94-.48,1.9-.86,2.8-.36.87-.8,1.71-1.31,2.5-1.09,1.68-1.83,3.49-2.17,5.45-.62,3.55-1.36,7.09-1.29,10.72ZM178.15,263.54c-1.08-.18-1.94-.79-2.78-1.43-2.28-1.73-4.21-3.82-5.69-6.25-1.66-2.73-3.21-5.54-4.69-8.38-1.38-2.65-1.93-5.57-2.54-8.47-.16-.76-.35-1.51-.53-2.29-.19.04-.34.02-.41.08-1.28,1.27-2.58,2.56-3.41,4.18-1.31,2.55-2.55,5.15-3.8,7.73-.61,1.26-1.15,2.55-1.78,3.79-1.08,2.13-1.96,4.33-2.58,6.65-.17.63-.48,1.22-.77,1.81-.09.18-.33.28-.66.54.04-.43.04-.67.09-.9,1.14-4.75,2.17-9.53,3.47-14.24,1.45-5.25,4.12-9.83,8.2-13.51.58-.52,1.18-1.02,1.73-1.57,1.31-1.29,2.88-2.01,4.71-2.16.43-.04.86-.11,1.4-.17-.43-1.09-1.4-1.46-2.17-2.1.51-.72,1.04-1.39,1.48-2.12.43-.7.88-1.45.19-2.26-.66-.79-1.48-.77-2.35-.44-.38.14-.79.24-1.16.4-1.18.5-1.35,1.36-.48,2.3.19.21.42.4.65.57.23.17.48.31.65.42-.3.8-.8.88-1.29.86-.8-.02-1.4.34-2.01.8-3.66,2.82-6.34,6.43-8.29,10.56-1.03,2.18-1.84,4.48-2.59,6.78-.99,3-1.93,6.03-2.18,9.21-.02.27-.11.54-.21.97-.4-.58-.32-1.09-.26-1.54.64-4.8.91-9.67,2.33-14.33,1.28-4.2,3.29-8.04,6.14-11.42.96-1.14,2.15-1.88,3.62-2.18.51-.11,1.01-.27,1.68-.46-.61-1.29-1.1-2.52-2.33-3.16-1.03-.54-1.41-1.35-1.55-2.45-.17-1.41-.21-2.76.22-4.14.33-1.05.53-2.15.76-3.24.17-.81.59-1.44,1.32-1.83,1.22-.65,2.13-1.62,2.96-2.72,1.31-1.77,3.05-3,4.96-4.13,2.59-1.54,5.45-2.21,8.22-3.19.53-.19,1.1-.24,1.67-.36.75,1.46.14,2.83.07,4.25.75.48,1.6.48,2.53.58.06-.29.13-.55.17-.82.07-.44.09-.9.21-1.33.3-1.08.74-1.37,1.88-1.36.25,0,.49.02.74.06.15.03.3.11.54.2.1,3.2.36,6.41.41,9.85-1.55-.84-2.77-.7-3.86.52.39.77.79,1.52,1.16,2.3.28.59.62,1.18.76,1.81.19.87.66,1.27,1.51,1.31.11,0,.22.09.38.17v8.31c-2.45-.41-2.59-1.14-2.4-2.72.24-.06.5-.14.77-.2,1-.22.98-.22,1.07-1.3.1-1.23-.11-2.35-.92-3.35-.7-.86-1.26-1.83-1.99-2.66-.72-.83-1.56-1.55-2.4-2.37.26-.33.43-.62.66-.83,1.39-1.26,2.42-2.91,4.12-3.85.2-.11.38-.46.39-.7.03-.85-.01-1.7-.03-2.76-.61.16-1.07.19-1.42.4-1.65.99-3.35,1.92-4.88,3.07-1.59,1.19-2.21,2.82-1.42,4.8.12.29.14.61.24,1.05-1.15-.29-1.9-.97-2.75-1.56.43-2.28,1.29-4.24,3.31-5.55.56-.36,1.04-.87,1.48-1.25-.54-.79-.97-1.43-1.48-2.17-1.15.51-1.93,1.65-2.78,2.67-.83.99-1.54,2.07-2.31,3.11-.09-.03-.17-.07-.26-.1.11-.44.15-.91.33-1.32.31-.67.68-1.31,1.07-1.93.44-.71.45-1.09-.22-1.55-.6-.4-1.3-.66-2-1-.68.6-1,1.31-1.08,2.08-.14,1.26-.18,2.53-.25,3.8-.02.36,0,.71-.23,1.16-.17-.23-.37-.45-.51-.7-.43-.74-.78-1.55-1.28-2.24-.64-.9-2.52-.71-3.04.27-.1.2-.13.48-.09.7.52,2.69,3.33,4.79,6.15,4.54.11-.48.23-.98.41-1.76.62,1.13,1.12,2.04,1.69,3.07-.81-.14-1.63-.26-2.45-.41-1.09-.19-2.18-.41-3.27-.59-1.06-.17-1.93-.65-2.62-1.47-.29-.34-.62-.66-.97-.94-.91-.72-1.7-.66-2.38.14-.74.87-.76,2.13.11,2.74.72.51,1.57.93,2.42,1.13,1.64.38,3.31.58,4.97.86,4.03.66,7.91,1.86,11.71,3.3.19.07.38.16.56.26.07.04.11.12.16.18-.58.27-.57.24-2.02-.01-.76-.13-1.55-.23-2.32-.24-.72,0-1.45.13-2.27.21-.09-.62-.17-1.17-.27-1.85-2.27-.53-4.54-1.02-6.89-.43-.87.22-1.72.55-2.59.78-.95.26-1.91.46-2.86.69-.36.09-.74.12-1.07.28-.71.34-.82.81-.43,1.5.93,1.63,2.08,1.94,3.64.84,1.13-.8,2.31-1.37,3.81-1.55.16.37.32.74.49,1.1.65,1.41,1.57,1.75,3,1.11.25-.11.5-.24.86-.25-.15.21-.29.43-.46.62-.93,1.06-1.63,2.26-2.16,3.56-.38.95-.29,1.29.62,1.79.28.16.6.26,1.06.45,1.1-1.5,2.47-2.8,3.08-4.65.12-.35.21-.71.38-1.04.1-.2.31-.44.5-.47,1.29-.22,2.6-.46,3.9-.04.14.05.26.16.5.32-1.03,1.22-2.67.9-3.92,1.79.47.44.89.83,1.39,1.31-.29.15-.53.26-.76.39-.54.29-1.15.5-1.59.9-1.52,1.35-3.29,2.14-5.24,2.6-.31.07-.61.19-1.12.35.37.45.61.88.97,1.15,1.16.86,2,1.92,2.5,3.28.05.15.19.26.36.5.61-.32,1.2-.63,1.96-1.04-.04.39-.03.69-.09.96-1.25,5.27-.69,10.4,1.05,15.49.77,2.24,2,4.22,2.93,6.36.15.35.27.72.4,1.09-.08.05-.17.11-.25.16-.3-.31-.61-.6-.89-.92-1.75-2.02-2.81-4.42-3.85-6.84-1.43-3.34-2.15-6.89-3.22-10.34-.39-1.25-.48-2.58-.76-3.86-.15-.68-.43-1.32-.64-1.99-.41-1.3-1.49-1.65-2.64-1.91-.49-.11-.82.17-.99.56-.41.93-.9,1.86-1.1,2.84-.43,2.09-.1,4.17.55,6.19.74,2.32,1.71,4.53,2.94,6.63.73,1.24,1.43,2.49,2.19,3.71,1.75,2.79,3.76,5.38,6.17,7.64.84.78,1.59,1.66,2.36,2.52.52.58.5.6.15,1.6ZM184.54,230.71c-.82,0-1.59-.04-2.36.01-1.02.07-1.13.21-1.43,1.2-.76,2.55-.76,5.18-.81,7.81-.07,4.22-.12,8.45-.18,12.67,0,.23-.04.46-.08.83-.56-.39-.56-.91-.67-1.35-.73-2.92-1.05-5.89-1.18-8.89-.08-1.8-.03-3.61-.05-5.41,0-.56.16-1.01.52-1.45,1.28-1.59,1.72-3.51,1.96-5.48.08-.61-.2-.92-.76-1.05-.4-.09-.8-.18-1.19-.31-.56-.2-1.11-.44-1.8-.72.72-.83,1.41-1.05,2.24-1.04,1.06.01,2.13-.03,3.19-.15,1.07-.12,1.88.38,2.5,1.07.54.61.25,1.46.1,2.28Z"/>
</svg>