<?xml version="1.0" encoding="UTF-8"?>
<svg id="Calque_1" xmlns="http://www.w3.org/2000/svg" version="1.1" viewBox="0 0 216.27 283.46">
  <!-- Generator: Adobe Illustrator 30.0.0, SVG Export Plug-In . SVG Version: 2.1.1 Build 123)  -->
  <defs>
    <style>
      .st0, .st1 {
        fill: #1d1d1b;
      }

      .st1 {
        fill-rule: evenodd;
      }
    </style>
  </defs>
  <path class="st1" d="M113.31,110.75h2.5c.94.32,2.77.2,3.76.2.94,0,1.95.12,2.86-.2h6.29c.44.19,1.05.45,1.38.52,1.11.23.85.2,2.01.2.83,0,.56.11,1.27.22.51.08,1.41-.05,1.77.08.93.34,2.91.22,3.94.22,1.13,0,6.56.08,7.31-.07,1.05-.22,2.06-.22,2.96-.89.17-.13,2.76-.07,3.3-.07,1.11,0,3.97-.09,4.91.09.74.14,1.42.53,2.17.65l2.28.36c.83.17,2.1,0,2.68.07.51.07.6.25,1.4.26.19,0,.62.13,1.42.13.93,0,6.04.08,6.79-.07.37-.08.48-.17.89-.19.84-.04,1.44-.46,2.12-.53.48-.05.67-.18.97-.24.47-.09,1.1.15,2.09-.22.3-.11,1.33-.04,1.75-.04,1.69,0,.73.06,1.78.22.64.1,2.12.09,2.73-.07l5.56-.02c1.41.06,3.34.37,4.67.39,1.9.02,2.29.08,4.03-.51.68-.23,1.92-.14,2.56-.14.6,0,1.74.04,2.72.02.67.17,1.04.03,1.73.17.82.17,1.23-.05,1.79.18,1.23.52,2.63.14,3.14.32.81.3,1.21.13,1.93.27.47.1,1.15.06,1.5.08v5.26c-.1.14-.2.3-.29.46-.32.6-.42,1.27-.52,1.93-.13.88.08,1.8-.1,2.67l-.13,1.42c-.12.57-.11,3.36-.05,3.93l.5,4.94c.01,1.03.31,1.29.39,1.62v14.93c0,.44.13.86.21,1.28v15.85l-.12.65c-.17.46-.18.94-.27,1.41-.15.74-.07,7.72-.07,9.25,0,1.14-.08,7.47.07,8.22.13.64.06,2.18.06,2.9,0,.99-.09,3.58.11,4.38.05.21.13.42.22.62v3.51c-.02.09-.04.19-.06.29l-.24.87c-.07.44-.3.33-.3,1.84,0,1.06-.09,4.61.11,5.41.11.44-.08,1.64.13,2.46.09.37-.04.75.23,1.5.08.21-.08.57-.09,1.1-.01.84-.09,1.8.16,2.61l-.16,1.4c0,.35,0,.64,0,.91h-7.13c-.08,0-.17-.02-.26-.03-.68-.09-1.63.03-2.11-.04-.44-.06-1.12-.38-2.05-.39-.81-.01-1.12.03-1.92-.07.02-2.8.04-5.59.06-8.39.04-5.5.07-11,.1-16.49,0-1.23-.07-2.46-.04-3.68.05-2.02.21-4.03.24-6.04.08-4.41.28-8.83.04-13.24-.21-3.8-.15-7.6-.06-11.4.05-1.93.03-3.86-.04-5.79-.18-5.23-.45-10.46-.59-15.69-.08-3.22-.25-6.42-.58-9.62-.13-1.29-.39-2.54-1.23-3.6-.48-.61-1.12-.93-1.84-1.11-.52-.14-.94.05-1.1.48-.22.6-.48,1.21-.54,1.84-.22,2.56-.41,5.13-.54,7.69-.1,1.99-.1,3.98-.14,5.96-.05,2.4-.11,4.79-.14,7.19-.03,2.78-.03,5.55-.05,8.33,0,.2-.02.41-.07.61-.12.52-.42.94-.95,1.05-1.03.21-2.06.45-3.1.5-1.76.08-3.31-.64-4.76-1.55-.49-.31-.95-.69-1.44-1.01-1.12-.73-2.41-.24-2.77,1.05-.17.63-.24,1.3.05,1.89.6,1.23,1.1,2.57,1.94,3.61,2.87,3.52,6.39,6.2,10.83,7.66,0,.45,0,.97,0,1.5-.03,1.9-.09,3.8-.1,5.7-.03,7.08-.05,14.15-.07,21.23,0,4.36.02,8.71,0,13.07-.02,2.65-.06,5.3-.11,7.95-.72-.14-1.53-.28-2.33-.28-1.08,0-7.34-.08-8.09.07-.65.13-2.4.06-3.16.06l-1.29-.13c-.91,0-3.57-.1-4.38.11-.95.24-.4.28-1.57.28h-1.41c.02-2.73.04-5.47.06-8.2.04-5.5.07-11,.1-16.49,0-1.23-.07-2.46-.04-3.68.05-2.02.2-4.03.24-6.04.08-4.41.29-8.83.04-13.24-.21-3.8-.15-7.6-.06-11.4.05-1.93.03-3.86-.04-5.79-.18-5.23-.45-10.46-.59-15.69-.08-3.22-.25-6.42-.58-9.62-.13-1.29-.39-2.54-1.23-3.6-.48-.61-1.12-.93-1.84-1.11-.52-.14-.94.05-1.1.48-.22.6-.48,1.21-.54,1.84-.22,2.56-.41,5.13-.54,7.69-.1,1.99-.1,3.98-.14,5.96-.05,2.4-.11,4.79-.14,7.19-.03,2.78-.03,5.55-.05,8.33,0,.2-.02.41-.07.61-.12.52-.42.94-.95,1.05-1.03.21-2.06.45-3.1.5-1.76.08-3.31-.64-4.76-1.55-.49-.31-.95-.69-1.44-1.01-1.12-.73-2.41-.24-2.77,1.05-.17.63-.24,1.3.05,1.89.6,1.23,1.1,2.57,1.94,3.61,2.87,3.52,6.39,6.2,10.83,7.66,0,.45,0,.97,0,1.5-.03,1.9-.09,3.8-.1,5.7-.03,7.08-.05,14.15-.07,21.23,0,4.36.02,8.71,0,13.07-.02,2.73-.06,5.46-.11,8.18h-2.36l-1-.13c-.46,0-.77-.16-1.31-.24-.61-.09-.33-.15-1.28-.15-.34,0-.43-.52-2.46-.52-.58,0-.75-.13-1.81-.13-.92,0-2.8-.1-3.61.11-.45.12-.98-.1-1.89.23l-1.23.17c-.66,0-1.06.24-1.61.26l-1.16.13c-.66.03-.42.12-1.37.12-.39,0-.77,0-1.15.03.02-2.74.04-5.49.06-8.23.04-5.5.07-11,.1-16.49,0-1.23-.07-2.46-.04-3.68.05-2.02.21-4.03.24-6.04.08-4.41.29-8.83.04-13.24-.21-3.8-.15-7.6-.06-11.4.05-1.93.03-3.86-.04-5.79-.18-5.23-.45-10.46-.59-15.69-.08-3.22-.25-6.42-.58-9.62-.13-1.29-.39-2.54-1.23-3.6-.48-.61-1.12-.93-1.84-1.11-.52-.14-.94.05-1.1.48-.22.6-.48,1.21-.54,1.84-.22,2.56-.41,5.13-.54,7.69-.1,1.99-.1,3.98-.14,5.96-.05,2.4-.11,4.79-.14,7.19-.03,2.78-.03,5.55-.05,8.33,0,.2-.02.41-.07.61-.12.52-.42.94-.95,1.05-1.03.21-2.06.45-3.1.5-1.76.08-3.31-.64-4.76-1.55-.49-.31-.95-.69-1.44-1.01-1.12-.73-2.41-.24-2.77,1.05-.17.63-.24,1.3.05,1.89.6,1.23,1.1,2.57,1.94,3.61,2.87,3.52,6.39,6.2,10.83,7.66,0,.45,0,.97,0,1.5-.03,1.9-.09,3.8-.1,5.7-.03,7.08-.05,14.15-.07,21.23,0,4.36.02,8.71,0,13.07-.02,2.76-.07,5.53-.11,8.3-1.11-.01-2.43,0-2.96.13-.44.11-1.71-.08-2.59.13l-2.88.19-10.36.03c-.29-.08-.62-.15-1.01-.18l-.94-.08c-.69-.14-2.63-.13-3.33.09-.06.02-.12.04-.17.05-.02-.45-.05-.81-.11-1.03-.08-.32.01-1.12-.09-1.64l-.2-.91c-.15-1.14.09-2.84-.33-3.99-.11-.31-.04-3.95-.04-4.85,0-1.07.1-4.35-.11-5.16l-.39-1.81c-.35-1.4-.28-.81-.28-2.34l-.07-6.72c.01-.09.03-.22.05-.41l.02-7.73.13-1.55c0-.62-.07-1.26.06-1.87.11-.52.02-1.04.13-1.55.11-.55.11-4.63.07-5.43l-.13-1.03c-.03-.64-.12-.43-.12-1.37,0-.42-.06-1.85.04-2.14.34-.93.22-2.63.22-3.68,0-.57-.06-1.18.06-1.74.22-1.06-.04-6.17.09-6.68.16-.61.04-1.24.17-1.85.21-1.04-.04-6.44.09-6.94.3-1.16-.05-2.96.17-4.05l.11-1.04c.31-.85.11-1.4.27-2.19.13-.64,0-1.3.13-1.94.1-.49,0-1.38.11-1.69.34-.93.69-2.87.22-3.81-.86-1.73-1.8-5.72-1.41-11.52.26-1.03-.04-2.12.17-3.15l.18-1c.05-.4.09-.78.11-1.15.1-.07.19-.14.29-.21l.77-.68Z"/>
  <path class="st1" d="M113.31,0h2.5c.94.32,2.77.2,3.76.2.94,0,1.95.12,2.86-.2h6.29c.44.19,1.05.45,1.38.52,1.11.23.85.2,2.01.2.83,0,.56.11,1.27.22.51.08,1.41-.05,1.77.08.93.34,2.91.22,3.94.22,1.13,0,6.56.08,7.31-.07,1.05-.22,2.06-.22,2.96-.89.17-.13,2.76-.07,3.3-.07,1.11,0,3.97-.09,4.91.09.74.14,1.42.53,2.17.65l2.28.36c.83.17,2.1,0,2.68.07.51.07.6.25,1.4.26.19,0,.62.13,1.42.13.93,0,6.04.08,6.79-.07.37-.08.48-.17.89-.19.84-.04,1.44-.46,2.12-.53.48-.05.67-.18.97-.24.47-.09,1.1.15,2.09-.22.3-.11,1.33-.04,1.75-.04,1.69,0,.73.06,1.78.22.64.1,2.12.09,2.73-.07l5.56-.02c1.41.06,3.34.37,4.67.39,1.9.02,2.29.08,4.03-.51.68-.23,1.92-.14,2.56-.14.6,0,1.74.04,2.72.02.67.17,1.04.03,1.73.17.82.17,1.23-.05,1.79.18,1.23.52,2.63.14,3.14.32.81.3,1.21.13,1.93.27.47.1,1.15.06,1.5.08v5.26c-.1.14-.2.3-.29.46-.32.6-.42,1.27-.52,1.93-.13.88.08,1.8-.1,2.67l-.13,1.42c-.12.57-.11,3.36-.05,3.93l.5,4.94c.01,1.03.31,1.29.39,1.62v14.93c0,.44.13.86.21,1.28v15.85l-.12.65c-.17.46-.18.94-.27,1.41-.15.74-.07,7.72-.07,9.25,0,1.14-.08,7.47.07,8.22.13.64.06,2.18.06,2.9,0,.99-.09,3.58.11,4.38.05.21.13.42.22.62v3.51c-.02.09-.04.19-.06.29l-.24.87c-.07.44-.3.33-.3,1.84,0,1.06-.09,4.61.11,5.41.11.44-.08,1.64.13,2.46.09.37-.04.75.23,1.5.08.21-.08.57-.09,1.1-.01.84-.09,1.8.16,2.61l-.16,1.4c0,.35,0,.64,0,.91h-7.13c-.08,0-.17-.02-.26-.03-.68-.09-1.63.03-2.11-.04-.44-.06-1.12-.38-2.05-.39-.85-.01-1.15.03-2.04-.09-.83-.11-4.19-.04-5.2-.04s-2.49-.52-4.01-.52c-1.08,0-7.34-.08-8.09.07-.65.13-2.4.06-3.16.06l-1.29-.13c-.91,0-3.57-.1-4.38.11-.95.24-.4.28-1.57.28l-2.43.02c-.86.07-1.44.09-1.99.11,0-5.02-.03-10.04-.06-15.06-.04-6.75-.08-13.5-.65-20.23-.14-1.6-.33-3.19-.48-4.79-.27-2.86-.51-5.72-.79-8.58-.1-.98-.28-1.94-.45-3.09.48.22.87.3,1.12.53,1.19,1.07,2.44,2.08,3.49,3.28,2.73,3.13,4.44,6.86,6.06,10.66,1.55,3.63,2.59,7.38,3.01,11.3.28,2.58.46,5.17.73,7.75.04.37.28.92.54,1,.29.09.79-.18,1.08-.44.6-.53,1.14-1.13,1.68-1.72,1.74-1.9,2.8-4.12,3.07-6.7.62-5.88-.14-11.57-2.42-17.05-2.22-5.34-5.8-9.44-11.01-12.06-1.2-.61-2.44-1-3.79-.99-.69,0-1.37,0-2.06,0-.03-.1-.05-.19-.08-.29.68-.36,1.35-.76,2.05-1.08,4.7-2.14,9.67-3.15,14.8-3.4,4.36-.22,8.67.09,12.9,1.26,3.45.95,6.62,2.45,9.46,4.65.3.23.8.49,1.1.4.53-.17.49-.74.33-1.22-.29-.84-.44-1.8-.94-2.49-1.51-2.1-2.93-4.3-5.23-5.69-.93-.56-1.8-1.22-2.72-1.79-3.7-2.31-7.71-3.68-12.08-4.07-7.11-.63-13.12,1.93-18.56,6.21-1.13.89-2.14,1.93-3.37,3.05.1-.43.13-.66.19-.88,4.41-15.38,9.57-25.61,23.27-34.58.12-.08.27-.14.34-.25.21-.39.57-.83.52-1.19-.09-.61-.72-.72-1.25-.62-1.34.24-2.73.39-3.99.85-3.22,1.17-6.11,2.96-8.67,5.24-8.87,7.88-11.05,10.36-13.96,21.93-.15.6-.32,1.2-.51,1.9-.82-1.72-1.56-3.29-2.32-4.85-2.12-4.38-5.38-7.7-9.52-10.19-3.68-2.21-7.64-3.73-11.85-4.45-1.89-.32-3.86-.43-5.77-.3-2.41.16-4.72.95-6.91,1.95-1.94.88-3.73,2.03-5.23,3.57-.41.42-.98.91-.63,1.59.37.72,1.09.43,1.66.3,1.63-.36,3.26-.48,4.92-.36,1.22.09,2.45.11,3.68.18,7.39.39,13.8,3.27,19.43,7.92,3.35,2.76,5.77,6.33,8.19,9.89.2.29.34.62.54,1-1.7-.78-3.24-1.57-4.84-2.22-5.11-2.05-10.31-2.48-15.64-.83-6.69,2.08-11.5,6.48-15.29,12.17-2.88,4.32-4.44,9.13-5.24,14.23-.32,2.01-.55,4.03-.08,6.04.07.31.35.68.62.8.17.07.55-.24.79-.43.14-.11.2-.31.3-.48,1-1.65,1.94-3.34,3.02-4.95,2.76-4.13,5.75-8.06,9.63-11.25,6.31-5.19,13.42-7.97,21.69-7.24,1.55.14,3.08.54,4.92.87-.51.36-.73.53-.96.67-2.88,1.64-5.19,3.92-7.2,6.51-7.39,9.47-10.33,20.21-8.95,32.11.24,2.08.98,4.11,1.62,6.13.16.49.77,1.14,1.22,1.18.79.06.73-.82.83-1.39.8-4.46,1.84-8.85,3.39-13.13,3.29-9.08,8.21-17.17,14.48-24.46.34-.4.62-.91,1.22-1.07,0,16.24-.68,32.39-1.98,48.6-.32-.05-.6-.16-1.02-.21-.61-.09-.33-.15-1.28-.15-.34,0-.43-.52-2.46-.52-.58,0-.75-.13-1.81-.13-.92,0-2.8-.1-3.61.11-.45.12-.98-.1-1.89.23l-1.23.17c-.66,0-1.06.24-1.61.26l-1.16.13c-.66.03-.42.12-1.37.12-.69,0-1.35-.02-2,.22-.3.11-3.89.04-4.72.04-.94,0-3.57-.1-4.38.11-.44.11-1.71-.08-2.59.13l-2.88.19-10.36.03c-.29-.08-.62-.15-1.01-.18l-.94-.08c-.69-.14-2.63-.13-3.33.09-.06.02-.12.04-.17.05-.02-.45-.05-.81-.11-1.03-.08-.32.01-1.12-.09-1.64l-.2-.91c-.15-1.14.09-2.84-.33-3.99-.11-.31-.04-3.95-.04-4.85,0-1.07.1-4.35-.11-5.16l-.39-1.81c-.35-1.4-.28-.81-.28-2.34l-.07-6.72c.01-.09.03-.22.05-.41l.02-7.73.13-1.55c0-.62-.07-1.26.06-1.87.11-.52.02-1.04.13-1.55.11-.55.11-4.63.07-5.43l-.13-1.03c-.03-.64-.12-.43-.12-1.37,0-.42-.06-1.85.04-2.14.34-.93.22-2.63.22-3.68,0-.57-.06-1.18.06-1.74.22-1.06-.04-6.17.09-6.68.16-.61.04-1.24.17-1.85.21-1.04-.04-6.44.09-6.94.3-1.16-.05-2.96.17-4.05l.11-1.04c.31-.85.11-1.4.27-2.19.13-.64,0-1.3.13-1.94.1-.49,0-1.38.11-1.69.34-.93.69-2.87.22-3.81-.86-1.73-1.8-5.72-1.41-11.52.26-1.03-.04-2.12.17-3.15l.18-1c.05-.4.09-.78.11-1.15.1-.07.19-.14.29-.21l.77-.68Z"/>
  <path class="st1" d="M2,0h2.5c.94.32,2.77.2,3.76.2.94,0,1.95.12,2.86-.2h6.29c.44.19,1.05.45,1.38.52,1.11.23.85.2,2.01.2.83,0,.56.11,1.27.22.51.08,1.41-.05,1.77.08.93.34,2.91.22,3.94.22,1.13,0,6.56.08,7.31-.07,1.05-.22,2.06-.22,2.96-.89.17-.13,2.76-.07,3.3-.07,1.11,0,3.97-.09,4.91.09.74.14,1.42.53,2.17.65l2.28.36c.83.17,2.1,0,2.68.07.51.07.6.25,1.4.26.19,0,.62.13,1.42.13.93,0,6.04.08,6.79-.07.37-.08.48-.17.89-.19.84-.04,1.44-.46,2.12-.53.48-.05.67-.18.97-.24.47-.09,1.1.15,2.09-.22.3-.11,1.33-.04,1.75-.04,1.69,0,.73.06,1.78.22.64.1,2.12.09,2.73-.07l5.56-.02c1.41.06,3.34.37,4.67.39,1.9.02,2.29.08,4.03-.51.68-.23,1.92-.14,2.56-.14.6,0,1.74.04,2.72.02.67.17,1.04.03,1.73.17.82.17,1.23-.05,1.79.18,1.23.52,2.63.14,3.14.32.81.3,1.21.13,1.93.27.47.1,1.15.06,1.5.08v5.26c-.1.14-.2.3-.29.46-.32.6-.42,1.27-.52,1.93-.13.88.08,1.8-.1,2.67l-.13,1.42c-.12.57-.11,3.36-.05,3.93l.5,4.94c.01,1.03.31,1.29.39,1.62v1.45c-1.11-.56-2.15-1.24-3.17-1.98-2.15-1.57-3.8-3.64-5.35-5.78-1.31-1.81-2.79-3.42-4.55-4.79-3.12-2.43-6.68-3.44-10.6-3.06-4.29.42-7.82,3.5-8.97,7.64-.17.6-.05,1.15.18,1.69.14.35.53.44.83.22.14-.1.26-.25.35-.39.35-.54.81-.95,1.36-1.26,1.61-.9,3.29-.94,4.97-.29,2,.77,2.07.85,2.72,3.03.18.61.18,1.24.01,1.85-.68,2.47-2.53,3.87-5.02,4.35-1.31.25-2.67.1-3.99-.18-2.12-.45-4.05-1.38-5.93-2.4-2.82-1.52-5.12-3.72-7.52-5.78-.1-.09-.18-.2-.26-.3-1.77-2.3-4.01-3.97-6.66-5.14-2.36-1.04-4.83-1.6-7.37-1.2-3.34.53-6.14,2.07-8.07,4.98-.85,1.29-1.24,2.7-1.17,4.24,0,.11-.01.24.04.33.1.18.22.4.39.5.23.14.5.02.65-.19.27-.38.49-.8.78-1.17.31-.4.63-.82,1.03-1.12,1.92-1.45,5.22-1.39,7.08.13,1.2.98,2.04,2.26,2.06,3.84.03,2.22-.87,4.02-2.9,5.14-1.22.67-2.51,1.13-3.89,1.4-2.53.49-4.84-.04-6.95-1.46-1.07-.72-2.05-1.57-3.07-2.38-.24-.19-.48-.41-.66-.66-.94-1.28-1.93-2.52-2.76-3.86-1.44-2.33-3.25-4.31-5.41-5.97-.68-.53-1.44-1.01-2.23-1.35-3.36-1.43-6.84-1.89-10.39-.86-1.79.52-3.36,1.44-4.39,3.09-.31.49-.6,1-.85,1.52-.38.82-.62,1.68-.47,2.6.11.68.39,1.29.95,1.72.55.42,1.13.17,1.24-.51.05-.33.05-.67.11-1,.21-1.36,1.58-2.48,2.94-2.39,1.58.1,2.98.69,4.28,1.58.74.51,1.29,1.18,1.56,2.04.24.79.48,1.59.58,2.4.22,1.83-.36,3.33-1.99,4.35-.77.49-1.6.82-2.49.92-.75.08-1.54.18-2.25.02-2.02-.46-3.9-1.26-5.45-2.7-.73-.68-1.51-1.32-2.27-1.98-.11-.1-.23-.19-.35-.29,0-.32,0-.64.06-.96.1-.49,0-1.38.11-1.69.34-.93.68-2.87.22-3.81C1.01,15.98.08,11.99.47,6.19c.26-1.03-.04-2.12.17-3.15l.18-1c.05-.4.09-.78.11-1.15.1-.07.19-.14.29-.21l.77-.68h0ZM104.76,34.41v4.12c0,.44.13.86.21,1.28v15.85c-1.18-.58-2.3-1.29-3.37-2.08-2.15-1.57-3.8-3.64-5.35-5.78-1.31-1.81-2.79-3.42-4.55-4.79-3.12-2.43-6.68-3.44-10.6-3.06-4.29.42-7.82,3.5-8.97,7.64-.17.6-.05,1.15.18,1.69.14.35.53.44.83.22.14-.1.26-.25.35-.4.35-.54.81-.95,1.36-1.26,1.61-.9,3.29-.94,4.97-.29,2,.77,2.07.85,2.72,3.03.18.61.18,1.24.01,1.85-.68,2.47-2.53,3.87-5.02,4.35-1.31.25-2.67.1-3.99-.18-2.12-.45-4.05-1.38-5.93-2.4-2.82-1.52-5.12-3.72-7.52-5.78-.1-.09-.18-.2-.26-.3-1.77-2.3-4.01-3.97-6.66-5.14-2.36-1.04-4.83-1.6-7.37-1.2-3.34.53-6.14,2.07-8.07,4.98-.85,1.29-1.24,2.7-1.17,4.24,0,.11-.01.24.04.33.1.18.22.4.39.5.23.14.5.02.65-.19.27-.38.49-.8.78-1.17.31-.4.63-.82,1.03-1.12,1.92-1.45,5.22-1.39,7.08.13,1.2.98,2.04,2.26,2.06,3.84.03,2.22-.87,4.02-2.9,5.14-1.22.67-2.51,1.13-3.89,1.4-2.53.49-4.84-.04-6.95-1.46-1.07-.72-2.05-1.57-3.07-2.38-.24-.19-.48-.41-.66-.66-.94-1.28-1.93-2.52-2.76-3.86-1.44-2.33-3.25-4.31-5.41-5.97-.68-.53-1.44-1.01-2.23-1.35-3.36-1.43-6.84-1.89-10.39-.86-1.79.52-3.36,1.44-4.39,3.09-.31.49-.6,1-.85,1.52-.38.82-.62,1.68-.47,2.6.11.68.39,1.29.95,1.72.55.42,1.13.17,1.24-.51.05-.33.05-.67.11-1,.21-1.36,1.58-2.48,2.94-2.39,1.58.1,2.98.69,4.28,1.58.74.51,1.29,1.18,1.56,2.04.24.79.48,1.59.58,2.4.22,1.83-.36,3.33-1.99,4.35-.77.49-1.6.82-2.49.92-.75.08-1.54.18-2.25.02-2.02-.46-3.9-1.26-5.45-2.7-.73-.68-1.51-1.32-2.27-1.98-.34-.29-.69-.56-1.04-.84-.16-.13-.33-.24-.46-.39l-.13-.15h0c0-.12.02-.21.04-.26.34-.93.22-2.63.22-3.68,0-.57-.06-1.18.06-1.74.22-1.06-.04-6.17.09-6.68.16-.61.04-1.24.17-1.85.14-.66.08-3.09.06-4.89,4.27,0,8.53,0,12.8,0,1.43,0,2.86.01,4.28,0,1.05-.01,2.09-.07,3.14-.11,1.29-.04,2.59-.11,3.88-.12.96,0,1.92.04,2.88.09.8.04,1.6.11,2.4.16.51.04,1.02.1,1.53.1,4.96,0,9.91,0,14.87,0,2.16,0,4.33.05,6.49-.23,1.53-.2,3.07-.28,4.6-.4,1.33-.1,2.67-.26,4.01-.26,2.19,0,4.37.09,6.56.15.29,0,.58.05.87.07.82.05,1.65.13,2.47.12,1.23,0,2.45-.07,3.68-.11.8-.03,1.61-.05,2.41-.08,1.32-.06,2.63-.14,3.94.09,1.78.32,3.55.27,5.34.1.44-.04.89-.03,1.34-.02,1.56,0,3.12,0,4.69.03.85.01,1.69.07,2.54.12.65.04,1.29.15,1.93.17,2.28.07,4.55.11,6.83.16,0-.03,0-.06,0-.09h.46ZM104.58,57.71s0,.02,0,.04c0-.01,0-.03,0-.04h0ZM104.54,58.18c0,.06,0,.12,0,.18,0-.06,0-.12,0-.18h0ZM104.49,64.66c0,1.02.01,1.87.01,2.3,0,1.14-.08,7.47.07,8.22.13.64.06,2.18.06,2.9,0,.99-.09,3.58.11,4.38.05.21.13.42.22.62v3.08c-1.18-.58-2.3-1.29-3.37-2.08-2.15-1.57-3.8-3.64-5.35-5.78-1.31-1.81-2.79-3.42-4.55-4.79-3.12-2.43-6.68-3.44-10.6-3.06-4.29.42-7.82,3.5-8.97,7.64-.17.6-.05,1.15.18,1.69.14.35.53.44.83.22.14-.1.26-.25.35-.4.35-.54.81-.95,1.36-1.26,1.61-.9,3.29-.94,4.97-.29,2,.77,2.07.85,2.72,3.03.18.61.18,1.24.01,1.85-.68,2.47-2.53,3.87-5.02,4.35-1.31.25-2.67.1-3.99-.18-2.12-.45-4.05-1.38-5.93-2.4-2.82-1.52-5.12-3.72-7.52-5.78-.1-.09-.18-.2-.26-.3-1.77-2.3-4.01-3.97-6.66-5.14-2.36-1.04-4.83-1.6-7.37-1.2-3.34.53-6.14,2.07-8.07,4.98-.85,1.29-1.24,2.7-1.17,4.24,0,.11-.01.24.04.33.1.18.22.4.39.5.23.14.5.02.65-.19.27-.38.49-.8.78-1.17.31-.4.63-.82,1.03-1.12,1.92-1.45,5.22-1.39,7.08.13,1.2.98,2.04,2.26,2.06,3.84.03,2.22-.87,4.02-2.9,5.14-1.22.67-2.51,1.13-3.89,1.4-2.53.49-4.84-.04-6.95-1.46-1.07-.72-2.05-1.57-3.07-2.38-.24-.19-.48-.41-.66-.66-.94-1.28-1.93-2.52-2.76-3.86-1.44-2.33-3.25-4.31-5.41-5.97-.68-.53-1.44-1.01-2.23-1.35-3.36-1.43-6.84-1.89-10.39-.86-1.79.52-3.36,1.44-4.39,3.09-.31.49-.6,1-.85,1.52-.38.82-.62,1.68-.47,2.6.11.68.39,1.29.95,1.72.55.42,1.13.17,1.24-.51.05-.33.05-.67.11-1,.21-1.36,1.58-2.48,2.94-2.39,1.58.1,2.98.69,4.28,1.58.74.51,1.29,1.18,1.56,2.04.24.79.48,1.59.58,2.4.22,1.83-.36,3.33-1.99,4.35-.77.49-1.6.82-2.49.92-.75.08-1.54.18-2.25.02-2.02-.46-3.9-1.26-5.45-2.7-.73-.68-1.51-1.32-2.27-1.98-.34-.29-.69-.56-1.04-.84-.16-.13-.33-.24-.46-.39l-.27-.31v.03c0-.18,0-.44,0-.83L0,76.4c.01-.09.03-.22.05-.41l.02-7.73.13-1.55c0-.57-.06-1.16.03-1.72,4.47,0,8.93,0,13.4,0,1.43,0,2.86.01,4.28,0,1.05-.01,2.09-.07,3.14-.11,1.29-.04,2.59-.11,3.88-.12.96,0,1.92.04,2.88.09.8.04,1.6.11,2.4.16.51.04,1.02.1,1.53.1,4.96,0,9.91,0,14.87,0,2.16,0,4.33.05,6.49-.23,1.53-.2,3.07-.28,4.6-.4,1.33-.1,2.67-.26,4.01-.26,2.19,0,4.37.09,6.56.15.29,0,.58.05.87.07.82.05,1.65.13,2.47.12,1.23,0,2.45-.07,3.68-.11.8-.03,1.61-.05,2.41-.08,1.32-.06,2.63-.14,3.94.09,1.78.32,3.55.27,5.34.1.44-.04.89-.03,1.34-.02,1.56,0,3.12,0,4.69.03.85.01,1.69.07,2.54.12.65.04,1.29.15,1.93.17,2.28.07,4.55.11,6.83.16,0-.03,0-.06,0-.09h.19v-.25h0ZM104.53,95.42c0,.56-.07,1.4.09,2.03.09.37-.04.75.23,1.5.08.21-.08.57-.09,1.1-.01.84-.09,1.8.16,2.61l-.16,1.4c0,.35,0,.64,0,.91h-7.13c-.08,0-.17-.02-.26-.03-.68-.09-1.63.03-2.11-.04-.44-.06-1.12-.38-2.05-.39-.85-.01-1.15.03-2.04-.09-.83-.11-4.19-.04-5.2-.04s-2.49-.52-4.01-.52c-1.08,0-7.34-.08-8.09.07-.65.13-2.4.06-3.16.06l-1.29-.13c-.91,0-3.57-.1-4.38.11-.95.24-.4.28-1.57.28l-2.43.02c-1.89.14-2.45.11-4.29.11h-4.04l-1-.13c-.46,0-.77-.16-1.31-.24-.61-.09-.33-.15-1.28-.15-.34,0-.43-.52-2.46-.52-.58,0-.75-.13-1.81-.13-.92,0-2.8-.1-3.6.11-.45.12-.98-.1-1.89.23l-1.23.17c-.66,0-1.06.24-1.61.26l-1.16.13c-.66.03-.42.12-1.37.12-.69,0-1.35-.02-2,.22-.3.11-3.89.04-4.72.04-.94,0-3.57-.1-4.38.11-.44.11-1.71-.08-2.59.13l-2.88.19-10.36.03c-.29-.08-.62-.15-1.01-.18l-.94-.08c-.69-.14-2.63-.13-3.33.09-.06.02-.12.04-.17.05-.02-.45-.05-.81-.11-1.03-.08-.32.01-1.12-.09-1.64l-.2-.91c-.15-1.14.09-2.84-.33-3.99-.05-.13-.06-.9-.06-1.79,4.27,0,8.54,0,12.81,0,1.43,0,2.86.01,4.28,0,1.05-.01,2.09-.07,3.14-.11,1.29-.04,2.59-.11,3.88-.12.96,0,1.92.04,2.88.09.8.04,1.6.11,2.4.16.51.04,1.02.1,1.53.1,4.96,0,9.91,0,14.87,0,2.16,0,4.33.05,6.49-.23,1.53-.2,3.07-.28,4.6-.4,1.33-.1,2.67-.26,4.01-.26,2.19,0,4.37.09,6.56.15.29,0,.58.05.87.07.82.05,1.65.13,2.47.12,1.23,0,2.45-.07,3.68-.11.8-.03,1.61-.05,2.41-.08,1.32-.06,2.63-.14,3.94.09,1.78.32,3.55.27,5.34.1.44-.04.89-.03,1.34-.02,1.56,0,3.12,0,4.69.03.85.01,1.69.07,2.54.12.65.04,1.29.15,1.93.17,2.28.07,4.55.11,6.83.16,0-.03,0-.06,0-.09h.22Z"/>
  <path class="st0" d="M21.02,244.3c2.07,3.37,1.34,7.91-1.7,10.67-2.23,1.83-5.19,2.51-8.15,2.35-4.22-.2-8.4-2.6-9.33-7.02-.12-.69-.2-1.38-.08-2.03.53-2.15,3.16-3.53,4.22-3.69,1.1-.16,1.3.77,1.26.97.16,2.19,1.54,4.87,3.85,5.56.53.16,1.14.2,1.78.04,1.54-.41,2.23-1.58,2.19-2.56-.04-.89-.65-1.91-1.62-2.76-3.61-3.04-9.09-4.5-10.87-9.37-2.07-6.45,4.42-10.1,9.86-9.82,4.62.24,9.09,2.96,9.98,7.02.45,2.43-2.84,4.46-4.38,4.18-.57-.2-.93-.65-1.18-1.26-2.68-6.45-7.67-4.58-7.42-1.42.04.61.57,1.3,1.3,1.91,3.2,2.68,8.07,3.61,10.3,7.22Z"/>
  <path class="st0" d="M45.15,232.9c-.61.16-3,.16-5.92.12.24,7.5.41,15.05.41,22.55,0,0-.08,1.58-1.99,1.7-1.91.2-4.22.36-4.58-1.83-.2-1.14,0-7.06.16-12.82.08-3.93.16-7.75.2-9.77-3.41-.08-6.21-.16-6.21-.16,0,0-.81.12-.89-1.3-.12-1.5-.41-4.38.45-4.42l18.13-.61s1.14.04,1.34,1.91c.24,1.87.53,4.26-1.1,4.62Z"/>
  <path class="st0" d="M53.3,257.36c-1.62,0-2.96-1.14-2.96-2.56s1.34-2.64,2.96-2.64,2.96,1.18,2.96,2.64-1.34,2.56-2.96,2.56Z"/>
  <path class="st0" d="M101.81,255.33s-.08,1.74-1.99,1.95c-1.87.24-4.22.41-4.58-2.07-.12-1.14,0-7.18.16-13.26-1.74,3.41-3.45,6.61-4.34,8.15-.32.53-.53,1.01-1.1,1.34-1.3.77-3.49.73-4.5-.45-.61-.77-3.08-5.35-5.39-9.98l.12,14.32s-.08,1.74-1.99,1.95c-1.91.24-4.26.41-4.62-2.07-.32-2.39.69-27.09.69-27.09,0,0-.2-1.26,1.3-1.34.89-.04,3.81-.24,4.46.73,2.6,4.91,5.23,9.82,7.95,14.64,2.64-4.7,5.27-9.53,7.75-14.32.16-.49.93-1.01,1.5-1.05,1.46-.04,4.3-.28,4.38,1.1l.2,27.46Z"/>
  <path class="st0" d="M128.01,239.43c-.69-4.66-2.23-9.37-6.37-11.76-2.64-1.46-5.84-1.46-8.31.08-6.25,4.02-7.34,14.56-7.75,20.89-.16,2.51-.2,4.75-.2,6.41.04,1.38.73,1.99,1.66,2.19.93.28,1.99.12,2.72.08,1.58-.16,1.78-4.18,1.87-5.19,2.51,0,7.67-.04,10.38.32v.41c.04,2.43.65,3.65,1.46,4.18.85.57,1.95.41,2.84.28,1.91-.53,2.03-1.14,2.23-3.81.24-4.7.2-9.49-.53-14.07ZM121.97,245.8c-3.37-.12-6.77.04-10.18.32.77-7.95,3.37-12.57,5.56-12.53,2.51.04,4.91,4.5,4.62,12.21Z"/>
  <path class="st0" d="M150.69,252c-1.99-.57-5.15-2.64-6.85-4.83,4.79-2.11,9.29-6.41,8.11-12.29-1.1-5.48-6.89-7.95-11.76-8.11-1.1-.04-2.11-.04-3.12,0-.97-.12-2.11-.04-2.88.04-1.5.08-1.3,1.34-1.3,1.34,0,0-.16,6.17-.32,12.57-.24,6.49-.53,13.22-.32,14.4.28,2.51,2.64,2.35,4.5,2.19,1.91-.12,2.03-1.91,2.03-1.91,0-1.66.04-3.33.04-4.95.08.08.12.08.12.16,2.43,2.96,4.99,5.68,8.19,6.85.57.2,1.01.28,1.18.32,2.64.69,4.87-4.83,2.39-5.8ZM138.84,242.68c-.04-3.04-.08-6.17-.12-9.25,9.69-.81,8.31,8.72.12,9.25Z"/>
  <path class="st0" d="M175.02,232.9c-.61.16-3,.16-5.92.12.24,7.5.41,15.05.41,22.55,0,0-.08,1.58-1.99,1.7-1.91.2-4.22.36-4.58-1.83-.2-1.14,0-7.06.16-12.82.08-3.93.16-7.75.2-9.77-3.41-.08-6.21-.16-6.21-.16,0,0-.81.12-.89-1.3-.12-1.5-.41-4.38.45-4.42l18.13-.61s1.14.04,1.34,1.91c.24,1.87.53,4.26-1.09,4.62Z"/>
  <path class="st0" d="M186.62,255.37s-.08,1.74-1.99,1.91c-1.91.2-4.26.41-4.58-2.07-.32-2.43.81-27.13.81-27.13,0,0-.16-1.26,1.3-1.3,1.5-.04,4.38-.24,4.42,1.1l.04,27.5Z"/>
  <path class="st0" d="M213.88,255.82s.12,1.26-1.42,1.3c-1.66,0-4.58.61-5.76-1.14-.41-.53-1.66-2.51-2.96-5.03-2.15-4.14-4.38-8.23-6.65-12.65l.28,16.99s-.04,1.74-1.91,1.99c-1.91.24-4.3.45-4.62-1.99-.41-2.47.28-27.13.28-27.13,0,0-.12-1.26,1.34-1.34.89-.08,4.66-.36,5.11.41,3.49,5.76,6.89,11.56,10.18,17.44l.2-15.9s.12-1.74,2.03-1.95c1.91-.16,4.26-.32,4.54,2.15.28,2.43-.65,26.85-.65,26.85Z"/>
  <rect class="st0" x="63.88" y="268.55" width="2.76" height="14.77"/>
  <path class="st0" d="M82.39,275.69c-.45-.29-.96-.52-1.51-.67-.52-.15-1.05-.27-1.57-.38-.56-.11-1.09-.24-1.58-.36-.43-.11-.78-.29-1.04-.52-.22-.2-.33-.49-.33-.91,0-.57.2-.99.63-1.29.46-.33,1.13-.5,1.99-.5.48,0,.97.09,1.45.26.49.18.99.46,1.49.83l.33.24,1.59-2.21-.32-.23c-.71-.51-1.45-.9-2.2-1.16-.76-.25-1.54-.38-2.33-.38-1.66,0-2.98.39-3.92,1.16-.96.79-1.44,1.91-1.44,3.34,0,.88.15,1.6.46,2.15.31.55.72.98,1.23,1.27.48.28,1.02.49,1.59.62.53.12,1.08.23,1.61.32.53.09,1.01.2,1.45.33.39.12.71.3.94.53.21.21.31.51.31.95,0,.55-.21.95-.66,1.25-.49.33-1.2.5-2.13.5-.7,0-1.36-.11-1.95-.32-.59-.21-1.14-.54-1.63-.96l-.31-.27-1.73,2.13.3.25c.48.4,1,.74,1.55,1.01.55.27,1.15.47,1.77.61.62.13,1.3.2,2,.2,1.71,0,3.07-.38,4.03-1.14.99-.78,1.5-1.89,1.5-3.32,0-.83-.14-1.51-.43-2.04-.28-.53-.67-.96-1.14-1.27Z"/>
  <polygon class="st0" points="93.04 268.55 90.28 268.55 90.28 283.32 100.05 283.32 100.05 280.65 93.04 280.65 93.04 268.55"/>
  <path class="st0" d="M112.43,268.55h-2.23l-5.45,14.77h2.98l1.05-3.07h5.06l1.05,3.07h2.98l-5.45-14.77ZM109.7,277.59l1.62-4.7,1.62,4.7h-3.23Z"/>
  <polygon class="st0" points="131.92 278 125.94 268.55 123.54 268.55 123.54 283.31 126.29 283.31 126.29 274 132.25 283.31 134.67 283.31 134.67 268.55 131.92 268.55 131.92 278"/>
  <path class="st0" d="M150.88,269.97c-1-.94-2.41-1.42-4.2-1.42h-4.83v14.77h4.82c1.19,0,2.22-.21,3.06-.63.86-.43,1.53-1.06,1.99-1.87.45-.8.68-1.78.68-2.9v-3.96c0-1.7-.51-3.04-1.51-3.99ZM149.58,277.99c0,.87-.24,1.51-.72,1.97-.49.46-1.2.69-2.12.69h-2.13v-9.44h2.13c.92,0,1.63.23,2.12.69.49.46.72,1.1.72,1.97v4.11Z"/>
  <path class="st1" d="M104.68,117.84c.09-.17.19-.32.29-.46v-5.26c-.34-.02-1.03.02-1.5-.08-.72-.15-1.12.02-1.93-.27-.51-.19-1.91.2-3.14-.32-.55-.23-.96-.01-1.79-.18-.69-.14-1.06,0-1.73-.17-.99.02-2.12-.02-2.72-.02-.64,0-1.88-.1-2.56.14-1.74.59-2.13.53-4.03.51-1.33-.02-3.26-.33-4.67-.39l-5.56.02c-.61.16-2.09.17-2.73.07-1.05-.16-.09-.22-1.78-.22-.42,0-1.45-.07-1.75.04-.99.36-1.62.13-2.09.22-.3.06-.49.19-.97.24-.68.07-1.28.49-2.12.53-.4.02-.52.12-.89.19-.75.15-5.87.07-6.79.07-.8,0-1.23-.13-1.42-.13-.8-.01-.89-.19-1.4-.26-.57-.08-1.84.1-2.68-.07l-2.28-.36c-.75-.12-1.43-.51-2.17-.65-.95-.17-3.8-.09-4.91-.09-.54,0-3.12-.06-3.3.07-.9.68-1.91.68-2.96.89-.75.15-6.18.07-7.31.07-1.03,0-3.01.12-3.94-.22-.36-.13-1.26,0-1.77-.08-.71-.11-.43-.22-1.27-.22-1.17,0-.9.02-2.01-.2-.33-.07-.93-.33-1.38-.52h-6.29c-.91.32-1.92.2-2.86.2-1,0-2.82.12-3.76-.2h-2.5l-.77.68c-.09.08-.19.15-.29.21-.02.37-.07.75-.11,1.15l-.18,1c-.21,1.02.1,2.12-.17,3.15-.4,5.8.54,9.79,1.4,11.52.47.94.12,2.89-.22,3.81-.11.31-.01,1.2-.11,1.69-.13.64,0,1.3-.13,1.94-.16.79.04,1.33-.27,2.19l-.11,1.04c-.22,1.09.13,2.89-.17,4.05-.13.5.12,5.9-.09,6.94-.12.61-.01,1.24-.17,1.85-.13.51.13,5.62-.09,6.68-.11.56-.06,1.16-.06,1.74,0,1.05.12,2.76-.22,3.68-.1.29-.04,1.72-.04,2.14,0,.94.09.72.12,1.37l.13,1.03c.04.8.04,4.88-.07,5.43-.1.51-.02,1.04-.13,1.55-.12.61-.05,1.25-.06,1.87l-.13,1.55-.02,7.73c-.02.2-.04.32-.05.41l.07,6.72c0,1.53-.08.94.28,2.34l.39,1.81c.21.81.11,4.09.11,5.16,0,.9-.07,4.54.04,4.85.42,1.15.18,2.85.33,3.99l.2.91c.1.52,0,1.31.09,1.64.06.21.09.58.11,1.03.05-.01.1-.03.17-.05.69-.22,2.64-.23,3.33-.09l.94.08c.39.04.72.11,1.01.18l10.36-.03,2.88-.19c.87-.21,2.14-.02,2.59-.13.81-.21,3.44-.11,4.38-.11.83,0,4.42.07,4.72-.04.65-.24,1.31-.22,2-.22.94,0,.71-.09,1.37-.12l1.16-.13c.54-.03.94-.25,1.61-.26l1.23-.17c.91-.33,1.44-.12,1.89-.23.81-.21,2.69-.11,3.6-.11,1.06,0,1.23.13,1.81.13,2.02,0,2.12.52,2.46.52.95,0,.67.06,1.28.15.54.08.85.23,1.31.24l1,.13h4.04c1.84,0,2.4.03,4.29-.11l2.43-.02c1.17,0,.62-.03,1.57-.28.81-.21,3.48-.11,4.38-.11l1.29.13c.76,0,2.51.08,3.16-.06.75-.15,7.01-.07,8.09-.07,1.52,0,3,.52,4.01.52s4.37-.07,5.2.04c.89.12,1.19.08,2.04.09.93.01,1.61.33,2.05.39.48.07,1.43-.05,2.11.04.09.01.18.02.26.03h7.13c0-.26,0-.56,0-.91l.16-1.4c-.25-.81-.17-1.77-.16-2.61,0-.53.16-.89.09-1.1-.28-.75-.14-1.13-.23-1.5-.21-.82-.01-2.01-.13-2.46-.21-.8-.11-4.35-.11-5.41,0-1.5.23-1.4.3-1.84l.24-.87c.02-.1.04-.19.06-.29v-3.51c-.09-.2-.17-.41-.22-.62-.21-.81-.11-3.4-.11-4.38,0-.72.07-2.27-.06-2.9-.15-.75-.07-7.07-.07-8.22,0-1.53-.08-8.51.07-9.25.1-.47.1-.95.27-1.41l.12-.65v-15.85c-.07-.42-.2-.84-.21-1.28v-14.93c-.08-.33-.38-.59-.39-1.62l-.5-4.94c-.06-.57-.06-3.36.05-3.93l.13-1.42c.18-.87-.04-1.79.1-2.67.1-.66.19-1.33.52-1.93ZM82.06,211.94c-1.26,0-2.28-1.02-2.28-2.28s1.02-2.28,2.28-2.28,2.28,1.02,2.28,2.28-1.02,2.28-2.28,2.28ZM89.91,211.94h-1.77c-1.26,0-2.28-1.02-2.28-2.28v-2.28h2.28v2.28h1.77v2.28ZM90.36,161.48c-1.94-.73-3.96-1.08-6.03-1.24-2.2-.17-4.28.2-6.27,1.11-2.27,1.04-4.29,2.38-6.15,3.95-.41.35-.82.7-1.29,1.1.29.15.43.26.59.31,3.57,1.2,6.12,3.45,7.91,6.47.63,1.06,1.15,2.19,1.7,3.29,1.67,3.41,1.75,6.98,1.22,10.61-.02.16-.08.31-.13.47-.13.4-.31.86-.82.81-.33-.03-.75-.29-.91-.56-.54-.88-1.06-1.78-1.47-2.71-1.87-4.33-5.07-7.43-9.82-9.12-1.09-.39-2.2-.72-3.38-.81-.02.12-.04.17-.02.2.11.26.22.52.33.79,1.02,2.56,1.89,5.15,1.97,7.9.13,4.69-.85,9.19-2.91,13.48-.53,1.1-1.3,2.11-2.02,3.12-.35.49-.89.81-1.59.62-.65-.18-.87-.7-.88-1.24-.04-1.17-.11-2.35.04-3.51.45-3.71.16-7.35-.69-10.99-.49-2.1-1.53-3.95-2.59-5.82-.02-.04-.15-.03-.32-.05-.04.35-.1.7-.13,1.05-.32,4.08-1.63,7.9-4.01,11.33-1.34,1.93-2.9,3.81-4.7,5.37-1.74,1.51-3.88,2.65-5.92,3.84-1.3.76-2.78,1.23-4.36,1.27-.58.02-1.19.02-1.52-.52-.34-.56-.15-1.11.22-1.6.35-.47.7-.95,1.14-1.33,2.43-2.13,4.07-4.77,5.76-7.38.94-1.45,1.57-2.98,1.9-4.63.53-2.65.6-5.31.34-7.99-.04-.4-.17-.8-.29-1.35-.65.87-1.13,1.54-1.65,2.19-1.83,2.33-4.29,4.06-6.71,5.81-1.27.92-2.69,1.7-4.14,2.36-1.89.87-3.91,1.49-6.07,1.54-1.45.03-2.91.06-4.36-.05-2.06-.15-3.89-.86-5.5-2.23.78-1.4,2.02-1.91,3.34-2.28,3.1-.88,5.96-2.23,8.62-3.9,2.5-1.58,4.46-3.67,5.95-6.1.44-.72.86-1.49.75-2.26-2.32.47-4.58.98-6.87,1.37-5.81,1-11.2.03-16.11-3.06-1.05-.66-1.82-1.53-2.4-2.54-.13-.24-.14-.7.03-.87.16-.18.63-.21.94-.16,1.6.25,3.18.67,4.78.8,5.35.44,10.45-.33,15.08-3.01.38-.22.74-.48,1.28-.83-.59-.18-.92-.28-1.25-.37-3.05-.83-5.98-1.94-8.74-3.39-1.02-.54-1.96-1.23-2.84-1.96-1.91-1.59-3.12-3.6-3.94-5.82-1-2.67-1.58-5.4-1.24-8.24.09-.71.31-1.42.55-2.11.14-.38.47-.8.97-.63.28.1.51.5.63.81.24.6.34,1.25.57,1.86.79,2.03,2.21,3.68,3.93,5.1,2.93,2.41,6.37,4.04,10.02,5.29,1.01.35,2.09.54,3.39.87-.31-.56-.47-.89-.67-1.18-1.04-1.53-1.79-3.17-2.19-4.93-1.12-4.87-2.19-9.74-2.08-14.77.08-3.4,1.51-6.19,3.92-8.64.12-.12.25-.23.39-.33.44-.31.92-.51,1.47-.28.56.23.71.7.69,1.21-.02.48-.11.97-.14,1.45-.16,2.22-.24,4.44.06,6.67.31,2.28,1.18,4.4,2.09,6.5.94,2.15,2.1,4.19,3.79,5.95.98,1.02,2.17,1.68,3.55,2.09.06-.11.11-.15.1-.18-.07-.23-.13-.47-.21-.7-.68-1.8-.91-3.66-.44-5.51.7-2.8,1.52-5.58,2.34-8.35.38-1.26,1.12-2.36,2.05-3.37.74-.8,1.44-1.64,2.1-2.5,1.79-2.34,4.33-3.76,7.08-4.91.2-.08.42-.14.63-.17.91-.11,1.37.34,1.11,1.14-.17.5-.44.97-.7,1.44-1.53,2.66-2.8,5.42-3.56,8.35-1.05,4.04-.92,8.12-.26,12.19.18,1.11.73,2.13,1.57,3.2.12-.45.22-.75.29-1.05.74-3.16,1.88-6.2,4.07-8.75,2.38-2.77,5.21-5.09,8.67-6.8,3.44-1.7,6.87-1.79,10.48-.9.46.11.95.25,1.34.5.32.2.67.56.73.89.09.46-.38.68-.83.78-.3.07-.6.15-.9.18-4.13.46-6.9,2.54-8.73,5.91-2.4,4.42-4.05,9.05-4.78,13.95-.05.33,0,.66,0,1.21.62-.42,1.03-.71,1.45-.98,4.84-3.17,10.12-3.96,15.81-2.47,5.02,1.31,7.99,4.68,10.26,8.72.43.76-.04,1.28-.97,1.15-.26-.04-.51-.13-.75-.22-.91-.3-1.83-.58-2.73-.92ZM93.82,211.94h-2.28v-4.56h2.28c1.26,0,2.28,1.02,2.28,2.28s-1.02,2.28-2.28,2.28ZM97.01,211.94l2.28-4.56,2.28,4.56h-4.56Z"/>
</svg>