<?xml version="1.0" encoding="UTF-8"?>
<svg id="Calque_1" xmlns="http://www.w3.org/2000/svg" version="1.1" viewBox="0 0 280.45 283.46">
  <!-- Generator: Adobe Illustrator 30.0.0, SVG Export Plug-In . SVG Version: 2.1.1 Build 123)  -->
  <defs>
    <style>
      .st0 {
        fill: #1d1d1b;
      }
    </style>
  </defs>
  <path class="st0" d="M125,126.35c.7-.33,1.17-.71,1.4-1.15.23-.43.35-.94.35-1.5,0-.87-.31-1.57-.94-2.1-.63-.53-1.51-.8-2.64-.8h-5.14v9.84h3.02v-3.76h.95l1.44,3.76h3.35l-1.78-4.29ZM123.25,124.54c-.23.16-.54.24-.92.24h-1.29v-1.88h1.39c.77,0,1.16.31,1.16.94,0,.31-.12.54-.35.7Z"/>
  <path class="st0" d="M164.45,138.51c-.82-.98-2.06-1.47-3.71-1.47h-3.8v9.84h3.99c1.41,0,2.55-.46,3.43-1.38.88-.92,1.32-2.11,1.32-3.58,0-1.29-.41-2.42-1.23-3.4ZM162,143.88c-.34.49-.77.73-1.27.73h-.79v-5.34h.79c.58,0,1.02.26,1.32.78.3.52.46,1.14.46,1.85,0,.84-.17,1.5-.51,1.98Z"/>
  <g>
    <path class="st0" d="M76.97,201.72l-10.53,3.53-8.38-11.76,6.89-8.65-9.8-13.76-34.1,45.07,10.16,14.25,53.58-17.74-7.8-10.94ZM39.94,215.32l10.21-12.63,5.06,7.1-15.27,5.53Z"/>
    <path class="st0" d="M227.14,29.69l-48.1,29.52,10.1,8.87,9.45-5.85,10.85,9.53-4.72,10,12.69,11.15,22.89-51.67-13.15-11.55ZM215.03,61.01l-6.56-5.76,13.6-8.87-7.05,14.63Z"/>
    <path class="st0" d="M279.72,116.97l-5.85-27.55-52.75,11.2,3.44,16.19,20.17-4.28,1.08,5.11-18.54,11.99,3.81,17.95,20.97-14.42c2.58,3.38,5.16,5.44,7.76,6.19,2.59.74,5.41.79,8.45.14,4.66-.99,8.06-3.47,10.19-7.43,2.13-3.97,2.56-8.99,1.27-15.07ZM263.95,122.74c-1.65.35-3.03,0-4.14-1.06-1.11-1.06-1.88-2.6-2.32-4.64l-1.47-6.92,10.09-2.14,1.58,7.46c.88,4.15-.37,6.58-3.74,7.3Z"/>
    <path class="st0" d="M129.47,246.56l-15.38-2.68c.28-4.52-2.09-7.7-7.11-9.54-3.91-1.43-6.24-1.11-7,.97-.4,1.09-.26,2.1.43,3.04.68.94,2.1,2.06,4.25,3.38,8.26,4.95,13.15,9.26,14.66,12.93,1.52,3.67,1.6,7.36.24,11.07-1.75,4.77-5.01,8.08-9.79,9.93-4.78,1.84-10.57,1.52-17.38-.97-10.31-3.77-15.61-10.41-15.9-19.91l14.3.81c.1,3.88,2.19,6.56,6.27,8.05,3.39,1.24,5.47.81,6.24-1.29.34-.94.23-1.81-.35-2.61-.58-.8-1.88-1.84-3.91-3.11-5.59-3.5-9.48-6.21-11.67-8.12-2.19-1.92-3.7-4.39-4.53-7.4-.83-3.01-.66-6.14.53-9.38,1.87-5.12,5.47-8.52,10.79-10.17,5.32-1.66,11.35-1.26,18.11,1.21,12.34,4.51,18.08,12.44,17.21,23.79Z"/>
    <rect class="st0" x=".82" y="147.55" width="53.92" height="16.55" transform="translate(-19.31 4.71) rotate(-7.2)"/>
    <path class="st0" d="M68.83,87.45l-5.06,12.49-27.63,4.75c-3.54.61-7.7.99-12.47,1.14,3.55.5,6.45,1.2,8.69,2.11l24.2,9.8-5.04,12.45L1.54,109.95l5.87-14.5,23.02-4.23c4.58-.85,8.49-1.31,11.73-1.39-4.59-.95-9.12-2.33-13.58-4.14l-14.79-5.99,5.06-12.49,49.98,20.24Z"/>
    <polygon class="st0" points="73.42 32.36 97.09 65.84 84.28 74.89 60.61 41.41 51.48 47.86 44.02 37.31 75.09 15.35 82.55 25.9 73.42 32.36"/>
    <polygon class="st0" points="172.84 1.12 171.81 55.03 156.44 54.74 157.18 16.19 146.47 54.55 135.96 54.35 126.33 15.6 125.6 54.15 113.19 53.92 114.22 0 135.85 .41 143.12 29.2 151.13 .7 172.84 1.12"/>
    <polygon class="st0" points="257.47 194.82 219.21 180.07 224.86 165.43 263.12 180.19 267.14 169.76 279.19 174.4 265.5 209.9 253.45 205.25 257.47 194.82"/>
    <rect class="st0" x="212.58" y="195.63" width="16.55" height="53.93" transform="translate(-92.69 219.17) rotate(-44.6)"/>
    <path class="st0" d="M141.6,231.45l13-3.55,20.53,19.09c2.63,2.45,5.46,5.52,8.47,9.23-1.75-3.12-2.95-5.85-3.59-8.19l-6.89-25.19,12.96-3.54,14.22,52.01-15.09,4.13-17.33-15.74c-3.45-3.13-6.19-5.96-8.22-8.49,2.03,4.22,3.68,8.66,4.95,13.31l4.21,15.39-12.99,3.55-14.22-52.01Z"/>
  </g>
  <polygon class="st0" points="114.16 126.96 110.96 126.96 110.96 130.64 108.02 130.64 108.02 120.8 115.13 120.8 115.13 123.15 110.96 123.15 110.96 124.75 114.16 124.75 114.16 126.96"/>
  <polygon class="st0" points="137.54 128.29 137.54 130.64 130.14 130.64 130.14 120.8 137.54 120.8 137.54 123.07 133.1 123.07 133.1 124.5 136.69 124.5 136.69 126.68 133.1 126.68 133.1 128.29 137.54 128.29"/>
  <path class="st0" d="M149.08,130.64h-2.46l-2.69-4.35c-.35-.56-.69-1.23-1.05-2.03.16.63.24,1.17.24,1.61v4.76h-2.45v-9.84h2.85l2.29,3.6c.46.72.8,1.35,1.04,1.89-.15-.84-.23-1.7-.23-2.58v-2.91h2.46v9.84Z"/>
  <path class="st0" d="M158.14,126.89l2.76.17c-.13,1.21-.58,2.13-1.34,2.77-.76.64-1.7.97-2.81.97-1.33,0-2.41-.44-3.24-1.33s-1.23-2.1-1.23-3.66.39-2.79,1.17-3.73c.78-.95,1.87-1.42,3.26-1.42,1.3,0,2.3.36,3,1.08.7.72,1.09,1.68,1.18,2.87l-2.82.15c0-.66-.13-1.13-.38-1.43s-.55-.44-.89-.44c-.95,0-1.43.96-1.43,2.87,0,1.07.12,1.8.37,2.18.25.38.59.58,1.04.58.8,0,1.25-.54,1.34-1.63Z"/>
  <polygon class="st0" points="172.28 120.8 172.28 130.64 169.26 130.64 169.26 126.81 166.95 126.81 166.95 130.64 163.93 130.64 163.93 120.8 166.95 120.8 166.95 124.42 169.26 124.42 169.26 120.8 172.28 120.8"/>
  <polygon class="st0" points="99.27 137.04 96.66 146.87 94.13 146.87 92.75 141.45 91.45 146.87 88.81 146.87 86.19 137.04 89.04 137.04 90.41 142.7 91.75 137.04 94.12 137.04 95.58 142.71 96.96 137.04 99.27 137.04"/>
  <polygon class="st0" points="109.57 144.52 109.57 146.87 102.17 146.87 102.17 137.04 109.57 137.04 109.57 139.31 105.13 139.31 105.13 140.73 108.72 140.73 108.72 142.92 105.13 142.92 105.13 144.52 109.57 144.52"/>
  <path class="st0" d="M111.68,144.03l2.8-.5c.24.79.84,1.19,1.82,1.19.76,0,1.14-.2,1.14-.61,0-.21-.09-.38-.26-.49-.18-.12-.49-.22-.94-.31-1.73-.33-2.83-.76-3.32-1.3-.49-.53-.74-1.16-.74-1.88,0-.93.35-1.7,1.06-2.31.7-.61,1.72-.92,3.04-.92,2,0,3.33.8,3.97,2.41l-2.5.76c-.26-.66-.79-.99-1.58-.99-.66,0-.99.2-.99.61,0,.18.07.32.22.43s.44.2.86.29c1.18.25,2.01.47,2.51.66s.91.52,1.24.98c.33.46.5,1.01.5,1.64,0,1-.4,1.8-1.21,2.42-.81.62-1.87.93-3.18.93-2.4,0-3.88-1-4.44-3Z"/>
  <polygon class="st0" points="127.75 139.39 127.75 146.87 124.89 146.87 124.89 139.39 122.85 139.39 122.85 137.04 129.79 137.04 129.79 139.39 127.75 139.39"/>
  <rect class="st0" x="138.2" y="137.04" width="3.02" height="9.84"/>
  <path class="st0" d="M153.28,146.87h-2.46l-2.69-4.35c-.35-.56-.69-1.23-1.05-2.03.16.63.24,1.17.24,1.61v4.76h-2.45v-9.84h2.85l2.29,3.6c.46.72.8,1.34,1.04,1.89-.15-.84-.23-1.7-.23-2.58v-2.91h2.46v9.84Z"/>
  <rect class="st0" x="168.89" y="137.04" width="3.02" height="9.84"/>
  <polygon class="st0" points="182.96 144.52 182.96 146.87 175.56 146.87 175.56 137.04 182.96 137.04 182.96 139.31 178.52 139.31 178.52 140.73 182.11 140.73 182.11 142.92 178.52 142.92 178.52 144.52 182.96 144.52"/>
  <path class="st0" d="M185.07,144.03l2.8-.5c.23.79.84,1.19,1.82,1.19.76,0,1.14-.2,1.14-.61,0-.21-.09-.38-.26-.49-.17-.12-.49-.22-.94-.31-1.73-.33-2.83-.76-3.32-1.3-.49-.53-.74-1.16-.74-1.88,0-.93.35-1.7,1.06-2.31.7-.61,1.72-.92,3.04-.92,2,0,3.33.8,3.97,2.41l-2.5.76c-.26-.66-.79-.99-1.58-.99-.66,0-.99.2-.99.61,0,.18.07.32.22.43s.44.2.86.29c1.18.25,2.01.47,2.51.66.5.19.91.52,1.24.98s.5,1.01.5,1.64c0,1-.4,1.8-1.21,2.42-.81.62-1.87.93-3.18.93-2.4,0-3.88-1-4.44-3Z"/>
  <path class="st0" d="M121.32,163.45c-3.16,0-5.71-2.56-5.71-5.71s2.56-5.71,5.71-5.71,5.71,2.56,5.71,5.71-2.56,5.71-5.71,5.71Z"/>
  <path class="st0" d="M128.92,152.03h5.71v5.71h4.44v5.71h-4.44c-3.16,0-5.71-2.56-5.71-5.71v-5.71Z"/>
  <path class="st0" d="M141.25,152.03h5.71c3.16,0,5.71,2.56,5.71,5.71s-2.56,5.71-5.71,5.71h-5.71v-11.43Z"/>
  <polygon class="st0" points="153.06 163.45 158.77 152.03 164.48 163.45 153.06 163.45"/>
</svg>