<?xml version="1.0" encoding="UTF-8"?>
<svg id="Calque_1" xmlns="http://www.w3.org/2000/svg" version="1.1" viewBox="0 0 283.46 131.61">
  <!-- Generator: Adobe Illustrator 30.0.0, SVG Export Plug-In . SVG Version: 2.1.1 Build 123)  -->
  <defs>
    <style>
      .st0 {
        fill: #1d1d1b;
      }
    </style>
  </defs>
  <path class="st0" d="M8.98,54.39c.81,1.02,1.72,1.52,2.75,1.52,1.03,0,2.08-.24,3.15-.69,1.08-.45,2.14-1,3.21-1.64,1.06-.64,2.04-1.07,2.94-1.29,2.83-.67,5.29-.65,7.38.06,2.09.72,4.04,2.21,5.86,4.5,1.2,1.51,1.92,3.11,2.17,4.8.24,1.69.13,3.36-.33,5-.46,1.65-1.21,3.21-2.23,4.69-1.02,1.48-2.2,2.76-3.55,3.83-1.68,1.33-3.58,2.51-5.69,3.54-2.12,1.03-4.17,1.93-6.16,2.7-.42-.7-.86-1.42-1.32-2.18-.46-.75-.81-1.52-1.03-2.31-.22-.79-.25-1.56-.09-2.32.16-.76.66-1.46,1.48-2.12.63-.5,1.32-.93,2.08-1.28.75-.35,1.52-.68,2.29-.97.77-.3,1.53-.62,2.27-.96.74-.34,1.44-.77,2.1-1.3.85-.68,1.37-1.57,1.54-2.67.18-1.1-.08-2.1-.78-2.98-.59-.74-1.22-1.2-1.9-1.38-.68-.18-1.38-.18-2.1-.02-.72.17-1.47.46-2.26.88-.79.42-1.59.86-2.4,1.3-.81.44-1.64.86-2.48,1.23-.84.38-1.68.61-2.52.69-1.14.09-2.22.03-3.26-.21-1.04-.23-2.01-.59-2.93-1.07-.92-.48-1.78-1.07-2.59-1.78-.81-.7-1.55-1.48-2.22-2.34-.98-1.24-1.65-2.63-2.01-4.19-.36-1.55-.42-3.1-.2-4.65.23-1.55.72-3.03,1.49-4.44s1.76-2.61,3-3.59c1.57-1.24,3.24-2.28,5.01-3.1,1.77-.82,3.58-1.59,5.44-2.3.4.62.82,1.29,1.25,2,.43.71.75,1.44.97,2.19.21.75.24,1.48.09,2.18-.16.71-.62,1.37-1.39,1.98-.5.39-1.01.71-1.55.96-.54.25-1.09.5-1.66.75-.57.25-1.12.5-1.66.75-.54.25-1.06.57-1.55.96-.8.63-1.24,1.47-1.34,2.51-.09,1.04.16,1.94.78,2.71Z"/>
  <path class="st0" d="M50.28,16.48l3.38,6.85-4.87,2.4c-1.2.59-2,1.51-2.41,2.74-.41,1.24-.32,2.44.25,3.61l12.19,24.71-8.55,4.22-12.19-24.71c-.57-1.16-1.48-1.96-2.71-2.39-1.23-.43-2.44-.35-3.64.24l-4.87,2.4-3.38-6.85,26.79-13.21Z"/>
  <path class="st0" d="M74.15,46.01c.24.66.35,1.32.31,1.99-.04.67-.18,1.3-.43,1.9-.25.6-.61,1.12-1.08,1.57-.47.45-1.03.8-1.69,1.04-1.32.48-2.6.42-3.86-.18-1.25-.61-2.12-1.57-2.6-2.89-.48-1.32-.44-2.61.12-3.86.57-1.26,1.51-2.13,2.83-2.61.66-.24,1.31-.34,1.97-.3.65.04,1.26.2,1.83.48.57.28,1.08.66,1.54,1.14.46.49.81,1.06,1.05,1.72Z"/>
  <path class="st0" d="M106.48,1.78l8.03,39.11-8.77,1.8-4.75-23.17c-.15-.72-.53-1.3-1.13-1.73-.61-.43-1.26-.58-1.94-.43-.34.07-.68.25-1.02.53-.58.51-1.21.93-1.89,1.25-.69.32-1.39.55-2.11.7-1.55.32-3.05.25-4.51-.2-.39-.14-.79-.16-1.2-.08-.69.14-1.23.53-1.62,1.17-.39.64-.51,1.31-.36,2.04l4.75,23.17-8.71,1.84-8.03-39.11,8.19-1.74c1.27,1.46,2.74,2.46,4.43,2.99,1.69.53,3.36.63,5.01.29s3.16-1.09,4.51-2.24c1.36-1.16,2.31-2.65,2.87-4.49l8.26-1.69Z"/>
  <path class="st0" d="M141.72,0l-14.17.34-10.01,40.18,8.43-.2.43-1.75c.26-1.02.67-1.97,1.25-2.85.58-.87,1.25-1.63,2.03-2.26.78-.63,1.65-1.13,2.63-1.48.97-.36,1.99-.55,3.04-.57,1.05-.02,2.08.12,3.07.43.99.31,1.9.76,2.72,1.36.82.6,1.54,1.31,2.16,2.14.62.83,1.06,1.77,1.33,2.81l.52,1.73,8.48-.2L141.72,0ZM139.18,19.87c-.13.64-.38,1.2-.75,1.7-.37.5-.84.91-1.39,1.22-.55.31-1.18.48-1.89.49-.67.02-1.29-.12-1.88-.4-.59-.28-1.07-.67-1.45-1.15-.38-.48-.65-1.04-.8-1.67-.16-.63-.15-1.28,0-1.95l.71-3.34c.19-.88.59-1.54,1.19-1.98.6-.44,1.26-.66,1.96-.68.7-.02,1.37.18,2.02.58.64.41,1.06,1.05,1.26,1.92l.92,3.3c.19.66.22,1.31.1,1.95Z"/>
  <path class="st0" d="M179.97,27.33c2.14-.88,3.91-2.21,5.31-4.01,1.4-1.79,2.25-3.84,2.57-6.14.24-1.77.13-3.49-.33-5.15-.46-1.66-1.2-3.14-2.21-4.45-1.01-1.31-2.24-2.41-3.7-3.3-1.46-.89-3.05-1.45-4.79-1.69l-14.82-2.03-5.41,39.56,8.45,1.16,1.51-11.06c.12-.9.48-1.6,1.08-2.08.6-.48,1.35-.67,2.25-.54.48.14.91.38,1.31.74.39.36.67.76.82,1.2l4.82,13.37,9.08,1.24-6.22-16.7.06-.04c.08-.06.15-.09.22-.08ZM179.29,16.01c-.08.59-.27,1.14-.57,1.65-.3.51-.68.94-1.13,1.28-.45.35-.97.59-1.54.75-.57.15-1.17.19-1.79.1l-2.19-.3c-1.22-.17-2.19-.72-2.91-1.65-.72-.93-1.04-1.99-.95-3.19.05-.63.23-1.22.53-1.76.3-.54.69-.99,1.17-1.36.47-.36,1.01-.62,1.6-.79.59-.17,1.2-.21,1.82-.12l2.14.29c1.25.17,2.24.75,2.98,1.74.73.99,1.01,2.11.84,3.36Z"/>
  <path class="st0" d="M227.56,15.03l-2.24,7.3-5.19-1.59c-1.28-.39-2.49-.27-3.63.35-1.15.62-1.91,1.56-2.29,2.8l-8.07,26.34-9.12-2.79,8.07-26.34c.38-1.24.27-2.44-.33-3.6-.6-1.16-1.54-1.93-2.81-2.32l-5.19-1.59,2.24-7.3,28.56,8.75Z"/>
  <rect class="st0" x="213.51" y="35" width="39.93" height="9.59" transform="translate(97.49 233.71) rotate(-64.63)"/>
  <path class="st0" d="M259.03,30.08l4.59,3.36-.67,18.57c-.08.64,0,1.21.22,1.7.23.49.55.89.98,1.21.65.48,1.41.69,2.28.63.87-.06,1.61-.5,2.21-1.32l8.15-11.14,6.67,4.89-23.59,32.21-4.55-3.33-.07-17.74c.06-.61-.04-1.16-.29-1.65-.25-.49-.58-.88-.97-1.17-.65-.48-1.41-.69-2.28-.63-.87.06-1.6.49-2.18,1.28l-7.47,10.2-6.63-4.86,23.59-32.21Z"/>
  <path class="st0" d="M83.8,71.5c-.7,0-1.29.25-1.77.74-.48.5-.73,1.09-.73,1.79s.24,1.29.73,1.77c.48.48,1.07.73,1.77.73h4.69v4.62c-.97,0-1.87.18-2.72.54-.84.36-1.58.86-2.21,1.49s-1.13,1.37-1.49,2.21c-.36.84-.54,1.75-.54,2.72v3.78h-5.13v-25.59h15.76v5.2h-8.37Z"/>
  <path class="st0" d="M109.05,81.83l.03-.03s.09-.07.14-.07c1.28-.74,2.29-1.74,3.02-3,.73-1.26,1.1-2.63,1.1-4.12,0-1.15-.22-2.23-.66-3.24-.44-1.01-1.04-1.89-1.79-2.63-.75-.74-1.63-1.33-2.63-1.77-1-.44-2.06-.66-3.19-.66h-9.59v25.59h5.44v-7.16c0-.58.17-1.06.52-1.42.35-.36.82-.54,1.4-.54.31.05.61.16.89.35.28.19.49.42.62.69l4.22,8.07h5.87l-5.4-10.06ZM107.59,75.7c-.15.35-.35.65-.61.91-.26.26-.56.46-.91.61-.35.15-.73.22-1.13.22h-1.42c-.79,0-1.45-.26-1.99-.79-.54-.53-.83-1.18-.88-1.94-.02-.83.25-1.54.81-2.13.56-.59,1.26-.88,2.09-.88h1.38c.79,0,1.46.28,2.03.84.56.56.84,1.25.84,2.06,0,.38-.07.75-.22,1.1Z"/>
  <path class="st0" d="M118.1,66.3h15.53v5.2h-7.8c-.7,0-1.29.25-1.77.74-.48.5-.73,1.09-.73,1.79s.24,1.29.73,1.77c.48.48,1.07.73,1.77.73h3.78v5.13h-3.78c-.7,0-1.29.24-1.77.73s-.73,1.07-.73,1.77v.03c0,.7.24,1.29.73,1.77.48.48,1.07.73,1.77.73h7.8v5.2h-15.53v-25.59Z"/>
  <path class="st0" d="M138.56,66.3h3.65l6.68,9.86c.2.36.46.62.76.79.3.17.62.25.96.25.52,0,.99-.18,1.42-.54.43-.36.64-.87.64-1.52v-8.84h5.3v25.59h-3.61l-6.75-9.15c-.2-.34-.46-.58-.78-.74-.32-.16-.63-.24-.95-.24-.52,0-.99.18-1.42.54-.43.36-.64.86-.64,1.49v8.1h-5.27v-25.59Z"/>
  <path class="st0" d="M179.88,86.01c.72,0,1.28.16,1.67.47.39.32.7.71.91,1.2.21.48.36,1.01.44,1.57.08.56.15,1.1.22,1.62-1.28.38-2.63.74-4.05,1.06s-2.79.49-4.12.49c-1.87,0-3.57-.36-5.11-1.08-1.54-.72-2.86-1.69-3.95-2.9-1.09-1.22-1.94-2.63-2.55-4.25s-.91-3.33-.91-5.13.3-3.51.91-5.13c.61-1.62,1.46-3.04,2.55-4.25,1.09-1.22,2.41-2.18,3.95-2.9,1.54-.72,3.24-1.08,5.08-1.08,1.33,0,2.71.16,4.15.49,1.44.33,2.79.68,4.05,1.06-.07.5-.14,1.03-.22,1.6-.08.57-.22,1.1-.44,1.57-.21.47-.52.87-.91,1.18-.39.32-.95.47-1.67.47-.45,0-.9-.05-1.35-.15-.45-.1-.91-.22-1.38-.35-.47-.13-.95-.25-1.43-.35-.48-.1-.98-.15-1.5-.15-1.01,0-1.87.25-2.58.74-.71.5-1.28,1.13-1.7,1.91-.43.78-.74,1.64-.93,2.58s-.29,1.87-.29,2.77.09,1.78.27,2.72c.18.93.48,1.79.91,2.58.43.79,1,1.43,1.7,1.94.71.51,1.58.76,2.62.76.52,0,1.02-.06,1.5-.17.48-.11.96-.23,1.43-.35.47-.12.93-.24,1.38-.35.45-.11.9-.17,1.35-.17Z"/>
  <path class="st0" d="M193.01,66.26v6.89c0,.59.11,1.14.34,1.65.22.52.53.97.93,1.35.39.38.85.69,1.37.91.52.23,1.07.34,1.65.34s1.14-.11,1.65-.34c.52-.22.97-.53,1.35-.91.38-.38.69-.83.91-1.35.22-.52.34-1.07.34-1.65v-6.89h5.5v25.59h-5.5v-5.54c0-.59-.11-1.14-.34-1.65-.23-.52-.53-.97-.91-1.35-.38-.38-.83-.69-1.35-.91s-1.07-.34-1.65-.34-1.14.11-1.65.34-.97.53-1.37.91c-.39.38-.7.83-.93,1.35-.23.52-.34,1.07-.34,1.65v5.54h-5.5v-25.59h5.5Z"/>
  <path class="st0" d="M30.86,104.3h5.99l1.62,14.2c.05.52.25.9.6,1.16.35.26.73.39,1.13.39.33,0,.65-.1.97-.3.32-.2.53-.51.65-.93l1.09-3.49h3.31l1.09,3.49c.12.42.33.73.65.93.32.2.64.3.97.3.4,0,.78-.13,1.13-.39.35-.26.55-.65.6-1.16l1.62-14.2h5.99l-3.35,26.71h-5.67l-2.82-5.36c-.19-.4-.45-.69-.79-.86-.34-.18-.7-.26-1.07-.26s-.73.09-1.07.26c-.34.18-.61.46-.79.86l-2.82,5.36h-5.67l-3.35-26.71Z"/>
  <path class="st0" d="M62.26,104.3h16.21v5.43h-8.14c-.73,0-1.34.26-1.85.78-.51.52-.76,1.14-.76,1.87s.25,1.35.76,1.85c.51.51,1.12.76,1.85.76h3.95v5.36h-3.95c-.73,0-1.34.25-1.85.76-.51.51-.76,1.12-.76,1.85v.04c0,.73.25,1.35.76,1.85.51.51,1.12.76,1.85.76h8.14v5.43h-16.21v-26.71Z"/>
  <path class="st0" d="M88.2,111.84c0,.87.27,1.52.81,1.94.54.42,1.19.74,1.94.95.75.21,1.54.37,2.36.48.82.11,1.52.29,2.08.55,1.76.82,3.04,1.86,3.84,3.1.8,1.25,1.2,2.84,1.2,4.79,0,1.29-.29,2.43-.86,3.42-.58.99-1.33,1.81-2.26,2.48-.93.67-1.97,1.18-3.12,1.53-1.15.35-2.3.53-3.45.53-1.43,0-2.92-.17-4.46-.51-1.54-.34-2.99-.72-4.35-1.15.07-.54.14-1.1.21-1.69.07-.59.21-1.13.42-1.64.21-.5.52-.92.92-1.25.4-.33.95-.49,1.66-.49.54,0,1.08.06,1.62.19.54.13,1.07.28,1.6.44.53.16,1.06.31,1.59.44.53.13,1.07.19,1.64.19.73,0,1.37-.25,1.92-.76.55-.51.83-1.13.83-1.89,0-.63-.14-1.14-.42-1.52-.28-.38-.65-.67-1.09-.88-.45-.21-.96-.37-1.55-.48-.59-.11-1.19-.21-1.8-.32-.61-.11-1.22-.23-1.81-.39-.6-.15-1.13-.38-1.6-.69-.63-.42-1.17-.91-1.62-1.46-.45-.55-.81-1.15-1.09-1.78-.28-.63-.49-1.3-.62-2.01-.13-.7-.19-1.42-.19-2.15,0-1.06.23-2.07.69-3.03.46-.96,1.07-1.8,1.83-2.52.76-.72,1.64-1.29,2.63-1.71.99-.42,2.01-.63,3.07-.63,1.34,0,2.64.15,3.91.46,1.27.31,2.54.66,3.81,1.06-.05.49-.11,1.02-.18,1.57-.07.55-.21,1.07-.41,1.55-.2.48-.49.88-.86,1.18-.38.31-.89.46-1.55.46-.42,0-.83-.05-1.22-.14-.39-.09-.78-.19-1.18-.3-.4-.11-.79-.21-1.18-.3-.39-.09-.79-.14-1.22-.14-.68,0-1.26.25-1.74.76-.48.51-.72,1.09-.72,1.74Z"/>
  <path class="st0" d="M121.72,104.3v5.11h-3.63c-.89,0-1.65.31-2.26.93-.61.62-.92,1.37-.92,2.24v18.43h-6.38v-18.43c0-.87-.31-1.61-.92-2.24-.61-.62-1.36-.93-2.26-.93h-3.63v-5.11h19.98Z"/>
  <rect class="st0" x="137.15" y="104.3" width="6.41" height="26.71"/>
  <path class="st0" d="M148.96,104.3h3.81l6.98,10.29c.21.38.48.65.79.83.32.18.65.26,1,.26.54,0,1.03-.19,1.48-.56.45-.38.67-.9.67-1.59v-9.23h5.53v26.71h-3.77l-7.05-9.55c-.21-.35-.48-.61-.81-.78-.33-.16-.66-.25-.99-.25-.54,0-1.03.19-1.48.56-.45.38-.67.89-.67,1.55v8.46h-5.5v-26.71Z"/>
  <path class="st0" d="M197.41,112.53c-.68-1.61-1.62-3.02-2.8-4.25-1.19-1.22-2.57-2.18-4.16-2.89-1.59-.7-3.3-1.06-5.13-1.06h-10.57v26.71h10.57c1.83,0,3.54-.35,5.13-1.06,1.59-.7,2.97-1.67,4.16-2.89,1.19-1.22,2.12-2.64,2.8-4.25.68-1.61,1.02-3.33,1.02-5.16s-.34-3.55-1.02-5.16ZM191.65,120.67c-.34.93-.83,1.74-1.46,2.43-.63.69-1.39,1.24-2.26,1.64-.87.4-1.83.6-2.89.6h-1.2c-.89,0-1.65-.31-2.27-.92-.62-.61-.93-1.36-.93-2.26v-8.95c0-.89.31-1.64.93-2.26.62-.61,1.38-.92,2.27-.92h1.2c1.06,0,2.02.2,2.89.6.87.4,1.62.95,2.26,1.64.63.69,1.12,1.5,1.46,2.43.34.93.51,1.92.51,2.98s-.17,2.05-.51,2.98Z"/>
  <rect class="st0" x="202.52" y="104.3" width="6.41" height="26.71"/>
  <path class="st0" d="M214.43,104.3h16.21v5.43h-8.14c-.73,0-1.35.26-1.85.78-.51.52-.76,1.14-.76,1.87s.25,1.35.76,1.85c.51.51,1.12.76,1.85.76h3.95v5.36h-3.95c-.73,0-1.35.25-1.85.76-.51.51-.76,1.12-.76,1.85v.04c0,.73.25,1.35.76,1.85.51.51,1.12.76,1.85.76h8.14v5.43h-16.21v-26.71Z"/>
  <path class="st0" d="M240.37,111.84c0,.87.27,1.52.81,1.94.54.42,1.19.74,1.94.95.75.21,1.54.37,2.36.48.82.11,1.52.29,2.08.55,1.76.82,3.04,1.86,3.84,3.1.8,1.25,1.2,2.84,1.2,4.79,0,1.29-.29,2.43-.86,3.42-.58.99-1.33,1.81-2.26,2.48-.93.67-1.97,1.18-3.12,1.53-1.15.35-2.3.53-3.45.53-1.43,0-2.92-.17-4.46-.51-1.54-.34-2.99-.72-4.35-1.15.07-.54.14-1.1.21-1.69.07-.59.21-1.13.42-1.64.21-.5.52-.92.92-1.25.4-.33.95-.49,1.66-.49.54,0,1.08.06,1.62.19.54.13,1.07.28,1.6.44.53.16,1.06.31,1.59.44.53.13,1.07.19,1.64.19.73,0,1.37-.25,1.92-.76.55-.51.83-1.13.83-1.89,0-.63-.14-1.14-.42-1.52-.28-.38-.65-.67-1.09-.88-.45-.21-.96-.37-1.55-.48-.59-.11-1.19-.21-1.8-.32-.61-.11-1.22-.23-1.81-.39-.6-.15-1.13-.38-1.6-.69-.63-.42-1.17-.91-1.62-1.46-.45-.55-.81-1.15-1.09-1.78-.28-.63-.49-1.3-.62-2.01-.13-.7-.19-1.42-.19-2.15,0-1.06.23-2.07.69-3.03.46-.96,1.07-1.8,1.83-2.52.76-.72,1.64-1.29,2.63-1.71.99-.42,2.01-.63,3.07-.63,1.34,0,2.64.15,3.91.46,1.27.31,2.54.66,3.81,1.06-.05.49-.11,1.02-.18,1.57-.07.55-.21,1.07-.41,1.55-.2.48-.49.88-.86,1.18-.38.31-.89.46-1.55.46-.42,0-.83-.05-1.22-.14-.39-.09-.78-.19-1.18-.3-.4-.11-.79-.21-1.18-.3-.39-.09-.79-.14-1.22-.14-.68,0-1.26.25-1.74.76-.48.51-.72,1.09-.72,1.74Z"/>
</svg>