<?xml version="1.0" encoding="UTF-8"?>
<svg id="Calque_1" xmlns="http://www.w3.org/2000/svg" version="1.1" viewBox="0 0 190.77 283.46">
  <!-- Generator: Adobe Illustrator 30.0.0, SVG Export Plug-In . SVG Version: 2.1.1 Build 123)  -->
  <defs>
    <style>
      .st0 {
        fill: #fcca8c;
      }
    </style>
  </defs>
  <path class="st0" d="M57.83,91.34c-.82.58-1.64,1.14-2.45,1.73-.78.57-1.53,1.17-2.49,1.92,0-.67-.08-1.2.03-1.69.07-.32.36-.74.65-.84,1.38-.48,2.79-.86,4.2-1.27.02.05.04.11.06.16Z"/>
  <path class="st0" d="M134.16,121.69c-.85-.95-1.68-1.89-2.52-2.84,2.19.62,2.9,1.41,2.52,2.84Z"/>
  <path class="st0" d="M134.41,81.25c-.02-2.62-.05-5.23-.08-7.85-.05-6.21-.04-12.42-.19-18.63-.09-3.85-.81-7.48-5.15-9.09,3.19-.67,4.45-1.88,5.02-5.02.26-1.45.36-2.95.35-4.42,0-8.2.01-16.4-.17-24.6-.05-2.14-.57-4.33-1.23-6.38-.88-2.76-3.77-4.6-6.71-4.61-3.94-.01-7.89,0-11.83,0-.69,0-1.38,0-2.04,0v80.87c2.88-.38,5.62-.75,8.51-1.13v-31.48c.85,0,1.55-.03,2.25,0,1.6.09,2.25.72,2.37,2.32.11,1.52.22,3.04.23,4.56.04,5,.03,10,.04,15,0,3.31,0,6.63,0,9.84,2.9.76,5.71,1.51,8.62,2.28,0-.5,0-1.07,0-1.65ZM125.8,39.19c-.15,1.13-.89,1.76-1.93,1.9-.95.13-1.92.03-2.98.03V8.11c.89,0,1.7,0,2.51,0,1.71.03,2.27.48,2.37,2.19.12,2.18.16,4.37.17,6.55.04,6.83.05,13.66.06,20.48,0,.62-.11,1.24-.19,1.85Z"/>
  <g>
    <path class="st0" d="M68.02,55.75c1.78-18.45,3.54-36.73,5.31-55.06h9.99v84.21c.68.07,1.24.13,2.02.2,2.45-28.14,4.9-56.23,7.36-84.4h10.14c.22,2.39.44,4.82.66,7.25.68,7.46,1.37,14.92,2.05,22.39.73,8.04,1.46,16.09,2.19,24.13.73,8.09,1.46,16.17,2.21,24.26.33,3.57.35,3.55-2.91,4.92-1.61.68-3.2,1.43-5.03,2.25-.51-6.3-1.01-12.5-1.51-18.77h-5.6c-.17,2.1-.36,4.19-.49,6.28-.47,7.56-.92,15.12-1.39,22.68-.02.27-.05.55-.13.8-1.08,3.28-2.17,6.56-3.16,9.51-.56-1.55-1.16-3.54-1.98-5.43-2.25-5.17-5.62-9.36-10.9-11.72-1.06-.47-1.38-1.04-1.27-2.29.31-3.49.47-7.01.49-10.51.05-14.14.02-28.27.02-42.41v-1.16c-.08,0-.15,0-.23-.01-1.75,17.97-3.5,35.94-5.26,53.97-1.68-.32-3.35-.63-5.15-.97-1.72-17.67-3.44-35.36-5.15-53.04-.03,0-.07,0-.1,0v53.21c-2.41.56-4.79,1.11-7.25,1.68V.71h10.46c1.53,18.31,3.06,36.6,4.61,55.05ZM97.79,24.25c-.07,0-.14,0-.21.01-.65,11.85-1.3,23.71-1.94,35.58h4.52c-.79-11.94-1.58-23.76-2.37-35.59Z"/>
    <g>
      <g>
        <path class="st0" d="M.6,248.12c-.15-68.34-.3-118.64-.46-186.99h8.41c0,2.94,0,5.85,0,8.77,0,3.09-.01,6.17-.02,9.26,0,.35,0,.7.04,1.05.14,1.61.78,2.33,2.14,2.42,2.18.14,2.91-.3,3.32-2.05.09-.38.18-.77.18-1.15-.04-5.31-.07-10.62-.14-15.93-.05-3.85-1.6-7.18-3.61-10.36-1.85-2.94-3.75-5.85-5.46-8.87-1.34-2.37-2.57-4.83-3.6-7.34-.58-1.41-.88-3.02-.93-4.55C.24,25.71.1,19.03.06,12.36c-.01-1.98.28-3.98.65-5.93C1.34,3.17,4.06.64,7.66.22c2.46-.28,5-.3,7.46,0,4.06.5,6.78,3.56,7.04,7.98.28,4.75.24,9.52.3,14.28.04,2.89,0,5.77,0,8.75h-8.17c-.02-.26-.08-.55-.08-.85-.06-6.21-.11-12.42-.17-18.63,0-.47,0-.94-.05-1.4-.14-1.66-1.19-2.61-2.85-2.61-1.45,0-2.67,1.12-2.74,2.64-.07,1.4-.03,2.81-.02,4.22.04,4.53.17,9.06.11,13.59-.03,2.61.43,5.08,1.69,7.33,1.78,3.19,3.79,6.26,5.63,9.42,1.61,2.76,3.24,5.52,4.68,8.37,1.86,3.71,1.86,7.79,1.88,11.81.12,21.05.25,42.1.25,63.15,0,45.54-.07,73.13-.11,118.66,0,.38,0,.76,0,1.2H.6Z"/>
        <path class="st0" d="M176.41,248.05h-7.59V.69h8.02c2.11,17.04,4.21,34.06,6.34,51.26V.71h7.54v247.34h-7.78c0-.45,0-.86,0-1.26,0-37.18,0-56.41-.03-93.59-.02-21.79,0-43.58-.24-65.37-.06-5.08-1.06-10.16-1.71-15.23-1.42-10.95-2.89-21.89-4.35-32.84-.08-.57-.17-1.15-.19-1.71v210.01Z"/>
        <path class="st0" d="M127.13,152.57c.71,4.27,1.42,8.54,2.13,12.82.1,0,.2.01.29.02.6-1.95,1.19-3.91,1.82-5.99,1.95,4.37.6,8.77.43,13.12.12.05.24.09.37.14.73-.89,1.46-1.79,2.36-2.89v78.25c-.72,0-1.56,0-2.39,0-5.47,0-10.93-.03-16.4,0-.88,0-2.55.18-3.62-.41-11.11-6.87-13.38-18.47-16.51-37.84-1.79-11.07-2.82-22.21-3.39-33.41-.57-11.13-.44-22.25.07-33.37.13-2.88.7-7,1.05-9.88,0,.35.49,4.87.51,5.21.56,13.77.82,25.88,1.65,39.64.77,12.74,2.12,23.25,4.74,36.56.99,3.93,2.14,7.81,3.21,11.71.1-.01.21-.02.31-.03,0-10.3,0-20.59,0-30.89,0-10.35.07-20.7-.02-31.05-.09-10.32.48-20.66-.47-31.14,2.04,1.95,3.65,4.04,4.88,6.38,1.23,2.34,2.32,4.74,3.57,7.33.63-2.54,1.23-4.93,1.8-7.24,1.56,4.57,3.16,9.28,4.77,13.98.14,0,.29,0,.43,0,.54-3.25,1.08-6.5,1.67-10.06.22.59.42.97.49,1.37.63,3.65,1.2,7.31,1.86,10.95.25,1.37.68,2.71,1.03,4.07.97-2.47,1.94-4.94,2.91-7.41.16.01.32.02.48.04Z"/>
        <path class="st0" d="M55.48,168.85c1.58,2.08,3.03,4,4.65,6.13.16-5.02.31-9.78.46-14.55.13-.04.25-.07.38-.11,1.12,2.24,2.25,4.49,3.37,6.73.11-.02.22-.04.33-.06.57-5.67,1.14-11.35,1.71-17.05,1,3.3,1.98,6.58,2.97,9.86,2.01-6.49,4.02-12.89,6.59-19.13.06,3.21.27,6.36,1.56,9.68,2.15-6.68,4.97-12.68,9.41-17.81-5.92,44.73-5.79,71.24,4.77,115.43h-36.21v-79.13Z"/>
        <path class="st0" d="M35.68,129.22c-.52,3.07-1.02,6.03-1.52,8.98.11.02.22.05.33.07,2.68-3.95,4.88-8.36,10-10.39-.66,1.31-1.28,2.31-1.69,3.4-.41,1.06-.61,2.2-.73,3.4,5.09-3.62,9.42-8.13,15.09-11.04-1.82,2.34-3.56,4.59-5.3,6.84l.19.26c6.74-2.86,13.1-6.82,21-7.08-1.44.54-2.65.92-3.81,1.43-10.56,4.67-18.31,12.2-22.73,22.92-2.44,5.93-2.94,12.19-2.12,18.52.41,3.12,1.14,6.21,1.63,9.32.19,1.18.13,2.41.13,3.62.01,28.5.02,39.06.03,67.57,0,.31,0,.62,0,1.01h-16.85c0-.37,0-.78,0-1.19.02-31.67.04-45.39.06-77.06,0-10.35-.02-20.7.02-31.04,0-.61.38-1.28.75-1.81,1.57-2.22,3.21-4.4,4.81-6.6.24-.34.44-.7.71-1.14Z"/>
        <path class="st0" d="M162.14,131.75c-.15-.85-.21-1.73-.48-2.55-.99-3.05-2.17-6.01-4.04-8.67-.28-.4-.3-1.03-.3-1.55-.01-16.13,0-32.26-.01-48.39-.02-22.02-.05-44.05-.07-66.07,0-1.24,0-2.49,0-3.81h8.22v247.27h-8.04v-119.16c1.44,1.06,2.86,2.12,4.28,3.17.15-.08.3-.16.45-.24Z"/>
        <path class="st0" d="M149.52,248h-8.31c0-.45,0-.83,0-1.21,0-32.14-.04-46.34.01-78.48,0-3.15.67-6.29.71-9.44.03-2.63-.4-5.27-.63-7.91-.03-.35-.08-.7-.08-1.05-.01-7.69-.03-15.39,0-23.08,0-.41-.5-1.2.53-1.31.05,0,0-.85,0-1.39.26.3.47.56.69.81.07-.05.15-.11.22-.16-.84-1.12-1.68-2.23-2.58-3.43,1.98.01,3.26,1.2,4.54,2.36,1.27,1.15,2.49,2.34,3.94,3.4-.92-2.32-1.84-4.64-2.76-6.95.04-.06.09-.11.13-.17,1.03,1.05,2.09,2.07,3.07,3.17.24.27.28.79.28,1.19.06,10.74.13,21.48.14,32.22.04,36.12.07,54.3.1,90.43,0,.31,0,.61,0,1Z"/>
        <path class="st0" d="M29.36,123.43V8.39h-5.23V.7h18.79v7.59h-5.25c-.02.46-.05.84-.05,1.21,0,25.38,0,50.77,0,76.15,0,9.8-.02,19.6,0,29.4,0,.73-.21,1.18-.78,1.67-2.5,2.17-4.93,4.41-7.47,6.71Z"/>
      </g>
      <path class="st0" d="M141.29,88.68c.56.11,1.13.22,1.69.33.02,0,.05-.05.07-.07,0-.04.02-.11,0-.11-1.91-.87-1.87-2.5-1.87-4.28,0-23.78-.05-47.56-.09-71.33,0-1.59,0-3.18,0-4.86h-5.17V.7h18.31v7.57h-4.79v103.46c-.29-.12-.46-.17-.6-.25-2.3-1.46-4.61-2.91-6.88-4.41-.35-.23-.75-.72-.76-1.09-.04-5.7-.02-11.4,0-17.1,0-.07.05-.14.09-.21Z"/>
      <path class="st0" d="M119.1,99.18c-2.2-1.45-4.4-1.82-6.69-1.87-.03-.13-.05-.25-.08-.38,1.76-.41,3.51-.84,5.27-1.21,1.81-.38,3.63-.69,5.82-1.11-1.92-.68-3.54-1.25-5.51-1.95,2.08-.12,3.82-.21,5.56-.33,1.73-.11,3.46-.24,5.19-.36l.12-.53c-1.94-1.08-3.88-2.16-5.88-3.27,3.09.42,6.12,1.01,9.39.91-2.26-1.48-4.29-2.81-6.32-4.15l.07-.13c2.59.65,5.17,1.29,7.75,1.97.21.06.48.42.48.64,0,5.54-.03,11.08-.07,16.62,0,.03-.04.07-.08.13-13.99-3.03-26.08.61-36.6,10.66,5.76-7.38,12.21-13.35,21.58-15.66Z"/>
      <path class="st0" d="M60.2,94.77c-.38.27-.81.48-1.12.81-1.14,1.22-2.25,2.48-3.45,3.82,2.22.18,4.38.29,6.51.55,2.09.25,4.16.65,6.23,1.19-2.43.22-4.72.63-6.75,2.38,7.62.56,13.52,4.36,18.93,9.88-8.86-5.19-17.96-6.34-27.66-3.9,0-2.56,0-5.05,0-7.53,0-1.48.1-2.98-.03-4.45-.11-1.19.45-1.58,1.44-1.76,1.95-.37,3.89-.77,5.83-1.16.02.05.05.11.07.16Z"/>
      <path class="st0" d="M120.52,118.35c.56.2,1.14.35,1.69.59,3.89,1.7,7.77,3.42,11.65,5.15.22.1.49.42.49.64.03,3.89.02,7.77.02,11.89-6.93-8.71-15.68-13.61-26.78-13.93.01-.11.03-.22.04-.33,3.26-.07,6.54-.38,9.77-.14,3.2.24,6.36,1.03,9.69,1.42-2.18-1.75-4.35-3.51-6.56-5.29Z"/>
    </g>
  </g>
  <g>
    <path class="st0" d="M20.46,272.28c-.45,1.1-1.1,2.05-1.94,2.86-.84.81-1.89,1.44-3.14,1.91-1.25.46-2.7.7-4.36.7-1.87,0-3.5-.29-4.88-.87-1.38-.58-2.52-1.4-3.43-2.46-.9-1.06-1.58-2.32-2.04-3.8-.45-1.48-.68-3.1-.68-4.86s.23-3.46.7-4.96,1.16-2.79,2.1-3.86c.94-1.08,2.1-1.92,3.49-2.52s3.02-.91,4.9-.91c2.84,0,5.07.71,6.67,2.12,1.6,1.41,2.62,3.42,3.05,6.03l-6.17.71c-.11-.49-.25-.96-.42-1.39-.17-.43-.4-.8-.7-1.11-.29-.31-.65-.56-1.08-.74-.43-.18-.95-.28-1.55-.28-2.95,0-4.43,2.25-4.43,6.75,0,1.25.11,2.31.32,3.18.22.87.52,1.58.92,2.12.4.54.87.93,1.42,1.16.55.24,1.16.36,1.83.36,2.26,0,3.55-1.23,3.88-3.68h6.33c-.09,1.27-.35,2.46-.81,3.55Z"/>
    <path class="st0" d="M45.35,277.16h-6.43l-1.33-4.43h-7.79l-1.29,4.43h-6.24l8.01-23.07h7.05l8.01,23.07ZM36.07,267.79l-2.36-7.95-2.39,7.95h4.75Z"/>
    <path class="st0" d="M65.84,265.25c-.56,1.11-1.42,2.01-2.58,2.7l4.72,9.21h-6.56l-3.78-7.95h-3.36v7.95h-5.91v-23.07h9.11c1.79,0,3.27.2,4.46.61,1.18.41,2.13.95,2.83,1.63.7.68,1.2,1.46,1.49,2.34.29.88.44,1.79.44,2.71,0,1.47-.28,2.75-.84,3.86ZM57.31,264.4c1.25,0,2.13-.24,2.63-.73s.76-1.18.76-2.08-.27-1.53-.81-2c-.54-.47-1.46-.71-2.78-.71h-2.84v5.53h3.04Z"/>
    <path class="st0" d="M76.96,254.09v23.07h-6.2v-23.07h6.2Z"/>
    <path class="st0" d="M91.28,254.09c1.61,0,2.96.16,4.02.47,1.07.31,1.92.74,2.55,1.29s1.08,1.18,1.34,1.91.39,1.49.39,2.31c0,1.03-.21,1.96-.63,2.78-.42.82-1.16,1.51-2.21,2.07,1.27.63,2.17,1.38,2.68,2.28.52.89.78,1.94.78,3.15,0,.9-.15,1.77-.45,2.6s-.8,1.56-1.49,2.18c-.69.62-1.6,1.12-2.73,1.49-1.13.37-2.52.55-4.15.55h-9.76v-23.07h9.66ZM90.83,262.94c1.08,0,1.81-.18,2.2-.53.39-.35.58-.88.58-1.57,0-.73-.23-1.27-.68-1.6-.45-.33-1.26-.5-2.42-.5h-3.04v4.2h3.36ZM90.86,272.51c1.31,0,2.21-.23,2.68-.7.47-.46.71-1.09.71-1.89s-.23-1.41-.69-1.83-1.3-.63-2.5-.63h-3.59v5.04h3.39Z"/>
    <path class="st0" d="M113.3,254.09c1.61,0,2.96.16,4.02.47,1.07.31,1.92.74,2.55,1.29s1.08,1.18,1.34,1.91.39,1.49.39,2.31c0,1.03-.21,1.96-.63,2.78-.42.82-1.16,1.51-2.21,2.07,1.27.63,2.17,1.38,2.68,2.28.52.89.78,1.94.78,3.15,0,.9-.15,1.77-.45,2.6s-.8,1.56-1.49,2.18c-.69.62-1.6,1.12-2.73,1.49-1.13.37-2.52.55-4.15.55h-9.76v-23.07h9.66ZM112.84,262.94c1.08,0,1.81-.18,2.2-.53.39-.35.58-.88.58-1.57,0-.73-.23-1.27-.68-1.6-.45-.33-1.26-.5-2.42-.5h-3.04v4.2h3.36ZM112.87,272.51c1.31,0,2.21-.23,2.68-.7.47-.46.71-1.09.71-1.89s-.23-1.41-.69-1.83-1.3-.63-2.5-.63h-3.59v5.04h3.39Z"/>
    <path class="st0" d="M142.16,254.09v5.11h-10.47v3.68h9.82v5.1h-9.82v4.07h11.15l-.52,5.11h-16.68v-23.07h16.51Z"/>
    <path class="st0" d="M168.15,277.16h-6.43l-1.33-4.43h-7.79l-1.29,4.43h-6.24l8.01-23.07h7.05l8.01,23.07ZM158.87,267.79l-2.36-7.95-2.39,7.95h4.75Z"/>
    <path class="st0" d="M176.59,254.09l8.31,13.22v-13.22h5.88v23.07h-5.37l-8.37-13.18v13.18h-5.88v-23.07h5.43Z"/>
  </g>
  <path class="st0" d="M95.9,281.78h1.41s.06.03.06.06v1.45s-.03.06-.06.06h-3.11s-.06-.03-.06-.06v-3.25s.03-.06.06-.06h1.58s.06.03.06.06v1.68s.03.06.06.06Z"/>
  <path class="st0" d="M101.57,281.82c-.08.87-.84,1.53-1.72,1.53h-1.59s-.06-.03-.06-.06v-3.25s.03-.06.06-.06h1.62c.98,0,1.77.84,1.68,1.85Z"/>
  <path class="st0" d="M101.9,283.27l1.8-3.28s.09-.04.11,0l1.8,3.28s0,.1-.06.1h-3.6s-.08-.05-.06-.1Z"/>
  <circle class="st0" cx="91.52" cy="281.66" r="1.8"/>
</svg>