<?xml version="1.0" encoding="UTF-8"?>
<svg id="Calque_1" xmlns="http://www.w3.org/2000/svg" version="1.1" viewBox="0 0 257.35 283.46">
  <!-- Generator: Adobe Illustrator 30.0.0, SVG Export Plug-In . SVG Version: 2.1.1 Build 123)  -->
  <defs>
    <style>
      .st0 {
        fill: #204d9c;
      }

      .st1 {
        fill: #009640;
      }

      .st2 {
        fill: #00a13b;
      }
    </style>
  </defs>
  <g>
    <path class="st0" d="M53.61,31.9c1.32.53,2.72.84,4.21.94,1.48.1,2.96.08,4.43-.08,1.47-.15,2.71-.2,3.74-.15,1.17.05,2.37.1,3.6.15,1.23.05,2.42.2,3.57.45,1.15.25,2.25.64,3.3,1.16,1.04.53,1.99,1.26,2.83,2.22-.11.25-.33.55-.66.9-.33.35-.69.71-1.07,1.09s-.75.71-1.1,1.01c-.35.3-.63.53-.85.68-.84.45-1.66.89-2.45,1.31-.79.43-1.59.79-2.42,1.09-.82.3-1.67.51-2.53.64-.86.13-1.77.09-2.72-.11-.7-.15-1.33-.49-1.9-1.01-.57-.53-1.11-1.1-1.62-1.73-.51-.63-1.02-1.23-1.51-1.8-.49-.58-1.02-.98-1.57-1.2-.55-.23-1.14-.19-1.76.11-.62.3-1.34,1-2.14,2.1-.88,1.2-1.46,2.55-1.73,4.06-.27,1.5-.29,2.99-.06,4.47.24,1.48.71,2.84,1.4,4.09.7,1.25,1.58,2.23,2.64,2.93,1.21.85,2.51,1.39,3.9,1.61,1.39.23,2.81.25,4.26.08,1.45-.18,2.87-.5,4.26-.98,1.39-.48,2.69-1.01,3.9-1.62,1.14-.55,2.46-1.41,3.99-2.59,1.52-1.18,3.03-2.57,4.54-4.17,1.5-1.6,2.87-3.35,4.1-5.26,1.23-1.9,2.11-3.87,2.64-5.9.53-2.03.61-4.06.25-6.1-.37-2.04-1.39-3.96-3.08-5.78-1.03-1.06-2.17-1.89-3.44-2.49s-2.58-1.06-3.93-1.36c-1.36-.3-2.72-.5-4.1-.6-1.37-.1-2.67-.15-3.88-.15-1.32-.05-2.64-.05-3.96,0-1.32.05-2.64.05-3.96,0,1.06-.7,2.14-1.39,3.24-2.07,1.1-.68,2.2-1.34,3.3-1.99,1.14-.7,2.37-1.34,3.71-1.92,1.34-.57,2.48-1.36,3.44-2.37.33-.35.66-.93.99-1.73.33-.8.54-1.59.63-2.37.09-.78,0-1.43-.27-1.95-.28-.53-.87-.66-1.79-.41-.62.15-1.57.43-2.83.83-1.26.4-2.7.91-4.32,1.54-1.61.63-3.31,1.35-5.09,2.18-1.78.83-3.5,1.75-5.17,2.78-1.67,1.03-3.2,2.14-4.59,3.34-1.39,1.2-2.5,2.49-3.33,3.87s-1.29,2.86-1.4,4.45c-.11,1.59.31,3.24,1.26,4.95.73,1.36,1.76,2.3,3.08,2.83Z"/>
    <path class="st0" d="M124.47,46.33c-.18-1.38-.39-2.67-.63-3.87-.24-1.2-.45-2.18-.63-2.93.4-.85.57-1.73.49-2.63-.07-.9-.57-1.78-1.48-2.63l-.16-.23c-.4-1.75-.82-3.52-1.24-5.29-.42-1.78-.85-3.54-1.29-5.29-.33-1.35-.65-2.77-.96-4.24-.31-1.48-.63-2.95-.96-4.43-.33-1.48-.7-2.93-1.1-4.36-.4-1.43-.86-2.77-1.37-4.02.07-.3.13-.6.16-.9.04-.3.07-.6.11-.9.18-1.5.05-2.62-.41-3.34-.46-.73-1.05-1.14-1.79-1.24-.73-.1-1.49.11-2.28.64-.79.53-1.42,1.29-1.9,2.29l-.49.9c-.55.65-.95,1.53-1.21,2.63-2.24,5.06-4.31,10.23-6.21,15.51-1.91,5.28-3.77,10.6-5.61,15.96-.4,1.15-.86,2.38-1.37,3.68-.51,1.3-1.01,2.63-1.48,3.98-.48,1.35-.9,2.72-1.26,4.09-.37,1.38-.6,2.72-.71,4.02-.11,1.6.05,2.79.47,3.57.42.78.97,1.21,1.65,1.31.68.1,1.41-.11,2.2-.64.79-.53,1.48-1.29,2.06-2.29.48-.8.91-1.66,1.29-2.59.38-.93.74-1.89,1.07-2.89,2.75-.55,5.46-1.28,8.14-2.18,2.67-.9,5.33-1.83,7.97-2.78.22,1,.45,2.23.69,3.68.24,1.45.54,2.85.91,4.21.37,1.35.83,2.5,1.4,3.46.57.95,1.29,1.43,2.17,1.43,1.06,0,1.9-.35,2.5-1.05.6-.7,1.03-1.61,1.26-2.74.24-1.13.35-2.38.33-3.76-.02-1.38-.12-2.75-.3-4.13ZM107.41,36.37c-1.78.85-3.25,1.48-4.43,1.88.84-2.55,1.7-5.08,2.58-7.59.88-2.5,1.79-5.01,2.75-7.51.18-.55.39-1.1.63-1.65.24-.55.49-1.1.74-1.65l3.24,14.27c-1.91.65-3.75,1.4-5.53,2.25Z"/>
    <path class="st0" d="M130.08,30.59c.7,3.71,1.5,7.34,2.42,10.89.37,1.5.82,3.03,1.35,4.58.53,1.55,1.18,2.89,1.95,4.02.77,1.13,1.67,1.95,2.69,2.48,1.03.53,2.25.49,3.68-.11,1.17-.5,2.23-1.31,3.16-2.44.93-1.13,1.78-2.4,2.53-3.83.75-1.43,1.41-2.93,1.98-4.51.57-1.58,1.07-3.07,1.51-4.47.18-.5.42-1.41.71-2.74.29-1.33.6-2.88.91-4.66.31-1.78.6-3.69.85-5.75.11-.84.19-1.67.27-2.5.44.46,1,.72,1.68.77.75.05,1.55-.23,2.39-.83.55-.4,1.1-.79,1.65-1.16.55-.38,1.1-.71,1.65-1.01-.15,2.1-.16,4.31-.05,6.61.11,2.3.31,4.61.6,6.91-.62.5-1.19,1.05-1.7,1.65-.51.6-.92,1.3-1.21,2.1-.29.8-.41,1.62-.36,2.44.05.83.24,1.53.55,2.1.31.58.73.96,1.26,1.16.53.2,1.16.1,1.9-.3.18-.1.35-.19.49-.26.15-.08.31-.16.49-.26.37,1.8.73,3.39,1.1,4.77.37,1.38.7,2.44.99,3.19.88,2.25,2.01,3.89,3.38,4.92,1.37,1.03,2.89,1.6,4.54,1.73,1.65.12,3.37-.1,5.17-.68,1.8-.58,3.55-1.35,5.28-2.33,1.72-.98,3.34-2.05,4.86-3.23,1.52-1.18,2.83-2.29,3.93-3.34.37-.35.82-.88,1.37-1.58.55-.7,1.08-1.48,1.59-2.33.51-.85.97-1.74,1.37-2.67.4-.93.64-1.8.71-2.63.07-.83-.06-1.56-.41-2.22-.35-.65-1-1.13-1.95-1.43-.62-.2-1.28-.16-1.98.11-.7.28-1.39.66-2.09,1.16-.7.5-1.37,1.03-2.01,1.58-.64.55-1.22,1-1.73,1.35-2.31,1.6-4.76,3.03-7.37,4.28-2.42,1.15-4.3,1.35-5.63.6-1.34-.75-2.36-2.63-3.05-5.63,1.54-.75,3.08-1.51,4.62-2.29,1.54-.78,3.08-1.61,4.62-2.52.37-.2.87-.56,1.51-1.09.64-.53,1.28-1.13,1.92-1.8.64-.68,1.21-1.39,1.7-2.14.49-.75.82-1.46.96-2.14s.04-1.26-.33-1.76c-.37-.5-1.12-.85-2.25-1.05-1.1-.2-2.25-.19-3.44.04-1.19.23-2.4.6-3.63,1.13-1.23.53-2.45,1.14-3.66,1.84-1.21.7-2.36,1.43-3.46,2.18l-.33-3.15c-.07-1.05-.09-2.35-.06-3.91.04-1.55,0-2.98-.11-4.28,2.31-.5,4.65-.8,7.01-.9,2.36-.1,4.81-.25,7.34-.45,1.32-.1,2.53-.46,3.63-1.09,1.1-.63,1.9-1.89,2.42-3.79.29-1.2.34-2.19.14-2.97-.2-.78-.56-1.4-1.07-1.88-.51-.48-1.14-.85-1.87-1.13-.73-.27-1.45-.51-2.14-.71-1.83-.5-3.72-.71-5.66-.64-1.94.08-3.88.35-5.8.83-1.92.48-3.82,1.11-5.69,1.92-1.87.8-3.65,1.73-5.33,2.78-.7.4-1.47.85-2.31,1.35-.84.5-1.67,1.08-2.47,1.73-.81.65-1.57,1.35-2.28,2.1-.4.42-.75.88-1.05,1.36,0-.72-.01-1.43-.05-2.11-.09-1.7-.35-3.1-.77-4.21-.42-1.1-1.03-1.81-1.81-2.14-.79-.33-1.82-.09-3.11.71-1.21.75-2.07,1.82-2.58,3.19-.51,1.38-.85,2.88-1.02,4.51-.16,1.63-.23,3.29-.19,4.99.04,1.7,0,3.28-.11,4.73-.15,1.7-.36,3.38-.63,5.03-.28,1.65-.63,3.28-1.07,4.88-.18.75-.46,1.51-.82,2.29-.37.78-.73,1.57-1.1,2.37-.55-1.25-1.08-2.88-1.59-4.88-.51-2-.99-4.1-1.43-6.31-.44-2.2-.83-4.34-1.18-6.42-.35-2.08-.63-3.84-.85-5.29.18-.75.22-1.45.11-2.1-.29-1.45-.84-2.44-1.65-2.97-.81-.53-1.74-.51-2.8.04-.66.35-1.19.83-1.59,1.43-.4.6-.71,1.28-.91,2.03s-.33,1.55-.38,2.4c-.06.85-.06,1.7-.03,2.55.11,3.76.51,7.49,1.21,11.19Z"/>
    <path class="st0" d="M23.85,112.45c.42,1,1.07,1.75,1.95,2.25,1.47.85,2.79.9,3.99.15,1.19-.75,2.25-1.95,3.19-3.6s1.76-3.63,2.47-5.93c.71-2.3,1.36-4.63,1.95-6.98.22.75.45,1.5.69,2.25.24.75.49,1.48.74,2.18.48,1.35,1.01,2.75,1.59,4.21.59,1.45,1.25,2.85,1.98,4.21.73,1.35,1.53,2.59,2.39,3.72.86,1.13,1.8,2.07,2.83,2.82,2.27,1.6,4.43,2.08,6.46,1.43,2.03-.65,3.86-1.96,5.47-3.94,1.61-1.98,2.97-4.37,4.07-7.17,1.1-2.8,1.85-5.56,2.25-8.26.37-2.25.6-4.89.71-7.92.11-3.03-.02-6.02-.38-8.98-.37-2.95-1.04-5.67-2.01-8.15-.97-2.48-2.37-4.29-4.21-5.44-.84-.5-1.69-.7-2.53-.6-.84.1-1.65.44-2.42,1.01-.77.58-1.45,1.35-2.03,2.33-.59.98-1.01,2.09-1.26,3.34-.26,1.15-.31,2.44-.16,3.87.15,1.43.37,2.82.66,4.17.29,1.35.6,2.62.93,3.79.33,1.18.55,2.07.66,2.67.11.55.21,1.2.3,1.95.09.75.16,1.5.22,2.25s.1,1.44.14,2.07c.04.63.06,1.06.06,1.31,0,.15-.03.45-.08.9-.06.45-.12.94-.19,1.46-.07.53-.14,1.04-.19,1.54-.06.5-.1.9-.14,1.2-.26-.25-.51-.51-.77-.79-.26-.27-.48-.54-.66-.79-.22-.25-.44-.5-.66-.75-.88-1.3-1.66-2.69-2.34-4.17-.68-1.48-1.33-3.02-1.95-4.62-.44-1.15-.89-2.54-1.35-4.17-.46-1.63-.98-3.22-1.57-4.77-.59-1.55-1.27-2.9-2.06-4.06-.79-1.15-1.73-1.85-2.83-2.1-1.36-.3-2.54-.12-3.55.53-1.01.65-1.88,1.61-2.61,2.89-.73,1.28-1.37,2.79-1.9,4.54-.53,1.75-1.02,3.6-1.46,5.56-.04-1.3-.06-2.41-.08-3.34-.02-.93-.03-1.51-.03-1.76.04-.6.14-1.38.3-2.33.17-.95.29-1.92.39-2.89.09-.98.11-1.9.06-2.78-.06-.88-.27-1.56-.63-2.07-.51-.65-1.05-.94-1.62-.86-.57.08-1.12.35-1.65.83-.53.48-.99,1.1-1.37,1.88-.38.78-.63,1.49-.74,2.14-.62,3.86-1.06,7.72-1.32,11.6-.26,3.88-.48,7.77-.66,11.68-.04,1.05-.07,2.22-.11,3.49-.04,1.28.03,2.52.19,3.72.16,1.2.46,2.3.88,3.3Z"/>
    <path class="st0" d="M103.53,110.46c-.18-1.38-.39-2.67-.63-3.87-.24-1.2-.45-2.18-.63-2.93.4-.85.57-1.73.49-2.63-.07-.9-.57-1.78-1.48-2.63l-.16-.22c-.4-1.75-.82-3.52-1.24-5.3-.42-1.78-.85-3.54-1.29-5.29-.33-1.35-.65-2.77-.96-4.24-.31-1.48-.63-2.95-.96-4.43-.33-1.48-.7-2.93-1.1-4.36-.4-1.43-.86-2.77-1.37-4.02.07-.3.13-.6.16-.9.04-.3.07-.6.11-.9.18-1.5.05-2.62-.41-3.34-.46-.73-1.05-1.14-1.79-1.24-.73-.1-1.49.11-2.28.64-.79.53-1.42,1.29-1.9,2.29l-.49.9c-.55.65-.95,1.53-1.21,2.63-2.24,5.06-4.31,10.23-6.21,15.51-1.91,5.28-3.77,10.6-5.61,15.96-.4,1.15-.86,2.38-1.37,3.68-.51,1.3-1.01,2.63-1.48,3.98-.48,1.35-.9,2.72-1.26,4.09-.37,1.38-.6,2.72-.71,4.02-.11,1.6.05,2.79.47,3.57.42.78.97,1.21,1.65,1.31.68.1,1.41-.11,2.2-.64.79-.53,1.48-1.29,2.06-2.29.48-.8.91-1.66,1.29-2.59.38-.93.74-1.89,1.07-2.89,2.75-.55,5.46-1.28,8.14-2.18,2.67-.9,5.33-1.83,7.97-2.78.22,1,.45,2.23.69,3.68.24,1.45.54,2.85.91,4.21.37,1.35.83,2.5,1.4,3.45.57.95,1.29,1.43,2.17,1.43,1.06,0,1.9-.35,2.5-1.05.6-.7,1.03-1.62,1.26-2.74.24-1.13.35-2.38.33-3.76-.02-1.38-.12-2.75-.3-4.13ZM86.46,100.51c-1.78.85-3.25,1.48-4.43,1.88.84-2.55,1.7-5.08,2.58-7.59.88-2.5,1.79-5.01,2.75-7.51.18-.55.39-1.1.63-1.65.24-.55.49-1.1.74-1.65l3.24,14.27c-1.91.65-3.75,1.4-5.53,2.25Z"/>
    <path class="st0" d="M181.32,109.07c.55-.7,1.08-1.48,1.59-2.33.51-.85.97-1.74,1.37-2.67.4-.93.64-1.8.71-2.63.07-.83-.06-1.56-.41-2.22-.35-.65-1-1.13-1.95-1.43-.62-.2-1.28-.16-1.98.11-.7.28-1.39.66-2.09,1.16-.7.5-1.37,1.03-2.01,1.58-.64.55-1.22,1-1.73,1.35-2.31,1.6-4.76,3.03-7.37,4.28-2.42,1.15-4.3,1.35-5.63.6-1.34-.75-2.36-2.63-3.05-5.63,1.54-.75,3.08-1.51,4.62-2.29,1.54-.78,3.08-1.62,4.62-2.52.37-.2.87-.56,1.51-1.09.64-.53,1.28-1.13,1.92-1.8.64-.68,1.21-1.39,1.7-2.14.49-.75.82-1.46.96-2.14.15-.68.04-1.26-.33-1.76-.37-.5-1.12-.85-2.25-1.05-1.1-.2-2.25-.19-3.44.04-1.19.23-2.4.6-3.63,1.13-1.23.53-2.45,1.14-3.66,1.84-1.21.7-2.36,1.43-3.46,2.18l-.33-3.15c-.07-1.05-.09-2.35-.06-3.91.04-1.55,0-2.98-.11-4.28,2.31-.5,4.65-.8,7.01-.9,2.36-.1,4.81-.25,7.34-.45,1.32-.1,2.53-.46,3.63-1.09,1.1-.63,1.9-1.89,2.42-3.79.29-1.2.34-2.19.14-2.97-.2-.78-.56-1.4-1.07-1.88-.51-.48-1.14-.85-1.87-1.13-.73-.27-1.45-.51-2.14-.71-1.83-.5-3.72-.71-5.66-.64-1.94.08-3.88.35-5.8.83-1.92.48-3.82,1.11-5.69,1.92-1.87.8-3.65,1.73-5.33,2.78-.25.14-.51.3-.78.45-.49-.88-1.2-1.64-2.14-2.25-1.21-.7-2.47-1.19-3.77-1.46-1.3-.27-2.65-.41-4.04-.41-1.61,0-3.24.16-4.89.49-1.65.33-3.28.75-4.89,1.28-1.61.53-3.18,1.11-4.7,1.76-1.52.65-2.94,1.3-4.26,1.95-2.2,1-4.49,2.17-6.87,3.49-2.38,1.33-4.54,2.82-6.49,4.47-.4.35-.82.76-1.24,1.24-.42.48-.8.99-1.13,1.54-.33.55-.59,1.18-.77,1.88-.18.7-.24,1.45-.16,2.25.18,1.65.73,2.84,1.65,3.57.92.73,1.96.76,3.13.11h.06c1.83-1,3.63-1.96,5.39-2.89,1.76-.93,3.57-1.81,5.44-2.67-.11,2-.18,3.78-.22,5.33-.04,1.55-.06,3.36-.06,5.41,0,4.06.17,7.91.49,11.57.11,1.05.24,2.1.38,3.15.15,1.05.38,1.97.71,2.74.33.78.81,1.36,1.43,1.76.62.4,1.45.48,2.47.23.7-.15,1.34-.48,1.92-.98.59-.5,1.08-1.1,1.48-1.8.4-.7.73-1.48.99-2.33.26-.85.44-1.7.55-2.55.04-.4.06-.8.08-1.2.02-.4.03-.85.03-1.35,0-1-.04-2.04-.11-3.12-.07-1.08-.16-2.09-.27-3.04-.15-1.45-.26-2.88-.33-4.28-.07-.85-.12-1.71-.14-2.59-.02-.88-.05-1.74-.08-2.59-.07-1.25-.12-2.52-.14-3.79-.02-1.28-.06-2.54-.14-3.79,1.03-.25,2.1-.48,3.22-.68,1.12-.2,2.17-.35,3.16-.45.51-.05,1.08-.06,1.7-.04.62.03,1.26.06,1.92.11.51.05,1.04.09,1.59.11.12,0,.23,0,.35,0,0,.12,0,.25,0,.37.09.98.37,1.74.82,2.29.46.55,1.06.85,1.81.9.75.05,1.55-.23,2.39-.83.55-.4,1.1-.79,1.65-1.16.55-.38,1.1-.71,1.65-1.01-.15,2.1-.16,4.31-.05,6.61.11,2.3.31,4.61.6,6.91-.62.5-1.19,1.05-1.7,1.65-.51.6-.92,1.3-1.21,2.1s-.41,1.61-.36,2.44c.05.83.24,1.53.55,2.1.31.58.73.96,1.26,1.16.53.2,1.16.1,1.9-.3.18-.1.35-.19.49-.26.15-.08.31-.16.49-.26.37,1.8.73,3.39,1.1,4.77.37,1.38.7,2.44.99,3.19.88,2.25,2.01,3.89,3.38,4.92,1.37,1.03,2.89,1.6,4.54,1.73,1.65.12,3.37-.1,5.17-.68,1.8-.57,3.55-1.35,5.28-2.33,1.72-.98,3.34-2.05,4.86-3.23,1.52-1.18,2.83-2.29,3.93-3.34.37-.35.82-.88,1.37-1.58Z"/>
    <path class="st0" d="M225.19,107.12c-.62-1.85-1.45-3.58-2.47-5.18-1.03-1.6-2.18-3.07-3.46-4.39-1.28-1.33-2.49-2.44-3.63-3.34h.05c1.03-1.1,1.98-2.33,2.86-3.68,1.03-1.55,1.85-3.25,2.47-5.11.62-1.85.96-3.69,1.02-5.52.06-1.83-.24-3.57-.88-5.22-.64-1.65-1.73-3.08-3.27-4.28-1.43-1.1-3.02-1.91-4.76-2.44-1.74-.53-3.52-.86-5.33-1.01-1.81-.15-3.62-.15-5.41,0-1.8.15-3.48.35-5.06.6-.55.1-1.33.25-2.34.45-1.01.2-2.09.49-3.24.86-1.15.38-2.29.85-3.41,1.43-1.12.58-2.08,1.28-2.89,2.1-.81.83-1.36,1.8-1.65,2.93-.29,1.13-.18,2.42.33,3.87.51,1.45,1.2,2.23,2.06,2.33.86.1,1.71-.2,2.56-.9.4,4.86.97,9.65,1.7,14.38.73,4.73,1.48,9.48,2.25,14.23.15.9.3,1.91.47,3.04.17,1.13.4,2.2.71,3.23.31,1.03.72,1.91,1.24,2.67.51.75,1.19,1.18,2.03,1.28.62.1,1.22-.04,1.79-.41.57-.38,1.08-.88,1.54-1.5.46-.63.85-1.33,1.18-2.1.33-.78.55-1.51.66-2.22.29-1.65.27-3.42-.05-5.29-.33-1.88-.73-3.72-1.21-5.52,2.57,1.15,5.07,2.5,7.5,4.06,2.44,1.55,4.59,3.63,6.46,6.23.44.65.9,1.4,1.37,2.25.48.85.99,1.65,1.54,2.4.55.75,1.14,1.35,1.76,1.8.62.45,1.32.58,2.09.37.55-.15,1.05-.45,1.51-.9.46-.45.86-.99,1.21-1.62.35-.63.64-1.29.88-1.99.24-.7.39-1.4.47-2.1.18-2-.04-3.93-.66-5.78ZM212.05,84.7c-.51.58-1.08,1.1-1.7,1.58-.62.48-1.26.88-1.9,1.2-.64.33-1.2.56-1.68.71-.4-.05-.98-.2-1.73-.45-.75-.25-1.56-.46-2.42-.64-.86-.17-1.71-.25-2.56-.23-.84.03-1.56.26-2.14.71l-1.65-9.54c1.5-.05,2.97,0,4.4.15,1.43.15,2.77.33,4.01.53.7.1,1.46.21,2.28.34.82.13,1.63.31,2.42.56.79.25,1.52.64,2.2,1.16.68.53,1.22,1.24,1.62,2.14-.26.6-.64,1.19-1.15,1.76Z"/>
    <path class="st0" d="M71.62,145.94h-.06c-1.1-2.75-2.61-5.03-4.54-6.83-1.92-1.8-4.03-3.23-6.32-4.28-2.29-1.05-4.65-1.75-7.09-2.1-2.44-.35-4.72-.45-6.84-.3l-.33-.23c-.51-.25-1.04-.3-1.59-.15-.55.15-1.08.45-1.59.9-.88.2-1.84.45-2.89.75-1.04.3-2.08.69-3.11,1.16-1.03.48-1.99,1.03-2.89,1.65-.9.63-1.65,1.36-2.25,2.22-.6.85-1.03,1.82-1.26,2.89-.24,1.08-.19,2.27.14,3.57.33,1.35.77,2.29,1.32,2.82.55.53,1.13.76,1.73.71.6-.05,1.21-.35,1.81-.9.6-.55,1.16-1.2,1.68-1.95.59-.15,1.16-.32,1.73-.53.57-.2,1.14-.4,1.73-.6.26,3.71.68,7.4,1.26,11.08.59,3.68,1.21,7.27,1.87,10.78.11.5.22,1.05.33,1.65.11.6.25,1.21.41,1.84.16.63.36,1.24.58,1.84.22.6.48,1.13.77,1.58-.44.3-.93.73-1.48,1.28-.55.55-1.03,1.16-1.43,1.84-.4.68-.7,1.43-.88,2.25-.18.83-.13,1.64.17,2.44.33.95.85,1.63,1.57,2.03.71.4,1.49.65,2.34.75.84.1,1.69.08,2.53-.08.84-.15,1.56-.3,2.14-.45,1.8-.5,3.72-1.39,5.77-2.67,2.05-1.28,4.03-2.82,5.94-4.62,1.9-1.8,3.66-3.85,5.25-6.16,1.59-2.3,2.85-4.76,3.77-7.36.92-2.6,1.39-5.33,1.43-8.19.04-2.85-.53-5.73-1.7-8.64ZM63.87,159.99c-.51,1.1-1.03,2.02-1.54,2.74-.51.73-1.14,1.54-1.87,2.44-1.1,1.25-2.38,2.27-3.85,3.04-1.47.78-2.99,1.51-4.56,2.22.18-.55.31-1.11.39-1.69.07-.57.13-1.11.16-1.61.07-1.9,0-3.83-.25-5.78-.24-1.95-.55-3.9-.93-5.86-.38-1.95-.8-3.89-1.24-5.82-.44-1.93-.82-3.84-1.15-5.75,2.38.3,4.69,1.03,6.93,2.18,1.03.5,2.12,1.23,3.27,2.18,1.15.95,2.16,2.05,3.02,3.3.86,1.25,1.47,2.59,1.84,4.02.37,1.43.28,2.87-.27,4.32l.06.08Z"/>
    <path class="st0" d="M113.78,171.25c-.62-1.85-1.45-3.58-2.47-5.18-1.03-1.6-2.18-3.07-3.46-4.39-1.28-1.33-2.49-2.44-3.63-3.34h.06c1.03-1.1,1.98-2.33,2.86-3.68,1.03-1.55,1.85-3.25,2.47-5.11.62-1.85.96-3.69,1.02-5.52.06-1.83-.24-3.57-.88-5.22-.64-1.65-1.73-3.08-3.27-4.28-1.43-1.1-3.01-1.91-4.76-2.44-1.74-.53-3.52-.86-5.33-1.01-1.81-.15-3.62-.15-5.42,0-1.8.15-3.48.35-5.06.6-.55.1-1.33.25-2.34.45-1.01.2-2.09.49-3.24.86-1.15.38-2.29.85-3.41,1.43-1.12.58-2.08,1.28-2.89,2.1-.81.83-1.36,1.8-1.65,2.93-.29,1.13-.18,2.42.33,3.87.51,1.45,1.2,2.23,2.06,2.33.86.1,1.71-.2,2.56-.9.4,4.86.97,9.65,1.7,14.38.73,4.73,1.48,9.48,2.25,14.23.15.9.3,1.91.47,3.04.16,1.13.4,2.2.71,3.23.31,1.03.72,1.91,1.24,2.67.51.75,1.19,1.18,2.03,1.28.62.1,1.22-.04,1.79-.41.57-.38,1.08-.88,1.54-1.5.46-.63.85-1.33,1.18-2.1.33-.78.55-1.51.66-2.22.29-1.65.28-3.42-.06-5.29-.33-1.88-.73-3.72-1.21-5.52,2.56,1.15,5.07,2.5,7.5,4.06,2.44,1.55,4.59,3.63,6.46,6.23.44.65.9,1.4,1.37,2.25.48.85.99,1.65,1.54,2.4.55.75,1.14,1.35,1.76,1.8.62.45,1.32.58,2.09.37.55-.15,1.05-.45,1.51-.9.46-.45.86-.99,1.21-1.62.35-.63.64-1.29.88-1.99.24-.7.39-1.4.47-2.1.18-2-.04-3.93-.66-5.78ZM100.64,148.84c-.51.58-1.08,1.1-1.7,1.58-.62.48-1.26.88-1.9,1.2-.64.33-1.2.56-1.68.71-.4-.05-.98-.2-1.73-.45-.75-.25-1.56-.46-2.42-.64-.86-.18-1.71-.25-2.56-.23-.84.03-1.56.26-2.14.71l-1.65-9.54c1.5-.05,2.97,0,4.4.15s2.77.33,4.01.53c.7.1,1.46.21,2.28.34.82.13,1.63.31,2.42.56.79.25,1.52.64,2.2,1.16.68.53,1.22,1.24,1.62,2.14-.26.6-.64,1.19-1.15,1.77Z"/>
    <path class="st0" d="M126.34,179.22c.97.75,1.97,1.13,3,1.13,1.39,0,2.61-.69,3.66-2.07,1.04-1.38,1.57-3.39,1.57-6.05,0-1.15-.15-2.32-.44-3.49-.29-1.18-.65-2.34-1.07-3.49-.42-1.15-.86-2.29-1.32-3.42-.46-1.13-.85-2.22-1.18-3.27-.81-2.45-1.53-4.93-2.17-7.44-.64-2.5-1.24-5.03-1.79-7.59-.18-.9-.35-1.86-.49-2.89-.15-1.03-.35-1.98-.6-2.85-.26-.88-.63-1.6-1.13-2.18-.49-.57-1.18-.86-2.06-.86-.73,0-1.44.23-2.12.68-.68.45-1.28,1.05-1.81,1.8-.53.75-.96,1.59-1.29,2.52-.33.93-.49,1.87-.49,2.82,0,.1,0,.2.03.3.02.1.03.2.03.3.22,2.65.53,5.41.93,8.26.4,2.85.91,5.71,1.51,8.56.6,2.85,1.3,5.63,2.09,8.34.79,2.7,1.69,5.21,2.72,7.51.66,1.5,1.47,2.63,2.45,3.38Z"/>
    <path class="st0" d="M174.97,159.16c-.33-2.1-.7-4.18-1.1-6.23-.73-3.6-1.68-7.31-2.83-11.12-1.15-3.8-2.63-7.13-4.43-9.99-.84-1.35-1.79-2.28-2.86-2.78-1.06-.5-2.07-.59-3.02-.26-.95.33-1.77,1.06-2.45,2.22-.68,1.15-1.04,2.73-1.07,4.73-.04.9.05,1.84.25,2.82.2.98.45,1.93.74,2.85.29.93.6,1.84.93,2.74.33.9.62,1.75.88,2.55.62,2,1.2,4.03,1.73,6.08.53,2.05,1.02,4.13,1.46,6.23.51,2.4.93,4.83,1.26,7.29.33,2.45.46,4.93.38,7.44-.18-.1-.35-.17-.49-.22-.15-.05-.28-.12-.38-.23l-.33-.23c-1.25-.85-2.42-1.81-3.52-2.89-1.1-1.08-2.16-2.24-3.19-3.49-1.1-1.35-2.11-2.79-3.02-4.32-.92-1.53-1.81-3.08-2.67-4.66-.86-1.58-1.73-3.14-2.61-4.69-.88-1.55-1.81-3.05-2.8-4.51.15-1.3.24-2.5.28-3.6.04-1.1.06-2.15.06-3.15,0-.75-.15-1.3-.44-1.65-.29-.35-.65-.58-1.07-.68-.42-.1-.85-.08-1.29.08s-.82.38-1.15.68c-.51.45-.92,1.03-1.21,1.73-.29.7-.53,1.45-.71,2.25-.18.8-.33,1.63-.44,2.48-.11.85-.2,1.65-.28,2.4-.48,1.15-.82,2.47-1.04,3.94-.22,1.48-.33,2.87-.33,4.17,0,.5-.02,1.3-.05,2.4-.04,1.1-.04,2.25,0,3.45-.11,1.15-.28,2.45-.52,3.91-.24,1.45-.44,2.93-.6,4.43-.17,1.5-.27,2.97-.3,4.39-.04,1.43.06,2.72.27,3.87.22,1,.54,1.73.96,2.18.42.45.88.66,1.37.64.49-.02,1.01-.25,1.54-.68.53-.43,1.02-1.01,1.46-1.77.44-.75.78-1.68,1.02-2.78s.42-2.25.55-3.46c.13-1.2.22-2.4.27-3.6.06-1.2.12-2.25.19-3.15l.16-1.35c.55,1.3,1.13,2.59,1.76,3.87.62,1.28,1.28,2.54,1.98,3.79,1.65,3,3.55,5.8,5.72,8.37,2.16,2.58,4.56,4.52,7.2,5.82,1.47.7,2.89.98,4.26.83,1.37-.15,2.64-.66,3.79-1.54,1.15-.88,2.17-2.05,3.05-3.53.88-1.48,1.59-3.17,2.14-5.07.55-2,.91-4.07,1.1-6.2.18-2.13.22-4.27.11-6.42-.11-2.15-.33-4.28-.66-6.38Z"/>
    <path class="st0" d="M182.33,174.48c.07.85.17,1.75.3,2.7.13.95.33,1.82.6,2.59.27.78.63,1.43,1.07,1.95.44.53,1.03.79,1.76.79,1.1,0,1.98-.43,2.64-1.28.66-.85,1.16-1.86,1.51-3.04.35-1.18.58-2.38.69-3.6.11-1.23.16-2.22.16-2.97,0-1.15-.04-2.29-.11-3.42-.07-1.13-.18-2.26-.33-3.42,1.5.4,2.99,1.05,4.45,1.95,1.46.9,2.77,1.78,3.9,2.63.88.65,1.83,1.62,2.86,2.89,1.03,1.28,2.09,2.55,3.19,3.83,1.1,1.28,2.22,2.4,3.35,3.38,1.14.98,2.24,1.46,3.3,1.46.51,0,1.05-.15,1.59-.45,1.39-.85,2.4-1.8,3.02-2.85.62-1.05.94-2.15.94-3.3s-.3-2.47-.91-3.79c-.6-1.33-1.4-2.63-2.39-3.91-.99-1.28-2.11-2.53-3.35-3.76-1.25-1.23-2.52-2.37-3.82-3.42-1.3-1.05-2.56-2-3.77-2.85-1.21-.85-2.27-1.55-3.19-2.1.95-.85,1.81-1.64,2.58-2.37.77-.73,1.52-1.46,2.25-2.22.55-.6,1.19-1.24,1.92-1.92.73-.68,1.42-1.4,2.06-2.18.64-.78,1.19-1.63,1.65-2.55.46-.93.69-1.91.69-2.97s-.23-1.78-.69-2.33c-.46-.55-1.02-.83-1.68-.83-.62,0-1.28.28-1.98.83-3.04,2.6-6.06,5.02-9.04,7.25-2.99,2.23-6.15,4.32-9.48,6.27l-1.76-7.29c-.22-.9-.46-1.95-.71-3.15-.26-1.2-.58-2.37-.96-3.49-.38-1.13-.86-2.08-1.43-2.85-.57-.78-1.27-1.16-2.12-1.16-.59,0-1.14.19-1.65.56-.51.37-.96.88-1.35,1.5-.38.63-.69,1.33-.91,2.1-.22.78-.33,1.54-.33,2.29,0,.45.05.9.16,1.35,1.17,5.51,2.2,10.98,3.08,16.41.88,5.43,1.61,11,2.2,16.71Z"/>
    <path class="st0" d="M81.71,226.08c-.62-.2-1.28-.16-1.98.11-.7.28-1.39.66-2.09,1.16-.7.5-1.37,1.03-2.01,1.58-.64.55-1.22,1-1.73,1.35-2.31,1.6-4.76,3.03-7.37,4.28-2.42,1.15-4.3,1.35-5.63.6-1.34-.75-2.36-2.63-3.05-5.63,1.54-.75,3.08-1.51,4.62-2.29,1.54-.78,3.08-1.62,4.62-2.52.37-.2.87-.56,1.51-1.09.64-.53,1.28-1.13,1.92-1.8.64-.68,1.21-1.39,1.7-2.14.49-.75.82-1.46.96-2.14.15-.68.04-1.26-.33-1.77-.37-.5-1.12-.85-2.25-1.05-1.1-.2-2.24-.19-3.44.04-1.19.23-2.4.6-3.63,1.13-1.23.53-2.45,1.14-3.66,1.84-1.21.7-2.36,1.43-3.46,2.18l-.33-3.15c-.07-1.05-.09-2.35-.06-3.91.04-1.55,0-2.98-.11-4.28,2.31-.5,4.65-.8,7.01-.9,2.36-.1,4.81-.25,7.34-.45,1.32-.1,2.53-.46,3.63-1.09,1.1-.63,1.91-1.89,2.42-3.79.29-1.2.34-2.19.14-2.97-.2-.78-.56-1.4-1.07-1.88-.51-.48-1.14-.85-1.87-1.13-.73-.27-1.45-.51-2.14-.71-1.83-.5-3.72-.71-5.66-.64-1.94.08-3.88.35-5.8.83s-3.82,1.11-5.69,1.91c-1.87.8-3.65,1.73-5.33,2.78-.25.14-.51.3-.78.45-.49-.88-1.2-1.64-2.14-2.25-1.21-.7-2.47-1.19-3.77-1.46-1.3-.27-2.65-.41-4.04-.41-1.61,0-3.24.16-4.89.49-1.65.33-3.28.75-4.89,1.28-1.61.53-3.18,1.11-4.7,1.77-1.52.65-2.94,1.3-4.26,1.95-2.2,1-4.49,2.17-6.87,3.49-2.38,1.33-4.54,2.82-6.49,4.47-.4.35-.82.76-1.24,1.24-.42.48-.8.99-1.13,1.54s-.59,1.18-.77,1.88c-.18.7-.24,1.45-.16,2.25.18,1.65.73,2.84,1.65,3.57.92.73,1.96.76,3.13.11h.06c1.83-1,3.63-1.96,5.39-2.89,1.76-.93,3.57-1.81,5.44-2.67-.11,2-.18,3.78-.22,5.33-.04,1.55-.06,3.36-.06,5.41,0,4.06.17,7.91.49,11.57.11,1.05.24,2.1.38,3.15.15,1.05.38,1.97.71,2.74.33.78.81,1.36,1.43,1.76.62.4,1.45.48,2.47.23.7-.15,1.34-.48,1.92-.98.59-.5,1.08-1.1,1.48-1.8.4-.7.73-1.48.99-2.33.26-.85.44-1.7.55-2.55.04-.4.06-.8.08-1.2.02-.4.03-.85.03-1.35,0-1-.04-2.04-.11-3.12-.07-1.08-.16-2.09-.27-3.04-.15-1.45-.26-2.88-.33-4.28-.07-.85-.12-1.71-.14-2.59-.02-.88-.05-1.74-.08-2.59-.07-1.25-.12-2.52-.14-3.79-.02-1.28-.06-2.54-.14-3.79,1.03-.25,2.1-.48,3.22-.68,1.12-.2,2.17-.35,3.16-.45.51-.05,1.08-.06,1.7-.04.62.03,1.26.06,1.92.11.51.05,1.04.09,1.59.11.12,0,.23,0,.35,0,0,.12,0,.25,0,.37.09.98.37,1.74.82,2.29.46.55,1.06.85,1.81.9.75.05,1.55-.23,2.39-.83.55-.4,1.1-.79,1.65-1.16.55-.38,1.1-.71,1.65-1.01-.15,2.1-.16,4.31-.06,6.61.11,2.3.31,4.61.6,6.91-.62.5-1.19,1.05-1.7,1.65-.51.6-.92,1.3-1.21,2.1-.29.8-.41,1.61-.36,2.44.06.83.24,1.53.55,2.1.31.58.73.96,1.26,1.16.53.2,1.16.1,1.9-.3.18-.1.35-.19.49-.26.15-.08.31-.16.49-.26.37,1.8.73,3.39,1.1,4.77.37,1.38.7,2.44.99,3.19.88,2.25,2.01,3.89,3.38,4.92,1.37,1.03,2.89,1.6,4.54,1.73,1.65.12,3.37-.1,5.17-.68,1.8-.57,3.55-1.35,5.28-2.33,1.72-.98,3.34-2.05,4.87-3.23,1.52-1.18,2.83-2.29,3.93-3.34.37-.35.82-.88,1.37-1.58.55-.7,1.08-1.48,1.59-2.33.51-.85.97-1.74,1.37-2.67.4-.93.64-1.8.71-2.63.07-.83-.06-1.56-.41-2.22-.35-.65-1-1.13-1.95-1.43Z"/>
    <path class="st0" d="M119.17,227.65c1.48-2.3,2.57-4.76,3.27-7.36.7-2.6.9-5.3.6-8.07-.29-2.78-1.28-5.52-2.97-8.22-.92-1.45-1.95-2.65-3.11-3.6-1.15-.95-2.37-1.7-3.66-2.25-1.28-.55-2.61-.91-3.99-1.09-1.37-.18-2.74-.24-4.1-.19-1.32-.3-2.63-.29-3.93.04-1.3.33-2.56.91-3.77,1.76-1.06.45-2.13.98-3.19,1.58-1.06.6-2.03,1.31-2.91,2.14-.88.83-1.62,1.77-2.23,2.82-.6,1.05-1,2.23-1.18,3.53-.15,1.1-.15,2.03,0,2.78-1.1,2.65-1.91,5.28-2.42,7.89-.51,2.81-.65,5.35-.41,7.62.24,2.28.76,4.28,1.57,6.01.81,1.73,1.85,3.18,3.13,4.36,1.28,1.18,2.71,2.05,4.29,2.63,1.58.58,3.25.88,5.03.9,1.78.03,3.56-.26,5.36-.86.84,1.2,1.71,2.37,2.61,3.49.9,1.13,1.82,2.22,2.78,3.27.48.55,1.01,1.16,1.59,1.84.59.68,1.2,1.31,1.84,1.91.64.6,1.29,1.1,1.95,1.5.66.4,1.32.6,1.98.6s1.28-.22,1.87-.68c.59-.45,1.07-1.04,1.46-1.77.38-.73.65-1.53.8-2.4.15-.88.13-1.74-.06-2.59-.29-1.2-.72-2.33-1.29-3.38-.57-1.05-1.2-2.04-1.9-2.97-.7-.93-1.41-1.81-2.14-2.67-.73-.85-1.37-1.65-1.92-2.4,1.87-1.8,3.55-3.86,5.03-6.16ZM113.26,221.04c-.26,1-.86,1.98-1.81,2.93-.92.95-1.94,1.75-3.08,2.4l-2.31-3.31c-.55-.75-1.13-1.68-1.73-2.78-.6-1.1-1.26-2.12-1.98-3.04-.71-.93-1.47-1.64-2.25-2.14-.79-.5-1.64-.55-2.56-.15-.66.3-1.26.8-1.81,1.5-.55.7-.99,1.49-1.32,2.37-.33.88-.49,1.79-.49,2.74s.24,1.85.71,2.7l1.65,2.93c-1.43-.95-2.38-2.47-2.86-4.54-.48-2.08-.13-4.87,1.04-8.37v-.15l.49-1.35c1.61-.55,3.21-1.03,4.78-1.43,1.58-.4,3.21-.53,4.89-.38.81.1,1.68.34,2.61.71.93.37,1.8.89,2.61,1.54.81.65,1.52,1.39,2.14,2.22.62.83,1.05,1.72,1.29,2.67.24.95.23,1.93-.03,2.93Z"/>
    <path class="st0" d="M152.4,201.97c-1.03-1.6-2.05-2.35-3.08-2.25-1.03.1-1.96.68-2.8,1.73s-1.54,2.38-2.09,3.98-.84,3.08-.88,4.43c-.07,2.15-.17,4.26-.3,6.31-.13,2.05-.34,4.16-.63,6.31-.07.55-.21,1.36-.41,2.44-.2,1.08-.42,2.18-.66,3.3-.24,1.13-.48,2.17-.71,3.12-.24.95-.47,1.58-.69,1.88-.44-.3-.93-.88-1.48-1.73-.55-.85-1.09-1.77-1.62-2.74-.53-.98-.99-1.89-1.37-2.74-.38-.85-.61-1.43-.69-1.73-.4-1.45-.71-2.93-.93-4.43-.22-1.5-.39-3.02-.52-4.54-.13-1.53-.23-3.05-.3-4.58-.07-1.53-.16-3.04-.27-4.54.37-.75.59-1.55.66-2.4.07-.85-.15-1.63-.66-2.33-.99-1.65-1.93-2.45-2.83-2.4-.9.05-1.7.56-2.39,1.54-.7.98-1.26,2.22-1.7,3.72-.44,1.5-.7,2.93-.77,4.28-.11,1.95-.17,3.97-.17,6.05s.08,4.17.25,6.27.39,4.17.69,6.2.68,3.97,1.15,5.82c.81,3.26,2.01,6.02,3.6,8.3,1.59,2.28,3.36,3.82,5.3,4.62,1.94.8,3.94.74,5.99-.19,2.05-.93,3.94-2.94,5.66-6.05,1.54-2.75,2.7-5.82,3.49-9.2.79-3.38,1.42-6.72,1.9-10.03.18-1.25.38-2.72.6-4.39.22-1.68.36-3.37.41-5.07.06-1.7-.04-3.34-.28-4.92-.24-1.58-.72-2.92-1.46-4.02Z"/>
    <path class="st0" d="M172.77,229.38c-.42-1.15-.86-2.29-1.32-3.42-.46-1.13-.85-2.22-1.18-3.27-.81-2.45-1.53-4.93-2.17-7.44-.64-2.5-1.24-5.03-1.79-7.59-.18-.9-.35-1.86-.49-2.89-.15-1.03-.35-1.98-.6-2.85s-.63-1.6-1.13-2.18c-.49-.57-1.18-.86-2.06-.86-.73,0-1.44.23-2.12.68-.68.45-1.28,1.05-1.81,1.8-.53.75-.96,1.59-1.29,2.52-.33.93-.49,1.87-.49,2.82,0,.1,0,.2.03.3.02.1.03.2.03.3.22,2.65.53,5.41.93,8.26.4,2.85.91,5.71,1.51,8.56.6,2.85,1.3,5.63,2.09,8.34s1.7,5.21,2.72,7.51c.66,1.5,1.47,2.63,2.45,3.38.97.75,1.97,1.13,3,1.13,1.39,0,2.61-.69,3.66-2.07,1.04-1.38,1.57-3.39,1.57-6.05,0-1.15-.15-2.32-.44-3.49-.29-1.18-.65-2.34-1.07-3.49Z"/>
    <path class="st0" d="M206.19,230.43c.13-.95.12-1.83-.03-2.63-.15-.8-.47-1.45-.96-1.95-.49-.5-1.2-.68-2.12-.53-.37,0-.77.15-1.21.45-.44.3-.86.61-1.27.94-.4.33-.76.65-1.07.98s-.5.51-.58.56c-.48.45-1.04,1-1.7,1.65-.66.65-1.33,1.3-2.01,1.95-.68.65-1.3,1.23-1.87,1.73-.57.5-.98.83-1.24.98-.92.5-1.65.8-2.2.9-.55.1-.99-.01-1.32-.34-.33-.33-.6-.89-.82-1.69-.22-.8-.46-1.85-.71-3.15-.55-3-.95-6.06-1.21-9.16-.26-3.1-.51-6.21-.77-9.31-.07-.75-.1-1.9-.08-3.46.02-1.55,0-3.13-.08-4.73-.07-1.6-.25-3.07-.52-4.39-.27-1.33-.71-2.14-1.29-2.44-.48-.2-.99-.2-1.54,0-.55.2-1.06.55-1.54,1.05-.48.5-.88,1.08-1.21,1.73-.33.65-.51,1.3-.55,1.95-.29,5.46-.37,10.88-.22,16.26.15,5.38.48,10.78.99,16.19.22,2.25.57,4.37,1.04,6.35.48,1.98,1.16,3.63,2.03,4.96.88,1.33,1.98,2.25,3.3,2.78,1.32.53,2.93.49,4.84-.11,1.39-.45,2.85-1.15,4.37-2.1,1.52-.95,2.98-2.08,4.37-3.38,1.39-1.3,2.67-2.75,3.82-4.36,1.15-1.6,2.06-3.28,2.72-5.03.29-.8.5-1.68.63-2.63Z"/>
    <path class="st0" d="M238.87,238.73c-.18-1.38-.39-2.67-.63-3.87-.24-1.2-.45-2.18-.63-2.93.4-.85.57-1.73.49-2.63-.07-.9-.57-1.78-1.48-2.63l-.17-.22c-.4-1.75-.82-3.52-1.24-5.3-.42-1.78-.85-3.54-1.29-5.3-.33-1.35-.65-2.77-.96-4.24-.31-1.48-.63-2.95-.96-4.43-.33-1.48-.7-2.93-1.1-4.36-.4-1.43-.86-2.77-1.37-4.02.07-.3.13-.6.16-.9s.07-.6.11-.9c.18-1.5.05-2.62-.41-3.34-.46-.72-1.05-1.14-1.79-1.24-.73-.1-1.49.11-2.28.64-.79.53-1.42,1.29-1.9,2.29l-.49.9c-.55.65-.95,1.53-1.21,2.63-2.24,5.06-4.31,10.23-6.21,15.51-1.91,5.28-3.78,10.6-5.61,15.96-.4,1.15-.86,2.38-1.37,3.68-.51,1.3-1.01,2.63-1.48,3.98-.48,1.35-.9,2.72-1.26,4.09-.37,1.38-.6,2.72-.71,4.02-.11,1.6.05,2.79.47,3.57.42.78.97,1.21,1.65,1.31.68.1,1.41-.11,2.2-.64.79-.53,1.47-1.29,2.06-2.29.48-.8.91-1.66,1.29-2.59.38-.93.74-1.89,1.07-2.89,2.75-.55,5.46-1.28,8.14-2.18,2.68-.9,5.33-1.83,7.97-2.78.22,1,.45,2.23.69,3.68.24,1.45.54,2.85.91,4.21.37,1.35.83,2.5,1.4,3.45.57.95,1.29,1.43,2.17,1.43,1.06,0,1.9-.35,2.5-1.05.6-.7,1.03-1.62,1.26-2.74.24-1.13.35-2.38.33-3.76-.02-1.38-.12-2.75-.3-4.13ZM221.8,228.78c-1.78.85-3.25,1.48-4.43,1.88.84-2.55,1.7-5.08,2.58-7.59.88-2.5,1.8-5.01,2.75-7.51.18-.55.39-1.1.63-1.65.24-.55.48-1.1.74-1.65l3.24,14.27c-1.91.65-3.75,1.4-5.52,2.25Z"/>
  </g>
  <g>
    <path class="st2" d="M219.09,153.88c.02-.2.04-.41.05-.61,0-.33.02-.66.04-.99.06-1.19.16-2.39.41-3.56.12-.59.28-1.17.47-1.74.09-.28.2-.55.31-.83.06-.13.13-.27.19-.4.02.02.7.24.71.25.02,0,.07.05.07.06.02.02.08.07.08.07,0,0,.8.73,1.09.95,1.83,1.38,3.82,2.55,5.92,3.46,2.11.92,4.34,1.56,6.62,1.89,2.32.33,4.7.32,7.01-.04,2.36-.37,4.68-1.11,6.78-2.25.79-.43,1.55-.92,2.26-1.47-.56.66-1.17,1.28-1.84,1.85-.89.74-1.86,1.39-2.86,1.97-2.17,1.27-4.51,2.31-6.89,3.11-2.42.81-4.94,1.36-7.49,1.55-2.24.16-4.53.03-6.73-.43-1.1-.23-2.18-.54-3.24-.94-.54-.2-1.06-.43-1.58-.67-.51-.24-1.06-.53-1.26-1.09-.02-.06-.06-.1-.11-.13Z"/>
    <path class="st2" d="M256.38,126.33c-.69-2.2-1.76-4.28-3.11-6.15-1.38-1.9-3.07-3.53-4.93-4.96-.15-.11-.3-.22-.45-.33-.04.01-.09,0-.12-.04-.18-.23-.51-.18-.74-.07-.27.13-.5.36-.73.57-.53.33-1.02.75-1.49,1.15-.49.42-.98.85-1.45,1.29-.96.88-1.89,1.81-2.79,2.75-1.81,1.9-3.53,3.88-5.21,5.9-1.69,2.03-3.37,4.06-4.99,6.14-.8,1.03-1.57,2.08-2.29,3.17-.68,1.03-1.34,2.07-2.01,3.11-.67,1.03-1.35,2.05-2.09,3.03-.52.68-2.05,2.28-2.07,2.29-.04,0-.85,1.08-.9,1.14.09.07,8.16,5.25,12.35,6.18,4.45.99,9.25.69,13.47-1.08,2.26-.94,4.39-2.31,5.95-4.22,1.51-1.86,2.58-4.12,3.37-6.37,1.52-4.34,1.62-9.09.24-13.49ZM251.66,123.86c.21-.02.41-.03.61.06.21.1.33.28.43.49.12.23.22.46.33.69.55,1.16,1.05,2.35,1.44,3.58-.28.06-.56.09-.84.1-.78.03-1.56,0-2.34-.02-.29,0-.59,0-.88-.01-.13,0-.25-.02-.38-.02-.48-.03-.97-.07-1.45,0-.52,0-1.05-.01-1.57-.02-1.43-.02-2.85-.02-4.28-.05-1.43-.03-2.85-.06-4.28-.09-.71-.01-1.43-.03-2.14-.03h-.84c.06-.06.13-.1.2-.14.19-.09.38-.16.57-.26.19-.1.4-.19.61-.25.04-.01.07-.04.08-.07.05-.02.1-.03.15-.05.23-.08.46-.15.69-.22.14-.05.28-.09.42-.14.98-.32,1.97-.62,2.96-.91,1.6-.47,3.21-.92,4.83-1.3.64-.18,1.28-.36,1.93-.54.99-.27,1.98-.57,3-.73.25-.04.5-.07.76-.09ZM248.21,118.13c.15-.05.3-.09.45-.11,0,0,0,0,0,0,.25.21.5.42.74.65.57.54,1.08,1.13,1.53,1.76,0,.24-.03.49-.09.72-.04.18-.1.36-.18.54-.34.3-.75.52-1.13.73-2.29,1.24-4.73,2.12-7.2,2.93-1.23.41-2.46.82-3.69,1.23-.62.21-1.24.42-1.86.63-.29.1-.58.2-.86.3-.02,0-.03,0-.05.01.49-.44.96-.89,1.45-1.32.92-.81,1.89-1.56,2.86-2.31,1-.77,1.99-1.55,2.99-2.32,1.16-.89,2.32-1.79,3.47-2.69.21-.13.43-.25.66-.36.29-.14.58-.29.89-.39ZM236.37,126.16c1.68-2,3.41-3.97,5.25-5.84.91-.92,1.83-1.83,2.79-2.7.48-.44.97-.88,1.46-1.32.59.21,1.15.54,1.67.88,0,0,0,0,0,0,.01.05.03.09.04.15.02.13.02.27,0,.4,0,.05-.02.1-.03.14-.05.05-.1.1-.14.16-.38.28-.77.56-1.15.84-.14.09-.29.18-.42.28-.11.09-.24.17-.34.28-1.96,1.48-3.92,2.97-5.89,4.44-.98.73-1.95,1.47-2.86,2.29-.53.48-1.06.98-1.6,1.45.41-.49.81-.98,1.22-1.47ZM225.21,144.8s-.08.04-.12.06c-.16.06-.32.11-.48.14-.08.01-.15.02-.23.03-.11-.04-.23-.09-.34-.13-.46-.19-.94-.39-1.32-.69,2.71-3.05,3.28-4.39,4.04-5.58.63-.99,1.25-1.97,1.91-2.95.71-1.05,1.47-2.07,2.25-3.09.23-.3.46-.59.69-.89.09-.03.17-.03.25,0-.45.91-.88,1.83-1.33,2.74-.93,1.88-1.93,3.74-2.88,5.62-.73,1.44-1.44,2.88-2.12,4.33-.1.14-.21.29-.32.43ZM230.71,146.59c-.12.38-.3.77-.63,1.01-.32.23-.71.29-1.09.23-.41-.06-.79-.21-1.17-.37-.31-.13-.61-.27-.92-.41-.2-.3-.36-.63-.45-.98-.07-.26-.11-.52-.11-.79,0-.26.04-.52.04-.79,0,0,0,0,0-.01.19-.42.37-.84.56-1.25.94-2.05,1.95-4.06,2.91-6.1.48-1.02.97-2.03,1.45-3.05.41-.86.82-1.72,1.19-2.59.06.06.11.13.14.21.07.18.06.37.06.56,0,.24-.02.49-.03.73-.06.93-.14,1.85-.23,2.77-.19,1.82-.45,3.64-.73,5.45-.14.92-.29,1.83-.44,2.75-.14.88-.27,1.76-.54,2.61ZM234.42,150.5c-.59-.14-1.19-.3-1.71-.59-.48-.27-1.03-.71-1.08-1.3,0-.04.02-.91.06-1.22.09-.67.17-1.35.25-2.02.16-1.34.3-2.68.43-4.02.26-2.67.47-5.34.62-8.02.01-.2.02-.41.03-.61,0-.01,0-.03.01-.04.06-.24.12-.49.18-.73.04-.15.07-.34.19-.45.06-.06.14-.07.21-.06.41,1.35.83,2.7,1.21,4.06.76,2.74,1.45,5.51,2.23,8.24.39,1.36.8,2.72,1.24,4.06.21.64.45,1.28.64,1.92.13.45.23.91.25,1.38-1.61.02-3.23-.2-4.78-.58ZM246.15,149.32c-.98.56-2.07.95-3.17,1.2-.2.05-.41.09-.62.13-.19-.14-.36-.31-.51-.48-.35-.4-.66-.83-.95-1.27-.16-.25-.31-.51-.45-.77-.14-.31-.28-.63-.41-.95-1.12-2.66-2.09-5.39-3.1-8.09-.5-1.34-1.01-2.67-1.54-3.99-.45-1.12-.89-2.25-1.39-3.35,0,0,.01,0,.02,0,.36.1.63.4.85.68.12.15.23.3.34.46.14.21.29.4.45.6.01.01.02.02.03.03.08.12.16.25.25.37.13.18.26.38.41.56.07.1.13.19.2.29.79,1.11,1.59,2.2,2.41,3.29,1.63,2.16,3.3,4.28,5.03,6.36.77.93,1.58,1.85,2.34,2.8.33.28.65.6.65,1.06,0,.52-.45.87-.86,1.1ZM251.74,144.99c-.23.25-.48.5-.73.72-.69.6-1.51,1.17-2.38,1.47-.47.17-.94.14-1.36-.15-.4-.27-.7-.68-1.01-1.05-.77-.9-1.53-1.81-2.29-2.72-1.53-1.84-3.06-3.69-4.56-5.56-.87-1.08-3.27-4.41-3.43-4.67-.32-.49-.62-.98-.92-1.48-.14-.23-.29-.46-.4-.7.13.09.25.19.38.28.35.26.7.52,1.05.77.73.52,1.47,1.01,2.22,1.48.44.27.88.54,1.33.81,2.28,1.65,4.56,3.31,6.85,4.95.36.26.72.51,1.08.76.17.13.34.27.51.4.41.31.82.62,1.23.93.32.24.65.48.97.71.45.42.86.87,1.21,1.39.16.24.31.49.43.74-.05.3-.1.61-.18.91ZM253.85,140.99c-.11.49-.27.98-.47,1.44,0,0,0,0,0,0-.23.14-1.07.32-1.11.31-.33-.12-.63-.31-.95-.45,0,0-.02,0-.03-.01-.18-.14-.36-.28-.55-.42-.26-.26-.54-.5-.83-.73-1.23-1.01-2.48-1.98-3.74-2.95-1.28-.98-2.55-1.98-3.89-2.89-1.33-.91-2.73-1.71-4.09-2.58-.32-.2-.63-.41-.95-.63-.84-.62-1.67-1.24-2.51-1.86.47,0,.94.23,1.37.38.01,0,.03,0,.04,0,.39.13.77.29,1.14.45.58.25,1.16.49,1.74.76,1.15.53,2.28,1.09,3.42,1.64,2.3,1.13,4.6,2.26,6.97,3.24.7.29,1.41.58,2.11.86.34.14.68.28,1.03.42.36.15.75.26,1.07.49.06.04.09.1.1.16.52.58.29,1.66.13,2.35ZM254.75,136.63s-.07.04-.1.06c-.23.14-.49.22-.76.24-.51.03-1.03-.1-1.52-.21-.48-.1-.96-.21-1.43-.34-1.43-.57-2.85-1.19-4.26-1.82-3-1.35-5.98-2.77-9.06-3.96-.23-.09-.46-.17-.7-.25-.1-.08-.22-.14-.31-.2-.2-.12-.41-.22-.61-.33-.3-.17-.65-.37-.76-.72,0,0,0-.02,0-.03.06,0,.12,0,.18,0,.41,0,.83,0,1.24,0,.81,0,1.61,0,2.42,0,1.46,0,2.92-.02,4.39,0,1.45.01,2.9.02,4.35.02.7,0,1.39,0,2.09,0,.07,0,.14,0,.22.02,1.03.08,2.07.22,3.07.49.48.13.95.27,1.4.48.08.09.15.18.21.26.04.06.08.12.12.18.02.12.05.24.07.35.34,1.89.34,3.91-.27,5.75Z"/>
    <path class="st1" d="M252.3,142.75"/>
  </g>
  <g>
    <path class="st2" d="M45.02,264.46c.16-.13.32-.26.47-.4.24-.23.48-.45.73-.67.88-.8,1.81-1.57,2.81-2.23.5-.33,1.02-.63,1.56-.9.26-.13.53-.25.81-.36.13-.05.28-.1.42-.15,0,.03.33.66.33.67,0,.02,0,.08,0,.09,0,.03,0,.1,0,.11,0,0,.05,1.09.1,1.44.32,2.27.9,4.5,1.74,6.63.84,2.14,1.96,4.17,3.34,6.01,1.41,1.88,3.09,3.55,4.99,4.93,1.93,1.41,4.1,2.52,6.39,3.2.86.25,1.74.45,2.63.56-.87.07-1.73.08-2.61,0-1.15-.1-2.29-.33-3.41-.63-2.43-.64-4.82-1.55-7.08-2.67-2.29-1.14-4.46-2.53-6.39-4.21-1.7-1.47-3.23-3.18-4.46-5.06-.62-.94-1.16-1.93-1.63-2.95-.24-.52-.45-1.05-.64-1.59-.19-.53-.37-1.12-.12-1.66.03-.05.03-.11,0-.17Z"/>
    <path class="st2" d="M90.87,271.35c1.07-2.04,1.79-4.27,2.14-6.55.37-2.32.33-4.67.02-6.99-.02-.19-.05-.37-.09-.55-.04-.02-.07-.06-.06-.12.03-.29-.23-.49-.48-.57-.29-.1-.61-.1-.92-.11-.61-.14-1.25-.19-1.86-.24-.64-.05-1.29-.09-1.94-.12-1.31-.05-2.61-.06-3.92-.03-2.62.06-5.24.25-7.85.49-2.63.24-5.26.49-7.87.81-1.29.16-2.58.36-3.86.62-1.21.24-2.41.52-3.62.78-1.2.26-2.41.5-3.62.67-.85.12-3.06.16-3.08.15-.02-.04-1.36.16-1.44.17.01.11,2.06,9.49,4.37,13.11,2.45,3.85,6.05,7.03,10.29,8.76,2.27.93,4.74,1.47,7.19,1.22,2.39-.25,4.73-1.09,6.89-2.13,4.15-2,7.57-5.29,9.71-9.36ZM89.28,266.26c.16.14.31.27.38.47.08.22.03.44-.04.65-.08.24-.17.49-.26.73-.43,1.21-.92,2.41-1.52,3.55-.24-.15-.46-.33-.67-.52-.57-.53-1.1-1.11-1.65-1.67-.21-.21-.41-.42-.62-.63-.08-.1-.17-.19-.25-.29-.32-.36-.64-.73-1.03-1.02-.36-.38-.73-.75-1.09-1.13-.99-1.03-2-2.03-2.99-3.06-.99-1.03-1.97-2.06-2.96-3.08-.5-.51-.99-1.03-1.49-1.54l-.59-.6c.08,0,.16.03.23.05.2.06.39.16.59.22.21.07.42.14.6.26.04.02.08.02.1,0,.05.02.09.05.14.07.22.1.43.22.65.33.13.07.26.13.4.2.92.47,1.83.95,2.74,1.45,1.46.8,2.91,1.62,4.33,2.49.58.33,1.16.65,1.74.98.89.51,1.8,1,2.64,1.6.21.15.41.3.6.47ZM90.89,259.78c.14.07.28.15.4.24,0,0,0,0,0,0,.03.33.06.66.06.98.02.78-.04,1.56-.16,2.33-.17.17-.37.32-.57.45-.16.1-.33.18-.5.25-.45-.03-.9-.16-1.32-.29-2.5-.75-4.84-1.85-7.17-3.02-1.16-.58-2.32-1.16-3.48-1.73-.59-.29-1.17-.58-1.76-.87-.27-.13-.55-.27-.82-.4-.01,0-.03-.02-.04-.02.65.04,1.31.05,1.97.09,1.22.08,2.44.24,3.66.39,1.25.16,2.5.31,3.75.48,1.45.19,2.9.38,4.36.55.24.06.48.13.72.21.3.11.62.21.91.35ZM76.83,257.08c2.61-.23,5.22-.39,7.84-.42,1.29-.01,2.59,0,3.88.06.66.03,1.31.07,1.96.1.27.57.43,1.19.56,1.8,0,0,0,0,0,.01-.02.04-.05.09-.08.13-.08.11-.18.2-.28.29-.04.03-.08.06-.12.08-.07,0-.14,0-.21.01-.47-.07-.94-.15-1.41-.22-.17-.04-.33-.08-.5-.1-.14-.02-.29-.05-.44-.04-2.43-.34-4.87-.67-7.3-1.02-1.21-.17-2.42-.34-3.65-.4-.72-.04-1.44-.06-2.16-.11.63-.06,1.27-.12,1.9-.17ZM55.77,262.37s-.09-.03-.13-.05c-.16-.07-.3-.15-.44-.24-.06-.05-.12-.09-.18-.14-.05-.11-.1-.22-.15-.33-.19-.46-.38-.94-.44-1.42,4.07-.24,5.43-.79,6.81-1.09,1.14-.25,2.28-.51,3.44-.73,1.24-.24,2.51-.43,3.78-.59.37-.05.74-.09,1.11-.14.08.04.14.1.18.17-.96.32-1.91.67-2.88.99-1.99.67-4.01,1.28-6.01,1.93-1.53.5-3.06,1.02-4.56,1.56-.18.03-.35.06-.53.08ZM58.39,267.52c-.36.18-.76.34-1.16.27-.39-.06-.71-.3-.94-.61-.25-.33-.41-.71-.56-1.08-.13-.31-.25-.62-.36-.94.07-.35.19-.69.37-1.01.13-.23.29-.44.47-.64.18-.19.39-.34.59-.53,0,0,0,0,0-.01.43-.16.85-.33,1.28-.49,2.11-.78,4.25-1.5,6.37-2.25,1.06-.38,2.12-.75,3.18-1.13.89-.32,1.79-.64,2.67-.99,0,.08-.01.17-.05.24-.08.18-.22.31-.35.44-.18.17-.36.33-.54.49-.69.62-1.4,1.21-2.13,1.8-1.42,1.15-2.89,2.25-4.37,3.33-.75.55-1.5,1.09-2.26,1.63-.72.52-1.44,1.06-2.23,1.46ZM58.25,272.91c-.31-.52-.63-1.05-.79-1.63-.15-.53-.22-1.23.16-1.68.03-.03.66-.63.91-.82.54-.41,1.08-.83,1.61-1.25,1.06-.83,2.11-1.68,3.15-2.54,2.07-1.71,4.11-3.45,6.11-5.23.15-.14.3-.27.46-.41.01,0,.03-.02.04-.02.21-.13.43-.26.64-.39.13-.08.29-.19.45-.19.08,0,.15.05.19.11-.66,1.25-1.32,2.5-2.01,3.72-1.4,2.48-2.87,4.92-4.25,7.41-.69,1.24-1.35,2.49-1.99,3.75-.31.6-.59,1.22-.91,1.81-.22.41-.48.81-.8,1.15-1.15-1.12-2.14-2.42-2.97-3.79ZM67.38,280.37c-1.09-.3-2.13-.8-3.09-1.39-.18-.11-.35-.23-.53-.35-.04-.23-.03-.48-.02-.7.04-.53.12-1.05.23-1.57.06-.29.14-.58.22-.87.12-.32.25-.64.38-.96,1.1-2.67,2.33-5.28,3.53-7.91.59-1.3,1.17-2.6,1.74-3.91.48-1.11.96-2.22,1.39-3.35,0,0,0,.01.01.02.18.32.16.72.13,1.08-.02.19-.04.38-.08.56-.05.25-.07.49-.1.74,0,.02,0,.03,0,.04-.03.14-.06.29-.08.43-.04.22-.09.45-.1.68-.02.11-.04.23-.06.34-.23,1.34-.43,2.68-.62,4.03-.38,2.68-.69,5.36-.94,8.05-.11,1.21-.19,2.42-.33,3.63.03.43.04.88-.29,1.21-.37.37-.93.3-1.39.17ZM74.38,281.26c-.34.02-.69.02-1.03,0-.91-.06-1.89-.24-2.72-.64-.45-.22-.76-.57-.86-1.07-.09-.48,0-.97.03-1.46.1-1.18.2-2.36.31-3.54.22-2.39.44-4.77.7-7.15.15-1.37.81-5.43.87-5.73.12-.57.25-1.14.4-1.7.07-.26.12-.53.22-.78.02.16.05.31.07.46.06.43.13.86.2,1.29.15.88.32,1.75.53,2.62.12.51.24,1.01.36,1.51.45,2.78.88,5.57,1.34,8.34.07.44.15.87.23,1.31.03.22.05.43.08.65.07.51.14,1.02.22,1.53.06.4.12.8.18,1.19.03.61,0,1.23-.13,1.83-.06.28-.13.56-.22.83-.25.18-.5.36-.77.51ZM78.71,279.92c-.43.27-.88.5-1.35.69,0,0,0,0,0,0-.26-.06-.98-.53-1-.57-.15-.32-.22-.67-.35-.99,0,0,0-.02-.01-.03-.03-.23-.06-.46-.09-.68,0-.37-.03-.74-.07-1.1-.16-1.58-.35-3.16-.56-4.73-.21-1.6-.41-3.2-.71-4.79-.3-1.59-.73-3.14-1.07-4.72-.08-.37-.16-.74-.23-1.11-.16-1.03-.31-2.06-.46-3.09.34.33.5.82.7,1.24,0,.01.01.02.02.03.18.37.33.75.49,1.12.24.59.47,1.17.69,1.76.44,1.19.85,2.38,1.26,3.58.83,2.43,1.65,4.85,2.64,7.22.29.7.58,1.4.88,2.1.14.34.29.68.43,1.02.15.36.34.72.41,1.1.01.07,0,.13-.05.18-.04.78-.97,1.38-1.57,1.76ZM82.43,277.48s-.08-.02-.11-.02c-.26-.06-.5-.19-.7-.37-.38-.34-.65-.8-.93-1.22-.27-.41-.53-.82-.77-1.25-.61-1.42-1.17-2.85-1.72-4.3-1.17-3.08-2.27-6.19-3.61-9.2-.1-.22-.21-.44-.31-.67-.02-.13-.05-.25-.08-.36-.06-.22-.13-.44-.2-.66-.1-.33-.2-.72-.02-1.05,0,0,.01-.01.01-.02.04.04.09.09.13.13.29.3.58.59.87.89.57.57,1.14,1.14,1.71,1.71,1.03,1.04,2.08,2.05,3.11,3.1,1.02,1.03,2.04,2.07,3.06,3.09.49.49.98.99,1.47,1.48.05.05.1.11.14.16.67.79,1.3,1.62,1.83,2.52.25.42.48.87.65,1.33,0,.12-.02.23-.04.34-.01.07-.03.14-.04.21-.07.1-.13.2-.2.3-1.1,1.57-2.53,3-4.26,3.87Z"/>
    <path class="st1" d="M76.37,280.08"/>
  </g>
  <g>
    <path class="st2" d="M5.59,20.3c.2.06.39.11.59.16.32.07.65.14.97.21,1.17.26,2.33.58,3.44,1.02.56.22,1.1.47,1.63.76.26.14.51.29.76.45.12.08.24.18.36.26-.02.02-.36.65-.36.65-.01.01-.06.06-.07.06-.02.02-.08.07-.09.07,0,0-.86.66-1.12.91-1.68,1.56-3.17,3.32-4.43,5.23-1.27,1.92-2.29,4-3.01,6.19-.73,2.23-1.13,4.57-1.18,6.92-.05,2.39.28,4.8,1.04,7.07.28.85.63,1.68,1.05,2.48-.56-.67-1.06-1.37-1.5-2.13-.58-1-1.04-2.07-1.44-3.16-.87-2.36-1.5-4.84-1.87-7.33-.38-2.53-.48-5.1-.22-7.65.23-2.24.75-4.47,1.59-6.56.42-1.04.91-2.06,1.49-3.02.29-.49.6-.97.94-1.44.33-.46.71-.95,1.29-1.05.06-.01.11-.04.14-.09Z"/>
    <path class="st2" d="M26.25,61.81c2.28-.29,4.53-.99,6.59-2,2.11-1.03,4.01-2.4,5.74-3.99.14-.13.27-.26.4-.39,0-.05.01-.09.06-.12.26-.14.27-.47.2-.72-.08-.29-.27-.56-.43-.82-.23-.58-.56-1.13-.87-1.67-.33-.56-.66-1.11-1.01-1.65-.7-1.1-1.45-2.17-2.23-3.23-1.55-2.11-3.21-4.15-4.9-6.15-1.7-2.01-3.42-4.02-5.18-5.98-.87-.97-1.78-1.91-2.72-2.81-.89-.85-1.81-1.68-2.71-2.52-.9-.84-1.79-1.69-2.62-2.59-.58-.63-1.89-2.41-1.89-2.43.02-.04-.91-1.02-.96-1.08-.09.07-6.59,7.13-8.23,11.09-1.75,4.21-2.28,8.99-1.28,13.45.54,2.39,1.51,4.73,3.13,6.59,1.57,1.81,3.61,3.25,5.69,4.42,4.01,2.25,8.67,3.17,13.24,2.58ZM29.51,57.58c-.02.21-.04.41-.17.59-.13.19-.34.28-.55.34-.25.07-.49.14-.74.21-1.24.34-2.5.63-3.78.79-.01-.28,0-.57.05-.85.11-.77.28-1.54.42-2.3.05-.29.11-.58.16-.87.03-.12.06-.25.09-.37.11-.46.23-.95.25-1.43.1-.51.2-1.03.3-1.54.27-1.4.51-2.81.79-4.21.27-1.4.56-2.8.83-4.2.13-.7.27-1.4.4-2.1l.15-.83c.04.07.07.14.09.22.06.2.09.41.15.61.06.21.12.42.14.64,0,.05.03.07.05.09,0,.05.02.1.02.15.04.24.07.48.1.72.02.15.04.29.06.44.14,1.02.27,2.05.39,3.08.18,1.65.35,3.32.44,4.98.07.66.13,1.33.19,1.99.1,1.02.22,2.05.2,3.08,0,.25-.02.51-.04.76ZM35.74,55.18c.02.15.04.31.03.46,0,0,0,0,0,0-.25.21-.5.42-.77.62-.63.46-1.3.87-2,1.2-.24-.05-.47-.12-.7-.21-.17-.07-.34-.16-.5-.27-.23-.39-.38-.83-.52-1.24-.82-2.47-1.26-5.03-1.64-7.6-.19-1.28-.38-2.56-.57-3.84-.1-.65-.2-1.29-.3-1.94-.05-.3-.09-.6-.14-.9,0-.02,0-.03,0-.05.34.56.71,1.1,1.05,1.66.64,1.05,1.21,2.13,1.78,3.22.59,1.11,1.18,2.23,1.76,3.35.68,1.3,1.36,2.6,2.05,3.89.09.23.17.47.24.71.09.31.18.62.23.94ZM29.89,42.13c1.68,2.01,3.32,4.05,4.84,6.18.75,1.05,1.48,2.12,2.18,3.21.35.55.69,1.11,1.04,1.67-.31.54-.73,1.04-1.15,1.49,0,0,0,0,0,0-.05,0-.1.01-.15.01-.14,0-.27-.03-.4-.07-.05-.01-.09-.03-.14-.05-.04-.06-.09-.11-.13-.17-.21-.43-.42-.85-.63-1.28-.06-.16-.13-.32-.21-.47-.07-.12-.13-.27-.22-.38-1.12-2.19-2.24-4.38-3.35-6.57-.55-1.09-1.11-2.18-1.76-3.22-.38-.61-.78-1.21-1.15-1.83.41.49.82.97,1.23,1.46ZM13.47,27.9s-.03-.09-.04-.13c-.04-.17-.05-.33-.05-.5,0-.08,0-.16.01-.23.06-.1.12-.21.19-.31.26-.42.55-.85.91-1.18,2.53,3.2,3.76,3.99,4.8,4.95.86.79,1.73,1.58,2.57,2.4.91.88,1.79,1.81,2.65,2.75.25.28.5.55.75.83.01.09,0,.17-.04.25-.82-.6-1.65-1.18-2.46-1.78-1.69-1.24-3.35-2.55-5.03-3.81-1.29-.97-2.59-1.92-3.9-2.84-.12-.13-.25-.26-.37-.39ZM10.75,33c-.35-.19-.71-.43-.89-.8-.17-.35-.16-.75-.04-1.12.13-.39.34-.74.56-1.08.18-.28.37-.56.56-.83.33-.15.68-.24,1.04-.27.26-.02.53-.02.79.02.26.04.51.13.77.18,0,0,0,0,.01,0,.38.26.76.51,1.13.77,1.85,1.28,3.66,2.62,5.5,3.92.92.65,1.83,1.31,2.75,1.96.77.55,1.55,1.1,2.35,1.62-.07.05-.14.08-.23.1-.19.04-.38,0-.56-.04-.24-.05-.48-.1-.72-.16-.9-.22-1.8-.46-2.69-.71-1.76-.5-3.5-1.07-5.24-1.67-.88-.3-1.76-.61-2.63-.91-.84-.29-1.69-.57-2.48-.99ZM6.26,35.98c.24-.55.5-1.12.88-1.58.35-.42.88-.89,1.47-.83.04,0,.89.18,1.19.27.65.2,1.3.4,1.95.6,1.29.39,2.59.76,3.88,1.12,2.58.72,5.18,1.39,7.79,2.01.2.05.4.09.6.14.01,0,.03.01.04.02.23.1.46.2.69.3.14.06.32.13.42.26.05.07.05.15.02.22-1.4.17-2.8.35-4.2.49-2.83.28-5.67.47-8.51.77-1.41.15-2.81.32-4.22.52-.67.1-1.33.22-2.01.29-.46.05-.94.07-1.4,0,.26-1.59.75-3.14,1.4-4.61ZM5.38,47.74c-.38-1.06-.57-2.21-.63-3.33-.01-.21-.02-.42-.02-.63.17-.17.37-.3.56-.42.45-.27.93-.51,1.42-.71.28-.11.56-.22.84-.31.33-.08.67-.16,1-.24,2.82-.64,5.67-1.12,8.51-1.65,1.4-.26,2.8-.53,4.2-.82,1.18-.24,2.37-.49,3.54-.79,0,0,0,.01,0,.02-.16.33-.5.55-.81.72-.17.09-.33.18-.51.26-.23.1-.44.22-.67.34-.01,0-.02.02-.03.03-.14.06-.27.12-.4.18-.2.09-.42.19-.62.31-.11.05-.21.1-.32.15-1.23.58-2.44,1.18-3.65,1.8-2.41,1.23-4.79,2.51-7.14,3.85-1.05.6-2.09,1.24-3.16,1.82-.33.28-.7.53-1.16.46-.51-.09-.78-.59-.94-1.03ZM8.67,53.99c-.21-.27-.41-.55-.58-.85-.47-.78-.89-1.69-1.03-2.6-.08-.5.03-.95.38-1.32.34-.35.79-.57,1.21-.81,1.02-.6,2.05-1.19,3.08-1.78,2.08-1.19,4.16-2.38,6.26-3.53,1.21-.66,4.91-2.45,5.19-2.57.54-.23,1.08-.44,1.62-.65.25-.1.5-.2.76-.27-.11.11-.23.22-.34.32-.32.3-.63.6-.94.9-.63.63-1.25,1.27-1.84,1.93-.35.39-.69.78-1.03,1.16-2.02,1.96-4.05,3.91-6.06,5.89-.32.31-.63.62-.94.93-.16.15-.33.29-.49.44-.38.35-.75.7-1.13,1.05-.29.27-.58.55-.87.83-.49.37-1.01.7-1.57.95-.26.11-.53.22-.81.3-.29-.1-.58-.21-.86-.34ZM12.26,56.77c-.47-.2-.91-.44-1.34-.71,0,0,0,0,0,0-.1-.25-.13-1.11-.11-1.14.17-.3.42-.56.61-.85,0,0,.01-.02.02-.02.17-.15.34-.31.5-.47.3-.22.59-.45.87-.69,1.2-1.04,2.38-2.1,3.56-3.17,1.19-1.09,2.39-2.17,3.52-3.33,1.12-1.16,2.16-2.39,3.25-3.58.26-.28.52-.55.78-.82.75-.72,1.51-1.43,2.27-2.15-.07.47-.39.88-.61,1.28,0,.01,0,.02-.01.04-.2.36-.42.7-.64,1.04-.34.53-.69,1.06-1.05,1.58-.72,1.04-1.47,2.06-2.21,3.08-1.52,2.07-3.03,4.14-4.4,6.3-.41.64-.81,1.28-1.22,1.93-.2.31-.39.63-.59.94-.21.33-.39.69-.66.97-.05.05-.11.07-.18.07-.66.41-1.69,0-2.34-.28ZM16.39,58.41s-.03-.07-.05-.11c-.1-.25-.13-.52-.1-.79.06-.5.28-.99.47-1.46.18-.45.37-.9.58-1.35.81-1.31,1.67-2.6,2.53-3.87,1.86-2.72,3.77-5.41,5.47-8.23.12-.21.25-.42.37-.64.09-.08.18-.19.25-.27.15-.17.29-.36.43-.54.22-.27.48-.57.84-.62,0,0,.02,0,.03,0-.01.06-.02.12-.03.18-.07.41-.15.81-.22,1.22-.15.79-.28,1.59-.42,2.38-.26,1.44-.49,2.88-.75,4.32-.26,1.43-.53,2.85-.78,4.28-.12.69-.25,1.37-.37,2.06-.02.07-.03.14-.05.21-.26,1-.58,2-1.01,2.94-.21.45-.44.89-.72,1.29-.1.06-.2.12-.3.16-.06.03-.13.06-.2.08-.12,0-.24,0-.36,0-1.92,0-3.91-.35-5.61-1.27Z"/>
    <path class="st1" d="M10.79,54.94"/>
  </g>
</svg>