<?xml version="1.0" encoding="UTF-8"?>
<svg id="Calque_1" xmlns="http://www.w3.org/2000/svg" version="1.1" viewBox="0 0 262.09 283.46">
  <!-- Generator: Adobe Illustrator 30.0.0, SVG Export Plug-In . SVG Version: 2.1.1 Build 123)  -->
  <defs>
    <style>
      .st0 {
        fill: #1d1d1b;
      }
    </style>
  </defs>
  <path class="st0" d="M25.8,199.3c-1.25,2.41-1.29,7.13.47,10.99.64,1.41,1.5,2.24,2.54,1.77l.15-.07c1.52-.7.8-3.62.31-7.23-.49-3.61-.12-6.81,3.56-8.5l.3-.14c5.26-2.41,8.2,1.96,9.89,5.67.87,1.91,1.41,4.27,1.88,5.29.27.6.55,1.2,1.02,1.52l.04.16c-2.24,1.28-4.47,2.55-6.72,3.8l-.11-.09c1.06-2.11.52-6.13-.63-8.64-.74-1.61-1.66-2.68-2.61-2.24-1.26.57-.76,2.37-.44,4.65.57,4.01,1.65,8.75-3.46,11.09l-.3.14c-4.9,2.24-8.18-1.28-10.06-5.41-1.7-3.71-1.44-5.99-2.03-7.28-.22-.48-.67-.99-1.11-1.16l-.04-.16,7.25-4.29.1.14Z"/>
  <path class="st0" d="M51.43,217.47l-.13.1c-.07.34-.27.78-.85,1.22-.13.1-.59.36-1.74.7l-13.96,3.88c-2,.57-4.66,1.26-6.71,1.04l-.13.1c1.74,2.31,3.47,4.59,5.22,6.89l.13-.1c.07-.34.27-.78.9-1.26.45-.34,1.08-.65,2.08-.96h.07s5.81,5.98,5.81,5.98l-.61,1c-.52.89-1.02,1.43-1.47,1.77-.63.48-1.11.55-1.46.52l-.13.1c1.75,2.31,3.47,4.59,5.22,6.89l.13-.1c.35-2.04,1.74-4.4,2.83-6.18l9.44-15.47-4.64-6.13ZM44.38,231.37l-3.47-3.55,6.79-1.92-3.32,5.48Z"/>
  <path class="st0" d="M69.33,237.26l-.11.12c-1.51.08-3.48,1.88-5.6,4.18l-6.06,6.57c-2.14,2.32-3.75,4.41-3.72,5.92l-.11.12-6.23-5.75.11-.12c1.51-.08,3.46-1.86,5.6-4.18l6.06-6.57c2.12-2.29,3.75-4.41,3.72-5.92l.11-.12,6.23,5.75Z"/>
  <path class="st0" d="M77.04,243.14l-.09.14c-.08.07-.15.18-.2.26-.53.83-.34,2.79-.32,3.5l.48,10.91,2.97-4.65c1.68-2.63,2.92-5,2.62-6.48l.09-.14,7.15,4.57-.09.14c-1.47.35-3.1,2.47-4.78,5.1l-4.81,7.53c-1.7,2.66-2.92,5-2.62,6.48l-.09.14-6.68-4.27.09-.14c.08-.07.15-.18.21-.26.53-.83.34-2.79.32-3.5l-.47-10.99-3.01,4.71c-1.7,2.66-2.92,5-2.62,6.48l-.09.14-7.15-4.57.09-.14c1.47-.35,3.08-2.44,4.78-5.1l4.81-7.53c1.68-2.63,2.92-5,2.62-6.48l.09-.14,6.7,4.28Z"/>
  <path class="st0" d="M88.59,274.97c1.38-.67,2.43-3.09,3.47-6.07l3.6-10.34c-2.64-.92-4.7-1.6-6.98-.76l-.14-.08,3.42-6.23h.18c.89.82,3.56,1.75,6.23,2.68l3.48,1.21c2.67.93,5.34,1.86,6.59,1.77l.13.12-1.18,7-.17-.02c-1.26-2.07-3.33-2.83-5.97-3.75l-3.6,10.34c-1.04,2.98-1.68,5.54-1.05,6.91l-.05.16-8.01-2.79.05-.15Z"/>
  <path class="st0" d="M120.89,270.03l.11.15-.71,4.65-3.87-.59-2.92-.44c-1.56-.24-3.26-.43-4.85-.44l-.14-.15.7-4.62,3.87.59,2.92.44c1.59.24,3.26.43,4.89.41Z"/>
  <path class="st0" d="M142.06,270.18l-4.78,8.14-5.63-7.55.24,7.86c.05,2.07.43,3.6,1.1,4.25v.16s-7.64.43-7.64.43v-.16c.58-.72.69-2.28.64-4.35l-.37-11.87c0-.53-.02-1.02-.05-1.55-.11-1.9-.36-3.44-1.46-4.89v-.16s6.29-.36,6.29-.36l6.33,8.34,5.39-9,6.3-.36v.16c-.92,1.57-1,3.15-.89,5.02.03.52.06,1.02.12,1.54l.96,11.83c.18,2.06.47,3.6,1.13,4.25v.16s-7.64.43-7.64.43v-.16c.58-.73.78-2.28.6-4.35l-.64-7.83Z"/>
  <path class="st0" d="M180.62,272.5c-1.82-.98-3.63-3.04-4.97-4.64l-11.69-13.85-7.29,2.46.05.16c.3.18.66.51.89,1.19.05.16.16.68.11,1.87l-.73,14.47c-.1,2.08-.28,4.81-1.14,6.7l.05.16c2.74-.93,5.45-1.84,8.19-2.77l-.05-.16c-.3-.18-.66-.51-.91-1.25-.18-.53-.28-1.23-.25-2.28v-.07s7.53-3.62,7.53-3.62l.75.89c.68.78,1.03,1.42,1.21,1.95.25.75.17,1.23.04,1.55l.05.16c2.74-.93,5.45-1.84,8.19-2.77l-.05-.16ZM163.16,269.72l.33-7.05,4.15,4.88-4.47,2.17Z"/>
  <path class="st0" d="M204.23,256.55c-1.73.66-4.9-.77-8.15-2.27l-.63-.3c1.41-2.41,1.7-5.11-.31-8.19-2.51-3.86-7.05-4.87-13.39-.74l-8.41,5.47.09.14c1.47.34,3.12,2.44,4.82,5.06l4.88,7.5c1.72,2.65,2.96,4.98,2.67,6.46l.09.14,7.11-4.63-.09-.14c-1.36-.29-2.88-2.13-4.45-4.48.81-.56,1.62-1.13,2.39-1.75l2.97,1.36c3.33,1.56,5.38,1.4,7.97-.28,1.18-.77,2.12-1.93,2.51-3.2l-.09-.14ZM186.13,256.95l-4.09-6.28,1.96-1.27c2.76-1.79,4.96-1.85,6.14-.03,1.87,2.87-1.05,5.51-4.01,7.59Z"/>
  <path class="st0" d="M211.97,250.42c0-1.53-1.73-3.53-3.97-5.75l-7.77-7.72c-1.97,1.98-3.48,3.55-3.7,5.96l-.14.09-4.13-5.77.07-.16c1.14-.45,3.13-2.45,5.12-4.46l2.6-2.61c1.99-2.01,3.98-4.01,4.45-5.18l.16-.07,5.8,4.1-.09.14c-2.42.24-3.99,1.78-5.96,3.76l7.77,7.72c2.24,2.22,4.27,3.91,5.78,3.93l.12.12-5.98,6.02-.12-.12Z"/>
  <path class="st0" d="M211.36,215.96l.13.1c.26,1.49,2.28,3.24,4.81,5.07l7.24,5.25c2.56,1.85,4.82,3.21,6.32,2.99l.13.1-4.98,6.87-.13-.1c-.26-1.49-2.26-3.22-4.81-5.07l-7.24-5.25c-2.53-1.83-4.82-3.21-6.32-2.99l-.13-.1,4.98-6.87Z"/>
  <path class="st0" d="M216.35,207.58l.15.07c.07.07.19.13.28.17.88.44,2.81.03,3.51-.06l10.8-1.68-4.95-2.44c-2.8-1.38-5.29-2.35-6.73-1.89l-.15-.07,3.75-7.61.15.07c.51,1.42,2.79,2.81,5.6,4.19l8.02,3.95c2.83,1.4,5.29,2.35,6.73,1.89l.15.07-3.5,7.11-.15-.07c-.07-.07-.19-.13-.28-.18-.88-.44-2.81-.03-3.51.07l-10.87,1.68,5.01,2.47c2.83,1.4,5.29,2.35,6.73,1.89l.15.07-3.75,7.61-.15-.07c-.51-1.42-2.77-2.79-5.6-4.19l-8.02-3.95c-2.8-1.38-5.29-2.35-6.73-1.89l-.15-.07,3.52-7.14Z"/>
  <g>
    <path class="st0" d="M137.32,24.9c1.32,2.6,3.68,5.67,6.77,6.13.85.12,1.2.1,2.05-.05,1.22-.21,2.62-.72,3.73-1.29.83-.42,1.34-.94,2-1.6.93-.93,1.7-1.59,1.77-2.94.05-.83-.07-1.04-.37-1.85-.36-.97-.62-2.02-.8-3.04-.22-1.24-.44-2.69-.9-3.87-.65-1.66-2.01-3.06-3.54-3.94-1.21-.7-2.47-1.46-3.53-2.38-.82-.71-1.93-1.21-3.03-.94-.33.08-.89.38-1.18.57-.81.53-1.3,1.26-1.88,2.03-1.73,2.3-2.94,4.28-2.78,7.22.12,2.24.67,3.95,1.69,5.95Z"/>
    <path class="st0" d="M49.91,94.82c1.61-.39,2.13-.41,3.69.14.57.2.95.36,1.55.32,1.81-.12,3.95-2.27,4.77-3.82.38-.73.74-1.76,1.01-2.55.6-1.71,1.15-3.1,2.05-4.67.35-.6.95-1.84.95-2.54,0-.36-.25-.87-.54-1.08-2.59-1.97-8.98,2.52-10.94,3.97-1.85,1.38-5.06,4.4-5.94,6.47-.51,1.19-.7,2.61.35,3.56.82.74,2.08.44,3.05.2Z"/>
    <path class="st0" d="M154.84,64.61c-1.82,0-2.52.24-4.25.88-2.49.93-7.13,3.47-8.29,5.88-1,2.07-.61,3.67.09,5.8.3.89.61,1.86,1.26,2.56,1.14,1.24,3.66,1.42,5.22,1.61,3.29.41,5.87.97,9.08,1.87.72.2,1.6.47,2.33.6.29.05.94.08,1.19-.09.68-.5,1.2-3.8,1.28-4.62.24-2.36.16-5.83-.5-8.09-.79-2.73-2.54-5.21-5.3-6.18-.72-.25-1.34-.22-2.1-.22Z"/>
    <path class="st0" d="M165.9,78.53c0,1.18-.14,3.27.47,4.34.71,1.22,2.4,1.78,3.65,2.24,1.17.43,2.36.89,3.51,1.39.63.27,1.48.66,2.14.84.7.19,1.12-.05,1.77-.36,1.39-.65,2.17-1.91,3.04-3.13,1.17-1.65,2.26-3.17,2.77-5.15.2-.77.19-2.41-.01-3.19-1.01-3.85-5.18-6.27-8.79-7.18-1.11-.28-1.82-.28-2.98-.28-1.68,0-2.42.01-3.92.73-.8.38-1.48.88-1.88,1.7-.55,1.11-.36,2.02-.1,3.21.37,1.73.34,3.08.35,4.85Z"/>
    <path class="st0" d="M160.89,187.36c1.73.7,3.88.65,5.72.69,1.81.04,3.25,0,4.99.46,1.12.3,2.28.69,3.38,1.07,2.43.85,5.02,1.52,7.57,1.83,2.39.29,4.62-.98,6.13-2.75,2.69-3.14,4.33-7.44,5.26-11.42.64-2.77,1.06-7.11.36-9.84-.98-3.83-4.43-4.95-8.05-4.95-2.24,0-4.39.29-6.61.58-1.94.25-3.58.31-5.54.31-1.48,0-3.13,0-4.6-.16-1.99-.21-4.67-.38-6.49.64-1.84,1.03-2.81,2.83-3.78,4.64-.65,1.21-1.44,2.51-2.25,3.62-.91,1.26-1.64,2.28-2.12,3.76-.3.9-.28,1.38-.29,2.35,0,1.73.15,2.24.92,3.79,1.01,2.05,3.29,4.51,5.41,5.37Z"/>
    <path class="st0" d="M201.42,133.95c.43.48,1.32,1.04,1.95,1.18.76.18,2.09.09,2.85-.1,2.51-.64,4.8-2.41,5.42-5.01.29-1.24.06-3.55-.23-4.81-.51-2.2-1.5-6.1-3.79-7.15-.98-.45-2.11-.39-3.14-.2-1.22.23-3.65.91-4.56,1.71-.24.21-.57.77-.72,1.07-.33.67-.38.75-.38,1.48,0,1.96.37,4.68.69,6.63.26,1.6.77,3.95,1.9,5.19Z"/>
    <path class="st0" d="M187.41,74.05c.43.45.68.6,1.26.83.83.33,1.72.81,2.5,1.24.62.34,1.47.81,2.13,1.04,1.63.57,3.14-.14,4.31-1.3.79-.77,1.19-1.39,1.24-2.5.02-.5.01-.77-.16-1.24-1.19-3.17-7-5.69-10.22-5.89-1.22-.07-2.44.05-3.34.95-.66.67-.7,1.01-.7,1.96,0,.75-.03.87.29,1.51.51,1.02,1.89,2.55,2.69,3.39Z"/>
    <path class="st0" d="M199.32,145.27c.23-1.74.2-5.04-.05-6.78-.44-3.05-1.62-7.23-4.38-9.01-3.03-1.96-11.55-.27-14.82.3-3.36.58-6.86,1.17-10.24,1.61-1.04.13-2.08.3-3.12.47-1.13.19-2.83.4-3.9.72-1.64.5-2.47,1.29-3.41,2.7-1.1,1.65-1.86,3.44-2.59,5.27-.92,2.32-2.04,4.8-2.02,7.33.03,2.92,1.4,4.97,3.43,6.98,2.15,2.12,4.15,3.44,7.15,3.94,2.06.34,5.57-.06,7.65-.31,3.63-.43,7.43-.58,11.07-.34,2.21.14,5.34.52,7.52-.03,5.31-1.35,7.07-8.16,7.7-12.84Z"/>
    <path class="st0" d="M78.95,79.21c.53,1.57,1.43,2.93,2.37,4.28.88,1.26,1.84,2.8,3.27,3.48.3.14.72.35,1.02.45.59.15,2.15-.59,2.67-.82,1.13-.49,2.31-.94,3.46-1.38,1.34-.5,3.17-1.06,3.94-2.37.62-1.05.44-2.97.45-4.15,0-1.79-.02-3.15.36-4.91.26-1.2.47-2.16-.09-3.29-.62-1.25-1.9-1.86-3.18-2.23-.9-.26-1.7-.23-2.63-.22-1.18,0-1.88,0-3.01.29-2.61.65-4.99,1.89-6.84,3.87-.83.88-1.34,1.62-1.75,2.76-.29.8-.26,1.26-.26,2.13,0,.79-.02,1.36.23,2.11Z"/>
    <path class="st0" d="M74.08,101.77c-3.1,4.13-6.82,10.25-7.35,15.5-.31,3.05.9,5.21,3.83,6.22,2.05.71,5.46,1.09,7.63,1.39,4.11.57,8.16,1.14,12.23,1.9,1.76.33,3.57.67,5.35.91,1.65.22,4.05.33,5.67-.08,2.21-.57,4.37-2.14,6.07-3.62,1.99-1.73,4.19-4.62,4.96-7.14.58-1.89.43-4.19.01-6.1-.28-1.3-.73-2.66-1.14-3.92-.69-2.14-1.42-4.27-2.17-6.39-.87-2.45-1.43-4.38-1.93-6.92-.25-1.28-.57-3.16-1.3-4.27-.78-1.21-1.83-1.79-3.23-2.09-1.3-.28-3.91-.08-5.24.18-4.96.99-10.66,3.47-14.85,6.31-3.1,2.11-6.3,5.12-8.55,8.12Z"/>
    <path class="st0" d="M66.57,77.21c.43.15.78.15,1.23.12,1.26-.07,2.07-.58,3.16-1.2.72-.42,1.55-.86,2.32-1.18.9-.37,1.07-.42,1.68-1.13.96-1.12,2.37-2.47,2.75-3.93.28-1.08,0-2.09-.85-2.84-1.6-1.41-4.62-.72-6.41-.13-2.1.7-4.05,1.76-5.63,3.33-.94.93-1.54,1.63-1.54,2.98,0,.63.02.79.28,1.35.52,1.1,1.86,2.22,3,2.63Z"/>
    <path class="st0" d="M127.63,10.54c.66.64,1.22,1.09,2.1,1.37.59.19,2.28.15,2.87-.05,1.61-.57,3.61-2.84,4.07-4.47.33-1.17.48-3.46-.22-4.47-.38-.56-2.05-1.83-2.66-2.19-1.12-.66-1.49-.71-2.8-.71h-1.22l-.81.4c-.74.36-2.87,1.87-3.3,2.52-.55.84-.7,1.55-.7,2.55,0,.75,0,1,.27,1.67.47,1.15,1.5,2.52,2.4,3.39Z"/>
    <path class="st0" d="M109.64,27.63c1.78,1.69,3.87,2.89,6.29,3.35,2.52.48,4.78-.68,6.46-2.51,1.9-2.08,3.48-5.19,3.96-7.97.18-1.04.24-2.98,0-3.99-.37-1.57-2.23-4.6-3.43-5.67-.59-.53-1.92-1.37-2.73-1.44-1.01-.09-2.51.96-3.33,1.45-.77.45-1.6.98-2.4,1.38-.74.37-1.91,1.24-2.46,1.86-1.46,1.62-1.82,3.32-2.19,5.43-.29,1.65-.54,2.82-1.17,4.35-.27.65-.34.75-.28,1.43.09,1.06.52,1.61,1.28,2.33Z"/>
    <path class="st0" d="M108.52,52.63c.36,1.03,1.11,3.34,2.18,3.88.47.24.97.02,1.44-.14,1.69-.59,5.13-3.35,6.22-4.8,2.03-2.69,2.8-5.35,1.82-8.63-.19-.63-.38-1.26-.57-1.89-.24-.82-.43-1.78-.56-2.62-.18-1.11-.32-2.09-1.15-2.9-1.52-1.48-8.26-3.82-10.32-3.39-1.08.22-1.33.83-1.65,1.85-.26.82-.26,1.26-.25,2.14.04,4.89,1.24,11.89,2.85,16.51Z"/>
    <path class="st0" d="M100.79,83.83c.64.15,2.16-.3,2.77-.47,3.39-.94,6.06-1.54,9.54-2,1.65-.22,4.15-.35,5.34-1.67.95-1.05,1.93-4.41,1.93-5.83,0-.78-.29-1.77-.63-2.48-1.55-3.24-8.98-6.82-12.5-6.82-3.77,0-6.38,2.83-7.4,6.28-.89,3.03-.94,9.19.27,12.11.13.3.32.79.68.88Z"/>
    <path class="st0" d="M181.66,89.22c.01.32.04.65.12.97.39,1.55,3.36,4.12,4.48,5.17.87.82,2.2,2.24,3.38,2.58.63.18,1.48.25,2.11.04,1.35-.45,4-2.86,4.78-4.07.76-1.19,1.07-2.44.78-3.84-.53-2.61-2.49-5.54-4.33-7.44-1-1.03-1.93-1.92-3.23-2.55-.65-.31-.73-.34-1.45-.33-.34,0-.68.03-1,.13-1.19.4-2.57,2.62-3.22,3.59-.78,1.16-1.74,2.67-2.19,4-.24.73-.25.97-.22,1.75Z"/>
    <path class="st0" d="M116.88,57.48c-.54.8-2.37,3.3-2.12,4.34.05.21.17.41.29.59.18.26.56.62.81.82.91.72,2.81,1.03,3.91,1.28.81.18,1.75.38,2.54.63.47.15,1.16.19,1.61-.01.35-.16.88-.56,1.19-.81,1.89-1.5,3.53-1.94,5.94-1.94,2.41,0,4.16.47,6.04,1.98.58.47.93.82,1.68.9.44.05.93-.09,1.35-.21.81-.23,1.65-.42,2.48-.6.98-.21,3.21-.7,4.04-1.21.6-.37.74-.82.73-1.51-.02-.92-.34-1.88-.84-2.65-1.19-1.85-2.73-3.66-4.27-5.22-2.71-2.76-4.01-3.95-7.86-4.37-2.34-.25-6.37-.19-8.66.29-2.26.48-4.05,2.25-5.63,3.82-1.36,1.37-2.16,2.28-3.24,3.86Z"/>
    <path class="st0" d="M69.44,157.8c1.97.8,4.64.64,6.72.46,1.8-.16,3.79-.15,5.6-.15,2.59,0,4.62.08,7.19.37,1.2.14,2.4.28,3.6.41,1.07.11,3.05.09,4.1-.08,2.44-.4,4.1-1.24,5.99-2.82,1.85-1.55,3.72-3.68,4.36-6.06.33-1.23.3-3.18-.01-4.41-.48-1.88-1.43-4.17-2.17-5.97-.82-2.01-2.4-5.47-4.48-6.49-1.53-.75-3.8-.99-5.47-1.24-4.19-.63-8.39-1.25-12.57-1.97-3.39-.58-7.29-1.27-10.72-1.28-1.63,0-3.4.15-4.75,1.16-.28.21-.53.45-.77.7-2.43,2.62-3.18,6.38-3.45,9.83-.31,3.91.44,9.02,2.11,12.57.97,2.07,2.55,4.11,4.72,4.99Z"/>
    <path class="st0" d="M113.93,201.07c2.54,1.98,3.77,2.91,6.78,3.92,1.61.54,3.3.89,4.99,1.04,1.69.15,3.77.08,5.48.07,2.25-.02,4.28-.02,6.51-.32.82-.11,2.07-.27,2.84-.52,1.49-.49,3.91-1.76,5.27-2.57,2.47-1.48,6.99-5.24,8.77-7.48,1.06-1.33,1.76-2.56,1.75-4.28,0-2.39-1.27-3.78-3.19-5.06-1.68-1.12-2.95-1.78-4.93-2.13-1.67-.29-4.64-.11-6.37-.03-.84.04-1.68.1-2.52.17-2.69.24-5.62.21-8.32.21-2.7,0-5.63.03-8.31-.21-1-.09-2-.15-3-.19-1.58-.07-4.06-.23-5.6,0-1.91.27-3.46,1.01-5.06,2.07-1.42.93-2.58,1.93-3.11,3.58-.26.81-.32,2.07-.1,2.89.88,3.3,5.55,6.87,8.1,8.86Z"/>
    <path class="st0" d="M127.22,46.27c1.01.21,3.11.12,4.17.11.76,0,3.24.07,3.96-.19,1.48-.53,2.3-1.57,2.97-2.95,1.74-3.58,1.14-5.8-.74-9.23-1.28-2.34-2.55-4.67-3.64-7.11-.31-.71-1.43-3.45-2.23-3.75-.26-.1-1.24-.04-1.46.07-.56.41-1.47,2.36-1.75,3.01-1.08,2.45-2.35,4.92-3.64,7.26-1.17,2.12-2.13,3.8-2.01,6.26.07,1.45.38,2.33,1.03,3.64.7,1.43,1.74,2.54,3.35,2.87Z"/>
    <path class="st0" d="M198.22,81.57c-.12.58.73,2.31,1.02,2.82.9,1.55,1.41,2.89,2,4.59.28.8.63,1.77,1.02,2.53.69,1.33,2.53,3.15,3.95,3.64.88.31,1.45.11,2.33-.19.48-.16,1.36-.44,1.85-.44.51,0,1.36.2,1.86.31,1.27.29,2.69.57,3.48-.71.31-.5.24-.71.24-1.33,0-.9.02-.95-.36-1.75-1.59-3.32-5.56-6.39-8.61-8.3-1.69-1.05-6.09-3.61-8.11-2.22-.31.21-.58.69-.66,1.05Z"/>
    <path class="st0" d="M135.14,67.66c-1.32-.88-2.56-1.04-4.14-1.04-2.43,0-4.27.62-5.65,2.69-.83,1.25-1.5,2.88-2.05,4.28-.39.99-1.38,3.34-1.01,4.43.13.39.65,1.24,1.02,1.41.62.28,1.48,0,2.13-.13,1.83-.37,3.7-.64,5.57-.64s3.52.25,5.39.6c.5.09,1.98.41,2.45.14.24-.14.47-.52.61-.75.13-.21.24-.43.31-.66.38-1.26-.81-3.9-1.27-5.05-.71-1.74-1.71-4.19-3.35-5.28Z"/>
    <path class="st0" d="M70.46,98.06c.39.11,1.74-.04,2.14-.17,1.1-.35,3.49-2.81,4.31-3.61.93-.91,3.08-2.84,3.4-4.16.08-.32.1-.66.1-.98.01-.99-.16-1.61-.57-2.51-.69-1.52-2.84-4.83-4-6-1.57-1.58-3.39-.88-4.98.31-1.12.84-2.76,2.66-3.58,3.81-.86,1.21-1.89,3.09-2.34,4.49-.71,2.2-.11,4.03,1.4,5.72.86.96,2.93,2.71,4.12,3.09Z"/>
    <path class="st0" d="M61.71,97.6c-.73,0-.84-.01-1.47.3-1.08.53-1.8,1.66-2.37,2.67-1.14,2.02-2.68,5.54-2.69,7.86,0,1.56.52,2.56,1.62,3.66.99,1,2.58,1.99,3.98,2.17,1.16.15,2.11-.16,2.96-.96,1.49-1.4,2.65-4.32,3.47-6.14.42-.92,1.46-2.93,1.34-3.98-.12-1.1-.33-1.43-1.13-2.21-1.04-1.02-2.73-2.36-4.03-2.99-.78-.38-.82-.4-1.69-.4Z"/>
    <path class="st0" d="M51.09,123.47c-.87,2.99-1.58,6.7.74,9.24,1.02,1.12,2.71,2.06,4.19,2.38,1.19.26,2.73.22,3.79-.46,2.48-1.58,2.83-6.35,3.12-8.95.12-1.08.29-2.39.29-3.47,0-.7-.02-.81-.32-1.44-.35-.74-.7-1.27-1.45-1.65-1.04-.52-2.46-.97-3.6-1.2-1.85-.38-3.33-.37-4.67,1.08-1.11,1.21-1.65,2.92-2.09,4.47Z"/>
    <path class="st0" d="M74.75,189.97c1.02.77,1.85,1.21,3.11,1.4.95.14,1.29.09,2.26-.04,2.54-.34,4.93-1.01,7.34-1.88.97-.35,1.99-.68,2.98-.94,1.74-.46,3.19-.42,4.99-.46,1.92-.04,4,.02,5.8-.73,1.18-.49,2.14-1.29,3.03-2.2,2.9-2.94,4.29-6.6,2.44-10.49-.37-.78-1.06-1.76-1.58-2.47-.77-1.05-1.54-2.26-2.15-3.41-.75-1.41-1.45-2.77-2.6-3.89-2.16-2.13-5-1.96-7.83-1.67-1.45.15-3.09.16-4.54.16-2.2,0-3.87-.09-6.05-.37-3.02-.38-6.55-.97-9.53-.1-1.3.38-2.07.72-3.04,1.69-.92.91-1.39,1.82-1.69,3.09-.39,1.64-.3,5.26-.05,6.96.69,4.77,3.1,12.32,7.11,15.36Z"/>
    <path class="st0" d="M139.34,151.15c-2.71-.13-5.45-.28-8.16-.29-2.8,0-5.63.16-8.43.29-4.01.19-7.32.75-10.27,3.62-2.19,2.13-4.38,5.69-5.03,8.69-.27,1.27-.27,3.45.04,4.71.33,1.33,1.16,2.94,1.99,4.03,1,1.32,3.13,3.38,4.47,4.34,3.81,2.72,9.87,3.95,14.47,4.18,5.09.26,10.33-.24,15.17-1.91,3.18-1.1,5.48-2.76,7.78-5.22,2.51-2.68,3.89-5.72,3.33-9.41-.32-2.09-1.31-4.31-2.45-6.09-3.37-5.22-6.75-6.65-12.9-6.94Z"/>
    <path class="st0" d="M88.26,212.14c1.84,1.49,4.78,3.38,7.16,3.76.82.13,2.25.05,3.05-.16,2.63-.67,6.18-3.52,8.04-5.45,2.25-2.34,3.26-4.54,1.73-7.62-.89-1.79-2.54-3.51-3.9-4.95-.91-.97-1.84-1.95-2.72-2.94-.75-.85-1.64-1.65-2.67-2.13-1.07-.5-2.23-.28-3.32,0-1.58.41-3.06.38-4.69.43-1.14.03-2.9,0-4.01.29-1.7.46-3.19,1.15-4.65,2.14-3.61,2.44-3.44,5.59-1.13,8.99,1.6,2.35,4.89,5.84,7.11,7.63Z"/>
    <path class="st0" d="M111.39,90.61c-.28,1.27-.1,3.79.13,5.1.69,3.97,2.29,9.27,4.02,12.9.84,1.77,2.19,3.73,3.86,4.83,1.35.88,3.61,1.44,5.21,1.64.65.08,1.59.05,2.26.06,1.52.02,3.03.02,4.55.01,1.66,0,3.32,0,4.98-.04.6-.02,1.21-.03,1.8-.14.15-.02.29-.05.44-.08,2.15-.44,3.81-1.04,5.38-2.61,2.5-2.52,3.69-6.39,4.78-9.68.92-2.77,1.86-6.47,2.01-9.36.16-3.09-.83-5.67-3.46-7.42-2.03-1.35-4.26-2-6.58-2.66-4.28-1.22-6.1-1.45-10.56-1.37-3.64.06-5.17.31-8.67,1.31-2.4.68-4.84,1.4-6.93,2.81-1.71,1.16-2.76,2.7-3.2,4.72Z"/>
    <path class="st0" d="M184.03,97.41c-.78-.73-1.61-1.49-2.45-2.16-4.95-3.97-13.49-7.99-19.84-8.21-1.76-.06-3.51.02-4.88,1.24-1.43,1.27-1.72,3.51-2.09,5.3-.53,2.59-1.08,4.48-1.97,6.98-1.09,3.06-2.28,6.41-3.09,9.55-.52,2.02-.76,4.39-.23,6.44.67,2.58,3.12,5.81,5.15,7.54,2.09,1.79,4.39,3.36,7.18,3.74,2.68.36,7.48-.63,10.13-1.11,2.85-.52,5.75-.98,8.62-1.38,1.93-.27,3.86-.54,5.79-.81,1.47-.21,3.73-.56,5.11-1.04,1.23-.42,2.28-1.04,3.01-2.14,1.27-1.89.94-4.34.41-6.43-1.5-5.94-6.4-13.3-10.86-17.51Z"/>
    <path class="st0" d="M106.88,132.67c-.78,3.69,1.74,8.27,4.21,10.85,2.01,2.09,3.67,3.05,6.48,3.77,1.91.49,3.71.69,5.68.76,3.03.11,6.16.06,9.19.05,1.99,0,3.99,0,5.98-.05.86-.02,1.75-.04,2.61-.14,2.24-.26,4.23-.66,6.26-1.66,1.58-.78,2.49-1.54,3.71-2.8,2.07-2.15,3.55-4.83,4.15-7.76.6-2.93-.78-5.62-2.33-8.01-1.75-2.69-4.62-5.9-7.51-7.35-2.02-1.01-3.91-1.31-6.15-1.46-2.78-.19-5.91-.09-8.71-.07-1.91,0-3.81.02-5.72.06-.97.02-2.18,0-3.13.11-4.02.48-6.22,1.78-9.08,4.65-2.16,2.17-5.01,6.09-5.64,9.07Z"/>
    <path class="st0" d="M196.94,111.53c.6,1.02,1.53,2.24,2.7,2.63.3.1.97.09,1.29.08.73-.02,1-.05,1.66-.34,1.29-.56,3.06-1.83,3.7-3.09,1.28-2.53,0-5.8-1.06-8.17-.67-1.49-1.89-3.98-3.44-4.74-.64-.31-.75-.3-1.48-.3-.89,0-.9.01-1.7.41-1.16.57-3.92,2.59-4.63,3.63-.25.37-.54,1.47-.54,1.92,0,.21.13.61.2.82.39,1.16,1.06,2.51,1.58,3.63.52,1.13,1.1,2.46,1.72,3.53Z"/>
    <path class="st0" d="M151.58,32.66c-1.57.23-2.76.61-4.22,1.23-.98.41-2.29,1.01-3.01,1.81-.79.88-.8,1.52-1,2.69-.19,1.14-.49,2.37-.82,3.48-.51,1.66-.77,2.5-.69,4.21.15,3.17,1.87,5.37,4.05,7.54.95.95,1.53,1.6,2.85,1.95,1.9.5,3.42-.45,4.47-2.02.89-1.33,1.12-2.29,1.53-3.86,1-3.85,1.66-7.98,1.93-11.95.11-1.69.21-3.02-1-4.32-1.07-1.14-2.65-.97-4.07-.77Z"/>
    <path class="st0" d="M195.28,203.64c-1.35-.89-4.19-2.44-5.84-2.45-.3,0-.6.01-.89.09-1.19.31-2.89,2.45-3.65,3.33-.99,1.16-2.32,2.63-2.99,4.01-.98,2.02-.67,3.86.65,5.65,1.3,1.77,4.02,4.2,6.11,4.87.69.22,1.99.24,2.69.03,2.38-.7,4.56-3.23,5.87-5.23,2.92-4.45,2.56-7.34-1.95-10.31Z"/>
    <path class="st0" d="M205.9,185.07c-1.43-1.13-5.14-2.99-6.94-2.98-.39,0-1.04.15-1.43.25-.64.17-.76.16-1.19.62-.36.39-.68,1.02-.89,1.5-.55,1.24-1.19,2.48-1.8,3.69-.7,1.39-1.67,3.12-1.78,4.7-.12,1.72.56,2.99,1.75,4.19,1.43,1.45,4.23,3.15,6.26,3.36,3.54.37,5.36-2.16,6.75-5.08.6-1.26,1.09-2.52,1.33-3.9.44-2.52,0-4.73-2.06-6.36Z"/>
    <path class="st0" d="M178.27,217.21c-.75-.76-2.14-2.14-3.34-1.82-1.11.34-6.42,4.26-7.38,5.21-.83.83-1.45,1.79-1.63,2.96-.36,2.35,1.59,4.86,3.13,6.4,1.07,1.08,2.26,1.99,3.72,2.46,1.36.44,2.81.02,4.03-.62,1.61-.84,3.87-2.69,4.89-4.19.82-1.2,1.19-2.69.89-4.13-.42-2-2.91-4.86-4.31-6.28Z"/>
    <path class="st0" d="M169.64,214.82c2.92-1.44,5.17-3.47,7.43-5.79,1.84-1.88,4.16-4.5,5.11-6.99.32-.85.32-1.09.33-2.02,0-.96.06-1.03-.33-1.86-.74-1.55-2.07-2.5-3.53-3.33-1.11-.63-2.31-1.12-3.55-1.45-1.11-.3-2.87-.26-4.01-.29-1.55-.04-3.12-.02-4.63-.4-.88-.22-1.63-.46-2.53-.3-1.4.25-2.59,1.37-3.5,2.39-.77.86-1.57,1.71-2.36,2.55-1.49,1.58-3.32,3.41-4.31,5.37-1.67,3.3-.07,5.88,2.41,8.23,2.11,2,5.35,4.53,8.3,5,.67.11,2.4-.07,3.06-.25.65-.18,1.49-.56,2.1-.87Z"/>
    <path class="st0" d="M143.65,234.56c-.46-.8-1.25-1.15-2.13-1.29-1.01-.16-4.08.04-5.09.28-1.28.3-2.43,1.01-3.03,2.22-.68,1.39-.68,2.48-.63,4.02.07,2.23.27,4.34,2.28,5.65.79.51,1.75.7,2.67.8,1.39.14,4.26.02,5.49-.58.28-.14.7-.46.92-.69,1.07-1.15,1.17-2.66,1.01-4.15-.15-1.39-.83-5.13-1.47-6.25Z"/>
    <path class="st0" d="M158.6,226.49c-1.09.25-2.55.86-3.62,1.26-1.11.42-2.43.88-3.49,1.4-1.07.53-2.26,1.43-2.77,2.55-.71,1.53-.45,3.24.06,4.79.76,2.26,2.17,4.93,4.69,5.53.68.16,2.27.08,2.97-.06,2.52-.48,6.76-2.49,7.91-4.85.94-1.93.56-3.94-.32-5.82-.73-1.55-3.36-5.28-5.43-4.8Z"/>
    <path class="st0" d="M210.1,162.71c-1.66-.8-4.89-1.25-6.77-1.26-1.09-.01-1.81.02-2.63.77-1.25,1.14-1.48,3.51-1.7,5.08-.17,1.19-.39,2.44-.66,3.61-.25,1.08-.35,1.77-.35,2.87,0,.9-.08,1.1.29,1.87.98,1.99,3.56,2.64,5.58,2.88.98.12,2.88.11,3.83-.09,1.4-.29,2.75-1.34,3.49-2.55,1.44-2.37,2.1-7.39,1.49-10.09-.31-1.37-1.3-2.49-2.55-3.09Z"/>
    <path class="st0" d="M151.12,225.64c2.43-1.28,5.75-3.23,5.54-6.41-.2-2.93-4-6.07-6.06-7.79-1-.83-2.48-2.17-3.72-2.61-1.61-.57-3.96.04-5.56.38-3.39.73-6.66.61-10.12.62-2.66,0-5.66.1-8.3-.25-.9-.12-1.79-.3-2.68-.48-2.1-.43-4.26-.96-6.16.3-1.96,1.3-5.6,4.5-7.05,6.32-1.43,1.79-2.31,4.03-.97,6.12,1.91,2.97,8.11,5.42,11.31,6.48,3.99,1.32,8.13,2.33,12.34,2.52,2.37.11,5.23-.13,7.57-.56,4.57-.84,9.78-2.46,13.88-4.62ZM122.84,222.76c-1.33,0-2.4-1.08-2.4-2.4s1.08-2.4,2.4-2.4,2.4,1.08,2.4,2.4-1.08,2.4-2.4,2.4ZM130.64,222.53s-.04.08-.08.08h-4.15s-.08-.04-.08-.08v-4.34s.04-.08.08-.08h2.11s.08.04.08.08v2.24s.04.08.08.08h1.88s.08.04.08.08v1.93ZM133.96,222.61h-2.12s-.08-.04-.08-.08v-4.34s.04-.08.08-.08h2.17c1.31,0,2.36,1.13,2.24,2.46-.11,1.17-1.12,2.04-2.3,2.04ZM136.69,222.51l2.4-4.38c.03-.06.12-.06.15,0l2.41,4.38c.03.06,0,.13-.08.13h-4.81c-.07,0-.11-.07-.08-.13Z"/>
    <path class="st0" d="M225.6,105.76c-.85-.43-1.23-.38-2.15-.13-.16.04-.63.18-.73.33-.16.25.19,1.35.27,1.6,1.16,3.6,1.27,7.21,1.41,10.97.1,2.59.14,5.12,1.37,7.45.91,1.73,3.27,4.05,5.07,4.79.62.26,1.56.28,2.19.06.68-.23,1.37-1.12,1.68-1.76,1.35-2.82.21-7.08-.71-9.87-1.13-3.41-5.08-11.78-8.4-13.45Z"/>
    <path class="st0" d="M241.66,119.23c-.61-.62-.92-.87-1.71-1.24-1.38-.65-2.37-.91-2.52.87-.04.54,0,.87.15,1.39.78,2.78.78,4.96.8,7.85,0,1.35-.08,3.48.2,4.8.18.83.56,1.82,1.03,2.52.86,1.28,3.27,3.15,4.72,3.69.62.23,1.9.2,2.49-.1.94-.48,1.56-1.72,1.77-2.71.39-1.87-.4-5.34-1.03-7.18-1.09-3.19-3.54-7.49-5.9-9.89Z"/>
    <path class="st0" d="M251.09,118.17c-1.27-3.92-4.71-9.31-7.24-12.57-.76-.98-1.73-2-2.6-2.87-.7-.7-1.48-1.57-2.38-2.01-.74-.37-1.32-.5-2.09-.14-1.58.74-1.91,2.8-2.1,4.34-.09.73-.41,1.12-.89,1.66-.27.3-.64.81-.81,1.16-.53,1.17.32,2.51.96,3.46,1.12,1.67,1.66,2.15,3.6,2.66,2.66.71,4.47,1.94,6.29,3.99,1.26,1.42,2.76,3.19,4.6,3.85.73.26,1.76.29,2.36-.28.87-.83.62-2.25.29-3.26Z"/>
    <path class="st0" d="M228.03,103.9c.59.4,1.28.93,1.99,1.1.4.1,1.08.04,1.45-.13,1.45-.69,1.22-2.64.8-3.9-1.13-3.39-4.45-7.3-6.94-9.8-1.44-1.44-4.49-4.49-6.71-4.49-1.01,0-1.78.93-1.11,1.81,1.2,1.57,1.36,2.54,1.02,4.48-.1.57-.22,1.34-.22,1.91,0,1.81,1.33,4.54,2.66,5.76.91.83,2.07,1.22,3.25,1.51,1.69.42,2.38.76,3.82,1.75Z"/>
    <path class="st0" d="M208.72,139.96c-1.64.07-3.19.32-4.6,1.2-.22.14-.52.32-.68.53-.39.5-.44,2.32-.48,2.93-.1,1.53-.25,3.09-.42,4.62-.14,1.25-.47,3.67-.18,4.91.5,2.11,2.11,3.07,4.18,3.31.98.11,1.3.11,2.3.01,1.64-.16,3.22-.54,4.41-1.74,1.22-1.22,1.57-2.79,1.76-4.46.16-1.5.07-3.58-.19-5.07-.65-3.78-1.9-6.42-6.1-6.23Z"/>
    <path class="st0" d="M219.95,109.07c-.77-3.05-2.3-7.92-4.66-10.13-.8-.74-1.43-1.15-2.53-1.19-.58-.02-.68-.05-1.17.2-.61.32-1,.92-1.14,1.58-.23,1.06.18,3.92.32,5.02.17,1.34.16,2.52.1,3.86-.06,1.41-.29,3.12.23,4.45.57,1.46,1.75,2.54,2.83,3.62.91.91,2.13,2.18,3.39,2.6,1.42.47,2.72-.31,3.25-1.65.28-.7.2-1.7.21-2.44,0-2.3-.27-3.69-.84-5.92Z"/>
    <path class="st0" d="M37.65,105.46c-.5-.05-.57.01-1.04.24-2.42,1.18-5.34,6.35-6.48,8.68-1.61,3.3-3.27,7.7-3.3,11.42,0,1.27.06,2.11.61,3.25.34.71.85,1.38,1.57,1.71,1.9.88,4.14-1.04,5.38-2.26,1.49-1.46,2.3-2.72,2.81-4.73.51-2,.53-4.53.61-6.57.12-3.44.32-6.27,1.32-9.56.13-.42.57-1.41.2-1.76-.28-.27-1.32-.38-1.68-.41Z"/>
    <path class="st0" d="M262.09,141.68c0-.98-.05-1.59-.29-2.54-.8-3.18-2.47-6.61-4.41-9.25-.84-1.15-2.97-3.32-4.15-4.09-.74-.48-1.93-1.2-2.74-.47-.79.72-.22,2.38-.04,3.31.43,2.11.67,4.03.86,6.18.2,2.21.34,4.58,1.38,6.58,1.12,2.16,3.43,3.36,5.78,3.6.6.06,1.52.04,2.07-.19.52-.22,1.05-.82,1.3-1.32.32-.65.24-1.08.24-1.82Z"/>
    <path class="st0" d="M50.48,114.01c.24-.35.5-.97.64-1.38.34-.98.28-1.06.21-2.14-.16-2.32-.11-4.86.18-7.16.16-1.24.57-3.83-.31-4.9-.45-.54-1.05-.71-1.74-.71-.65,0-.77.05-1.36.34-1,.5-1.92,1.48-2.52,2.41-2.16,3.34-4.89,12.1-4.22,16.01.19,1.1.68,2.16,1.78,2.59,1.12.45,2.32-.18,3.21-.85.95-.72,3.48-3.24,4.14-4.2Z"/>
    <path class="st0" d="M54.19,157.56c.48.04,2.25-.25,2.72-.41,1.15-.4,1.96-1.05,2.48-2.16.78-1.66.31-4.17.1-5.92-.15-1.26-.25-2.56-.34-3.83-.05-.72-.09-2.79-.46-3.44-.27-.46-1.78-1.23-2.32-1.37-3.09-.78-6.56-1.04-8.13,2.32-1,2.13-1.23,4.38-1.23,6.7,0,1.98.08,4.08,1.32,5.72,1.15,1.54,2.9,2.12,4.75,2.3.37.04.74.07,1.11.1Z"/>
    <path class="st0" d="M70.06,194.4c.21-.79.14-1.88-.07-2.67-.12-.44-.46-1.12-.65-1.55-.43-.95-.87-1.9-1.32-2.84-.45-.95-.91-1.89-1.38-2.83-.21-.41-.53-1.11-.78-1.46-.1-.12-.29-.29-.42-.38-.37-.25-1.9-.59-2.37-.59-1,0-2.53.62-3.43,1.01-2.17.94-4.48,2.21-5.35,4.54-.89,2.37.19,5.83,1.26,7.97,1.08,2.15,2.67,4.53,5.29,4.8,1.54.16,2.8-.25,4.17-.94,1.98-1,4.48-2.81,5.08-5.07Z"/>
    <path class="st0" d="M60,178.21c1.43-.33,3.16-1.18,3.81-2.58.33-.72.26-1.08.26-1.9,0-1.12-.09-1.77-.35-2.87-.25-1.06-.46-2.19-.61-3.27-.2-1.41-.43-3.48-1.18-4.72-.35-.59-.94-1.05-1.59-1.27-1.64-.56-6.78.36-8.38,1.12-1.89.9-2.51,2.28-2.73,4.31-.27,2.39.33,6.05,1.36,8.22.9,1.91,2.34,3.02,4.44,3.29,1.61.21,3.41.04,4.98-.33Z"/>
    <path class="st0" d="M9.71,125.32c-4.56,2.23-8.8,10.12-9.6,15.03-.32,1.93-.08,4.36,2.27,4.66,1.33.17,3.18-.29,4.37-.91.91-.47,2.17-1.7,2.66-2.6,1.06-1.93,1.24-4.63,1.43-6.78.19-2.17.46-4.13.87-6.27.13-.66.52-2.22.17-2.85-.44-.79-1.49-.6-2.17-.27Z"/>
    <path class="st0" d="M24.22,117.63c-.39-.24-1.09-.02-1.47.13-1.1.42-1.5.72-2.32,1.56-1.09,1.12-1.8,2.1-2.66,3.42-1.58,2.41-2.97,5.29-3.69,8.07-.63,2.45-1.48,6.84,1.4,8.26.48.24.71.19,1.26.17,1.23-.05,1.77-.39,2.79-1.09,2.04-1.39,3.41-2.67,4-5.11.3-1.23.21-3.35.22-4.61.02-2.95.05-5.09.75-7.94.17-.68.35-1.12.21-1.8-.07-.36-.15-.87-.49-1.07Z"/>
    <path class="st0" d="M28.04,111.43c.58-.85,1.18-1.65,1.25-2.71.06-.99-.29-1.37-.92-2.13l-.69-.82c-.1-.11-.15-.23-.17-.38l-.14-1.07c-.26-2.01-1.27-4.7-3.79-3.76-2.83,1.06-7.68,8.27-9.19,10.83-1.02,1.72-4.86,7.87-3.17,9.92.12.15.39.37.57.45.55.26,1.67.09,2.22-.16,1.02-.47,1.88-1.16,2.66-1.97.67-.7,1.33-1.39,2-2.09,1.93-2.02,3.21-2.92,5.89-3.66.45-.12,1.22-.33,1.62-.54.75-.38,1.41-1.24,1.87-1.91Z"/>
    <path class="st0" d="M92.96,219.28c-.76-.56-1.53-1.1-2.31-1.63-.94-.65-2.08-1.5-3.07-2.05-1.67-.92-3.61,1.33-4.57,2.41-1.1,1.22-2.27,2.55-2.99,4.04-.5,1.03-.72,1.72-.65,2.86.12,1.91,1.2,3.16,2.53,4.44,1.27,1.22,3.17,2.65,4.89,3.12,2.39.66,4.64-.95,6.24-2.56,1.32-1.32,2.6-2.98,3.01-4.84.56-2.49-1.23-4.42-3.1-5.79Z"/>
    <path class="st0" d="M31.08,105.04c.37.12,1.23-.09,1.59-.25.51-.23,1.14-.66,1.6-.98,1.35-.94,1.99-1.23,3.6-1.61,2.05-.49,3.29-1.16,4.45-2.93,1.27-1.94,1.75-3.89,1.31-6.17-.34-1.78-.11-3.18,1.03-4.61.35-.44.39-.86,0-1.29-1.76-2.01-6.52,2.66-7.61,3.74-2.61,2.58-6.05,6.63-7.24,10.15-.2.6-.4,2.26-.11,2.81.31.58.74.95,1.37,1.15Z"/>
    <path class="st0" d="M125.61,233.56c-1.01-.24-4.09-.44-5.1-.28-.89.14-1.73.51-2.15,1.35-.49.98-1.03,3.44-1.23,4.58-.18,1.02-.39,3.25-.1,4.19.68,2.18,2.29,2.66,4.43,2.85,1.15.1,2.77.06,3.89-.17,2.91-.59,3.7-2.81,3.94-5.55.26-3.09-.27-6.16-3.67-6.98Z"/>
    <path class="st0" d="M109.73,228.76c-.99-.41-2.03-.78-3.03-1.14-.95-.34-2.29-.9-3.26-1.12-1.5-.35-3.72,1.98-4.44,3.08-1.8,2.72-2.88,6.1-.41,8.77,1.54,1.66,4.77,3.17,6.98,3.63.82.17,2.82.17,3.59-.13.82-.32,1.84-1.14,2.37-1.85.99-1.3,1.99-3.7,2.21-5.32.42-3.08-1.28-4.78-4-5.92Z"/>
    <path class="st0" d="M78.38,206.09c-.66-.77-1.31-1.54-1.96-2.31-1.04-1.23-2.01-2.6-3.75-2.6-1.51,0-3.64,1.1-4.91,1.84-2.2,1.29-4.79,3.15-4.79,5.98,0,1.18.29,1.99.8,3.06,1.24,2.6,3.89,6.07,6.71,7.03.77.26,2,.3,2.78.07,2.01-.58,4.63-2.87,5.91-4.49.77-.96,1.14-1.57,1.43-2.77.53-2.26-.81-4.18-2.21-5.82Z"/>
  </g>
</svg>