<?xml version="1.0" encoding="UTF-8"?>
<svg id="Calque_1" xmlns="http://www.w3.org/2000/svg" version="1.1" viewBox="0 0 222.24 283.46">
  <!-- Generator: Adobe Illustrator 30.0.0, SVG Export Plug-In . SVG Version: 2.1.1 Build 123)  -->
  <defs>
    <style>
      .st0 {
        fill: #1d1d1b;
      }
    </style>
  </defs>
  <path class="st0" d="M61.72,251.07c.05.15.09.3.14.45,17.38-4.93,34.76-9.87,52.14-14.8-2.35-1.07-49.56,12.2-52.28,14.35Z"/>
  <path class="st0" d="M142.7,235.61c-.72-.16-1.17-.29-1.62-.36-2.76-.39-5.39-1.07-7.78-2.66-2.1-1.4-4.55-1.81-7.04-1.66-.98.06-1.93.46-2.9.71.02.17.04.33.07.5.6.03,1.21.1,1.81.08,2.39-.07,4.64.22,6.84,1.42,1.95,1.06,4.11,1.79,6.26,2.39,1.29.36,2.77.69,4.37-.41Z"/>
  <path class="st0" d="M162.12,6.32c.82.32,1.39.72,1.95.73,4.78.04,9.56.03,14.35-.02.5,0,.99-.38,1.65-.65-1.26-.9-16.4-.98-17.95-.06Z"/>
  <path class="st0" d="M125.42,217.44c-.02-.11-.03-.22-.05-.33-.18,0-.37,0-.55,0-2.69-.08-5.45.23-8.04-.32-4.13-.88-7.88.12-11.66,1.4-.25.08-.46.28-.69.42,1.05.08,1.99-.11,2.94-.18,2.83-.22,5.66-.49,8.49-.58,2.16-.07,4.32.19,6.48.15,1.03-.02,2.05-.36,3.08-.56Z"/>
  <path class="st0" d="M75.43,177.57c.04.16.08.32.12.49.74-.19,1.51-.31,2.23-.57,1.35-.51,2.68-.59,3.95.1,1.64.9,3.37.87,5.16.82,1.02-.03,2.05.19,3.07.36.94.15,1.87.38,2.8.58.02-.1.04-.21.07-.31-1.6-1.12-3.22-2.21-5.35-1.93-2.04.27-3.97-.03-5.86-.86-2.39-1.05-4.3.13-6.19,1.34Z"/>
  <path class="st0" d="M8.86,231.93c.03.17.06.35.09.52,1.96-.36,3.92-.74,5.89-1.09,4.27-.75,8.54-1.48,12.81-2.25.42-.07.8-.34,1.2-.52-.06-.15-.12-.29-.17-.44-6.68.87-13.38,1.64-19.82,3.77Z"/>
  <path class="st0" d="M55.68,172.34c.04.18.08.36.12.54.51-.06,1.02-.08,1.52-.17,2.31-.43,4.63-.82,6.85.32,2.59,1.32,5.26,1.22,7.99.65.31-.06.59-.26.88-.4-.35-.3-.65-.35-.94-.38-2.07-.21-4.15-.4-6.22-.64-2.14-.24-4.28-.68-6.42-.73-1.25-.03-2.51.52-3.76.81Z"/>
  <path class="st0" d="M105.65,244.48c-2.82-.15-16.91,3.54-17.85,4.61,1.73.35,15.47-3.15,17.85-4.61Z"/>
  <path class="st0" d="M151.37,238.3c4.39,1.84,8.75,3.66,13.06,5.46-1.89-2.2-9.64-6.62-13.06-5.46Z"/>
  <path class="st0" d="M102.49,211.73c0-.09,0-.18-.01-.28-2.42-.67-4.81-1.45-7.26-1.96-2.48-.51-5-.65-7.59.36.24.16.3.24.36.24,4.06,0,8.06.44,11.98,1.6.78.23,1.68.03,2.52.03Z"/>
  <path class="st0" d="M146.62,230.63c-1.17-.36-2.27-.53-3.18-1.03-1.93-1.06-4.01-1.08-6.09-1.08-.48,0-.96.36-1.44.56.04.15.07.3.11.44.37.03.75.04,1.12.11,1.53.25,3.05.48,4.57.78.66.13,1.29.48,1.95.61.96.19,1.95.3,2.96-.39Z"/>
  <path class="st0" d="M129.18,245.37c.48.21.75.4,1.04.45,2.55.49,5.1.98,7.65,1.42.27.05.6-.24,1.11-.47-3.54-1.83-7.67-2.42-9.8-1.4Z"/>
  <path class="st0" d="M182.61,243.15h10.32c-1.47-1.47-8.36-2.22-10.32,0Z"/>
  <path class="st0" d="M107.5,173.33c-1.94-1.08-6.75-.98-7.93.2,2.78.43,5.35.25,7.93-.2Z"/>
  <path class="st0" d="M173.12,244.84c.05-.1.1-.2.14-.3-2.12-1.86-4.54-2.98-7.39-3.01-.06.16-.13.32-.19.48,2.48.94,4.96,1.88,7.44,2.83Z"/>
  <path class="st0" d="M122.43,221.01c2.7-.17,5.11-.32,7.52-.46-2.51-1.42-4.92-1.19-7.52.46Z"/>
  <path class="st0" d="M87.37,214.15c-1.79-1.22-5.57-.79-6.46.68,2.3-.24,4.38-.46,6.46-.68Z"/>
  <path class="st0" d="M126.57,215.02c1.67.02,3.31,1.09,5.17.19-1.24-1.16-3.56-1.26-5.17-.19Z"/>
  <path class="st0" d="M12.61,244.23c2.2-.82,4.31-.93,6.27-2.15-1.47-.45-5.59.88-6.27,2.15Z"/>
  <path class="st0" d="M135.26,190.9c-1.73-1.37-4.33-1.15-5.2.32,1.82-.11,3.51-.22,5.2-.32Z"/>
  <path class="st0" d="M48.83,170.11c-1.71-1.47-4-1.36-5,0h5Z"/>
  <path class="st0" d="M9.85,217.67c-2.14-5.27-5.79-9.81-5.97-15.81,2.86.34,4.37,2.36,6.26,4.32-2.21-28.54-.47-56.41,7.63-83.67-.18-.07-.26-.13-.32-.12-1.91.52-2,.52-1.91-1.47.1-2.25.38-4.48.58-6.73.03-.31.05-.62.1-1.09-3.35,2.91-4.01,7.14-5.84,10.9-2-2.34-2.27-4.99-2.74-7.96-1.08,2.78-2.04,5.24-3.08,7.92-1.46-1.75-1.35-3.58-1.19-5.28.71-7.23,4.6-12.26,11.06-15.39.63-.3,1.27-.57,1.9-.86-.04-.14-.08-.29-.12-.43-1.39.23-2.78.44-4.16.69-.59.11-1.16.36-1.75.43-.47.05-.97-.09-1.45-.14.1-.49.11-1.03.33-1.46.32-.64.79-1.2,1.06-2.03-.85.46-1.71.89-2.53,1.38-1.07.64-2.09,1.38-3.18,1.96-.44.24-1.04.17-1.57.25,0-.44-.11-.92.02-1.32.74-2.39,1.79-4.63,3.46-6.68-2.03.98-4.06,1.97-6.08,2.95-.11-.13-.22-.26-.33-.38.75-2.55,2.25-4.64,4.27-6.38,2.08-1.79,4.7-2.28,7.6-2.82-.77-.47-1.27-.77-1.77-1.08-1.02-.64-1.15-1.4-.16-2.05.97-.64,2.11-1.02,3.14-1.5-.74-.57-1.73-1.28-2.64-2.07-.7-.6-1.35-1.27-1.92-1.99-.61-.77-.27-1.51.7-1.61.75-.08,1.51-.02,2.55-.02-1.2-.93-2.21-1.66-3.17-2.46-.52-.43-1.01-.93-1.42-1.47-.21-.28-.42-.89-.28-1.06.23-.29.77-.51,1.15-.48.96.08,1.9.32,2.85.49.19.04.39.06.7-.06-.35-.28-.75-.51-1.03-.85-1.11-1.31-2.22-2.63-3.25-4-.21-.28-.26-.96-.06-1.19.25-.3.84-.49,1.24-.43.77.11,1.51.43,2.45.71-1.15-1.29-2.18-2.41-3.15-3.58-.49-.58-.97-1.2-1.27-1.88-.18-.41-.02-.96-.01-1.45.45.03.98-.08,1.33.13,1.59.94,3.13,1.96,4.69,2.95.19.12.37.27.78.58-.89-2.2-1.75-4.13-2.46-6.11-.74-2.08-1.42-4.19-1.92-6.33-.16-.69.08-1.82.56-2.24.77-.66,1.98-.67,2.73.19.86.98,1.56,2.11,2.24,3.23.34.56.49,1.24.79,2.07.79-1.51,1.54-2.61,1.37-4.29-.27-2.77-.07-5.59-.07-8.69-1.11.61-2.07.92-2.75,1.54-1.3,1.2-2.8.93-4.22.7-.54-.09-1.11-.89-1.38-1.49-.83-1.87-1.52-3.8-2.28-5.7-.22-.55-.47-1.09-.78-1.79,1.97-1.09,4-2.21,6.02-3.34,1.54-.86,3.04-1.83,4.63-2.6,1.1-.53,1.35-1.37,1.34-2.42-.05-6.32-.11-12.63-.19-18.95-.03-2.14-.05-2.16,2.08-2.18,7.08-.07,14.16-.15,21.23-.15,15.82,0,31.63.09,47.45.08,9.62,0,19.24-.13,28.86-.13,2.27,0,4.54.27,6.87.43-.25,1.38-.95,2.07-1.93,2.68-3.03,1.87-6,3.84-9.3,5.96,2.82,0,5.25.04,7.68-.03.47-.01.97-.38,1.38-.69,3.17-2.39,6.62-4.25,10.4-5.51.05-.12.1-.24.14-.36-3.12-1.8-6.24-3.6-9.34-5.39,1.25-1.31,8.32-1.35,12.29-.07,4.18,1.35,6.98,4.64,10.53,7.1-.59-1.64-1.18-3.28-1.75-4.93-.39-1.1-.81-2.19-1.11-3.31-.22-.82.16-1.36,1.02-.97.97.44,1.92,1,2.75,1.68,2.67,2.18,4.36,5.13,6.14,8.01.97,1.57,1.93,3.13,3.01,4.89-.48-3.19-.93-6.19-1.38-9.19.15-.06.3-.13.45-.19,6.5,3.81,9.41,10.28,12.33,17.16-.15-1.74-.28-3.2-.41-4.66-.14-1.52-.35-3.04-.43-4.56-.07-1.47-.02-2.96.17-4.48,2.6,2.09,4.11,4.87,5.59,7.65,1.47,2.76,2.65,5.65,3.16,8.82,2.11-7.04,3.93-14.16,8.83-19.91.36-.43.6-.96,1.09-1.3,1.2,2.69,1.02,5.29,1.25,7.96.46-.75.93-1.49,1.38-2.25,1.86-3.13,4.04-6.02,6.76-8.45.61-.54,1.38-.91,2.34-1.52.19,3.33-1,6.1-1.5,9.24.96-.53,1.74-.91,2.47-1.38,4-2.56,8.27-4.09,13.1-3.7,2.41.19,4.65.93,6.76,2.06,1.06.57,1.61,1.49,1.55,2.55-3.6.28-7.29-.41-11.23.66,4.31,1.98,8.66,3.52,10.29,8.7-5.58-.21-10.98-1.08-16.06.69,1.89.35,4,.58,6.01,1.16,2.02.58,3.98,1.44,5.64,3.28-5.55,2.1-11.36,1.69-16.69,3.23,1.92.83,3.78,1.7,5.69,2.43.56.21,1.26.12,1.89.07,4.77-.37,9.28.46,13.49,2.82,1.74.97,3.07,2.33,4.13,3.97.19.29.26.97.08,1.12-.27.24-.86.36-1.22.24-2.69-.9-5.36-1.87-8.32-2.92,1.29,1.83,2.44,3.34,3.47,4.94,1.94,3.01,2.87,6.35,3.16,9.9.06.8.19,1.61.15,2.4-.05,1.06-.62,1.33-1.36.59-1.8-1.78-3.49-3.67-5.26-5.48-1.67-1.7-3.39-3.35-5.29-4.88,1.74,3.99,3.14,7.95,2.61,12.42-4.36-4.14-8.47-8.46-13.72-11.56.24.42.46.86.72,1.27,1.3,2.07,2.82,4.02,3.33,6.51.05.25.35.55.61.66,6.34,2.73,10.66,7.71,14.73,13.03,2.81,3.66,4.83,7.6,5.49,12.17.23,1.62.2,3.29.22,4.94,0,.35-.2.78-.46,1-.12.1-.65-.16-.91-.36-1.47-1.16-2.92-2.35-4.24-3.42-3.4,3.45-6.83,7-10.33,10.48-3.51,3.48-7.08,6.88-10.63,10.32,1.15,0,2.36.01,3.56-.01.16,0,.36-.15.48-.28,3.15-3.44,6.25-6.93,9.44-10.32,2.51-2.66,5.14-5.22,7.72-7.82.4-.4.82-1.07,1.44.03-5.61,5.94-11.73,11.47-17.09,18.17,1.95-.16,3.49.16,4.78-1.62,3.72-5.14,8.29-9.52,12.97-13.78.11-.1.26-.15.64-.06-.27.49-.47,1.05-.84,1.46-1.04,1.18-2.16,2.28-3.22,3.44-2.98,3.27-5.95,6.55-8.91,9.83-.07.08-.09.2-.16.36,1.57.09,2.77-.18,3.88-1.51,2.86-3.42,5.96-6.65,8.97-9.95.28-.3.65-.52.98-.77l.36.29c-.4.64-.72,1.36-1.22,1.91-2.85,3.12-5.75,6.2-8.63,9.29-.13.14-.25.28-.5.55,1.98.13,3.59.24,4.83-1.68,1.27-1.97,2.96-3.67,4.47-5.49.15.09.3.18.44.27-.23.5-.37,1.07-.7,1.49-1.32,1.7-2.7,3.36-4.27,5.3,1.96-.1,3.59-.21,5.21-.24.35,0,.9.21,1.01.47.12.3-.02.87-.27,1.13-.3.31-.8.55-1.24.59-3.05.24-6.1.43-9.15.61-5.58.33-11.17.68-16.75.94-6.84.32-13.68.48-20.51.85-8.88.48-17.75,1.12-26.63,1.66-4.01.24-8.02.4-12.04.61-.59.03-1.19.11-1.99.18.26,1.07.39,2.07.75,2.97.35.88,1.05,1.52,2.1,1.59,1.13.07,1.94-.47,2.5-1.39.45-.74.82-1.53,1.4-2.64.24.71.36,1.1.51,1.48.2.48.35,1,.66,1.4,1.12,1.46,2.2,1.42,3.38-.08.61-.78,1.16-1.61,1.88-2.61.68.76,1.4,1.33,1.79,2.07.8,1.51,2.34,1.72,3.6.18.46-.56.85-1.17,1.3-1.74.23-.3.51-.57.92-1.02.44.8.79,1.42,1.11,2.04.79,1.51,2.11,1.72,3.25.43.81-.92,1.51-1.94,2.41-3.12.39.66.65,1.13.95,1.57.36.52.67,1.13,1.15,1.49.58.43,1.19.46,1.7-.35.53-.83,1.22-1.6,1.96-2.26.7-.62,1.4-.55,1.73.49.1.31.17.62.29.92.55,1.38,2.12,1.65,3.06.49.52-.64.91-1.4,1.36-2.09.13-.2.3-.37.57-.7.48.78.91,1.49,1.34,2.2,1.05,1.73,2.03,1.85,3.33.4.51-.57.99-1.16,1.43-1.79.47-.67.84-.69,1.22.05.07.14.2.26.26.41.96,2.1,2.28,2.02,3.96.48.61-.56,1.13-1.23,1.83-2,.34.69.63,1.27.91,1.86.75,1.61,1.94,1.75,3.03.31.5-.66.9-1.4,1.46-2.29.54.96.99,1.78,1.47,2.6.7,1.21,1.77,1.32,2.68.24.64-.76,1.21-1.59,1.9-2.5.52.72,1,1.35,1.45,2,.9,1.3,1.9,1.24,2.68-.18.42-.77.84-1.55,1.27-2.32.05-.09.18-.14.35-.27.44.8.84,1.57,1.27,2.33.82,1.44,2.54,1.51,3.49.17.48-.68,1.01-1.34,1.65-2.17.4.8.62,1.52,1.07,2.05.43.5,1.07,1.04,1.67,1.11.42.05,1.02-.6,1.37-1.06.55-.72.97-1.54,1.64-2.64.52,1,.92,1.73,1.29,2.49.65,1.32,1.45,1.51,2.52.45.69-.68,1.23-1.52,2.09-2.24-.13.67-.08,1.46-.44,1.97-.88,1.24-.41,2.48-.22,3.71.28,1.78-.13,2.67-1.72,3.55-1.33.74-2.57,1.19-4,.11-.87-.65-2.97-.1-3.48.82-.22.39-.08.98-.13,1.82h7.68c0,.2.01.41.02.61-2.54.75-5.21.45-7.95.62.46,1.04.82,2.02,1.33,2.91.16.29.69.51,1.06.54,1.4.08,2.82.05,4.22.11.46.02.91.17,1.37.26,0,.14.02.29.03.43-1.21.22-2.42.43-3.4.61.22,2.21.43,4.36.64,6.52,0,0,.23-.16.5-.26.38-.15.91-.46,1.12-.32.33.21.67.78.63,1.15-.19,1.92-.5,3.82-.77,5.73-.09.66-.19,1.32-.29,2.01.21-.03.29-.02.35-.06.57-.36,1.13-.73,1.7-1.1.25.61.67,1.2.73,1.82.27,2.95-.19,5.83-1.2,8.84.48-.27.77-.43,1.06-.6,1.14-.68,1.54-.48,1.61.88.18,3.14-.58,6.14-1.54,9.09-.07.22-.17.43-.34.86.47-.26.76-.41,1.07-.59.08.09.23.19.22.26-.28,1.44-.53,2.89-.89,4.31-.25,1.01-.72,1.96-.97,2.97-.13.54-.13,1.19.05,1.71,1.35,3.91,2.02,7.87.91,11.96-.62,2.3-1.16,2.45-2.93.82-.09-.08-.17-.16-.45-.41-.09,1.68-.16,3.19-.24,4.78.83-.23,1.51-.45,2.21-.6,1.6-.36,2.04-.02,1.85,1.59-.19,1.68-.33,3.39-.81,4.99-.88,2.89-2,5.7-2.97,8.42,1.49-.39,2.94-1.97,5.06-1.45-.93,4.2-3.81,7.32-5.83,11.01,1.32-.35,2.65-.7,4.35-1.15-.28,1.05-.33,1.88-.71,2.5-.74,1.19-1.64,2.28-2.52,3.37-.7.88-1.58,1.65-1.23,3.09.84-.11,1.7-.28,2.56-.32.47-.02.95.19,1.43.29-.14.49-.17,1.04-.43,1.45-.64,1.02-1.36,1.99-2.09,2.95-1.21,1.58-1.37,3.38-1.16,5.35,1.14.28,2.29.57,3.61.9-.21.47-.33.88-.56,1.21-.3.42-.64.86-1.06,1.15-2.13,1.51-2.12,3.84-2.33,6.07-.03.31.38.75.69.97.68.48,1.43.85,2.2,1.29-3.36,1.69-2.3,4.84-2.64,7.46-.18,1.38-.19,1.62-1.55,1.31-3.12-.7-6.15-.26-9.19.45-1.05.24-2.42.86-3.03-.4-.22-.46.69-1.62,1.28-2.31,1.52-1.77,3.52-2.72,5.79-3.24,2.37-.54,4.5-1.62,6.3-3.32-5.93-1.36-10.63.65-14.35,5.4-.11-.06-.23-.12-.34-.19.11-.69.08-1.45.36-2.07.55-1.2,1.2-2.38,1.96-3.46.36-.52,1.03-.85,1.61-1.2,3.36-2.06,6.74-4.07,10.07-6.16.81-.5,1.49-1.21,2.26-1.85-1.01-.35-1.02-.39-4.63.72-1.53.47-3.06,1.02-4.47,1.78-1.41.75-2.74,1.71-3.94,2.76-1.19,1.04-2.18,2.31-3.34,3.58-.08-.62-.11-1.13-.22-1.63-.4-1.82.34-3.12,1.81-4.09,1.88-1.24,3.76-2.48,5.64-3.72,3.94-2.59,7.23-5.83,9.66-9.92-7,2.1-13.09,5.47-16.73,12.3-.29-1.48-.55-2.69.58-3.94,3.05-3.36,6.56-6.14,10.01-9.04,2.38-2,4.26-4.58,6.35-6.91.14-.16.18-.4.37-.86-1.53.7-2.88,1.21-4.11,1.91-1.99,1.13-3.95,2.32-5.83,3.62-2.16,1.5-3.55,3.68-4.86,5.92-.7,1.2-1.54,2.32-2.31,3.48-.14-.03-.28-.07-.42-.1,0-.39-.06-.8.01-1.18.53-2.68.99-5.37,1.65-8.01,1.63-6.53,4.58-12.52,7.75-18.4.97-1.8,2.23-3.43,3.39-5.13.22-.33.57-.57.85-.85l.32.24c-1.93,3.39-3.86,6.77-5.92,10.4,5.57-1.49,9.1-5.19,10.51-15.99-.94.46-1.73.74-2.41,1.2-.66.45-1.14,1.14-1.79,1.61-.35.26-.88.41-1.32.4-1.54-.06-2.36.36-2.98,1.81-.52,1.22-.88,2.5-1.42,3.71-.45,1.01-1.06,1.95-1.71,3.12-.92-.97-1.67-1.76-2.42-2.54-1.83,3.57-1.33,7.53-1.89,11.32-1.39-.54-2.27-4.46-2.02-8.74-1.38.86-1.98,2.1-2.15,3.69-.38,3.67.16,7.25,1.14,10.74.64,2.29.78,4.47.18,6.76-.25.95-.26,1.97-.68,3.02-.18-.98-.51-1.95-.53-2.93-.08-4.3-1.63-8.07-3.96-11.59-.23-.34-.55-.63-.83-.94-.15.04-.3.09-.45.13.16,1.35.14,2.75.5,4.05.83,2.98,1.82,5.91,2.79,8.85.63,1.91,1.46,3.75,1.95,5.69.47,1.87.33,3.8-.21,5.66-.13.03-.25.06-.38.08-.46-1.42-1.03-2.81-1.36-4.25-1.06-4.74-3.99-7.86-8.27-9.88-.14-.07-.3-.1-.45-.14-.03,0-.06.04-.29.18.76,1.36,1.46,2.79,2.32,4.11,2.23,3.39,4.57,6.71,6.78,10.12.78,1.2,1.52,2.5,1.94,3.86.31,1.01.06,2.18.06,3.63-.65-1.16-1.12-2.03-1.62-2.88-1.1-1.87-2.09-3.83-3.36-5.57-.72-.98-1.84-1.76-2.92-2.37-1.13-.63-2.43-.93-3.66-1.38-.1.1-.2.19-.3.29.2.53.3,1.13.62,1.56.66.9,1.39,1.77,2.19,2.56,1.75,1.72,3.66,3.28,5.33,5.08,1.19,1.28,2.3,2.74,3.02,4.31.53,1.16.38,2.62.33,4.03-1.8-4.15-4.56-7.12-9.32-8.45.43.78.65,1.43,1.07,1.87,1.1,1.16,2.26,2.26,3.45,3.33.92.83,1.93,1.57,2.88,2.38,1.11.94,1.37,2.2,1.36,3.75-1.55-.8-2.97-1.59-4.43-2.27-3.06-1.42-6.11-2.86-9.24-4.13-.85-.35-1.97-.27-2.92-.1-2.45.45-4.86,1.12-7.31,1.57-.76.14-1.69.03-2.38-.3-5.62-2.7-11.17-5.52-16.79-8.22-2.56-1.23-2.6-1.15-2.26-3.98.05-.4.11-.79.17-1.24-.28-.09-.58-.12-.78-.27-1.64-1.29-3.35-1.56-5.37-.81-1.07.4-2.34-.56-2.92-1.62-.85-1.57-1.75-3.1-2.63-4.65,1.01-.34,2.34.18,3.03,1.41.58,1.02.98,2.15,1.46,3.23.17-.05.35-.09.52-.14v-2.83c.14-.02.29-.03.43-.05.19.73.39,1.45.61,2.28,2.16-1.88,4.79-3.19,6.21-5.78-.05-.16-.1-.31-.15-.47-1.18.19-2.39.27-3.53.6-.91.26-1.72.88-2.61,1.22-.43.17-1.18.28-1.41.05-.53-.54-.15-1.67.57-1.97,2.85-1.17,5.52-2.62,7.74-4.8.14-.14.3-.27.43-.42.05-.05.04-.15.05-.22-2.63-1.16-6.9.37-8.04,2.84-.18.39-.58.69-1.1,1.29-.34-2.5.2-4.43,1.56-6.01,1.43-1.67,3.15-3.1,4.63-4.73.71-.78,1.21-1.77,1.73-2.71.14-.25,0-.66-.02-.99-.3.04-.64,0-.9.13-1.65.8-3.09,1.86-4.1,3.45-.9,1.42-1.85,2.81-2.78,4.21l-.36-.12c.9-2.61,1.7-5.25,2.71-7.82,1.06-2.71,1.44-5.47,1.21-8.36-2.67,3.48-3.27,7.67-4.37,11.84-.15-1.11-.34-2.22-.44-3.33-.34-3.71-1.19-7.21-4.01-9.91-.26-.25-.55-.48-.85-.67-.36-.23-.76-.4-1.14-.59-.12.06-.23.12-.35.19.94,2.37,1.85,4.74,2.83,7.1,1,2.41,2.1,4.78,3.08,7.2,1.18,2.89.79,5.94.74,8.95,0,.3-.17.6-.32,1.1-2.38-4.38-5.34-7.68-10.97-7.28,1.09,1.64,2.28,2.94,3.79,3.95,1.77,1.18,3.59,2.28,5.31,3.53,1.51,1.1,1.94,2.5,1.4,3.86-2.16-2.27-4.83-3.36-8.06-3.66,1.24,2.79,4.57,3.9,5.34,7.33-2.65-1.49-5.61-1.18-8-2.61.03-.14.05-.28.08-.42h3.94c-1.02-1.7-2.04-3.37-3.22-5.33,1.48-.09,2.5-.15,3.89-.24-.59-.43-.99-.65-1.29-.96-1.47-1.53-2.98-3.03-4.32-4.66-.79-.96-.06-2.14,1.23-2.17,1.39-.03,2.79,0,4.42,0-.33-.45-.57-.77-.81-1.1-1.5-2.08-3.06-4.13-4.48-6.26-.45-.67-.68-1.56-.81-2.37-.19-1.22.52-1.74,1.67-1.31.56.21,1.08.53,1.59.85.72.45,1.41.93,2.11,1.4.66.44,1.33.88,2.27,1.5-.26-.81-.42-1.36-.62-1.89-.55-1.47-1.15-2.92-1.67-4.4-.2-.56-.27-1.18-.3-1.78-.12-2.32.21-2.62,2.62-2.35,0-1.93,0-3.84,0-5.75,0-6.32,0-12.64,0-18.97,0-1.52-.16-1.6-1.61-1.26-4.73,1.11-9.47,2.18-14.33,3.3.2,1.18.4,2.43.66,4,2.51-.37,5.11-.75,7.7-1.13.04.11.08.23.12.34-.33.23-.63.58-.99.67-2.42.56-4.85,1.11-7.29,1.56-1.38.25-2.8.36-4.2.41-.92.03-1.85-.14-2.78-.23-.02-.14-.05-.28-.07-.42.44-.28.88-.56,1.38-.88-.04-.67-.08-1.39-.13-2.17-3.22.66-6.38,1.39-9.57,1.94-2.01.35-4.08.64-6.11.59-3.51-.08-6.57,1.42-9.76,2.42-3.59,1.14-7.18,1.28-10.85.71-.59-.09-1.17-.31-1.72-.56-1.54-.68-1.55-.74-.9-2.58-1.09-.15-2.14-.38-3.19-.41-3.58-.11-7.16-.13-10.74-.23-1.69-.05-3.38-.15-5.06-.29-2.18-.18-3.04-1.43-2.37-3.48.34-1.04-.28-1.26-1-1.31-2.77-.19-5.54-.39-8.31-.44-2.94-.05-5.88.11-8.81.1-.9,0-1.18.25-1.17,1.15.04,4.03.03,8.05.02,12.08,0,.44-.12.88-.48,1.34-1.61-4.52-3.12-9.07-4.85-13.54-1.73-4.47-3.67-8.87-5.67-13.18,0,5.16-.02,10.32,0,15.49,0,1.6-.29,2.1-1.74,2.62-.86.31-1.22,0-1.24-.86-.15-5.92-.34-11.83-.45-17.75-.07-3.53-.01-7.05-.01-10.58-.19-.02-.38-.03-.58-.05-.37,1.79-.89,3.56-1.08,5.36-.87,8.54-1.26,17.1-.92,25.68.24,6.11.48,12.23.89,18.33.24,3.52.83,7.03,1.27,10.54.03.22.16.43.39.63.95-8.28.16-16.58.28-24.93.18.05.33.04.38.11,1.57,2.1,2.81,4.48,2.86,7.04.17,8.53.06,17.06.02,25.59,0,.54-.19,1.27-.57,1.58-3.69,2.99-5.15,7.07-5.88,11.55-.1.59-.16,1.19-.23,1.79,0,.07.04.15.18.6.44-.46.85-.73,1.04-1.11,1.59-3.14,3.14-6.31,4.72-9.46.15-.31.39-.57.79-1.12,0,2.62.09,4.94-.05,7.24-.04.73-.64,1.44-1.06,2.12-.38.64-.85,1.22-1.39,1.97,1.35-.03,2.3-.24,2.93-1.37.46-.84,1.15-1.55,1.74-2.32l.42.27c-.53.92-1.05,1.84-1.74,3.03,1.63-.19,3.03-.35,4.59-.53-.13-1.46-.25-2.81-.37-4.17-.46-5.57-.83-11.16-1.43-16.71-.27-2.53.12-4.89.97-7.19.38-1.02,1.1-1.94,1.78-2.82.44-.58.44-1.02.1-1.62-1.51-2.66-3.06-5.29-4.44-8.02-1.52-3.01-2.84-6.13-4.29-9.17-.46-.97-.07-1.54.72-1.97,1.41-.76,2.83-1.47,4.57-2.37,2.93,5.92,5.85,11.81,8.76,17.69,1.51-1.24,3.12-2.62,4.79-3.93,2.77-2.19,3.7-1.66,4.71,1.7.24.8.31,1.66.37,2.5.06.84.01,1.68.01,2.71.91-.34,1.73-.83,2.6-.92,1.19-.12,2.5-.18,3.61.17,1.45.46,1.57,1.44.72,2.7-.27.4-.6,1.2-.44,1.36.66.67,1.18,1.73,2.42,1.46.7-.15,1.39-.35,2.22-.55-.28-.63-.53-1.25-.83-1.84-.98-2.02-2-4.03-2.96-6.06-.4-.86-.71-1.8.38-2.43,5.54-3.23,14.35-3.48,19.5,1.57,5.6,5.5,6.88,12.04,4.27,19.4-1.06,3-2.85,5.48-5.33,7.46-.25.2-.51.4-.79.54-1.07.52-1.84.26-2.43-.77-.45-.81-.92-1.61-1.37-2.41-.21-.38-.41-.77-.61-1.15-.14.12-.28.24-.42.37-.21,4.04-.42,8.07-.63,12.21.31.03.62.1.93.1,9.48-.04,18.72,1.64,27.9,3.81,5.68,1.34,11.04,3.45,15.97,6.6,3,1.92,5.41,4.37,6.01,7.93.39,2.33.15,4.8-.04,7.18-.1,1.27-.66,2.51-1.09,3.74-.1.29-.48.48-.74.71-.12-.04-.24-.09-.36-.13.38-1.83.77-3.66,1.2-5.74-3.17,3.01-6.03,6.03-10.57,5.79-.05-.1-.1-.21-.16-.31.93-.42,1.84-.89,2.8-1.24,2.76-1,4.82-2.9,6.56-5.15,1.8-2.32,1.44-6.16-.67-8.34-4.42-4.57-9.99-7.09-15.97-8.83-8.88-2.58-17.96-4.03-27.17-4.71-1.44-.11-2.9-.09-4.35-.13-.15,0-.31.05-.61.09-.12,1.74-.24,3.48-.38,5.45,5.1-.92,9.96-1.8,14.82-2.67.03.13.07.26.1.39-.54.2-1.06.45-1.62.58-3.95.92-7.91,1.84-11.87,2.69-1.05.23-1.6.61-1.56,1.81.04,1.18-.17,2.37-.29,3.72,9.26-1.81,18.28-3.57,27.31-5.33.06.17.11.34.17.51-.96.39-1.89.93-2.89,1.15-5.5,1.19-11.02,2.3-16.53,3.45-1.04.22-2.08.5-3.38.81,2.19.41,4.09.69,5.95,1.14.79.19,1.47.78,2.24,1.09.5.21,1.12.44,1.61.34,6.4-1.41,12.78-2.89,19.17-4.32,1.37-.31,2.76-.54,4.14-.79.29-.05.6,0,.9,0,.03.1.06.2.09.3-.6.24-1.18.55-1.79.7-6.83,1.7-13.66,3.37-20.49,5.04-.43.11-.86.21-1.29.3-.81.17-1.37.49-1.43,1.47-.07,1.27-.94,1.95-2.04,2.45-4.34,1.99-8.91,3.27-13.55,4.22-5.11,1.05-10.21,2.07-15.51,2.05-3.03-.01-6.06,1.06-9.08,1.7-2.27.48-4.53,1.04-6.95,1.31.51-.31.98-.73,1.53-.91,2.52-.82,5.06-1.58,7.6-2.37.37-.11.72-.28,1.25-.49-1.8-.49-3.44-.8-4.98-1.4-1.29-.5-2.5-1.26-3.65-2.04-.53-.36-.88-.42-1.5-.26-5.2,1.41-10.41,2.76-15.62,4.11-.22.06-.47,0-.84-.26.75-.37,1.46-.86,2.25-1.09,4.36-1.27,8.74-2.47,13.11-3.69.46-.13.93-.23,1.4-.35-.47-2.57-.94-5.07-1.42-7.68-2.97.61-5.92,1.17-8.86,1.82-5.18,1.15-10.34,2.36-15.51,3.54-.27.06-.56.22-.82.18-.34-.07-.64-.29-.96-.45.22-.23.4-.59.66-.67,2.01-.58,4.01-1.19,6.05-1.62,6.09-1.29,12.2-2.52,18.31-3.73.89-.18,1.2-.5,1.1-1.44-.32-2.83-.55-5.67-.81-8.42-10.56.55-20.62,2.68-30.37,7.14.32-1.31.69-2.14,1.8-2.51,2.01-.67,4-1.42,6.37-2.27-2.35-2.8-4.6-5.5-6.88-8.16-.47-.55-1.18-.9-1.58-1.48-.35-.51-.4-1.21-.59-1.83.59-.05,1.3-.34,1.75-.11,1.85.94,3.63,2.04,5.43,3.08.19.11.38.23.68.41ZM62.18,185.43c-1.37-.5-2.16.29-2.9,1.16.59,1.21,1.08,2.35,1.68,3.44,1.22,2.21,2.51,4.39,3.75,6.58.34.6.77.68,1.4.49.92-.28,1.87-.47,2.82-.66,1.4-.27,1.95.13,2.1,1.55.07.64.1,1.3,0,1.93-.15.96.28,1.25,1.14,1.39.82.13,1.64.4,2.41.72.23.1.32.55.48.84-.3.09-.6.28-.89.26-.43-.03-.85-.21-1.28-.34-.65-.21-1.3-.43-1.95-.65-.05.11-.1.21-.15.32,1.01.72,2.02,1.44,3.03,2.17-.12.17-.23.35-.35.52-1.02-.58-2.03-1.17-3.24-1.86,0,.93-.31,1.95.07,2.53.66,1.01,1.73,1.75,2.64,2.61,3.36-1.81,7.56-10.66,4.42-16.54-3.7-6.92-8.99-9.73-15.55-7.42.11.33.22.66.34.99l.03-.02ZM79.27,70.29c-1.09.67-1.49.03-1.8-.65-1.09-2.42-2.13-4.86-3.23-7.28-.43-.96-1-1.82-2.38-1.89.22.53.4.96.57,1.4.8,2.1,1.62,4.19,2.38,6.3.1.29-.1.69-.16,1.04-.27-.23-.68-.4-.79-.69-1.1-2.76-2.15-5.54-3.23-8.31-.53-1.36-1.59-2.23-2.98-3.17.71,1.67,1.41,3,1.85,4.41.63,2.02,1.1,4.1,1.58,6.16.05.23-.29.56-.45.84-.25-.2-.57-.36-.74-.62-.19-.29-.22-.69-.35-1.02-.68-1.8-1.01-3.89-2.17-5.29-1.14-1.37-1.49-2.86-2.07-4.36-.22-.56-.35-1.16-.61-1.7-.2-.41-.55-.74-.83-1.11-.11.07-.21.13-.32.2,1.35,4.07,3.22,8,3.66,12.36-1,.27-1.21-.29-1.39-.96-1.02-3.83-2.54-7.45-4.44-10.92-.43-.78-.95-.97-1.87-.62,1.44,3.48,2.95,6.88,3.23,10.66-.37-.19-.59-.45-.72-.75-1.17-2.64-2.3-5.3-3.49-7.94-.99-2.2-1.02-2.18-3.38-1.94-.07,0-.13.06-.2.1,3.19,6.5,4.31,9.74,3.62,10.82-.33-.52-.65-.97-.91-1.45-1.62-3-3.25-6-4.82-9.02-.54-1.04-1.34-1.18-2.37-1.06.77,1.81,1.62,3.5,2.22,5.28.6,1.76,1.6,3.45,1.51,5.38-.13.05-.26.1-.38.15-1.94-3.6-3.87-7.21-5.81-10.81-.13.48-.09.9,0,1.31.56,2.43,1.15,4.85,1.7,7.28.12.55.19,1.12.19,1.67,0,.23-.26.65-.39.65-.27-.01-.63-.18-.76-.41-.25-.45-.41-.96-.54-1.46-.41-1.55-.74-3.13-1.21-4.66-.32-1.03-.81-2-1.23-3-.18.03-.37.07-.55.1v6.8c-.21.03-.42.06-.63.09-.48-1.61-.97-3.22-1.53-5.1-1.47,1.59-2.82,3-4.1,4.47-.22.25-.22.75-.22,1.13,0,2.13.04,4.27.08,6.4.01.74.07,1.49.11,2.19.16.04.21.07.24.05.36-.18.72-.36,1.07-.55,3.28-1.84,6.79-2.95,10.57-3.03.87-.02,1.76.16,2.6.36.37.09.67.49,1.01.74-.28.31-.52.69-.86.91-2.53,1.63-5.09,3.21-7.62,4.85-.8.52-1.52,1.18-2.27,1.77,5.49-1.22,7.25-.98,8.56,1.49-3.56.97-6.77,2.57-9.59,5.11.91-.2,1.72-.49,2.55-.53,1.48-.07,2.96-.06,4.44.05.42.03.8.52,1.2.8-.3.34-.58.69-.91,1-.14.13-.36.18-.53.28-2.93,1.66-5.88,3.3-8.78,5.02-.73.43-1.27,1.18-1.89,1.78,3.21-.47,6.19-1.04,9.33-.24,8.8,2.23,13.77,8.27,16.66,16.42.3.84.55,1.92-.26,2.77-2.48-2.72-4.89-5.38-7.3-8.04,1.25,4.44,1.91,8.79.78,13.31-1.39-1.55-2.59-3.14-3.69-4.79-1.9-2.84-3.7-5.74-5.64-8.55-.6-.87-1.52-1.52-2.3-2.27,2.5,5.41,3.66,10.89,2.77,16.78-.3-.04-.4-.02-.45-.07-.2-.2-.41-.39-.56-.62-2.76-4.06-6.3-7.39-9.91-10.66-1.75-1.58-3.59-2.98-5.84-3.73-.48-.16-1.03-.15-1.54-.22-.06.18-.12.35-.17.53,1.81.93,3.61,1.86,5.42,2.78.36.18.74.32,1.09.52.75.43.81.96.15,1.55,4.02,2.95,7,6.65,9.53,10.92,3.17,5.36,3.98,11.05,3.73,17.05-.03.77-.46,1.52-.7,2.28-.12-.02-.23-.05-.35-.07-1-2.82-2-5.63-3.09-8.68-.5,1.96-.95,3.67-1.39,5.38-.12.03-.24.07-.36.1-.32-.45-.77-.86-.95-1.37-.81-2.27-1.54-4.57-2.29-6.85-.15-.47-.28-.95-.41-1.43-.33.57-.4,1.13-.59,1.64-.29.74-.67,1.43-1.01,2.15-.22.47-.6.94-.61,1.42-.05,4.19,0,8.38-.06,12.56-.01,1.03.4,1.17,1.29,1.18,4.51.05,9.02.15,13.52.27.6.02,1.2.24,1.8.36-.02.2-.05.39-.07.59-5.47.49-10.96-.22-16.41-.03v16.91c.45,0,.77,0,1.09,0,5.83.17,11.67.31,17.5.51,2.24.08,2.83.94,2.2,2.98-.39,1.28-.2,1.59,1.15,1.76.32.04.64.03.96.05,5.95.3,11.89.57,17.84.94.69.04,1.52.43,1.95.94.24.29-.2,1.15-.36,1.9,2.66.88,5.47,1.06,8.31.43,1.41-.31,2.8-.73,4.16-1.2,3.34-1.14,6.68-1.95,10.27-2.19,4.66-.31,9.27-1.42,14.1-2.22-.85-7.04-1.17-13.97-2.94-20.66-1.89-.1-3.79.33-5.81-.87,2.02-.9,3.91-.18,5.75-.69-.96-3.77-1.9-7.47-2.84-11.16-.13.03-.26.05-.39.08-.2.98-.34,1.97-.6,2.93-.27.96-.65,1.89-1.03,2.96-.72-.56-1.18-.92-1.98-1.53v6.33c-.22.12-.43.23-.65.35-.61-.74-1.23-1.48-1.79-2.15-1.2,1.7.2,4.1-1.31,5.99-.47-.89-.68-1.85-1.24-2.17-.6-.34-1.55-.05-2.35-.05-6.31-.01-12.63-.03-18.94-.05-.99,0-1.99-.06-3.15-.1.79-1.22,1.73-1.25,2.73-1.25,6.68.01,13.36-.01,20.04,0,.81,0,1.03-.22.88-1.07-.77-4.43-.34-8.73,1.58-12.85.12-.25.14-.55.24-.94-3.09,1.83-3.64,5.1-5,8.02-1.32-2.1-.87-4.3-1.17-6.55-2.62,2.6-3.62,5.95-5.48,8.79-.86-2.92-.91-5.81.15-8.6,2.03-5.35,5.98-8.53,11.73-9.78-2.24-.86-4.22-.15-6.38.54.39-.77.66-1.31,1.05-2.08-.66.28-1.09.4-1.45.63-1.65,1-3.27,2.06-4.93,3.04-.56.33-1.21.51-2.01.84.78-4.04,4.3-9.34,8.49-10.33,4.42-1.04,8.08-.27,10.65,3.79.16.25.34.47.63.86-.51-3.26-2.16-5-5.08-5.49-1.25-.21-2.5-.35-3.76-.53-.04-.12-.07-.23-.11-.35.37-.2.72-.53,1.12-.6,3.93-.63,7.31.21,9.55,3.98.18-.35.23-.46.28-.56,1.41-2.8,3.23-5.21,6.57-5.64,1.65-.21,3.39-.11,5.03.2,2.11.4,4.04,1.35,5.45,3.1.15.19.17.49.25.74-.25.08-.51.24-.75.22-1.44-.13-2.88-.33-4.32-.45-.84-.07-1.69-.01-2.53-.01-.01.12-.03.25-.04.37.76.5,1.52,1,2.53,1.66-5.25.43-6.05.69-6.82,2.16.64-.1,1.26-.23,1.9-.3,7.14-.79,11.78,2.99,13.55,9.12.12.41-.03.9-.07,1.53-1.84-1.39-3.42-2.58-5.17-3.91.42,1.45.75,2.55,1.07,3.66l-.46.3c-1.69-1.2-3.38-2.39-5.06-3.59-.15.12-.3.23-.45.35.47,1.06.77,2.26,1.45,3.16,1.82,2.39,2.97,5.05,3.71,7.92.33,1.28.43,2.58-.67,3.94-1.1-1.8-2.13-3.49-3.34-5.48-.06,1.96.78,3.56,0,5.09-.16.05-.32.11-.48.16-.91-1.77-1.82-3.55-2.74-5.33-1.17.91-1.39,1.29-3.56-1.57-.03.07-.09.14-.08.2.89,3.63,1.78,7.26,2.71,10.88.07.26.45.62.69.63,2.43.03,4.97.86,7.24-.67,2.73-1.84,5.43-3.71,8.1-5.63.34-.24.54-.87.55-1.33.09-3.46.13-6.92.14-10.38,0-1.02.31-1.53,1.4-1.4.46.06.94,0,1.48,0,0-1.43.01-2.75,0-4.07-.02-2.29-.25-4.6-.02-6.86.16-1.55-.05-2.71-1.25-3.62-.48.43-.94.89-1.44,1.29-1.1.87-2.3,1.19-3.56.36-1.25-.82-2.22-1.87-2.42-3.44-.16-1.25-.08-2.61-1.9-3.34,1.02-.55,1.71-.9,2.38-1.29,2.61-1.51,5.18-3.1,7.83-4.54,6.24-3.42,12.48-6.84,18.79-10.14,4.89-2.56,9.44-5.89,15.06-6.89.41-.07.89-.47,1.08-.85.64-1.26-.53-4.68-1.85-5.07-1.88-.55-3.01-1.91-4.2-3.26-.69.88-1.42,1.46-2.64.86-.8-.4-1.29-.17-1.5.86-.47,2.27-1.09,4.52-1.67,6.76-.07.27-.32.49-.49.73-.15,0-.29.02-.44.03-.57-1.9-1.14-3.79-1.73-5.76-.38.64-.85,1.29-1.18,2-.82,1.75-1.57,3.53-2.36,5.29-.64,1.44-.91,1.54-1.81.32-.82-1.11-1.58-2.33-2.04-3.61-.55-1.51-.76-3.15-1.13-4.81-.18.26-.36.47-.49.7-2.45,4.52-4.88,9.05-7.34,13.57-.21.39-.55.7-.83,1.05-.28-.39-.71-.75-.81-1.18-.6-2.43-.95-4.88-.66-7.41.69-6.07,3.18-11.45,6.51-16.44,1.7-2.55,3.81-4.84,5.72-7.23-1.48-.79-2.41-.72-3.56.54-1.75,1.94-3.42,3.95-5.13,5.93-.38.44-.79.84-1.19,1.26-.13-.04-.26-.08-.38-.12v-4.02l-.5-.1c-.92,2.07-1.92,4.12-2.73,6.23-.82,2.14-1.46,4.35-2.17,6.53-.15-.01-.31-.03-.46-.04-1.34-2.28-1.23-4.89-1.36-7.72-2.91,5.27-4.56,10.66-5.82,16.63-.7-.65-1.35-.97-1.52-1.46-.53-1.51-1.13-3.06-1.24-4.63-.19-2.9-.06-5.82-.06-8.74l-.29-.11c-4.19,4.63-7.1,10.25-11.35,15-.38-1.09-.62-2.14-.68-3.21-.27-4.97,1.07-9.55,3.55-13.82.89-1.53,1.86-3.01,2.97-4.8-3.84,1.55-7.07,3.67-10.96,4.89,2.72-5.77,7.85-8.68,12.48-12.28-5.85-.9-53.91-1.15-56.28-.16,1.17.53,2.05,1.01,2.99,1.33,2.43.83,4.89,1.56,7.31,2.41.49.17.87.69,1.3,1.04l-.25.39c-2.7-.78-5.41-1.57-8.11-2.35-.04.12-.08.25-.12.37.34.18.69.36,1.03.53,2.91,1.45,5.83,2.88,8.72,4.38.63.33,1.13.9,1.69,1.36-.07.12-.15.24-.22.37-2.09-.77-4.18-1.54-6.37-2.35,2.18,2.68,5.51,3.93,7.62,6.55-.75.72-1.2.39-1.69-.05-1.13-1.01-2.3-1.99-3.45-2.98-.09.06-.18.11-.27.17.82,1.89,1.64,3.78,2.49,5.72ZM33.97,49.56c-.33,1.39.3,1.55,1.28,1.54,11.51-.1,23.02-.24,34.53-.25,13.56-.01,27.12-.03,40.68.17,9.9.15,19.79.67,29.68.99,1.17.04,2.47.51,3.15-.51.79.33,1.41.76,2.06.83,6.28.65,12.56,1.23,18.85,1.84,2.21.21,4.42.42,6.69.64-.06-1.28-.79-1.61-1.68-1.75-1.63-.26-3.26-.48-4.88-.8-.51-.1-.97-.46-1.46-.7.05-.12.1-.25.15-.37,2.35.38,4.71.76,7.22,1.17-.42-1.78.89-3.82-1.72-5.03.75-.1,1.16-.15,1.65-.22,0-.58,0-1.13,0-1.69-.06-3.5-.12-7-.19-10.5-.05-2.09-.22-4.18-.16-6.26.05-1.53-.75-1.88-2.01-2.01-.78-.08-1.54-.37-2.31-.57.02-.16.05-.32.07-.48,1.24.07,2.49.14,3.8.21-.06-.45-.11-.84-.16-1.25-.27-.04-.5-.09-.74-.12-6.75-.78-13.49-1.69-20.25-2.3-3.59-.32-7.23-.2-10.85-.12-3.09.06-6.18.36-9.28.49-.45.02-.91-.31-1.36-.48.19-.45.28-.99.6-1.32.71-.73,1.53-1.36,2.49-2.17-.6-.04-.98-.08-1.36-.08-6.52.04-13.04.21-19.55.09-5.47-.1-10.93-.73-16.4-.77-13.2-.1-26.41,0-39.61.05-1.84,0-3.82-.42-5.36,1.56-.07-.82-.12-1.31-.17-1.88-3.28,0-6.5-.01-9.71,0-.8,0-1.61.08-2.41.16-.59.06-1.11.19-1.08.99.03.79.57.73,1.1.79.64.08,1.27.2,1.9.3-.01.12-.02.24-.04.36-.97.12-1.94.23-2.95.35v1.93h3.68c0,.07,0,.14,0,.2-1.25.31-2.5.61-3.79.93v3.56h3.57c0,.11,0,.21.01.32-.78.13-1.55.32-2.33.36-.9.05-1.15.49-1.11,1.31.07,1.49.1,2.98.11,4.47.02,2.68,0,5.37,0,8.06,1.13.11,2.35.23,3.57.35,0,.15,0,.29,0,.44-1.34.24-2.68.49-3.97.72-.13,2.6-.63,2.24,1.98,2.61.25.03.49.07.74.1,0,.06,0,.12,0,.19-.91.19-1.83.37-2.72.55.05,1.68.22,1.85,1.72,1.94,1.01.06,2.02.17,3.03.26,0,.15.01.3.02.45-1.57.12-3.14.24-4.73.35ZM162.44,172.07c-.04.19-.09.38-.13.57-5.84-.84-11.69-1.69-17.62-2.54v4.35c4.9.99,9.81,1.61,14.48,3.19-.03.18-.07.35-.1.53-4.76-.74-9.51-1.48-14.27-2.23-.46,4.26-.33,4.43,3.71,5.13.08.01.16.01.24.03,3.5.72,6.99,1.45,10.55,2.19.04-.15.15-.49.24-.84,1.22-4.77,4.03-8.27,8.86-9.45,5.1-1.25,9.82.33,13.6,3.83,3.5,3.25,5.22,7.56,5.82,12.31.05.37.4.94.69,1,1.91.39,3.85.66,5.72.97.11-1.65.22-3.3.34-5.01-1.14.32-2.21.05-2.76-1.13-.29-.62-.64-.78-1.25-.87-.91-.14-1.8-.41-2.7-.63,0-.15,0-.29,0-.44.26-.09.53-.26.79-.24.76.04,1.51.2,2.27.23.28.01.75-.15.82-.35.53-1.46.98-2.94,1.45-4.41-2.66-.45-5.27-.88-7.88-1.36-.37-.07-.71-.34-1.06-.52.07-.2.13-.4.2-.61,2.64.43,5.28.87,7.92,1.3.3.05.75.15.88,0,.76-.85,1.45-1.76,2.17-2.66-1.24-.69-1.52-1.33-.99-2.56.3-.7.65-1.41,1.13-1.98,1.34-1.6,2.75-3.12,4.19-4.74-.32,0-.62-.01-.92,0-1.62.07-3.26.35-4.85.17-3.19-.36-6.36-.95-9.53-1.51-.85-.15-1.17.01-1.23.9-.09,1.37-1.23,2.18-2.62,1.99-3.82-.55-7.65-1.01-11.46-1.65-5.07-.85-10.13-1.8-15.18-2.77-1.19-.23-2.62-.42-2.07-2.33-2.5-.25-4.83-.49-7.25-.74,0,1.1.05,1.94-.01,2.78-.06.81.23,1.09,1.04,1.21,6.68.99,13.36,2.04,20.04,3.05,6.28.95,12.57,1.87,18.85,2.82,2.34.35,4.69.71,7.02,1.15.5.09.94.54,1.4.82-.07.17-.15.33-.22.5-16.03-2.35-32.07-4.71-48.2-7.08,0,1.22.03,2.19-.01,3.15-.04.77.18,1.11,1.04,1.25,4.13.66,8.25,1.38,12.36,2.14,1.51.28,2.99.71,4.49,1.08ZM202.57,10c0-.18,0-.36,0-.55,4.18-2.21,8.74-2.54,13.44-2.27-.73-.51-1.45-.87-2.2-1.11-3.94-1.23-7.78-.79-11.57.68-3.25,1.26-5.72,3.52-7.98,6.08-.44.5-1.09.81-1.65,1.2-.12-.09-.24-.18-.36-.27.16-3.93,2.45-7.37,2.82-11.52-.46.38-.77.6-1.03.87-4.12,4.29-7.08,9.23-8.44,15.07-.15.67-.48,1.29-.73,1.93-.14,0-.29-.02-.43-.03-.15-.54-.45-1.09-.44-1.63.04-1.44.08-2.9.38-4.3.56-2.61.68-5.19.17-7.89-4.97,4.85-10.34,24.1-8.44,29.1,1.14-2.73,2.54-5.2,3-8.08.64-4.01,1.45-7.98,2.22-11.97.15-.79.47-1.56.71-2.33.17.03.33.07.5.1-.77,4.97-1.54,9.94-2.32,14.91.53-.22.77-.53,1.03-.82,2.21-2.54,4.44-5.07,6.63-7.63.2-.23.27-.61.32-.93.49-3.15,1.27-6.22,2.79-9.05.17-.32.56-.53.85-.79.05.05.09.1.14.15-1.04,3.15-2.09,6.31-3.1,9.36,3.18-2.4,6.34-4.79,9.53-7.16.26-.2.66-.2,1-.3.08.14.15.28.23.42-.6.62-1.16,1.29-1.8,1.86-3.74,3.3-7.5,6.57-11.24,9.86-.33.29-.6.66-1.14,1.26,2.9-.59,5.39-1.25,7.93-1.58,2.53-.33,5.09-.89,7.67-.24-.3.18-.6.26-.91.31-3.78.58-7.54,1.22-11.33,1.72-3.57.47-6.1,2.2-7.47,5.71.72-.07,1.39-.15,2.06-.2,3.48-.3,6.96-.63,10.45-.87.67-.05,1.37.23,2.06.36l-.05.31c-1.56.18-3.11.39-4.67.53-3.69.33-7.39.59-10.9,1.88-.41.15-.84.47-1.06.84-.59.96-1.09,1.97-1.58,2.98-.56,1.18-1.07,2.4-1.61,3.6.37,0,.52-.12.68-.23,3.91-2.7,7.83-5.4,12.44-6.79,3-.91,6.05-1.64,9.06-2.48.3-.08.55-.36.82-.55-.24-.21-.45-.55-.73-.62-1.24-.32-2.49-.63-3.75-.81-1.93-.27-3.88-.43-5.82-.63l-.1-.38c.94-.36,1.85-.88,2.82-1.05,4.71-.81,9.44-1.53,14.16-2.28,1.6-.25,3.2-.51,4.8-.76-5.17-3.68-11-2.36-16.59-2.62-.26-1.09.54-1.31,1.19-1.56.86-.33,1.82-.45,2.62-.87,3.35-1.77,6.91-2.21,10.63-2.06,2.43.09,4.87.02,7.41.02-2.63-2.9-5.73-4.83-9.69-5.26-1.16-.13-2.3-.42-3.45-.64ZM201.07,127.89c.1-.11.2-.22.3-.32-.13-.32-.19-.7-.4-.94-1.8-1.99-2.52-4.47-3.14-6.96-.25-1-.26-2.19.03-3.18.46-1.57.9-1.62,2.11-.59.4.33.76.73,1.07,1.14.97,1.26,1.91,2.54,3.01,4,.08-1.26.15-2.32.2-3.39,0-.15-.02-.35-.11-.46-1.03-1.3-2.12-2.55-3.09-3.89-.5-.68-.83-.7-1.56-.28-1.75,1.01-3.6,1.22-5.29-.14-.67-.54-1.17-.33-1.72.08-1.45,1.09-3.02,1.09-4.55.3-.85-.44-1.56-.42-2.4-.09-.78.31-1.6.58-2.42.68-.51.06-1.2-.06-1.56-.39-.84-.77-1.53-.7-2.31,0-1.24,1.13-2.64,1.22-3.97.32-1.11-.75-1.99-.55-2.97.12-1.04.71-2.04.84-3.2.02-1.7-1.2-2.49-1.13-4.08.21-.79.67-1.57.52-2.22.11-1.92-1.21-3.63-.86-5.38.34-.41.28-1.26.42-1.62.19-1.55-1-2.95-.64-4.42.11-.94.48-1.9.55-2.84-.15-.36-.27-1-.57-1.3-.42-1.13.56-2.16,1.29-3.23,1.96,2.63.09,5.07-.1,7.52-.15,4.83-.11,9.66-.14,14.48-.23,7.4-.14,14.8-.33,22.21-.43,1.49-.02,2.98.29,4.47.45,0,.2-.02.4-.03.6-16,.66-32.03.54-48.06,1.16-.05.44-.1.76-.12,1.07-.11,1.79-.1,1.78,1.7,1.8,3.1.02,6.19.05,9.29.09.44,0,.88.13,1.33.21-1.94,1.15-4.03.77-6.05.9-2.03.13-4.07.03-6.13.03v2.11c1.01,0,1.94.04,2.86,0,1.75-.09,3.27.42,4.5,1.65.64.64.99.46,1.67-.06,2.29-1.75,4.48-3.87,7.09-4.91,7.39-2.93,15.77-.65,20.93,5.32.89,1.03,1.48,1.33,2.84.7,3.39-1.57,7.06-1.46,10.68-1.11,1.15.11,2.28.66,3.38,1.11.87.36,1.67.88,2.51,1.33ZM69.87,198.06c-12.61,2.85-24.87,3.49-37.17-.24.26,3.48.49,6.84.77,10.2.6,7.29,1.21,14.59,1.85,21.88.27,3.12.57,6.25.94,9.36.31,2.59,1.64,4.26,4.29,5.02,4.62,1.34,9.26,2,14.06,1.47,3.25-.36,6.44-.86,9.28-2.69,1.49-.96,2.25-2.26,2.43-3.94.22-2,.4-4,.56-6.01.55-6.89,1.09-13.79,1.63-20.69.24-3.05.42-6.1.69-9.14.15-1.67.43-3.32.68-5.22ZM203.35,162.71c1.14-.07,2.17-.14,3.2-.2.05.16.1.32.15.48-.86.54-1.66,1.3-2.59,1.56-2.48.71-4.25,2.4-6.07,4.03-1.2,1.07-2.16,2.34-2.32,4.14,1.81-.12,3.53-.23,5.26-.35-1.71,1.96-3.59,3.53-5.27,5.29-1.75,1.83-2.55,4.11-2.57,6.69,1.48-.59,2.73-1.11,4-1.57.28-.1.82-.06.95.12.15.21.1.71-.05.98-.26.49-.68.89-1.01,1.35-2,2.71-1.16,5.6-.46,8.45.05.2.79.41,1.13.32,2.99-.78,4.46-2.93,5.1-5.8.21-.93.44-1.85.72-3.03,1.18,2.47,1.84,4.9,3.93,6.65.91-2.64,1.99-5.08,1.6-7.75-.29-1.98-.91-3.91-1.27-5.88-.12-.67-.08-1.91.21-2.02,1.1-.4,1.34.68,1.65,1.44.57,1.41,1,2.89,1.65,4.26.46.97,1.17,1.83,1.91,2.95.25-.57.38-.78.43-1,.68-3.13.99-6.28.32-9.44-.29-1.37-.81-2.7-1.07-4.07-.1-.54.22-1.16.35-1.74.41.32.98.56,1.2.98.72,1.34,1.28,2.76,1.95,4.12.31.63.73,1.21,1.23,2.02.33-.57.51-.79.6-1.04,1.3-3.81.54-7.3-1.73-10.5-.67-.95-2.01-1.21-3.06-.73-2,.92-3.76,2.16-5.13,3.92-.4.52-.42.87-.03,1.46.82,1.23,1.51,2.55,2.2,3.86.28.54.39,1.18.58,1.77l-.3.12c-1.11-1.82-2.23-3.63-3.43-5.6-1.98,2.53-3.1,5.19-4.11,7.9-.09.24.23.69.46.96,1.37,1.63,1.87,3.52,1.85,5.65-.83-1.6-1.62-3.12-2.41-4.65l-.48.06c-1.35,4.32-2.69,8.64-4.04,12.96-.62-4.88,2.2-9.05,2.82-13.88-1.05.36-2.01.69-2.96,1.02-.06-.13-.12-.27-.18-.4,1.03-.53,2.07-1.05,3.1-1.59.19-.1.46-.2.54-.37,1.29-2.83,2.55-5.67,3.86-8.6-1.51.08-3.14.16-4.76.24,0-.1-.02-.2-.03-.3,1.88-.69,3.72-1.56,5.51-.95,2.03-1.69,3.88-3.23,5.75-4.79-1.81-.78-3.84-1.45-6.05-1.27-1.17.09-2.29.39-2.84,1.79ZM219.51,35c-1.46-1.96-5.64-3.96-8.46-4.3-4.82-.58-9.5.06-14.19,1.22-7.34,1.81-14.27,4.42-20.22,9.23-1.38,1.11-2.23,2.52-2.47,4.31.75-.37,1.33-.94,2.02-1.3,1.02-.52,2.1-1.2,3.18-1.25,5.89-.26,11.11,1.7,15.85,5.12,1.01.73,2.16,1.27,3.5,2.04-1.68-5.42-5.33-8.9-9.41-12.09,7.73,2.38,14.16,6.65,19.39,13.14-.02-.45-.01-.61-.04-.76-1.05-5.47-3.2-10.33-7.62-13.96-.43-.35-.82-.78-1.14-1.23-.2-.29-.21-.69-.39-1.35,1.88,1.17,3.49,2.14,5.07,3.15.78.5,1.61.96,2.24,1.61,3.43,3.56,6.81,7.18,10.21,10.77.27.29.57.56,1.06,1.04-.68-7.11-3.02-12.98-8.99-16.99.11-.15.23-.3.34-.45,3.28.67,6.56,1.33,10.07,2.05ZM176.41,45.83c1.42.77,2.61,1.4,3.79,2.05,3.32,1.86,5.43,4.99,7.96,7.67,3.24,3.44,5.3,7.64,7.37,11.83.37.75.86,1.43,1.35,2.24.98-6.24-1.01-11.6-3.82-16.84.63.21,1.16.46,1.45.88,1.57,2.23,3.26,4.4,4.56,6.78,1.75,3.2,3.14,6.6,4.77,9.87.56,1.12,1.39,2.1,2.27,3.41.25-.86.45-1.34.52-1.85.48-3.6.38-7.14-1.07-10.55-.16-.37-.02-.86-.02-1.29.14-.02.29-.04.43-.06.36.47.81.9,1.08,1.42.94,1.82,2,3.61,2.7,5.52,1.69,4.59,4.53,8.3,8.17,11.46.7.61,1.39,1.24,2.27,2.03-.15-4.73-1.14-8.88-3.54-12.65-2.8-4.42-6.23-8.3-10.22-11.67-1.91-1.61-4.05-2.96-6.02-4.38-.36.53-.64.95-.96,1.42-3.47-2.38-6.75-4.85-10.74-6.09-3.95-1.23-7.93-2.02-12.31-1.2ZM8.11,61.67c-.08.08-.17.17-.25.25,2.74,3.57,6.26,6.35,9.71,9.22-.07.08-.14.16-.22.24-2.87-1.14-5.75-2.28-8.62-3.43-.08.15-.16.29-.23.44,3.07,4.03,7.61,6.38,11.36,9.7-3.64-1.22-7.07-3.01-10.97-3.44,2.12,1.64,4.31,3.11,6.58,4.47,1.79,1.07,3.7,1.94,5.51,2.99.8.46,1.48,1.14,1.53,2.32-3.87-2.39-7.86-4.32-12.48-4.79.11.18.16.33.26.44.28.29.57.57.86.84,2.45,2.23,5.47,3.49,8.38,4.94,1.27.63,2.65,1.17,3.35,2.63-1.94-.63-3.8-1.44-5.68-2.18-1.97-.77-3.97-1.08-6.41-.21,4.67,3.02,10.22,3.87,13.79,8.12.12-1.52.11-2.92.13-4.32,0-.55.18-1.12.09-1.65-.93-5.59-3.09-10.8-5.05-16.06-.7-1.88-1.63-3.67-2.41-5.52-.09-.22.08-.55.12-.83.29.12.71.15.84.37.39.65.67,1.36.98,2.06,2.41,5.31,4.72,10.66,6.16,16.33.1.41.3.8.45,1.19l.38.02c1.11-3.7,2.52-7.31,2.93-11.44-1.62,1.19-1.93,3.25-3.81,4.21.82-4.19,1.99-8.06,1.91-12.44-2.1,2.18-1.83,4.89-2.95,7.13-.23-.69-.33-1.38-.32-2.07.04-2.45.13-4.89.17-7.34,0-.28-.12-.55-.21-.96-1.17,1.73-.89,3.88-2.37,5.32-.4-3.9.68-7.82-.3-11.66-.1-.01-.21-.02-.31-.04-.49,2.19-.97,4.39-1.46,6.58-.13-.02-.25-.04-.38-.07-.29-2.86-.57-5.72-.86-8.59-.21-.02-.42-.05-.63-.07-.18.55-.5,1.09-.53,1.65-.12,1.97-.13,3.94-.22,5.91-.03.57-.19,1.13-.29,1.69-.5-.8-.68-1.6-.94-2.38-.97-2.98-1.93-5.96-2.97-8.91-.23-.66-.72-1.26-1.2-1.78-.22-.24-.72-.35-1.06-.3-.16.02-.32.56-.34.87-.03.39.03.81.15,1.19.51,1.61.98,3.23,1.59,4.8,1.27,3.25,2.27,6.63,4.56,9.39.16.2.11.56.22,1.17-3.06-2.13-5.82-4.05-8.57-5.96ZM186.24,236.41c0-2.06,0-4.03,0-5.99,0-2.64.41-5.3-.51-7.88-.05-.15,0-.48.12-.54,1.04-.53.78-1.51.79-2.35.08-7.2.13-14.41.21-21.62.04-3.74.07-7.47-.9-11.15-1.54-5.87-4.4-10.45-10.68-12.23-4.98-1.41-9.56-.35-12.22,3.22-1.9,2.56-2.93,5.45-2.96,8.64-.08,9.1-.13,18.2-.19,27.3-.02,2.77,0,5.53,0,8.41.9-.05,1.6-.08,2.15-.11,0-3.94,0-7.72,0-11.5,0-7.85-.07-15.7.03-23.55.04-2.99.45-5.94,2.93-8.15,4.21-3.75,8.58-2.98,13.14.08,3.6,2.42,5.26,6.1,5.36,10.43.08,3.3.1,6.6.09,9.9-.01,11.35-.1,22.7-.04,34.05.02,2.94-.42,2.43,2.7,3.01ZM121.59,15.63c.03.11.06.23.09.34,1.61-.19,3.25-.25,4.83-.59,4.22-.88,8.45-1.66,12.79-1.52.47.02.93.21,1.39.32,0,.11,0,.23,0,.34-2.05.91-4.18,1.68-6.14,2.76-1.98,1.08-3.79,2.46-5.68,3.71,3.99-.08,7.79-.58,11.6-.66,3.81-.08,7.63.27,11.67.44-2.8-2.27-6.03-3.7-8.33-6.69,3.37-.02,4.94,2.83,7.67,4.02-1.19-3.6-2.31-6.96-3.42-10.32.33.23.5.52.65.83,1.8,3.78,3.57,7.56,5.39,11.33.8,1.67,2.01,2.13,3.61,1.54-2.03-3.34-4.14-6.67-6.1-10.07-1.96-3.41-4.21-6.55-7.31-9.05.2.93.54,1.77.86,2.63.83,2.22,1.66,4.44,2.44,6.67.1.28-.09.65-.14.98-.28-.09-.63-.11-.85-.29-1.45-1.16-2.89-2.32-4.29-3.53-3.59-3.1-7.48-5.6-12.36-6.04-1.28-.11-2.57-.02-4.19-.02.49.41.68.6.91.75,1.35.87,2.74,1.67,4.05,2.59,1.8,1.25,3.67,2.3,5.84,2.77,1.38.3,2.6.98,3.53,2.35-2.89.33-5.64.64-8.39.95-.03-.15-.05-.31-.08-.46,2.08-.35,4.16-.69,6.48-1.08-1.69-.74-3.23-1.56-4.92-1.25-1.68.31-3.34.87-4.91,1.54-2.56,1.08-4.77,2.72-6.7,4.71ZM209.96,140.92c-1.41-.98-2.48-1.78-3.61-2.49-1.52-.96-3.09-1.85-4.63-2.77-.1-.06-.19-.18-.3-.2-.29-.04-.71-.15-.86,0-.16.16-.2.64-.08.86.28.52.6,1.11,1.07,1.43,2.81,1.93,5.67,3.78,8.51,5.68.45.3,1.1.61,1.23,1.04.53,1.73.89,3.51,1.32,5.27-.11.05-.21.1-.32.15-2.79-2.93-5.62-5.79-9.75-6.86.31.71.71,1.33,1.18,1.89,2.11,2.45,4.81,4.11,7.57,5.72.71.42,1.63.89,1.91,1.57.7,1.72,1.09,3.56,1.61,5.36-1.78-1.15-3.23-2.47-4.79-3.66-1.6-1.22-3.41-2.01-5.51-2.31,1.06,2.34,3.58,4.74,6.07,5.98,2.22,1.11,4.55,2.1,5.75,4.51.02.05.13.05.18.07,0-.66-.17-1.38.03-1.98.83-2.51,1.84-4.97,2.64-7.49.45-1.44.62-2.97.92-4.45-.14-.04-.28-.09-.43-.13-.55,1.01-1.16,1.99-1.64,3.04-.48,1.06-.9,2.15-1.23,3.27-.32,1.06-.49,2.16-.73,3.24-.71-1.78-1.23-3.51-1.72-5.24-.06-.21-.06-.49.04-.68,1.87-3.54,3.06-7.33,4.01-11.19.22-.89.18-1.84.27-2.76-3.46,3.64-3.89,8.24-4.48,12.81-.59-1.85-1.11-3.66-1.43-5.5-.14-.78,0-1.69.25-2.46.89-2.71,1.95-5.36,2.81-8.07.51-1.61.77-3.31,1.14-4.96-.11-.03-.23-.07-.34-.1-2.94,3.69-3.53,8.35-5.14,12.63-.63-2.77-1.84-5.35-.81-8.38.94-2.79,1.32-5.78,1.85-8.69.1-.54-.26-1.17-.41-1.75-.47.5-1.19.92-1.36,1.5-.58,2.04-1.01,4.12-1.41,6.2-.23,1.2-.28,2.43-.41,3.65-.13.02-.26.04-.39.05-.24-.81-.48-1.63-.73-2.44-.68-2.18-.89-4.33-.41-6.64.49-2.35.56-4.78.73-7.19.04-.58-.23-1.19-.36-1.78-.18-.04-.36-.08-.54-.12-.33.62-.91,1.21-.95,1.85-.18,2.55-.19,5.11-.26,7.67-.01.4,0,.79,0,1.19-.11.03-.23.06-.34.09-.93-1.74-1.77-3.54-2.82-5.2-1.05-1.66-2.31-3.19-3.58-4.9-.14.4-.22.59-.26.78-.04.2-.05.4-.02.6.3,2.06.89,3.99,2.31,5.6,1.36,1.53,2.7,3.08,4.03,4.65,1.11,1.31,1.93,3.66,1.78,4.68-3.31-2.05-6.7-4.13-10.34-6.38.28,1.61.91,2.59,1.93,3.21,2.23,1.34,4.43,2.8,6.81,3.83,2.95,1.28,3.68,3.75,4.45,6.73ZM120.59,144.41c1,6.36,1.95,12.37,2.9,18.38.96-.2,1.75-.36,2.53-.53,4.12-.92,8.25-1.81,12.35-2.79.65-.16,1.44-.43,1.29-1.54-.14-1.09-.78-1.29-1.65-1.31-.31,0-.63,0-1.12,0v-3.66h-8.68c-.01-.15-.02-.31-.04-.46.44-.13.86-.34,1.31-.39,2.03-.25,4.07-.51,6.11-.65,1.06-.07,1.32-.51,1.1-1.51-.32,0-.63,0-.95,0-3.17.02-6.35.07-9.52.04-.47,0-.93-.4-1.4-.62.05-.13.09-.26.14-.39,3.95-.17,7.9-.34,11.9-.51,0-1.08,0-1.97,0-2.85,0-.84-.38-1.05-1.21-1.05-3.62,0-7.23-.1-10.85-.15-1.35-.02-2.71,0-4.21,0ZM47.57,112.99c.12-.04.23-.09.35-.13-.21-6.32-2.34-11.94-6.41-16.98.73-.08,1.45-.16,1.89.15,1.63,1.16,3.36,2.27,4.69,3.73,3.04,3.33,5.72,6.95,7.85,10.95.29.54.64,1.05,1.13,1.85.56-5.79-1.71-10.41-4.53-15.18,4.39,1.93,6.86,5.55,9.98,8.39-2.52-4.7-5.57-8.94-10.42-11.47-2.23-1.16-4.52-2.32-7.18-2.18-5.66.3-10.3,2.83-14.36,6.6-.22.2-.38.47-.71.87.6.11,1.03.15,1.43.26,1.46.38,3.04.55,4.36,1.23,2.63,1.36,4.74,3.42,6.62,5.72,1.72,2.11,3.55,4.13,5.33,6.2ZM181.06,159.97c5.16.64,10.17,1.25,15.25,1.88.05-.54.11-.86.11-1.17-.08-8.93-.1-17.86-.28-26.78-.05-2.33-.55-4.65-.86-7.17-2.33,0-4.38-.05-6.42,0-5.32.15-7.83,2.84-7.78,8.12.05,5.11,0,10.22,0,15.33,0,3.25,0,6.5,0,9.78ZM36.91,153.45c0-2.12.32-4.12-.06-5.99-.92-4.52-2.15-8.98-3.31-13.45-.38-1.45-.92-2.86-1.38-4.28-.12,0-.24.01-.36.02-.31,2.03-.63,4.06-1,6.43-2.06-2.36-2.7-5.18-4.32-7.46,0,1.72.26,3.37.33,5.04.15,3.53.15,7.07.31,10.61.06,1.33.21,2.72.65,3.96.46,1.3,1.46,2.41,2,3.7,2.28,5.48,4.48,11,6.71,16.51.1.25.23.48.35.73-.01-4.36.63-8.66-.55-12.91-1.56-5.65-2.72-11.42-5.54-16.64-.31-.58-.36-1.29-.53-1.95,1.91,2.21,3.09,4.77,4,7.47.9,2.68,1.76,5.37,2.69,8.21ZM29.75,132.21c.1-.02.2-.04.29-.06.15-1.96.37-3.92.41-5.88.05-2.01.03-4.03-.16-6.02-.19-1.95-.56-3.9-1.01-5.81-.45-1.89-1.1-3.73-1.66-5.59.12-.04.24-.08.36-.12.96,1.67,1.88,3.35,2.87,5,1,1.67,2.07,3.3,3.14,5.02.52-5.93-2.18-13.33-5.65-15.48.88,2.54,2.78,4.68,2.68,7.56-1.21-1.92-2.41-3.85-3.32-5.91-1.21-2.74-2.01-3.01-4.17-.9-3.16,3.09-4.61,7.11-5.83,11.2-.41,1.36-.46,2.83-.68,4.25.17.07.34.14.5.21,2.02-2.27,4.04-4.55,6.32-7.11v14.68c.13.02.26.04.38.06.67-2.29,1.34-4.58,2.08-7.07.44,2.28.69,4.32,1.25,6.26.56,1.95,1.44,3.8,2.18,5.7ZM57.79,8.69l.15.3c-2.12,1.84-4.23,3.68-6.41,5.57,2.17.27,3.99-.14,5.62-1.5,1.11-.93,2.32-1.74,3.54-2.52.95-.61,1.99-1.09,2.99-1.63.08.12.17.25.25.37-2.04,1.72-4.07,3.44-6.21,5.25.41.09.68.2.95.19,2.21-.05,4.44.02,6.62-.24,1.09-.13,2.23-.69,3.12-1.36,1.47-1.1,2.76-2.46,4.13-3.69.82-.73,1.65-1.45,2.64-2.32-7.21,0-14.16-.03-21.11.04-.71,0-1.49.53-2.1,1-1.57,1.19-3.04,2.51-4.59,3.72-.42.32-1,.43-1.51.64-.07-.12-.13-.23-.2-.35,1.23-2.17,3.37-3.39,5.31-4.92-1.91-.15-3.77-.21-5.63-.11-.6.03-1.33.38-1.72.83-1.28,1.49-2.45,3.08-3.61,4.68-.23.32-.42.93-.26,1.21.3.57.52,1.3,1.53,1.24,1.8-.11,3.62.03,5.43-.06.66-.03,1.38-.28,1.93-.65,2.43-1.64,4.79-3.38,7.22-5.01.55-.37,1.28-.46,1.93-.68ZM130.8,57.44c-1.84-1.53-2.44-1.76-4.61-1.55-.96.09-1.92.27-2.85.5-3.23.82-6.04,2.3-8.11,5.41,4.1-1.73,7.95-3.36,11.78-4.97-2.64,3.49-5.47,6.74-7.72,10.36-2.04,3.27-3.74,9.34-2.88,12.37,1.33-1.9,2.66-3.81,4-5.7,2.32-3.28,4.62-6.59,7.01-9.82.61-.82,1.52-1.42,2.29-2.12-.3,3.07-.99,5.93-1.3,8.83-.32,2.92-.01,5.85.63,8.81,2.48-7.74,4.97-15.32,9.33-22.42-2,.28-3.34.84-3.99,2.55-.7,1.84-1.53,3.63-2.3,5.44-.25.6-.49,1.2-.73,1.8l-.36-.08c.05-.69-.02-1.42.17-2.06.45-1.49,1.06-2.94,1.51-4.43.13-.43.12-1.17-.14-1.38-.33-.27-1.04-.32-1.48-.16-.78.29-1.53.74-2.18,1.26-3.96,3.12-6.84,7.11-9.07,11.59-.07.14-.1.31-.18.44-.08.13-.21.23-.31.35,1.58-6.75,5.98-11.31,11.48-15.02ZM152.53,156.79c0-2.53-.02-4.89,0-7.25.08-6.03.09-12.07.3-18.1.1-2.97-1.96-5.7-4.92-5.98-1.68-.16-3.36-.32-5.05-.43-1.5-.1-3.01-.14-4.66-.22v30.43c4.7.51,9.4,1.02,14.33,1.56ZM35.77,76.82c.13.06.27.12.4.18-1.24,3.15-2.68,6.25-3.66,9.48-.99,3.27-1.52,6.68-2.24,10.03.14.07.27.14.41.2,5.2-4.52,9.71-9.93,16.24-12.76-5.39.26-9.51,3.19-13.65,6.18,4.17-5.65,9.3-10.16,15.86-13.09-1.16-.05-2.3.02-3.4.23-2.71.51-4.95,2.05-7.25,3.47-.47.29-1,.48-1.51.71-.1-.15-.21-.29-.31-.44,2.32-2.13,4.54-4.39,6.98-6.36,2.48-2,5.18-3.71,7.78-5.55-5.53.13-10.58,1.25-13.88,6.49-.07-.75-.11-1.23-.2-2.15-1.29,1.12-2.36,1.98-3.36,2.93-2.29,2.19-3.11,5.47-2.12,8.13,1.5-2.43,1.97-5.44,3.9-7.68ZM47.34,191.87c-.07-.11-.14-.23-.21-.34.38-.78,1.05-1.55,1.07-2.34.05-1.75-.03-3.56-.4-5.26-.58-2.63-1.06-2.72-3.13-.92-2.88,2.5-5.78,4.99-8.56,7.61-1.09,1.03-1.87,2.39-2.77,3.62-.39.53-.26.97.23,1.46,2.2,2.21,4.98,2.12,7.76,2.07.18,0,.38-.13.54-.24,1.19-.81,2.44-1.57,3.02-3.01.1-.25.37-.44.53-.63.33,1.12.76,2.13.89,3.17.2,1.6,1.21,1.88,2.51,1.83,1-.04,2.01-.1,3.01-.2.3-.03.65-.17.85-.39,1.37-1.45,2.7-2.93,4.06-4.41-1.85-.86-6.35-1.78-8.2-.18.92.58,1.81,1.14,2.7,1.7-.64.17-1.23.16-1.77.01-.59-.16-1.13-.47-1.7-.71-.09.12-.18.24-.26.36.67.62,1.33,1.23,2.12,1.96-1.87-.07-3-1.34-3.28-3.41.9-.5,1.73-1.08,2.65-1.46.99-.41,2.08-.94,3.07-.86,1.69.15,2.55-.83,3.85-2.04-.86-.29-1.48-.67-2.12-.69-2.08-.08-3.59,1.2-5.14,2.35-.44.33-.89.63-1.34.94ZM142.68,87.23c2.92-6.46,6.47-12.5,10.82-18.08.09.23.06.41.06.6-.11,2.48-.33,4.97-.26,7.45.04,1.42.35,2.92,1.56,3.94.18-.11.28-.13.31-.19,1.71-3.57,2.99-7.28,3.38-11.25.04-.43-.28-.9-.44-1.35-.13,0-.26,0-.39,0-.83,2.73-1.67,5.45-2.5,8.18-.28-.66-.42-1.35-.26-1.96.69-2.55,1.39-5.11,2.25-7.61.54-1.58.62-2.48-.27-4.02-4.72,4.47-8.42,9.74-11.78,15.31.08-.84.27-1.61.59-2.32,2.02-4.55,5.17-8.31,8.45-11.97,1.44-1.61,2.99-3.11,4.52-4.7-2.78-1.68-3.36-1.6-5.25.61-.16.18-.32.36-.49.53-5.26,5.46-8.84,11.82-10.27,19.32-.47,2.5-.47,5-.04,7.54ZM181.45,53.27c1.3,1.3,2.13,2.78,2.49,4.52,1.04,4.89,2.52,9.63,4.61,14.18.26.56.61,1.07,1.05,1.82.25-.58.4-.85.49-1.15.72-2.55.89-5.17.53-7.77-1.07-7.76-6.07-12.61-12.42-16.36-.82-.48-1.91-.54-2.89-.72-.65-.12-.89.26-.92.92-.11,2.5-.33,5.01,1.65,7.02.19.19.27.49.39.75,1.47,3.26,2.94,6.52,4.42,9.77.19.41.51.77.77,1.15,1.22-4.83.2-9.46-.17-14.12ZM14.14,37.64c-.1-.12-.2-.24-.3-.36,1.98-3.3,4.91-5.89,7.17-9.04-.16-.02-.25-.06-.31-.04-4.44,2.34-8.88,4.68-13.3,7.05-.2.11-.42.56-.34.73.78,1.91,1.62,3.8,2.47,5.78.81-.42,1.44-.76,2.08-1.07,6.42-3.15,12.82-6.33,19.27-9.41,1.18-.56,1.19-1.27.97-2.36-.64.17-1.24.28-1.79.49-2.21.84-4.41,1.74-6.62,2.57-.72.27-1.49.38-2.23.57-.08-.16-.16-.33-.25-.49.36-.27.68-.62,1.08-.79,2.94-1.19,5.88-2.4,8.86-3.49,1.04-.38,1.27-.9.9-1.96-2.34.9-4.63,1.79-6.92,2.67-.09-.13-.19-.27-.28-.4.39-.38.71-.89,1.18-1.11,1.7-.8,3.45-1.49,5.17-2.24.4-.17.76-.43,1.14-.66-.06-.12-.11-.23-.17-.35-.22.02-.47,0-.67.07-2.43.94-4.87,1.84-7.25,2.9-.75.33-1.39,1.05-1.93,1.71-2.31,2.84-4.56,5.73-6.86,8.57-.25.31-.7.44-1.06.66ZM99.21,7.48c-.02-.15-.04-.29-.06-.44-.54,0-1.08,0-1.62,0-6.03,0-12.07.07-18.1-.04-1.71-.03-2.95.4-4.1,1.67-1.74,1.9-3.67,3.64-5.61,5.55.51.03.9.07,1.29.08,5.43.04,10.85.09,16.28.11.26,0,.55-.22.79-.4,1.03-.76,1.96-1.68,3.07-2.3,2.65-1.49,5.38-2.84,8.08-4.24ZM25.92,100.72c-.1-.58-.02-1.44-.38-2.06-3-5.14-6.76-9.12-13.44-8.62-2.67.2-5.21.65-7.3,2.41-.9.76-1.64,1.72-2.45,2.59.09.12.19.24.28.36,4.41-2.05,8.87-3.87,13.88-3.27-1.41.52-2.85.92-4.32,1.17-2.16.38-4.01,1.27-5.27,3.09-.98,1.42-1.81,2.94-2.71,4.42.1.07.21.13.31.2,2.41-1.15,4.78-2.41,7.24-3.43,2.5-1.04,5.14-1.63,7.92-1.3-.68.36-1.41.63-2.15.67-2.97.13-6.03,2.23-6.9,4.71,2.47-.35,4.9-.84,7.36-.99,2.51-.16,5.04.01,7.91.05ZM185.69,68.48c-.07,0-.13,0-.2,0,.31,3.22.61,6.44.93,9.86,6.33-1.1,12.48-2.17,18.58-3.24-2.09-3.95-4.11-7.77-6.13-11.59-.18,2.92-.16,5.76-.2,8.61,0,.42-.34.83-.52,1.24-.14,0-.28-.01-.42-.02-1.91-3.06-3.83-6.13-5.87-9.39-.07.73-.15,1.27-.16,1.82-.03,1.77.06,3.54-.06,5.3-.14,2.05-.56,4.05-1.93,6.07-.41-.57-.81-.98-1.02-1.46-1.03-2.39-2.01-4.8-3-7.2ZM166.76,187.61c-2.57.05-3.32.72-3.31,3.08,0,6.23.05,12.46.06,18.69,0,2.41-.05,4.82-.08,7.23,0,.58.05,1.13.82.96.9-.2,1.87-.35,2.6-.84.29-.19,0-1.24-.02-1.89,0-.28-.02-.56-.02-.84-.01-6.03-.03-12.06-.04-18.09,0-2.77,0-5.53,0-8.3ZM31.59,21.97c-4.27-3.12-8.58-6.27-12.93-9.44v14.94c4.35-1.85,8.57-3.65,12.93-5.5ZM202.86,77.55c-2.41-.01-3.26.21-4.86,1.29-1.2.81-2.39,1.64-3.54,2.52-8.01,6.14-16.01,12.3-24.01,18.45-.16.12-.27.31-.39.45,1.23,0,2.4-.01,3.56,0,1.07.02,1.84-.44,2.65-1.16,2.28-2.03,4.64-3.98,7.03-5.88,5.46-4.37,10.96-8.7,16.43-13.05,1.02-.81,2-1.67,3.14-2.62ZM154.89,130.68c2.05-2.88,4.32-5.56,7.78-6.75,3.38-1.17,6.77-.98,10.16.17,3.52,1.19,5.56,3.97,7.49,6.91.48-.92.9-1.6,1.19-2.33.13-.33.13-.86-.05-1.13-1.54-2.29-3.61-3.99-6.13-5.1-5.07-2.25-10.25-2.19-15.37-.27-2.85,1.07-4.85,3.31-6.44,5.52.52,1.14.93,2.03,1.36,2.99ZM19.14,193.21c-1.92-.24-3.73.55-5.49-.13.86-.45,1.75-.7,2.6-1.04,3.32-1.3,2.53-.56,2.39-3.79,0-.04,0-.1-.01-.12-.3-.29-.61-.82-.9-.81-2.28.1-4.55.3-7.1.49.23,4.12.45,8.06.67,12.13,3.41-1.54,4.35-1.71,8.2-1.5-.12-1.73-.23-3.43-.35-5.24ZM180.71,231.11c-5.9-2.45-11.52-4.71-17.06-7.14-1.59-.7-3.01-.58-4.52-.11-.76.24-1.5.56-2.25.85.01.11.03.23.04.34,2,.92,4,1.84,6,2.76,3.46,1.58,6.93,3.18,10.4,4.73.53.24,1.21.52,1.72.39,1.81-.48,3.58-1.13,5.67-1.82ZM196.17,78.92l-.18-.37c-1.25.33-2.71.36-3.7,1.05-7.58,5.3-15.06,10.74-22.57,16.13-2.38,1.71-4.77,3.41-7.13,5.1,1.37,0,2.74.06,4.1-.03.56-.03,1.19-.25,1.63-.59,3.07-2.34,6.08-4.76,9.14-7.11,4.27-3.28,8.57-6.54,12.86-9.8,1.94-1.47,3.9-2.92,5.85-4.38ZM98.91,14.44c.31.1.42.17.52.17,3.3,0,6.6,0,9.9-.05.4,0,.83-.25,1.19-.48,2.06-1.32,4.09-2.71,6.17-4,1.54-.96,3.15-1.83,5-2.9-.47-.06-.61-.1-.75-.1-3.06,0-6.12-.02-9.17.03-.52,0-1.08.27-1.54.55-1.59.95-3.12,1.99-4.71,2.93-2.13,1.28-4.29,2.5-6.61,3.85ZM155.21,101.28c3.14.35,5.7-.37,8-2.31,2.09-1.76,4.33-3.34,6.57-4.91,4.93-3.47,9.91-6.89,14.85-10.34,1.86-1.3,3.69-2.65,5.54-3.98-.04-.1-.08-.21-.11-.31-1.29.34-2.78.36-3.83,1.06-6.77,4.49-13.43,9.15-20.15,13.7-3.53,2.39-7.12,4.67-10.86,7.11ZM212.83,76.34c-1.81-.24-3.75.51-4.96,1.67-2.55,2.45-5.08,4.93-7.7,7.31-4.77,4.32-9.59,8.58-14.39,12.87-.46.41-.9.83-1.52,1.39,2.1.22,3.62,0,5.05-1.36,6.98-6.61,14.06-13.12,21.1-19.67.75-.7,1.52-1.39,2.43-2.22ZM35,16.1c-.6-.56-1.03-1.04-1.54-1.41-2.85-2.09-5.73-4.14-8.59-6.22-1.62-1.18-3.48-1.37-5.39-1.38-.28,0-.81.29-.81.43.04,1.43-.41,2.93,1.14,4.03,4.16,2.95,8.25,6.01,12.37,9.02.07.05.2,0,.2,0-.14-.56-.37-1.08-.4-1.61-.04-.92-.41-1.51-1.18-2.06-2.53-1.84-5-3.78-7.46-5.72-.5-.39-.88-.93-1.32-1.4.36-.11.53-.03.68.07,2.65,1.75,5.26,3.56,7.95,5.24,1.22.76,2.49,1.64,4.35,1.01ZM4.93,119.46c.31-.67.49-1.07.67-1.46.71-1.57,1.4-3.16,2.15-4.71.18-.37.59-.62.97-1,.35,2.96.66,5.61.98,8.26.45-.11.55-.18.6-.28,1.59-3.33,3.18-6.66,4.75-10,1.28-2.72,2.86-5.22,5.37-7.29-9.55,1.11-16.26,10.47-15.47,16.48ZM148.75,101.59c.04.13.09.27.13.4,1.51-.24,3.27-.06,4.49-.79,4.27-2.57,8.35-5.45,12.5-8.22,5.42-3.62,10.83-7.25,16.24-10.87.33-.22.65-.48.97-.72-.05-.11-.11-.21-.16-.32-1.31.34-2.78.4-3.9,1.06-4.7,2.8-9.31,5.74-13.91,8.7-4.39,2.83-8.72,5.76-13.08,8.64-1.09.72-2.18,1.42-3.27,2.13ZM141.01,158.68c-.05.16-.1.24-.1.31.02,8.86.13,17.71-.02,26.57-.04,2.09.98,3.06,2.45,4.2v-31.07h-2.33ZM177.75,99.79c3.81.4,4.36.18,6.75-2.12,2.64-2.53,5.32-5.04,8.03-7.49,4.39-3.96,8.83-7.87,13.24-11.81.4-.36.75-.78,1.12-1.17-.08-.12-.16-.24-.25-.36-.85.46-1.79.81-2.53,1.4-5.36,4.31-10.7,8.66-16.02,13.01-3.39,2.77-6.75,5.58-10.34,8.55ZM171.9,43.93c.14.06.27.12.41.19.43-1.08.94-2.14,1.27-3.25,1.23-4.11.97-8.26.24-12.41-.91-5.18-2.47-10.14-5.29-14.63-.38-.6-.83-1.16-1.45-2.03.3,3.47.65,6.55.81,9.63.06,1.23.47,1.85,1.76,1.96-.25-1.94-.5-3.86-.75-5.79.18-.02.37-.04.55-.05,2.46,8.62,2.72,17.47,2.45,26.38ZM34.59,108.5c-.1.03-.21.07-.31.1,1.54,5.52,3.07,11.03,4.67,16.77.5-2.29.97-4.41,1.43-6.54,1.95,3.58,2.1,7.57,3.97,11,1.16-5.05.64-9.9-1.28-14.62-.09,2.45,1.65,4.76.38,7.33-.29-.56-.44-1.15-.63-1.73-1.01-3.09-2-6.18-3.08-9.24-.38-1.09-1.21-1.82-2.46-2.08,1.97,4.98,2.32,6.74,1.67,8.72-1.14-3.52-2.32-6.82-4.36-9.72ZM179.89,164.71c.05-.57.11-1.09.15-1.6.08-.93-.35-1.42-1.27-1.55-1.75-.24-3.5-.53-5.25-.77-6.21-.84-12.42-1.68-18.63-2.51-.65-.09-1.37-.25-1.41.74-.03.83-.17,1.66,1.16,1.76,2.56.19,5.13.45,7.66.87,5.82.95,11.62,2.02,17.57,3.06ZM173.89,54.53c-.37.83-.49,1.86-1.01,2.12-.87.44-1.99.48-3.01.53-1.68.09-3.37.04-5.05.09-.28,0-.76.18-.81.36-.3,1.14-.8,2.35-.66,3.46.22,1.75,2.57,3.44,4.51,3.63,2.44.24,4.36-.5,5.09-2.52.73-2.05.99-4.27,1.37-6.43.07-.39-.28-.85-.42-1.25ZM173.66,234.25c-6.23-2.87-12.56-5.79-18.88-8.7-.93,2.04-.66,2.81,1.29,3.69.11.05.21.11.32.16,4.95,2.49,9.91,4.99,14.86,7.47.63.32,1.29.59,2,.91.14-1.26.27-2.36.4-3.54ZM199.6,155.76v7.54c.9-.19,1.92.95,3.04-.09-.43-.36-.79-.66-1.21-1,1.75-2.29,3.9-3.68,7.06-3.52-2.54-1.89-4.15-4.11-5.41-6.62-.64-1.27-.06-2.14,1.37-2.14.46,0,.92.05,1.37.08.05-.09.11-.18.16-.27-.51-.43-.99-1.18-1.54-1.24-1.54-.17-3.1-.06-4.72-.06v6.02c1.69.39,3.49,0,4.93,1.29h-5.04ZM14.54,141.91c-.42,2.6-.81,5.13-1.24,7.65-.13.77.21,1.09.89,1.27.92.24,1.83.54,2.74.81-.03.15-.05.31-.08.46-.57,0-1.14.04-1.71,0-2.23-.18-2.5.04-2.37,2.3.02.3.45.78.73.81.99.12,2.01.17,3,.06,1.11-.12,1.98-.77,2.25-1.9.23-.97.26-1.98.45-2.96.18-.91-.28-1.38-1.03-1.63-.68-.23-1.4-.36-2.09-.58-.33-.1-.63-.3-.95-.46.02-.11.05-.22.07-.33.61-.1,1.22-.2,1.84-.29,2.41-.37,2.46-.48,3.14-2.79.29-.99-.07-1.29-.93-1.45-1.46-.27-2.91-.59-4.72-.96ZM174.39,73.74c.68-.2,1.41-.3,2.02-.63,1.59-.88,2.72-3.76,2.28-5.52-.14-.54-.34-1.08-.39-1.64-.13-1.41-1-2.03-2.25-2.42-.91-.28-1.53-.12-1.74.81-.38,1.64-1.57,2.12-3.02,2.23-1.17.09-1.75.77-1.84,1.83-.23,2.64,1.48,5.31,4.95,5.34ZM170.74,83.19c-.05-.12-.1-.24-.15-.36-.61.19-1.28.28-1.83.58-9.17,5-18.32,10.01-27.48,15.04-2.31,1.27-4.59,2.57-6.88,3.86,1.34.2,2.61.26,3.86.17.6-.04,1.23-.29,1.75-.6,1.3-.79,2.52-1.72,3.83-2.5,7.96-4.76,15.95-9.49,23.91-14.24,1.02-.61,1.99-1.3,2.98-1.95ZM182.24,230.28c0-.95-.06-1.63.01-2.3.11-1.09-.31-1.63-1.37-2.02-4.34-1.58-8.63-3.3-12.95-4.92-1.36-.51-2.78-.89-4.31-1.38,0,.82.04,1.42-.01,2.02-.07.79.33,1.13,1.01,1.4,4.81,1.93,9.6,3.9,14.4,5.86.99.4,1.97.82,3.22,1.34ZM159.01,184.16c-4.77-.78-9.45-1.54-14.35-2.34,0,1.17.03,2.17,0,3.16-.03.7.3,1,.95,1.13,1.14.22,2.27.48,3.41.72,3.16.67,6.33,1.33,9.57,2.02.15-1.6.28-3.11.43-4.69ZM213.91,76.61c-7.93,7.53-15.81,15-23.66,22.46,1.8.63,3.17.09,4.52-1.26,5.52-5.51,11.12-10.94,16.71-16.38,1.25-1.22,2.55-2.39,3.87-3.62-.73-.6-1.18-.98-1.44-1.2ZM176.27,82.36c-2.38-.07-5.29,1.44-17.42,9.29-5.45,3.53-11.32,6.44-16.37,10.68,1.59-.1,3.29-.09,4.54-.84,3.55-2.13,6.89-4.58,10.35-6.87,3.79-2.51,7.61-4.97,11.42-7.45,2.41-1.57,4.84-3.11,7.49-4.81ZM58.35,184.93c3.01-2.22,6.35-2.88,9.9-2.22,4.95.92,8.21,4.09,10.33,8.45,1.76,3.63,1.22,7.4.06,11.06-.92,2.92-2.5,5.48-5.17,7.25.26.46.47.82.68,1.2.23-.12.35-.16.44-.23,5.22-4.21,7.25-9.85,6.08-16.22-2.14-11.71-13.07-15.27-22.02-11.18-.89.41-1.09.97-.3,1.89ZM5.82,204.32c-.11.05-.22.1-.32.15.41,1.08.75,2.18,1.23,3.23,1,2.19,2.05,4.36,3.11,6.52,1.57,3.21,3.15,6.41,4.8,9.58.22.42.9.86,1.35.84,1.14-.04,1.35-.59.84-2.01-1.44-4.05-3.01-8.04-5.26-11.74-1.54-2.54-3.54-4.63-5.75-6.56ZM203.55,212.26c3.53-1.65,6.25-4.39,9.25-6.75,3.06-2.4,5.61-5.17,7.17-8.8-6.8,2.85-14.98,10.47-16.42,15.55ZM36.77,141.99c.1-.02.21-.04.31-.07-.42-7.46,1.09-15.04-1.33-22.62-.27,1.81-.5,3.38-.73,4.95-.15,0-.3.01-.45.02-.8-1.48-1.61-2.97-2.41-4.45-.15.05-.3.09-.46.14.49,3.03.83,6.1,1.5,9.09.77,3.39,1.85,6.72,2.78,10.07.27.95.51,1.92.76,2.87ZM10.88,186.05c2.61-.12,5.03-.23,7.54-.35-.12-1.1-.23-2.11-.34-3.12-1.12.16-2.1.29-3.08.43-.04-.15-.08-.3-.12-.45.77-.35,1.58-.65,2.31-1.08.34-.2.75-.66.74-.99-.03-1.08-.24-2.15-.39-3.23,0-.03-.15-.06-.22-.06-2.1,0-4.2,0-6.26,0v3.42c1.17.09,2.26-.84,3.32-.16.03.15.05.3.08.46-1.22.34-2.44.67-3.57.99v4.15ZM21.48,133.16c.02.09.05.19.07.28-.52.18-1.04.47-1.57.5-.79.04-1.62-.02-2.4-.18-.91-.19-1.34.13-1.52,1-.32,1.53-.67,3.06-1.04,4.58-.18.72.08,1.04.78,1.16,1.26.23,2.51.54,3.78.74.3.05.81-.14.97-.39.99-1.57.63-2.5-1.1-3.03-.38-.12-.81-.2-1.12-.43-.32-.24-.53-.63-.79-.95.08-.07.15-.14.23-.22,1.19.31,2.38.61,3.64.94.41-1.78.88-3.44,1.13-5.14.1-.68-.07-1.87-.48-2.07-1.29-.63-2.76-.9-4.28-1.34-.28,1.33-.49,2.35-.7,3.37,1.6.43,3,.81,4.4,1.18ZM158.61,195.34c0-1.49-.04-3.01.02-4.52.03-.8-.31-1-1.02-1.13-2.34-.4-4.66-.87-6.99-1.32-1.95-.38-3.89-.77-6.01-1.19,0,1.28-.03,2.4.02,3.51.01.24.26.57.49.69.48.25,1.03.39,1.55.57.21-.29.34-.56.54-.74.83-.73,1.67-1.44,2.51-2.15.47.84.93,1.69,1.4,2.53.04.07.05.16.1.22.46.56.82,1.41,1.41,1.63,1.97.75,4.03,1.28,5.98,1.87ZM25.01,61.36c2.75-2.79,5.55-5.63,8.35-8.48-.81-.7-1.5-1.8-1.32-3.38.14-1.18.03-2.4.03-3.71-2.55,2.22-3.81,5.21-6.52,6.87-.1.06-.13.29-.13.45-.01.74,0,1.47,0,2.38,1.95-1.24,2.82-3.4,4.92-4.09-1.25,1.9-2.56,3.73-4.01,5.45-1.19,1.41-1.16,3.07-1.31,4.5ZM182.27,225.1c0-1.31.04-2.23-.03-3.14-.02-.26-.31-.63-.56-.72-3.08-1.15-6.18-2.27-9.28-3.36-1.67-.59-5.18-.11-6.72.87,5.46,2.09,10.88,4.16,16.59,6.35ZM11.86,161.48c-.18,2.71-.34,5.35-.52,8.03,2.17.32,4.21.62,6.34.93.06-1,.09-1.88.18-2.76.08-.8-.27-1.15-1.04-1.3-1.04-.2-2.06-.51-3.08-.78v-.34c.35-.1.7-.25,1.06-.28.76-.06,1.53,0,2.29-.1.28-.03.74-.32.76-.53.08-.93.04-1.88.04-2.89h-6.01ZM161.29,59.29c-.28.43-.82,1-1.03,1.66-.37,1.14-.61,2.33-.76,3.52-.41,3.29,1.05,5.34,4.25,6.09,1.29.31,2.46-.13,3.07-1.32.46-.9.73-1.91,1.12-2.97-1.88-.25-3.55-.69-4.45-2.32-.81-1.47-1.43-3.03-2.19-4.66ZM20.92,46.97c-.28-2.11-.48-3.9-.79-5.68-.07-.4-.55-1.02-.84-1.02-.73,0-1.16.41-1.12,1.33.12,2.65.3,5.32.09,7.96-.18,2.26,1.16,3.77,1.93,5.59,1.87-1.1,2.09-.96,2.32,1.24.14,1.35.38,2.69.6,4.2.15-.38.33-.62.34-.87.09-2.45.17-4.9.19-7.35,0-.36-.24-.77-.47-1.06-1.2-1.51-2.44-2.98-3.64-4.49-.21-.26-.26-.64-.39-.96.07-.03.15-.06.22-.09.43.33.86.66,1.56,1.2ZM158.55,12.93c.09-.05.17-.09.26-.14.32.52.73,1,.93,1.56.82,2.26,1.6,4.54,2.36,6.82.42,1.25.94,1.53,2.32,1.07-1.33-5.79-4.43-10.47-9-14.31.89,4.16,1.94,8.27,3.07,12.35.49,1.77.62,1.78,2.51,1.37-.82-2.92-1.63-5.83-2.45-8.74ZM155.16,137.66v17.94c.87-.14,1.61-.26,2.54-.41v-18.21c-.77.21-1.61.43-2.54.68ZM90.9,14.11c0,.08.02.16.03.23,1.15,0,2.31-.1,3.45.02,1.4.15,2.58-.27,3.75-.98,3.16-1.91,6.34-3.79,9.5-5.69.21-.12.37-.31.67-.55-1.43,0-2.68-.13-3.9.03-1.37.18-2.85.35-4.01,1.01-3.24,1.84-6.34,3.93-9.49,5.92ZM13.75,209.82c.11-.02.22-.04.33-.07.09-.36.22-.72.28-1.09.3-1.86.52-3.74.9-5.59.11-.56.63-1.03,1.11-1.79,1.49,2.57,2.77,4.77,4.04,6.96-.05-2.34-.37-4.59-.61-6.85-.12-1.17-.81-1.55-1.84-1.66-2.13-.22-4.02.6-5.92,1.35-.23.09-.41.66-.37.98.28,1.91.56,3.82.99,5.7.17.73.72,1.37,1.1,2.05ZM104.15,126.25c1.65-1.4,3.3-2.81,4.92-4.19-4.9-1.08-8.95.42-12.41,3.86-1.63,1.62-3.7,6.17-3.17,7.79,2.13-3.71,4.58-7.07,8.55-9.58-1.05,2.22-2.34,4-2.13,6.33,1.29-2.4,2.58-4.8,3.9-7.28,1.84,1.04.06,2.12.34,3.06ZM188.07,197.1c0,1.75-.03,3.23.03,4.7.01.3.31.76.57.85,1.23.41,2.5.72,3.6,1.02.38-1.18.73-2.25,1.08-3.32.18-.04.35-.09.53-.13,1.4,1.63,2.8,3.27,4.25,4.96,0-1.59.05-3.11-.04-4.62-.02-.34-.42-.85-.75-.95-2.96-.85-5.94-1.63-9.27-2.52ZM28.36,73.32c.06.08.13.16.19.24,1.36-1.76,2.86-3.43,4-5.33.52-.86.32-2.17.39-3.28.05-.88.02-1.77.02-2.65,0-.85,0-1.69,0-2.89-1.37,1.49-2.43,2.7-3.56,3.84-1.05,1.06-1.86,2.1-1.12,3.71.19.4.07.95.08,1.43,0,1.64,0,3.28,0,4.92ZM37.27,64.35c-.14-.07-.29-.13-.43-.2-.52.68-1.09,1.32-1.54,2.04-.98,1.56-1.59,3.51-2.92,4.65-2.17,1.87-2.02,4.04-1.86,6.45,2.13-1.67,4.21-3.29,6.25-4.94.25-.2.47-.6.47-.91.04-2.36.02-4.72.02-7.09ZM105.48,134.4c.08.02.16.05.24.07.24,1.08.47,2.17.71,3.25.13-.03.26-.06.39-.08.11-3.76.15-7.54,2.29-10.87-.31,2.31-.45,4.58.38,6.7.78-2.94,1.57-5.9,2.36-8.85-1.67-.62-2.75.75-3.92,1.91-2.55,2.51-3.7,5.7-4.22,9.12-.25,1.61-.21,3.26-.31,4.89.14.02.28.03.42.05.55-2.06,1.11-4.12,1.66-6.18ZM17.93,223.8c1.44.38,1.62-.47,1.65-1.44.17-4.94-.38-9.79-1.78-14.53-.31-1.05-.67-2.08-1-3.12-1.79,6.59.55,12.78,1.13,19.09ZM197.13,198.03c-.91-1.95-1.68-3.62-2.47-5.28-.06-.13-.19-.3-.31-.32-2.05-.44-4.1-.87-6.11-1.29,0,1.61-.05,3.01.04,4.4.02.28.5.67.84.76,2.21.59,4.43,1.12,6.65,1.66.3.07.62.04,1.36.07ZM27.02,98.64c1.63-5.26,3.71-10.36,3.26-16.34-.81,1.24-1.49,2.2-2.09,3.21-.65,1.1-1.28,2.23-1.83,3.39-.33.69-.76,1.49-.67,2.18.34,2.54.87,5.05,1.33,7.57ZM93.32,120.16c5.23-4.32,10.61-3.55,16.2-.72-.85-1.08-1.7-2.15-2.81-2.7-1.15-.58-2.56-.66-3.97-.98.48-.14.91-.3,1.35-.4.44-.11.89-.17,1.48-.27-3.93-2.95-8.98-.85-12.25,5.07ZM125.59,131.6c-.14-.51-.2-1.08-.45-1.53-1.29-2.38-3.15-4.25-5.37-5.75-.91-.62-1.75-1.48-3.02-1.24-1.24.23-2.48.48-3.91.75,1.9,2.17,3.63,4.15,5.36,6.12.13-.09.25-.17.38-.26-.69-1.56-1.37-3.12-2.06-4.68.14-.08.28-.17.43-.25,2.47,1.54,3.22,4.53,5.3,6.47-.43-1.07-.86-2.15-1.37-3.43,2.45.45,2.76,2.93,4.72,3.8ZM154.26,223.23c.06.12.12.23.18.35.86-.2,1.73-.4,2.6-.58.96-.2,1.35-.71,1.35-1.75.01-3.41.16-6.83.21-10.24.04-3.05-.07-3.17-3.19-3.32-.81-.04-1.64.15-2.46.23,0,.17.01.33.02.5.82.08,1.63.19,2.45.22.8.03,1.44.39,1.42,1.16-.03,1.82.45,3.71-.63,5.43-.16.25-.24.75-.1.97,1.16,1.79,1.09,3.35-.27,4.96-.56.66-1.05,1.38-1.58,2.07ZM143.4,207.72c-.89-6.28-4.54-10.37-10.29-13.11.61,1.27.96,2.57,1.74,3.5,2.77,3.27,5.69,6.42,8.55,9.61ZM182.32,220.19c0-.58-.06-1.09.01-1.58.15-1.08-.32-1.53-1.34-1.82-2.27-.64-4.52-1.38-6.74-2.17-2.94-1.05-2.49-.49-2.54,1.96,0,.07.05.15.05.14,3.51,1.15,6.96,2.28,10.57,3.47ZM122.52,119.26c.17-.21.34-.43.51-.64,1.69.48,3.38.97,5.3,1.51-2.94-2.86-6.25-3.31-9.87-2.55-2.15.45-3.93,1.43-5.05,3.63h7.89c-1.17-.74-2.42-1.54-3.74-2.38,1.68-.81,2.94.19,4.21.93,1.28.74,2.48,1.6,3.72,2.41.17-.19.34-.38.51-.57l-3.5-2.34ZM11.1,170.68c0,1.64-.03,2.88.03,4.12.01.24.38.63.61.66,1.98.23,3.97.4,6.01.59,0-1.22.02-2.49-.02-3.75,0-.16-.28-.41-.47-.45-1.95-.39-3.92-.75-6.16-1.17ZM38.6,16.22c-.58-.83-.97-1.59-1.53-2.18-1.86-1.95-3.86-3.77-5.67-5.77-1.77-1.94-3.89-.84-5.89-1.01,1.24,1.06,2.56,1.88,3.82,2.8,2.03,1.5,4.15,2.91,5.96,4.65.95.91,1.84,1.39,3.31,1.51ZM171.85,177.85c-5.65-.03-8.59,3.91-8.04,9.05,1.06-.38,2.09-.76,3.3-1.19-.51-3.67,2.59-5.35,4.73-7.85ZM32.36,7.11c1.95,2.04,3.75,3.94,5.53,5.81,1.45-1.98,2.83-3.86,4.25-5.81h-9.78ZM157.98,135.88c.74-4.13,2.08-7.89,5.31-10.75-4.1.27-9.14,7.51-7.92,11.29.86-.18,1.72-.35,2.61-.53ZM137.18,68.86c.11.02.22.03.32.05,2.13-4.04,3.28-8.59,6.36-12.37-.84,0-1.54.03-2.25,0-1.21-.06-1.98.46-2.34,1.62-.57,1.88-1.28,3.74-1.67,5.65-.33,1.65-.3,3.37-.43,5.06ZM31.51,44.52c.14-.08.28-.15.41-.23v-9.73c-1.15.76-2.24,1.48-3.33,2.2-1.13.75-1.56,1.85-.82,2.96,1.13,1.68,2.48,3.21,3.73,4.8ZM63.46,198.12c-.67-1.1-1.22-1.98-1.74-2.88-.85-1.46-2.43-1.82-3.67-.63-1.28,1.22-2.39,2.63-3.68,4.07.46.03.8.1,1.14.08,2.59-.2,5.18-.41,7.95-.63ZM188.04,204.04c0,.61,0,1.12,0,1.64,0,.96-.39,2.18.06,2.82.48.68,1.73.84,2.65,1.19.9.34,1.82.63,2.77.96-.29-1.75-.5-3.26-.83-4.74-.09-.41-.49-.97-.86-1.08-1.18-.35-2.42-.52-3.79-.79ZM156.02,201.04c.87.13,1.67.25,2.56.38v-5.09c-2.06-.57-4.13-1.14-6.32-1.74-.1,1.13-.19,2.19-.29,3.28,3.27-.55,3.91-.06,4.05,3.16ZM187.87,227.23c-.1.02-.2.04-.31.05,0,3.08,0,6.15.02,9.23,0,.23.21.56.41.66,1.56.76,3.15,1.48,4.73,2.22-.08-.5-.28-.79-.5-1.07-1.09-1.39-2.27-2.72-3.24-4.18-.33-.49-.37-1.42-.13-1.97.17-.4,1-.58,1.56-.74.38-.11.81-.02,1.37-.02-1.4-1.5-2.65-2.84-3.91-4.18ZM23.63,50.18v-12.41c-2.12.56-2.12.56-2.11,2.44.02,1.81.12,3.62.06,5.42-.06,1.84.43,3.38,2.05,4.55ZM179.08,158.87c-1.56-.12-3-.18-4.43-.35-4.66-.56-9.32-1.19-13.98-1.72-1.27-.14-2.58-.02-3.87-.02,0,.16-.02.32-.02.48,7.46,1.01,14.91,2.02,22.48,3.04-.06-.53-.11-.91-.17-1.43ZM203.56,147.48c-.7-1.03-1.3-1.83-1.82-2.67-1.24-2.01-.55-3.27,1.82-3.4.05,0,.09-.1.22-.23-1.33-.99-2.64-1.96-4.09-3.04v9.03c1.34.11,2.49.21,3.87.32ZM113.04,119.03c2.93-4.18,6.11-8.02,11.63-8.81-3.76-.81-6.08,1.56-8.81,3.88.71-1.46,1.27-2.6,1.83-3.75-3.77,1.72-4.32,5.12-4.65,8.68ZM18.28,156.34h-5.68c-.13.89-.24,1.72-.39,2.55-.16.86.27,1.2,1.05,1.2,1.04,0,2.09,0,3.13-.08,1.48-.11,1.67-.33,1.77-1.85.04-.56.07-1.12.11-1.82ZM174.65,212.8c0,.19,0,.38,0,.57,2.45.89,4.9,1.79,7.55,2.75v-4.82c-2.57.51-5.06,1-7.55,1.49ZM14.14,225.02c-2.5-4.19-5.69-7.54-9.81-9.52,2.27,2.83,4.73,5.79,7.06,8.85,1.04,1.36,1.08,1.49,2.75.67ZM141.08,114.61v8.89h2.23v-7.22c-.82-.62-1.48-1.11-2.23-1.67ZM31.29,172.78c-.87,5.24-.52,8.21,1.19,10.29,1.28-4.49,1.21-7.26-1.19-10.29ZM211.98,74.15c-1.35-2.34-2.53-4.39-3.72-6.44-.29,2.43-.57,4.83-.86,7.28,1.56-.29,3.03-.56,4.58-.84ZM154.22,206.07c1.44.39,2.86.77,4.28,1.15.61-3.95.46-4.23-2.69-5.09-.07-.02-.16,0-.33.02-.41,1.29-.84,2.61-1.26,3.92ZM181.96,78.73c-.39-.1-.73-.19-1.08-.28.72-.5,1.51-.73,2.26-1.06.32-.14.76-.46.79-.73.08-.72-.54-.93-1.05-.73-1.4.54-2.85,1.06-4.11,1.86-.94.6-1.62,1.62-2.62,2.68,3-.21,4.97-.82,5.82-1.73ZM46.02,119.66c-.16.04-.32.09-.48.13,1.17,4.2,2.35,8.4,3.52,12.61.1-.03.2-.05.29-.08-.32-4.43-.76-8.83-3.34-12.66ZM18.36,126.94c1.33.45,2.46.83,3.68,1.24-.37-1.85-.69-3.56-1.06-5.25-.06-.27-.32-.49-.49-.74-.27.19-.7.32-.79.57-.49,1.39-.91,2.8-1.34,4.19ZM34.43,179.34c-1.02,2.9-1.16,6.56.82,7.87.95-2.72,1.17-5.37-.82-7.87ZM193.63,211.73c-1.91-.3-3.68-.58-5.45-.86-.04.15-.09.3-.13.44,2.36,1.44,4.71,2.89,7.18,4.4-.54-1.35-1.07-2.67-1.59-3.98ZM34.86,63.83c.15.11.3.21.45.32.42-.52.94-.99,1.24-1.57.33-.63.74-1.41.65-2.05-.19-1.3-.71-2.55-1.09-3.81-1.84,2.14-.98,4.72-1.26,7.11ZM27.48,41.52v7.35c.8-.96,1.34-1.65,1.93-2.29.81-.88.85-1.65-.04-2.56-.7-.7-1.21-1.59-1.89-2.5ZM144.57,61.81c1.46-1.64,2.92-3.27,4.52-5.07-1.08-.07-1.87-.16-2.66-.16-.27,0-.68.16-.79.37-.81,1.48-1.35,3.05-1.07,4.86ZM38.62,58.91c.13.04.26.07.39.11.67-.6,1.36-1.18,2.01-1.8.12-.11.21-.42.14-.53-.6-.93-1.2-1.87-1.92-2.71-.13-.16-1.2.2-1.19.26.14,1.56.36,3.12.57,4.68ZM30.41,170.02c-1.22.51-2.68.37-2.54,1.55.22,1.79.98,3.51,1.52,5.26.15-.03.29-.06.44-.1.19-2.13.37-4.26.58-6.71ZM121.48,159.08c-.13-.97-.32-1.75-.33-2.55-.02-1-.48-1.36-1.41-1.23-.46.06-.91.14-1.45.22.15,1.28.29,2.41.43,3.56h2.77ZM116.75,144.6c.14.81.25,1.63.43,2.44.43,1.94.56,2.01,2.6,1.5-.05-.39-.08-.79-.14-1.18-.07-.44-.17-.87-.23-1.3-.25-1.7-.77-2.01-2.65-1.46ZM191.02,222.59c.07-.07.15-.15.22-.22-.96-1.82-1.91-3.64-2.87-5.45-.35.57-.46,1.04-.49,1.51-.07.88-.14,1.76-.11,2.63,0,.26.29.64.53.73.88.32,1.81.55,2.71.81ZM117.86,150.09c.11,1.06.22,2.13.33,3.2.11,1.03.92.73,1.49.69.34-.02.94-.4.92-.57-.09-.99-.17-2.06-.6-2.92-.19-.38-1.21-.34-1.85-.49-.06-.01-.14.04-.3.09ZM118.59,143.01c-.53-3.5-.6-3.57-2.76-2.88q.69,3.25,2.76,2.88ZM114.4,134.29c.33,1.29.61,2.56,1,3.79.1.31.52.69.84.73.42.05.88-.2,1.33-.32-.12-.41-.14-.9-.39-1.2-.86-1.02-1.81-1.97-2.77-3ZM119.24,162.7c.71,0,1.31.01,1.91,0,.57-.02,1.04-.14.96-.9-.06-.63-.23-1.08-1-1.05-.71.03-1.41,0-2.24,0,.14.75.25,1.29.37,1.95ZM122.39,164.15c-3.24,0-3.28.03-2.54,1.92.43,0,.86.03,1.3,0,.47-.04.93-.16,1.49-.26-.09-.6-.16-1.1-.24-1.65ZM36.24,189.04c2.38-1.9,2.47-2.92.63-4.56-.11.7-.24,1.4-.34,2.11-.1.74-.18,1.48-.29,2.45ZM182.82,70.97c-.09,0-.17,0-.26,0-.46.93-.92,1.86-1.5,3.02.93-.11,1.54-.18,2.34-.28-.21-1-.4-1.87-.59-2.74ZM122.94,167.95c-.6-1.46-1.66-.79-2.47-.8-.19,0-.39.36-.59.56.24.19.48.54.71.53.7-.01,1.4-.16,2.34-.29ZM41.68,53.49c.29.69.53,1.24.8,1.88.69-.61,1.26-1.1,1.96-1.72-1-.06-1.77-.1-2.76-.16ZM42.98,197.95c.01.1.03.2.04.3.63.1,1.26.19,2.07.31-.12-.75-.21-1.25-.33-1.94-.73.54-1.26.93-1.79,1.33Z"/>
  <path class="st0" d="M114.54,175.18c-.5.55-1.03,1.07-1.48,1.66-6.18,8.09-12.36,16.18-18.5,24.29-.63.83-1.19,1.04-2.23.75-1.62-.45-3.3-.65-4.96-.95-.26-.05-.52-.11-.82-.18,0-1.11.76-1.1,1.42-.99,1.74.28,3.46.63,5.38.99,1.24-1.78,2.63-3.78,3.93-5.65-3.09-1.92-6.18-3.78-9.19-5.75-.66-.44-1.06-1.28-1.58-1.94.77-.24,1.52-.55,2.31-.7,1.88-.38,3.82-.56,5.66-1.06,2.18-.59,4.18-.22,6.26.42,3.45,1.07,2.54,1.42,4.86-1.56,2.47-3.18,4.83-6.43,7.25-9.65.41-.54.87-1.04,1.38-1.64.6.46,1.14.85,1.65,1.28.65.55.39,1.15,0,1.72-1.32,1.92-2.66,3.83-3.98,5.76-.48.7-.85,1.48-1.39,2.11-.97,1.12-.55,2.3-.31,3.85.73-.71,1.35-1.19,1.8-1.79,2.39-3.13,4.74-6.3,7.1-9.46.12-.16.23-.33.34-.5q1.64-2.3,4.24-1.21c1.53.64,3.03.14,4.47-.28,1.05-.31,1.99-1.01,3-1.48.48-.22,1.06-.44,1.53-.35.25.04.65.9.52,1.14-1.03,1.89-2.15,3.74-3.28,5.57-1.47,2.4-2.95,4.79-4.48,7.15-.63.98-1.05,1.88-.78,3.13.61,2.87,1.03,5.78,1.6,8.65.08.42.53.86.92,1.11,1.08.69,2.25,1.25,3.33,1.94.38.24.62.72.92,1.1-.08.11-.16.21-.24.32-.46-.16-.95-.27-1.37-.5-1.23-.67-2.5-1.31-3.63-2.14-.55-.4-1.01-1.13-1.18-1.8-.6-2.36-1.05-4.75-1.56-7.14h-.5c-.09.44-.32.9-.26,1.32.27,1.83.62,3.64.95,5.46.04.2.16.41.11.59-.45,1.65.8,2.13,1.85,2.76,1.18.71,2.58,1.2,2.94,2.6-1.66-.42-3.34-1.12-5.06-1.21-1.76-.09-3.56.41-5.57.69,1.25,1.38,2.73,1.85,4.2,2.3,1.34.42,2.72.7,4.08,1.09.44.12.84.37,1.17.79-1.7-.33-3.39-.75-5.1-.97-1.05-.13-2.26-.25-3.19.13-1.72.69-3.2.65-4.59-.53-.95-.8-2.03-.86-3.16-.77-1.67.13-3.34.26-5.05.21,1.43-1.11,3.24-.85,5.27-1.39-1.82-1.18-3.35-2.17-4.89-3.15-.16-.1-.39-.15-.58-.13-2.41.38-4.82.78-7.22,1.18,0,.14,0,.29,0,.43,1.17.31,2.35.61,3.65.95-1.24.84-4.39.63-7.94-.46,4.25-5.8,8.46-11.55,12.67-17.3l.42.13c.11.65.27,1.29.34,1.94.32,3.16.64,6.32.91,9.49.04.43-.18.88-.28,1.32-.4-.12-.85-.17-1.19-.38-1.38-.83-2.71-1.73-4.08-2.57-.37-.23-.83-.31-1.24-.46-.08.11-.16.22-.24.33.37.43.67.96,1.13,1.26,2.43,1.64,4.93,3.18,7.36,4.82,1.93,1.3,3.87,2.61,5.68,4.08.91.74,1.43.51,2.16-.25-1.3-.93-2.58-1.83-3.85-2.74-.82-.58-1.59-1.25-2.45-1.75-1.19-.69-1.52-1.76-1.66-3.02-.39-3.47-.79-6.95-1.3-10.4-.28-1.88-.11-3.54,1.11-5.11,1.54-1.96,2.94-4.03,4.38-6.07.25-.35.36-.8.54-1.21-.15-.09-.3-.18-.45-.27ZM112.1,196.19c-.2,3.12-.03,3.16,1.34,4.3,2.22,1.85,4.37.91,6.58.27.05-.13.09-.25.14-.38-2.62-1.36-5.23-2.72-8.06-4.19ZM116.16,194.95c.04.17.09.35.13.52,1.97,1.04,3.93,2.09,5.9,3.13.09-.08.19-.15.28-.23-.36-1.9-.73-3.81-1.13-5.91-1.81.87-3.49,1.68-5.18,2.49ZM110.35,190.83c.55-.39.83-.54,1.04-.75,4.05-4.17,7.41-8.87,10.45-13.81.15-.25.09-.62.15-1.08-.33.14-.43.16-.47.21-3.6,4.72-7.21,9.44-10.79,14.18-.18.24-.19.61-.38,1.25ZM130.59,175.79c-.17-.13-.34-.26-.51-.39-1.2,2.06-2.29,4.2-3.63,6.16-1.41,2.05-2.98,4-4.63,5.87-1.6,1.81-3.38,3.45-5.08,5.17,6.59-4.01,10.28-10.36,13.86-16.81ZM112.57,192.07c.07.1.14.2.21.3.76-.53,1.6-.98,2.28-1.6,4.39-4.03,7.72-8.89,10.66-14.11-.45.13-.91.33-1.11.69-2.18,3.77-4.54,7.41-7.58,10.55-1.41,1.46-2.96,2.79-4.45,4.18ZM100.82,196.8c-1.03,1.46-1.93,2.74-2.82,4.02.08.11.16.21.24.32,2.03-.37,4.06-.73,6.37-1.15-1.34-1.13-2.47-2.08-3.78-3.19ZM112.76,190.24c4.85-3.61,7.94-8.66,10.99-13.8-.42.08-.8.26-1,.55-1.65,2.38-3.17,4.85-4.91,7.16-1.58,2.11-3.38,4.07-5.08,6.09ZM127.84,176.61c-.08-.08-.16-.16-.23-.23-.29.3-.68.56-.87.92-2.56,4.93-5.82,9.33-9.84,13.16-.13.13-.21.31-.46.69,3.38-2.1,10.27-10.99,11.4-14.53ZM89.8,187.82c-.12.21-.24.42-.36.63,2.98,1.77,5.97,3.54,8.95,5.3.1-.18.21-.35.31-.53-2.87-1.95-5.68-4.02-8.9-5.4ZM101.89,188.02c-1.67-.59-3.27-1.14-5.15-1.8,1.19,1.9,3.03,2.24,4.53,3.2.17-.3.28-.47.35-.64.09-.21.16-.43.27-.76ZM92.17,187.31c-.06.12-.13.24-.19.36,2.52,1.39,4.84,3.18,7.55,4.22.1-.18.19-.36.29-.54-2.55-1.35-5.1-2.7-7.64-4.05ZM103.76,194.25c-.03.12-.07.23-.1.35,1.25.78,2.5,1.56,3.75,2.35.13-.07.26-.15.39-.22-.26-.7-.34-1.81-.81-2.01-.96-.41-2.13-.34-3.22-.47ZM100.53,190.48c-1.13-1.52-5.27-3.47-6.36-3.12,2.23,1.09,4.29,2.11,6.36,3.12ZM106.61,189.31c-.54.74-1,1.39-1.53,2.11,2.1.12,2.29-.14,1.53-2.11Z"/>
  <path class="st0" d="M61.72,251.07c2.71-2.15,49.92-15.43,52.28-14.35-17.38,4.93-34.76,9.87-52.14,14.8-.05-.15-.09-.3-.14-.45Z"/>
  <path class="st0" d="M142.7,235.61c-1.6,1.1-3.07.78-4.37.41-2.14-.6-4.31-1.33-6.26-2.39-2.2-1.2-4.44-1.49-6.84-1.42-.6.02-1.2-.05-1.81-.08-.02-.17-.04-.33-.07-.5.96-.25,1.92-.65,2.9-.71,2.49-.15,4.94.26,7.04,1.66,2.38,1.59,5.01,2.28,7.78,2.66.46.06.9.2,1.62.36Z"/>
  <path class="st0" d="M162.12,6.32c1.55-.92,16.69-.85,17.95.06-.65.27-1.15.64-1.65.65-4.78.05-9.56.06-14.35.02-.57,0-1.13-.41-1.95-.73Z"/>
  <path class="st0" d="M125.42,217.44c-1.03.2-2.05.55-3.08.56-2.16.03-4.32-.22-6.48-.15-2.83.09-5.67.35-8.49.58-.95.08-1.89.26-2.94.18.23-.14.44-.33.69-.42,3.78-1.28,7.53-2.27,11.66-1.4,2.59.55,5.35.24,8.04.32.18,0,.37,0,.55,0,.02.11.03.22.05.33Z"/>
  <path class="st0" d="M75.43,177.57c1.88-1.2,3.8-2.39,6.19-1.34,1.89.83,3.83,1.14,5.86.86,2.13-.28,3.74.81,5.35,1.93-.02.1-.04.21-.07.31-.93-.2-1.86-.43-2.8-.58-1.02-.17-2.05-.38-3.07-.36-1.78.05-3.52.08-5.16-.82-1.27-.7-2.61-.61-3.95-.1-.71.27-1.48.39-2.23.57-.04-.16-.08-.32-.12-.49Z"/>
  <path class="st0" d="M8.86,231.93c6.44-2.12,13.14-2.89,19.82-3.77.06.15.12.29.17.44-.4.18-.78.44-1.2.52-4.27.77-8.54,1.49-12.81,2.25-1.97.35-3.93.72-5.89,1.09-.03-.17-.06-.35-.09-.52Z"/>
  <path class="st0" d="M55.68,172.34c1.25-.29,2.52-.85,3.76-.81,2.15.05,4.28.49,6.42.73,2.07.23,4.15.42,6.22.64.3.03.59.08.94.38-.29.14-.57.34-.88.4-2.72.57-5.4.67-7.99-.65-2.22-1.13-4.54-.75-6.85-.32-.5.09-1.01.12-1.52.17-.04-.18-.08-.36-.12-.54Z"/>
  <path class="st0" d="M105.65,244.48c-2.37,1.47-16.11,4.97-17.85,4.61.94-1.07,15.03-4.76,17.85-4.61Z"/>
  <path class="st0" d="M151.37,238.3c3.43-1.16,11.18,3.26,13.06,5.46-4.31-1.8-8.67-3.62-13.06-5.46Z"/>
  <path class="st0" d="M102.49,211.73c-.84,0-1.75.2-2.52-.03-3.92-1.17-7.92-1.6-11.98-1.6-.06,0-.12-.08-.36-.24,2.59-1.01,5.12-.87,7.59-.36,2.45.51,4.84,1.3,7.26,1.96,0,.09,0,.18.01.28Z"/>
  <path class="st0" d="M146.62,230.63c-1.02.69-2,.59-2.96.39-.66-.13-1.29-.48-1.95-.61-1.51-.3-3.04-.53-4.57-.78-.37-.06-.75-.07-1.12-.11-.04-.15-.07-.3-.11-.44.48-.2.96-.56,1.44-.56,2.08,0,4.16.02,6.09,1.08.91.5,2.01.66,3.18,1.03Z"/>
  <path class="st0" d="M129.18,245.37c2.13-1.02,6.26-.43,9.8,1.4-.51.23-.84.52-1.11.47-2.56-.44-5.11-.93-7.65-1.42-.29-.06-.56-.24-1.04-.45Z"/>
  <path class="st0" d="M182.61,243.15c1.96-2.22,8.85-1.47,10.32,0h-10.32Z"/>
  <path class="st0" d="M107.5,173.33c-2.57.45-5.15.63-7.93.2,1.18-1.18,5.99-1.28,7.93-.2Z"/>
  <path class="st0" d="M173.12,244.84c-2.48-.94-4.96-1.88-7.44-2.83.06-.16.13-.32.19-.48,2.85.02,5.27,1.14,7.39,3.01-.05.1-.1.2-.14.3Z"/>
  <path class="st0" d="M122.43,221.01c2.6-1.66,5.01-1.89,7.52-.46-2.41.15-4.82.3-7.52.46Z"/>
  <path class="st0" d="M87.37,214.15c-2.08.22-4.16.44-6.46.68.89-1.47,4.67-1.89,6.46-.68Z"/>
  <path class="st0" d="M126.57,215.02c1.62-1.08,3.94-.98,5.17.19-1.86.91-3.5-.16-5.17-.19Z"/>
  <path class="st0" d="M12.61,244.23c.68-1.27,4.81-2.61,6.27-2.15-1.96,1.23-4.07,1.33-6.27,2.15Z"/>
  <path class="st0" d="M135.26,190.9c-1.69.1-3.39.21-5.2.32.88-1.47,3.47-1.69,5.2-.32Z"/>
  <path class="st0" d="M48.83,170.11h-5c.99-1.36,3.29-1.47,5,0Z"/>
  <path class="st0" d="M69.08,72.96c6.75,0,10.7,6.09,10.48,11.33-.24,5.88-5.21,10.72-11.06,10.45-5.8-.27-11.08-4.85-10.9-11.1.18-6.45,4.91-10.86,11.48-10.68Z"/>
  <path class="st0" d="M71.5,146.1c.17.05.32.12.47.13,3.05.15,6.11.27,9.16.44.59.03,1.16.26,1.97.46-2.53,2.15-5.01,3.5-8.13,3.48-3.5-.02-7,.11-10.5.11-.36,0-.71-.41-1.07-.63.35-.21.69-.59,1.05-.61,4.41-.19,8.83-.31,13.25-.5.6-.03,1.18-.38,1.68-.8h-19.61c.29.44.53.73.69,1.06.16.33.23.69.35,1.08-1.58.07-3.19-1.32-3.82-3.26,1.63,0,3.21,0,4.79,0,.68,0,1.37-.01,2.05-.02.16,0,.4.05.47-.03,1.5-1.7,3.46-.62,5.19-.86.31-.04.63,0,1.04,0,.1-.46.18-.87.29-1.37-4.73-.68-9.5.05-14.29-1.08.24-.42.32-.65.47-.8,4.63-4.3,7.74-9.63,10.3-15.31,1.8-3.99,3.54-8.01,5.38-11.98.3-.65.95-1.14,1.44-1.7.07.72.28,1.45.2,2.15-.3,2.55.27,4.88,1.16,7.27,1.22,3.31,2.21,6.72,3.04,10.15.72,2.96.05,5.92-.74,8.81-.76,2.74-.2,2.27-2.96,2.32-.52.01-1.05.05-1.57-.02-1.09-.15-1.69.24-1.74,1.51ZM72.78,118.84c-.1-.03-.2-.05-.3-.08-3.59,8.38-6.8,16.97-12.9,24.13,3,.17,5.92.14,8.84.18,2.65.03,2.82.09,3.15-2.61.53-4.35.9-8.72,1.17-13.09.17-2.83.03-5.69.03-8.53ZM74.08,123.32c-.19,3.53-.31,7.07-.59,10.6-.21,2.6-.61,5.19-.96,7.78-.14,1.01-.02,1.58,1.24,1.54,2.04-.07,2.54-.35,3.11-2.43,1.7-6.24-.86-11.83-2.8-17.48Z"/>
  <path class="st0" d="M98.58,65.22c-1.32.52-2.6.96-3.81,1.55-.3.14-.49.76-.51,1.17-.06,1.61.04,3.22-.04,4.82-.06,1.28-1.04,2.17-2.25,2.24-1.24.07-1.93-.4-2-1.39-.07-1.01.76-2.14,1.79-2.02,1.57.18,1.38-.74,1.28-1.66-.18-1.68-.4-3.35-.61-5.02-.13-1.01.09-1.69,1.18-2.16,1.57-.69,3.02-1.66,4.53-2.48.31-.17.67-.23,1.19-.4.16,1,.36,1.88.44,2.77.14,1.48.19,2.97.31,4.45.06.71.14,1.43.31,2.12.61,2.47-.59,3.22-2.79,3.23-.75,0-1.17-1.17-.75-2.06.15-.31.39-.71.68-.8,1.63-.55,1.4-1.77,1.2-3.02-.07-.43-.1-.86-.15-1.33ZM94.11,65.39c1.98-.44,3.6-1.75,3.52-2.84-2.45.4-4.03,1.68-3.52,2.84Z"/>
  <path class="st0" d="M110.67,98.71c1.2-2.05,2.76-3.82,5.02-4.6,1.1-.38,2.45-.39,3.61-.17,1.8.34,2.84-.06,3.56-1.88,1.32-3.34,6.19-4.8,9.42-2.59-3.33.23-6.72.08-7.92,3.99,1.02.52,2.03,1.03,3.04,1.54,0,.15,0,.3,0,.45-3.94-.8-6.77,1.72-9.94,3.22-.06-.08-.12-.16-.18-.24.69-.84,1.39-1.68,2.19-2.65-1.85-.57-3.3.03-4.7.69-1.41.66-2.74,1.49-4.11,2.24Z"/>
  <path class="st0" d="M99.33,156.21c-9.56.13-19.11.87-28.67.17-.03-.17-.06-.35-.09-.52.86-.21,1.72-.57,2.58-.59,3.38-.06,6.75-.06,10.13,0,4.86.1,9.72.28,14.57.43.51.02,1.01.13,1.52.2l-.04.29Z"/>
  <path class="st0" d="M86.2,159.24c1.98-.1,3.96-.34,5.93-.29,5.58.15,11.17.42,16.75.64.15,0,.3.04.46.05.03.11.06.23.1.34-.9.26-1.79.72-2.69.73-4.01.05-8.03,0-12.04-.08-2.09-.04-4.17-.21-6.25-.37-.78-.06-1.54-.28-2.32-.43.02-.2.04-.4.06-.6Z"/>
  <path class="st0" d="M109.38,81.25c-.66-.77-1.32-1.54-2.19-2.57-.27.83-.5,1.32-.59,1.84-.21,1.27-.34,2.55-.52,3.82-.25,1.8-1.38,2.77-3.19,2.79-1.15,0-1.78-.81-1.44-1.92.36-1.17,1.07-1.92,2.39-2.02.31-.02.77-.41.84-.71.46-1.82.81-3.68,1.26-5.5.11-.45.5-.83.76-1.25.27.29.57.55.81.86.7.92,1.48,1.8,2.04,2.8.27.49.13,1.21.17,1.82l-.35.04Z"/>
  <path class="st0" d="M98.13,92.97c-1.4.46-2.5.8-3.57,1.19-2.4.88-3.75,2.64-4.2,5.14-.34,1.89-.57,2.16-2.52,2.18-2.19.02-3.79,1.04-5.19,2.59-.37.41-.88.7-1.47,1.16.06-2.18,2.18-4.73,3.99-4.83,2.29-.12,3.63-.97,4.39-3.33,1.12-3.45,3.88-4.65,8.57-4.09Z"/>
  <path class="st0" d="M114.01,152.87c-1.15.2-2.31.56-3.46.57-4.17.02-8.35-.06-12.52-.15-.68-.01-1.35-.24-2-.59,5.98-1.34,11.97-.57,17.94-.49.01.22.03.44.04.66Z"/>
  <path class="st0" d="M94.4,163.42c-1.11.68-17.26,1.91-19.7,1.39.37-.2.73-.57,1.12-.59,5.3-.35,10.59-.66,15.89-.95.79-.04,1.59.08,2.68.15Z"/>
  <path class="st0" d="M66.07,159.34c4.25-.82,8.55-.31,12.83-.25.04.11.08.22.13.33-.45.17-.89.46-1.36.5-1.24.11-2.49.15-3.73.16-2.21,0-4.42-.02-6.63-.05-.42,0-.84-.14-1.25-.22,0-.16.01-.31.02-.47Z"/>
  <path class="st0" d="M54.47,148.23c-.7,1.22-1.64,1.47-2.76,1.44-1.6-.05-3.21.02-4.8-.07-.64-.04-1.26-.35-1.86-.72,3.09-.8,6.2-.57,9.42-.65Z"/>
  <path class="st0" d="M64.76,154.09c-1.18,1.27-7.11,1.58-9.54.6.94-.91,3.63-1.09,9.54-.6Z"/>
  <path class="st0" d="M86.91,148.53c4.39-.85,8.82-.29,13.24-.3.04.12.08.24.13.36-.39.13-.77.36-1.16.36-3.01.03-6.03.01-9.04.03-.64,0-1.28.11-1.92.1-.43,0-.85-.13-1.28-.19.01-.12.03-.24.04-.35Z"/>
  <path class="st0" d="M47.11,157.75c3.89-.42,7.79-.43,11.7-.03.02.12.05.23.07.35-.36.11-.73.31-1.09.31-3.3.02-6.6.02-9.9,0-.28,0-.55-.18-.82-.28.02-.12.03-.24.05-.36Z"/>
  <path class="st0" d="M87.78,152.32c-2.68.66-5.4.55-8.24.45.62-1.04,6.62-1.34,8.24-.45Z"/>
  <path class="st0" d="M94.67,167.18c-1.22,1.07-5.46,1.26-6.88,0h6.88Z"/>
  <path class="st0" d="M51.06,152.97c-2.11.84-4.28.48-6.44.32,2.1-.81,4.27-.6,6.44-.32Z"/>
  <path class="st0" d="M65.15,163.35h3.76c-1.21.83-2.48.61-3.74.36v-.36Z"/>
  <path class="st0" d="M90.64,32.46c-1.05,3.53-2.11,7.05-3.15,10.58-.41,1.39-1.55,2.03-2.88,1.46-.32-.14-.56-.64-.69-1.02-1.15-3.47-2.26-6.95-3.39-10.43-.08-.25-.2-.5-.49-.72,0,.78-.01,1.55,0,2.33.06,2.89.08,5.79.21,8.68.04,1-.3,1.26-1.23,1.2-1.08-.07-2.17-.02-3.26,0-.67,0-.94-.15-.94-.97-.04-6.19-.14-12.38-.3-18.57-.02-.95.15-1.33,1.13-1.3,1.97.06,3.94.08,5.91.06.77,0,1.15.28,1.38,1.01.83,2.6,1.72,5.18,2.59,7.77.07.21.16.41.3.79.85-2.91,1.68-5.62,2.42-8.35.25-.92.63-1.33,1.64-1.27,1.56.1,3.14.06,4.71.02,1-.03,1.39.28,1.38,1.38-.05,4.95-.02,9.9.01,14.85,0,1,.09,2.01.21,3.01.09.78-.19,1.14-.96,1.16-.04,0-.08.01-.12.02-3.56.5-3.93.19-3.96-3.36-.02-2.76,0-5.52,0-8.28-.18-.03-.36-.05-.54-.08Z"/>
  <path class="st0" d="M158.01,37.71v10.31c-1.42-.15-2.83-.26-4.24-.46-.2-.03-.49-.45-.48-.69.04-6.44.11-12.88.19-19.32,0-.07.07-.14.18-.36,1.44.19,2.95.35,4.44.63.32.06.66.53.82.89,1.41,3.32,2.79,6.66,4.45,9.98,0-2,0-4,0-5.99,0-1.01.02-2.01-.01-3.01-.02-.68.26-.97.94-.9,1.04.1,2.08.19,3.13.28.89.07.84.73.82,1.33-.1,3.02-.23,6.03-.33,9.05-.1,2.85-.18,5.71-.26,8.56-.02.79-.27,1.01-1.17,1.02-2.68.03-4.2-1.09-5.03-3.7-.84-2.62-2.12-5.11-3.2-7.65-.07,0-.15.02-.22.03Z"/>
  <path class="st0" d="M38.92,44.36c.98-1.06,1.95-2.11,2.95-3.18.55.3,1.06.62,1.6.86,1.17.51,2.27.21,3-.77.72-.97.78-2.04-.1-2.97-.96-1.01-2.06-1.9-3.16-2.77-1.92-1.53-3.61-3.09-3.83-5.82-.27-3.41,3.04-6.51,6-6.67,1.71-.09,3.42-.13,4.78,1.11.36.33.54.95.6,1.47.06.49-.18,1.02-.23,1.53-.09.92-.57,1.14-1.41.9-.5-.14-1.02-.25-1.54-.26-1.8-.04-2.87,1.67-1.84,3.14.74,1.05,1.86,1.85,2.88,2.67,1.65,1.33,3.22,2.64,3.45,4.98.45,4.59-2.9,8.19-7.54,7.97-2.07-.1-4.1-.35-5.63-2.19Z"/>
  <path class="st0" d="M56.48,45v-16.42h-4.11v-4.87h13.63c.12,1.57.24,3.06.37,4.69h-4.6c0,3.45,0,6.78,0,10.11,0,1.89.06,3.77.02,5.66,0,.28-.45.78-.72.8-1.43.08-2.88.04-4.59.04Z"/>
  <path class="st0" d="M140.78,45.55h-4.96c0-2.73,0-5.33,0-7.93,0-2.37-.02-4.75.05-7.12.02-.84-.27-1.17-1.08-1.15-.95.02-1.91,0-2.96,0v-3.58c1.2,0,2.39-.06,3.58.01,2.89.18,5.77.46,8.66.63.72.04,1.01.28,1.03.99.02.91.1,1.83.17,2.91-1.54-.1-2.97-.2-4.49-.3v15.53Z"/>
  <path class="st0" d="M151.11,37.23c0,2.93-.02,5.86.01,8.8.01.89-.28,1.27-1.19,1.14-.91-.12-1.84-.18-2.75-.28-.6-.06-.89-.31-.88-1.01.09-5.99.15-11.98.18-17.97,0-1,.26-1.53,1.39-1.31.67.13,1.37.07,2.04.15,1.67.2,1.69.26,1.68,1.92-.02,2.85,0,5.71,0,8.56-.16,0-.32,0-.48,0Z"/>
  <path class="st0" d="M66.7,44.86c-1.41.02-2.76-1.08-2.8-2.28-.04-1.45,1.36-2.93,2.79-2.95,1.24-.01,2.32,1.17,2.35,2.57.03,1.51-.95,2.63-2.34,2.65Z"/>
  <path class="st0" d="M65.2,48.55c1.12-.68,25.17-1.07,26.81,0h-26.81Z"/>
  <path class="st0" d="M197.58,15.36c1.49-1.71,9.42-3.06,11.73-2.04-4.09.71-7.91,1.38-11.73,2.04Z"/>
  <path class="st0" d="M179.55,120.84h16.66c.03.05.06.11.09.16-.76.2-1.53.55-2.29.56-4.42.06-8.85.04-13.27.03-.41,0-.81-.16-1.22-.25,0-.17.02-.34.03-.51Z"/>
  <path class="st0" d="M54.73,207.66c1.82-.27,3.47-.55,5.13-.74,1.22-.14,1.86.52,2.27,1.68.89,2.53,1.93,5,3.1,7.49.34-4.36.68-8.72,1.02-13.13-3.51.26-6.9.51-10.28.76-.02-.14-.04-.27-.05-.41,3.85-.64,7.71-1.27,11.7-1.93,0,.52.04,1.14,0,1.76-.54,7.22-1.09,14.44-1.63,21.66-.26,3.49-.46,6.99-.77,10.48-.23,2.6-1.41,4.36-4.06,5.37-6.47,2.49-12.78,2.21-19.18-.18-2.95-1.1-4.17-3.24-4.42-6.12-.76-8.49-1.48-16.99-2.21-25.48-.17-2-.3-4.01-.45-6.02-.05-.63.03-.97.84-.87,3.87.48,7.74.9,11.61,1.35,1.32.15,2.63.37,3.95.48,1.53.13,2.38,1.01,2.86,2.37.2.56.43,1.1.58,1.47ZM50.1,205.16c-.02-.11-.03-.22-.05-.33-.54-.1-1.07-.25-1.61-.3-1.64-.15-3.3-.14-4.92-.41-1.82-.3-3.21.36-4.47,1.53-.5.46-.93,1.01-1.43,1.46-.81.73-1.03,1.6-.73,2.61.64,2.15,1.37,4.28,1.95,6.44.91,3.34,4.64,5.35,7.88,4.13,2.29-.86,4.54-1.82,6.82-2.69.73-.28.99-.77.92-1.49-.27-2.87-.45-5.76-.87-8.61-.33-2.25-1.68-2.74-3.41-1.32-1.48,1.22-3.27,1.47-4.95,2.09-.07-.13-.13-.27-.2-.4,1.69-.91,3.38-1.82,5.07-2.72ZM47.69,222.28c-1.5,1.39-3.06,2.8-4.57,4.27-.25.24-.29.74-.34,1.13-.21,1.59-.35,3.2-.59,4.79-.44,2.84.22,3.91,2.92,4.96,3.06,1.18,6.21,1.16,9.39.95,1.31-.09,2.2-.84,2.51-2.08.65-2.61,1.23-5.23,1.76-7.86.15-.73.02-1.51.02-2.54-4.77,1.91-8-.08-11.11-3.61ZM64.75,223.27c-1.45.74-2.76,1.35-3.99,2.08-.32.19-.53.72-.61,1.13-.65,3.14-1.22,6.3-1.89,9.44-.42,1.96-1.67,3.06-3.67,3.44-4.29.8-8.33.07-12.14-1.92-.61-.32-1.14-1.19-1.29-1.89-.7-3.16.22-6.23.81-9.3.07-.37.5-.7.82-.98,1.12-1.01,2.27-1.98,3.17-2.77-2-.73-4.16-1.27-6.06-2.3-2.11-1.14-2.24-3.66-3.03-5.7.1,1.87.31,3.71.51,5.54.55,5.08,1.2,10.15,1.6,15.24.11,1.45.72,2.33,1.74,3.05.71.51,1.53.9,2.35,1.2,4.78,1.78,9.69,1.88,14.63.95,4.55-.86,5.73-2.24,6.27-6.78,0-.08.03-.16.04-.24.25-3.37.5-6.73.75-10.2ZM48.9,221.16c1.95,3.58,3.75,4.57,7.49,4.08,2.21-.29,4.23-1.22,6.09-2.48,1.59-1.07,2.1-2.5,1.73-4.38-.55-2.74-1.59-5.28-2.66-7.84-1.22-2.96-1.11-3-4.2-2.08-2.23.67-2.12.65-1.85,2.95.2,1.73.18,3.5.06,5.25-.08,1.27-1.44,2.41-2.68,2.54-1.58.17-2.9.83-3.99,1.95ZM36.4,206.15c1.15-.85,2.02-1.49,3.09-2.28-1.21-.13-2.19-.24-3.3-.35.08.94.13,1.63.22,2.64Z"/>
  <path class="st0" d="M205.47,34.81c.43.02.98-.09,1.42.09,3.75,1.59,6.52,4.27,8.52,7.52-3.22-2.46-6.56-5.02-9.94-7.61Z"/>
  <path class="st0" d="M182.96,39.68c2.3-.68,6.31.99,7.36,3.06-2.45-1.02-4.9-2.04-7.36-3.06Z"/>
  <path class="st0" d="M200.72,39.67c-2.48-1.14-4.86-1.69-6.78-3.4,1.83-.55,5.48,1.18,6.78,3.4Z"/>
  <path class="st0" d="M199.43,55.69c2.75,3.12,4.73,6.59,4.77,10.97-1.71-3.6-3.42-7.21-5.13-10.81.12-.05.24-.11.36-.16Z"/>
  <path class="st0" d="M186.54,48.72c3.47,3.28,6.48,6.88,7.48,11.73-2.49-3.91-4.99-7.82-7.48-11.73Z"/>
  <path class="st0" d="M211.1,64.43c2.45,2.33,3.49,5.4,4.44,8.51-1.57-2.79-3.75-5.26-4.44-8.51Z"/>
  <path class="st0" d="M135.86,18.86c1.33-1.88,6.38-2.92,8.77-1.62-3.09.57-5.89,1.09-8.77,1.62Z"/>
  <path class="st0" d="M133.61,156.54c-.69,1.27-5.85,1.5-7.16.39,2.39-.13,4.77-.26,7.16-.39Z"/>
  <path class="st0" d="M47.41,94.54c3.9,2.57,5.94,6.24,7.17,10.77-2.48-3.72-4.79-7.2-7.17-10.77Z"/>
  <path class="st0" d="M38.17,95.42c2.7,1.29,6.2,6.49,5.96,8.91-2.02-3.02-3.89-5.82-5.96-8.91Z"/>
  <path class="st0" d="M42.01,104.16c-2.15-2.28-4.31-4.56-6.46-6.84,3.1,1.31,4.68,4.19,6.85,6.46-.13.13-.26.25-.39.38Z"/>
  <path class="st0" d="M194.33,144.19c0,4.34-.03,8.68.02,13.02.02,1.19-.39,1.56-1.54,1.44-2.75-.31-5.51-.56-8.27-.83-.8-.08-.78-.64-.78-1.24,0-6.84-.03-13.67-.05-20.51,0-.84-.04-1.69-.09-2.53-.13-2.18.83-3.67,3.01-3.93,2.26-.27,4.57-.16,6.85-.1.24,0,.64.83.65,1.29.09,3.05.1,6.11.13,9.16.01,1.41,0,2.81,0,4.22.02,0,.04,0,.06,0ZM192.84,141.83h-7.61v2.75c2.59.19,5.05.37,7.61.56v-3.31ZM185.2,137.69v2.76c2.54.13,5.01.25,7.6.38v-3.15h-7.6ZM192.92,149.19c0-.8-.03-1.56,0-2.31.03-.65-.26-.84-.86-.85-1.29,0-2.58-.04-3.86-.08-.99-.04-1.97-.12-2.95-.18v2.86c2.57.19,5.04.37,7.66.56ZM192.86,133.63h-7.88c.05.91.11,1.79.17,2.84h7.75c0-.6,0-1.2,0-1.8,0-.28-.02-.55-.04-1.04ZM192.74,157.16q.48-2.8-2.01-2.96c-.28-.02-.56-.07-.84-.09-1.54-.11-3.07-.22-4.67-.34v2.8c2.54.2,5.04.39,7.52.59ZM185.23,150.14v2.5c2.5.19,4.98.37,7.48.55,0-.86.07-1.55-.03-2.21-.05-.31-.44-.8-.68-.81-2.23-.06-4.46-.04-6.77-.04ZM192.62,130.55c-2.27.25-4.36.46-6.43.74-.25.03-.44.46-.66.7.29.18.57.5.86.51,2.06.04,4.12.02,6.23.02v-1.97Z"/>
  <path class="st0" d="M67.53,194.81c2.29-1.5,4.57-3.01,6.89-4.54.76.88.42,1.38-.17,1.76-1.73,1.1-3.46,2.19-5.24,3.22-.34.2-.86.09-1.29.13-.07-.19-.13-.38-.2-.56Z"/>
  <path class="st0" d="M62.15,185.45c.33.2.71.34.98.61,1.37,1.36,2.51,4.76,2.26,7.1-.33-.57-.56-.9-.72-1.25-.8-1.71-1.6-3.41-2.35-5.14-.17-.39-.1-.89-.14-1.33,0,0-.03.02-.03.02Z"/>
  <path class="st0" d="M66.67,194.04c.17-3.1,1.17-5.69,1.78-8.57,1.03,1.18-.22,6.87-1.78,8.57Z"/>
  <path class="st0" d="M71.92,196.73c1.77.19,3.38.37,5.04.54-.66,1.34-.98,1.44-3.53.96-.7-.13-1.54-.22-1.51-1.5Z"/>
  <path class="st0" d="M72.41,195.36c1.36-.3,2.71-.6,4.07-.9.04.19.09.37.13.55-1.37.3-2.74.6-4.1.9-.03-.19-.06-.37-.09-.56Z"/>
  <path class="st0" d="M69.11,191.44c.9-.66,1.79-1.32,2.69-1.98.12.16.24.32.36.48l-2.67,2c-.13-.17-.25-.34-.38-.51Z"/>
  <path class="st0" d="M24.63,106.36c-.51,3.52-2.93,5.68-4.12,8.68-.64-1.5,1.82-6.57,4.12-8.68Z"/>
  <path class="st0" d="M27.04,114.08c1.4,2.98,2.28,6.07,2.14,9.39-1.06-3.05-2.36-6.04-2.14-9.39Z"/>
  <path class="st0" d="M150,154.18c-3.22-.24-6.07-.44-9.07-.66-.06-.36-.2-.78-.21-1.2-.08-7.39-.17-14.79-.19-22.18,0-2.46.08-2.48,2.5-2.42,1.53.04,3.05.1,4.57.23,2.24.19,3.28,1.28,3.23,3.49-.14,7.19-.32,14.39-.51,21.58-.01.47-.27.94-.34,1.15ZM149.13,139.12c-2.16,0-4.31-.02-6.46.03-.26,0-.7.4-.74.67-.11.68-.04,1.39-.04,2.2h7.24v-2.9ZM149.09,145.77v-2.65h-7.24c.07.87.13,1.74.2,2.65h7.04ZM149.32,138.02v-2.57h-7.35v2.57h7.35ZM149.12,149.82c0-.83.05-1.55-.03-2.25-.02-.21-.38-.55-.59-.55-2.15-.04-4.31-.02-6.52-.02v2.43c2.4.13,4.71.26,7.13.4ZM141.92,134.42h7.41v-2.34h-7.41v2.34ZM141.91,130.9c2.52.14,4.95.27,7.36.4.23-1.62.15-1.88-1.31-1.98-1.97-.13-3.97-.03-6.05-.03v1.62ZM149.06,152.84v-2.08h-6.92c-.16.59-.67,1.43.52,1.57,2.1.24,4.21.34,6.4.51Z"/>
  <path class="st0" d="M38.95,192.66h3.23c-.57-.62-1.07-1.18-1.58-1.73.09-.12.19-.23.28-.35,1.09.7,2.18,1.41,3.31,2.14-1.24,1.42-4.75,1.27-5.23-.06Z"/>
  <path class="st0" d="M46.29,190.95c-.3-2.05-.61-4.1-.95-6.42,1.49,1.51,2.18,5.23,1.38,6.36-.14.02-.29.04-.43.06Z"/>
  <path class="st0" d="M43.64,194.47c-1.25,2-3.45,2.84-5.39,2.12,1.95-.77,3.67-1.44,5.39-2.12Z"/>
  <path class="st0" d="M42.48,188.66c1.15.07,3.11,1.61,3.3,2.72.03.18-.18.57-.22.56-.29-.06-.66-.11-.82-.32-.79-.97-1.51-1.98-2.26-2.97Z"/>
  <path class="st0" d="M185.29,55.77c1.97,3.41,2.16,7.02,3.1,10.43-.2.06-.41.12-.61.18-.49-1.69-1.04-3.36-1.44-5.07-.41-1.73-.67-3.5-1.05-5.54Z"/>
  <path class="st0" d="M179.86,60.33c-.98-2.68-1.97-5.35-2.95-8.03,2.48,2.11,3.12,4.92,2.95,8.03Z"/>
  <path class="st0" d="M18.85,94.26c-3.27.91-6.54,1.83-10.08,2.82,1.71-2.23,7.17-3.79,10.08-2.82Z"/>
  <path class="st0" d="M19.06,98.14c-1.65,1.23-3.42.57-4.86,1.27.85-1.27,2.42-1.7,4.86-1.27Z"/>
  <path class="st0" d="M10.65,115.34c.09-3.69,1.89-6.66,4.82-9.06-1.63,3.06-3.25,6.11-4.82,9.06Z"/>
  <path class="st0" d="M167.28,62.87c.9-.21,1.92-.17,2.44-.66.56-.53.66-1.55.96-2.36.49.93.3,2.21-.42,2.89-.84.79-1.78.85-2.97.13Z"/>
  <path class="st0" d="M176.26,67.86c1,1.56.86,2.65-.48,3.23.16-1.1.32-2.12.48-3.23Z"/>
  <path class="st0" d="M173.91,71.94c-.81-.07-1.52-.13-2.23-.18-.07-.14-.14-.29-.21-.43.37-.32.74-.64,1.1-.95.46.53.81.94,1.35,1.56Z"/>
  <path class="st0" d="M161.46,68.51c.37-.47.75-.93,1.26-1.57.22.78.36,1.29.58,2.08-.56-.04-1.13-.08-1.7-.12-.05-.13-.09-.26-.14-.39Z"/>
  <path class="st0" d="M128.2,37.9c-.23-.47-.67-.93.04-1.45,2.44-1.8,3.04-4.33,2.3-7.09-.72-2.67-2.88-3.95-5.44-4.32-2.42-.35-4.89-.37-7.33-.53-.65-.04-.92.19-.87.92.1,1.52.11,3.06.13,4.59.06,4.43.1,8.85.19,13.28,0,.35.32.98.52.99,1.5.08,3,.05,4.61.05v-7.08c.38.57.58.81.72,1.08.98,1.93,1.95,3.88,2.94,5.81.14.28.33.72.53.74,1.64.17,3.3.26,5.26.4-1.31-2.71-2.45-5.04-3.57-7.39ZM122.37,33.94v-4.71c1.92.02,3.08.84,3.08,2.2,0,1.66-.95,2.47-3.08,2.52Z"/>
  <path class="st0" d="M115.65,43.28c-1.79-6.21-3.56-12.42-5.31-18.65-.19-.69-.53-.86-1.2-.83-1.28.06-2.59.13-3.85-.01-1.27-.15-1.71.35-2.06,1.51-1.82,5.99-3.73,11.94-5.61,17.91-.08.26-.11.53-.16.8.17.08.28.16.38.16,1,0,2.01.03,3.01-.01,1.9-.07,1.89-.09,2.42-1.89.19-.65.37-1.33.69-1.92.17-.31.6-.66.93-.67,1.28-.06,2.58-.08,3.85.06.39.04.89.56,1.05.98.31.77.43,1.63.59,2.45.16.84.61,1.25,1.49,1.2,1-.05,2.01-.05,3.01-.04.77,0,.98-.28.76-1.05ZM105.52,35.57c.42-2.06.82-3.99,1.22-5.92.11,0,.22,0,.33,0,.45,1.94.9,3.89,1.37,5.92h-2.92Z"/>
  <path class="st0" d="M41.83,212.88c1.56,1.76,1.84,4,2.28,6.18-.09.11-.17.21-.26.32-.33-.19-.89-.32-.96-.58-.51-1.93-.93-3.88-1.38-5.82l.31-.1Z"/>
  <path class="st0" d="M50.82,216.14c-.93-.87-.54-3.74.78-6.32.67,2.3-.21,4.2-.78,6.32Z"/>
  <path class="st0" d="M38.98,209.25c1.78.94,3.31,2.16,4.39,3.87-.08.1-.17.19-.25.29-1.49-1.26-2.98-2.52-4.47-3.79.11-.12.22-.25.33-.37Z"/>
  <path class="st0" d="M46.93,213.46c-.8-.57-1.61-1.14-2.42-1.73,1.09-.66,1.39-.48,2.42,1.73Z"/>
  <path class="st0" d="M53.3,236.71c-.48-2.59,1.47-6.53,3.72-7.4-.02.19.01.41-.06.46-1.95,1.3-1.98,3.51-2.61,5.45-.18.57-.48,1.1-.72,1.65-.11-.05-.22-.1-.32-.15Z"/>
  <path class="st0" d="M51.91,229.16c-1.9-.58-3.8-1.15-5.93-1.8,1.68-.66,5.38.36,5.93,1.8Z"/>
  <path class="st0" d="M50.83,232.48c-.74.55-1.48,1.1-2.33,1.73-.01-1.21.78-1.82,2.33-1.73Z"/>
  <path class="st0" d="M52.96,221.22c1.84-1.2,4.05-1.56,6.11-2.1,1.15-.3,2.53.26,3.8.43.01.16.02.32.04.48-.39.09-.85.34-1.17.23-1.84-.67-3.46.22-5.15.63-1.15.28-2.29.57-3.44.85-.06-.18-.12-.35-.18-.53Z"/>
  <path class="st0" d="M58.56,216.86c-.15-1.45.08-2.81,1.01-4.32.64,1.88-.38,3.05-1.01,4.32Z"/>
  <g>
    <path class="st0" d="M6.58,270.22c0-1.54.24-3.11.72-4.69.48-1.59,1.17-3.02,2.08-4.29.91-1.27,2.04-2.32,3.38-3.14,1.34-.82,2.87-1.23,4.57-1.23s3.35.46,4.78,1.38,2.63,2.1,3.59,3.52l.03.07-.14.17-5.75,4.97-.21.14c-.02-.75-.21-1.39-.56-1.93s-.93-.81-1.75-.81c-.68,0-1.26.2-1.73.6-.48.4-.88.89-1.19,1.47-.32.58-.54,1.22-.68,1.89-.14.68-.21,1.28-.21,1.82,0,.68.09,1.37.28,2.07.19.7.47,1.34.84,1.93.37.58.85,1.06,1.44,1.42.58.36,1.26.54,2.03.54h.21c.12,0,.24,0,.37-.02.13-.01.25-.02.35-.03s.16-.03.16-.05v-2.91c0-.84-.2-1.66-.61-2.45-.41-.79-.89-1.47-1.45-2.03h9v14.4l-7.67.42h-.74c-1.78,0-3.35-.39-4.73-1.16s-2.54-1.78-3.49-3.03-1.67-2.67-2.17-4.26c-.5-1.59-.75-3.19-.75-4.8Z"/>
    <path class="st0" d="M30.31,257.3l6.41-.45h.7c1.4,0,2.72.25,3.94.74,1.23.49,2.3,1.17,3.22,2.03s1.65,1.9,2.19,3.1c.54,1.2.81,2.53.81,3.98,0,1.82-.41,3.41-1.23,4.76-.82,1.35-1.94,2.56-3.36,3.61l-.07.04,2.63,4.03c.37.54.8,1.05,1.28,1.54s.95.97,1.42,1.44c.16.16.35.32.56.47.21.15.4.32.56.51h-9.21l-3.61-6.2v2.07c0,.77.22,1.52.65,2.26.43.74.9,1.36,1.42,1.87h-11.14c.51-.56.99-1.21,1.42-1.94.43-.74.65-1.51.65-2.33v-17.23c0-.82-.22-1.59-.65-2.31-.43-.72-.91-1.38-1.42-1.96h2.84ZM37.73,270.36c.49,0,.97-.09,1.44-.28.47-.19.89-.44,1.26-.77.37-.33.67-.72.89-1.17.22-.45.33-.95.33-1.49s-.11-.97-.33-1.38c-.22-.41-.52-.76-.89-1.05-.37-.29-.79-.51-1.24-.67s-.92-.23-1.38-.23h-.6s-.13.01-.26.04c-.13.02-.23.05-.3.07h-.07l-.03.03v6.73s.06.04.11.04c.05.05.09.07.14.07.23.05.39.07.46.07h.49Z"/>
    <path class="st0" d="M57.79,260.17c0-1.05-.33-2.01-.98-2.87h11.42c-.35.4-.61.84-.77,1.33s-.25,1-.25,1.54c0,.21,0,.42.02.63.01.21.04.41.09.6l4.83,18.01c.19.72.51,1.42.98,2.08.47.67,1.03,1.2,1.68,1.59h-10.96c.4-.47.67-.96.81-1.47.14-.51.21-1.07.21-1.68v-.07l-.03-.04h-5.22l-.03.04c0,.61.07,1.18.21,1.72.14.54.41,1.04.81,1.51h-10.4c.72-.4,1.31-.97,1.77-1.73s.79-1.52,1-2.29l4.76-17.73c.05-.19.07-.38.07-.58v-.58ZM60.91,274.18h2.42l-1.26-4.83-1.16,4.83Z"/>
    <path class="st0" d="M75.55,283.08c.51-.58.99-1.24,1.42-1.96.43-.72.65-1.49.65-2.31v-17.27c0-.82-.22-1.59-.65-2.31-.43-.72-.91-1.38-1.42-1.96h8.51l6.17,11.1s.02.05.05.07c.03.02.06.05.09.07v-6.76c0-.82-.21-1.62-.63-2.42-.42-.79-.91-1.48-1.47-2.07h10.61c-.51.56-.99,1.21-1.42,1.94-.43.74-.65,1.5-.65,2.29v17.34c0,.79.22,1.56.65,2.29.43.73.9,1.38,1.42,1.94h-8.51l-6.24-11.17v7.11c0,.75.22,1.49.65,2.22.43.73.89,1.35,1.38,1.84h-10.61Z"/>
    <path class="st0" d="M103.23,257.3l6.66-.42h.74c1.77,0,3.35.39,4.73,1.16,1.38.77,2.54,1.78,3.49,3.03s1.67,2.67,2.17,4.26c.5,1.59.75,3.19.75,4.8s-.25,3.21-.74,4.8c-.49,1.59-1.21,3.02-2.15,4.29-.95,1.27-2.1,2.3-3.47,3.08-1.37.78-2.94,1.17-4.71,1.17h-.84c-1.54-.16-3.09-.27-4.64-.33-1.55-.06-3.1-.09-4.64-.09.23-.23.47-.5.7-.81.23-.3.45-.62.65-.96.2-.34.36-.69.49-1.05.13-.36.19-.72.19-1.07v-17.97c0-.75-.22-1.46-.67-2.14s-.9-1.26-1.37-1.75h2.66ZM110.76,275.93c.72,0,1.34-.19,1.84-.56.5-.37.92-.85,1.24-1.42.33-.57.57-1.2.72-1.87.15-.68.23-1.31.23-1.89s-.07-1.21-.21-1.89c-.14-.68-.37-1.3-.68-1.87s-.72-1.05-1.23-1.44c-.5-.39-1.1-.58-1.8-.58-.02,0-.11,0-.25.02s-.29.03-.46.05c-.16.02-.3.06-.42.12-.12.06-.17.12-.17.19v10.89c0,.07.06.12.17.16.12.04.25.06.39.07.14.01.27.02.4.02h.23Z"/>
    <path class="st0" d="M133.39,270.22c0-1.54.24-3.1.72-4.68.48-1.58,1.17-3.01,2.08-4.31.91-1.3,2.04-2.35,3.38-3.17,1.34-.82,2.88-1.23,4.61-1.23.93,0,1.8.12,2.61.37.81.25,1.55.59,2.24,1.03.69.44,1.33.98,1.93,1.59s1.15,1.29,1.66,2.01l-6.09,5.29c-.02-.35-.08-.69-.18-1.02s-.23-.62-.42-.88c-.19-.26-.42-.47-.7-.63s-.62-.25-1.02-.25c-.7,0-1.29.2-1.77.6-.48.4-.88.89-1.19,1.49s-.54,1.23-.68,1.89c-.14.67-.21,1.28-.21,1.84s.07,1.17.21,1.84c.14.67.37,1.28.68,1.86s.71,1.06,1.19,1.45c.48.4,1.07.6,1.77.6.77,0,1.33-.28,1.68-.84.35-.56.56-1.18.63-1.86l5.81,5.61c-.09.14-.17.26-.25.35-.07.09-.13.18-.19.26-.06.08-.1.13-.12.16-.96,1.17-2.09,2.1-3.4,2.8-1.31.7-2.71,1.05-4.2,1.05-1.7,0-3.23-.4-4.57-1.21-1.34-.81-2.48-1.84-3.4-3.12-.92-1.27-1.62-2.7-2.1-4.27s-.72-3.12-.72-4.64Z"/>
    <path class="st0" d="M159.62,260.17c0-1.05-.33-2.01-.98-2.87h11.42c-.35.4-.61.84-.77,1.33s-.25,1-.25,1.54c0,.21,0,.42.02.63.01.21.04.41.09.6l4.83,18.01c.19.72.51,1.42.98,2.08.47.67,1.03,1.2,1.68,1.59h-10.96c.4-.47.67-.96.81-1.47.14-.51.21-1.07.21-1.68v-.07l-.03-.04h-5.22l-.03.04c0,.61.07,1.18.21,1.72.14.54.41,1.04.81,1.51h-10.4c.72-.4,1.31-.97,1.77-1.73s.79-1.52,1-2.29l4.76-17.73c.05-.19.07-.38.07-.58v-.58ZM162.74,274.18h2.42l-1.26-4.83-1.16,4.83Z"/>
    <path class="st0" d="M178.05,264.62c0-1.4.25-2.61.75-3.63s1.19-1.86,2.05-2.54,1.87-1.18,3.03-1.51c1.16-.33,2.38-.49,3.66-.49.82,0,1.62.05,2.4.14.78.09,1.56.27,2.33.53.58.19,1.15.4,1.7.65.55.24,1.14.37,1.77.37.19,0,.35-.02.49-.05.14-.04.29-.05.46-.05v.11s-.03.05-.03.07l-3.75,8.02-.03-.07c-.61-1-1.37-1.66-2.28-1.98-.91-.32-1.94-.47-3.08-.47-.23,0-.51.01-.82.04s-.63.09-.93.19c-.3.11-.56.25-.77.44-.21.19-.31.44-.31.77,0,.3.09.54.26.72.18.18.39.32.63.42s.51.18.79.23c.28.05.53.08.74.11.68,0,1.37.02,2.07.05.7.04,1.38.15,2.03.33.91.21,1.74.54,2.49,1,.75.45,1.38,1.02,1.91,1.68.53.67.93,1.41,1.23,2.22.29.82.44,1.69.44,2.63,0,1.5-.28,2.8-.84,3.92-.56,1.12-1.32,2.06-2.28,2.8s-2.07,1.3-3.33,1.66c-1.26.36-2.59.54-3.99.54-.84,0-1.67-.08-2.49-.23-.82-.15-1.64-.36-2.45-.61-.61-.21-1.2-.47-1.79-.77-.58-.3-1.21-.46-1.89-.46h-.07l-.11.04h-.07l-.46.07s-.13.04-.25.04c0-.05.01-.08.03-.11v-.07l3.75-8.02h.03c.42.68.89,1.2,1.42,1.56.53.36,1.1.63,1.72.8.62.18,1.27.27,1.94.3.68.02,1.37.04,2.07.04.21-.02.45-.06.72-.12.27-.06.52-.15.75-.26.23-.12.43-.27.6-.45.16-.19.25-.42.25-.7,0-.33-.11-.58-.32-.75-.21-.17-.46-.32-.75-.42s-.6-.17-.91-.21c-.32-.03-.58-.05-.79-.05-.05,0-.16-.01-.35-.04l-1.3-.07h-.39c-1.17-.07-2.22-.32-3.17-.75s-1.75-1.01-2.42-1.73c-.67-.72-1.18-1.58-1.54-2.57-.36-.99-.54-2.08-.54-3.28Z"/>
    <path class="st0" d="M198.19,283.08c.51-.54.99-1.17,1.42-1.91.43-.74.65-1.5.65-2.29v-17.41c0-.79-.22-1.56-.65-2.29-.43-.74-.91-1.37-1.42-1.91h17.48v8.72c-.26-.23-.53-.48-.81-.75-.28-.27-.58-.51-.89-.74-.31-.22-.65-.4-1.02-.54-.36-.14-.74-.21-1.14-.21h-4.55v3.22h6.34v6.45h-6.34v3.19h4.52c.77,0,1.49-.24,2.15-.73s1.24-.99,1.73-1.51v8.72h-17.48Z"/>
  </g>
  <g>
    <path class="st0" d="M204.17,249.25h1.65s.07.03.07.07v1.75s-.03.07-.07.07h-3.65s-.07-.03-.07-.07v-3.92s.03-.07.07-.07h1.85s.07.03.07.07v2.02s.03.07.07.07Z"/>
    <path class="st0" d="M210.29,249.29c-.09,1.03-.99,1.85-2.02,1.85h-1.86s-.07-.03-.07-.07v-3.92s.03-.07.07-.07h1.91c1.15,0,2.08,1.04,1.97,2.22Z"/>
    <path class="st0" d="M209.93,251.05l2.16-3.93c.03-.05.1-.05.13,0l2.17,3.93c.03.05,0,.11-.07.11h-4.33c-.06,0-.09-.06-.07-.11Z"/>
    <path class="st0" d="M201.72,248.94c.1,1.28-.96,2.35-2.25,2.25-1.01-.08-1.83-.9-1.91-1.91-.1-1.28.96-2.35,2.25-2.25,1.01.08,1.83.9,1.91,1.91Z"/>
  </g>
</svg>