<?xml version="1.0" encoding="UTF-8"?>
<svg id="Calque_1" xmlns="http://www.w3.org/2000/svg" version="1.1" viewBox="0 0 350.3 286.02">
  <!-- Generator: Adobe Illustrator 30.0.0, SVG Export Plug-In . SVG Version: 2.1.1 Build 123)  -->
  <defs>
    <style>
      .st0 {
        stroke-width: 2.56px;
      }

      .st0, .st1, .st2, .st3 {
        stroke: #010101;
      }

      .st0, .st1, .st3 {
        fill: none;
        stroke-miterlimit: 10;
      }

      .st4, .st2 {
        fill: #fff;
      }

      .st1 {
        stroke-width: 3.87px;
      }

      .st2 {
        stroke-linecap: round;
        stroke-linejoin: round;
        stroke-width: 3px;
      }

      .st5 {
        fill: #010101;
      }

      .st3 {
        stroke-width: 4px;
      }
    </style>
  </defs>
  <path class="st0" d="M55.91,52.6c0-5.7-4.56-6.9-10.26-6.9h-8.27c-5.7,0-10.31,4.62-10.31,10.31v15.49c0,5.7,4.62,10.31,10.31,10.31h8.27c3.84,0,7.01.18,8.78-2.94-.1.93-.2,1.87-.3,2.8-.15,1.38-.1.48-.26,1.86-.21,1.76-.3,3.54-.67,5.29l-.98,16.01c.05.78.24,1.76.08,2.71-.18,1.08-.24,2.17-.01,3.24.21,1,.12,1.95-.19,2.86-.29.85-.99,1.5-1.85,1.76-.43.13-.86.23-1.31.24-.28,0-.56.03-.83.03-2.17-.04-4.33.11-6.5.14-1.39.02-2.77.16-4.16.28-1.55.13-3.09.31-4.63.55-5.64.87-11.06,2.45-16.13,5.12-1.64.86-3,2.04-4.07,3.57-.53.76-.89,1.64-1.08,2.55-.54,2.72-1.01,5.46-1.38,8.22-.32,2.4-.64,4.79-.94,7.19-.23,1.79-.44,3.58-.65,5.38-.04.36-.04.72,0,1.08l-.17,4.87v2.22l-2.01,25.25c-.15,1.94-1.77,3.43-3.72,3.43-.81,0-1.45.68-1.4,1.49l1.99,30.93c.11,1.77,1.58,3.15,3.36,3.15h0c.98,0,1.78.8,1.78,1.78v51.87c0,5.52,4.47,9.99,9.99,9.99h37.6c3.54,0,6.42-2.87,6.42-6.42v-21.66c0-2.31,1.87-4.18,4.18-4.18l109.07-.08,58.58.08h50.85c1.96,0,3.55,1.59,3.55,3.55v17.86c0,5.99,4.85,10.84,10.84,10.84h32.77c5.75,0,10.4-4.66,10.4-10.4v-51.83c0-.66.54-1.2,1.2-1.2,1.74,0,3.19-1.36,3.29-3.1l1.87-30.09c.12-2.01-1.47-3.71-3.48-3.71-1.59,0-2.87-1.29-2.87-2.87v-24.71l-.37-6.63c.22-1.97.19-3.94.19-5.91,0-2.21-.21-4.41-.48-6.6-.23-1.86-.58-3.7-.96-5.53-.33-1.56-.64-3.11-1.19-4.6-1.01-2.7-2.83-4.69-5.36-6.02-.74-.39-1.51-.72-2.28-1.03-4.11-1.66-8.37-2.81-12.74-3.56-1.84-.31-3.68-.54-5.53-.76-.94-.11-1.89-.11-2.82-.23-1.44-.17-2.89-.09-4.32-.26-.37-.04-.75-.03-1.12-.03-1.52-.03-3.04-.04-4.56-.02-.39,0-.77,0-1.16,0-.29,0-.46-.15-.52-.44-.13-.57-.28-1.13-.33-1.72-.14-1.66-.34-3.32-.35-4.99,0-.64.01-1.28.02-1.92l-2.38-26.38c1.88,2.52,4.88,1.61,8.26,1.61h8.27c5.7,0,10.31-4.62,10.31-10.31v-15.49c0-5.7-4.62-10.31-10.31-10.31h-8.27c-5.7,0-10.31,4.62-10.31,10.31v.03s0-.05,0-.07c-.19-1.71-.38-3.42-.57-5.13-.18-1.55-.36-3.09-.54-4.63-.15-1.24-.29-2.48-.44-3.72-.2-1.68-.41-3.36-.61-5.05-.2-1.65-.38-3.31-.58-4.97-.18-1.49-.36-2.98-.55-4.47-.2-1.63-.4-3.25-.6-4.88-.2-1.6-.4-3.2-.6-4.8-.19-1.52-.38-3.03-.57-4.55-.14-1.08-.29-2.15-.53-3.21-.18-.81-.44-1.61-.75-2.38-1.03-2.63-2.91-4.36-5.56-5.27-1.48-.51-3.02-.73-4.57-.86-2.02-.17-4.06-.09-6.08-.19-1.94-.1-3.89-.06-5.83-.17-1.83-.1-3.67-.05-5.5-.16-2.33-.14-4.67-.12-7-.16-.25,0-.5,0-.74-.1h-45.36c-.32.14-.66.1-.99.1-6.81.01-13.62.02-20.43.03-6.14.01-12.29-.03-18.43.06-11.06.17-22.12,0-33.18.17-10.23.15-20.46,0-30.68.17-9.48.15-18.95.04-28.43.16-1.61.02-3.22.07-4.8.43-.76.18-1.5.4-2.22.72-1.79.79-3.14,2.07-4.09,3.77-.81,1.45-1.33,2.99-1.68,4.6-.54,2.5-1.03,5.01-1.46,7.53-.32,1.87-.74,4.94-.93,6.83-.17,1.72-.4,3.44-.58,5.16-.2,1.85-.38,3.7-.57,5.55-.13,1.24-.29,2.48-.42,3.73-.14,1.27-.26,2.54-.39,3.81-.14,1.33-.29,2.65-.43,3.98s-.27,2.65-.4,3.98l-1.3.55Z"/>
  <path class="st3" d="M67.7,187.16c-1.54-11.64-3.06-23.1-4.55-34.57-.68-5.25-1.4-10.5-1.91-15.77-1.7-17.64,9.92-31.93,27.65-34.06,1.98-.24,4-.31,6-.32,53.54-.02,107.08,0,160.62-.03,8.6,0,16.47,2.11,23.14,7.67,7.52,6.28,11.5,14.52,10.55,24.23-1.65,16.94-4.01,33.82-6.16,50.71"/>
  <path class="st4" d="M337.61,260.37c-4.6,2.36-8.45,4.34-12.86,6.6,1.73,1.86,2.64,2.84,3.48,3.75,2.12-1.01,3.86-2.46,5.7-2.59,4.5-.31,4.36-2.94,3.68-7.76Z"/>
  <path class="st4" d="M292.58,236.11c4.34-2.12,8.27-4.04,13.22-6.46-1.87-1.88-2.83-2.85-3.58-3.6-2.44,1.12-4.06,2.38-5.81,2.58-4.02.45-4.95,2.58-3.83,7.48Z"/>
  <path class="st4" d="M325.78,257.04c2,3.02,2.06,3.19,10.21,0,1.36-.53,1.87-3.22,2.77-4.91-.42-.33-.84-.67-1.26-1-4.6.47-8.63,2.14-11.72,5.9Z"/>
  <path class="st4" d="M292.6,278.18c4.35-2.09,8.28-3.99,12.68-6.1-1.47-1.72-2.34-2.74-3.22-3.77-2.06.92-3.79,2.17-5.65,2.42-3.96.53-4.82,2.69-3.81,7.45Z"/>
  <path class="st4" d="M292.07,257.77c5.05-2.46,8.96-4.37,13.3-6.5-5.07-6.72-8.55,1.23-12.73-.94-.19,2.46-.32,4.12-.58,7.44Z"/>
  <path class="st4" d="M337.64,239.84c-4.37,2.19-8.29,4.15-12.67,6.34,1.62,1.91,2.42,2.85,3.22,3.8,2.11-.96,3.96-2.32,5.96-2.61,3.83-.55,4.55-2.63,3.49-7.52Z"/>
  <path class="st4" d="M292.75,267.77c4.28-2.08,8.2-3.99,12.69-6.17-1.7-1.78-2.63-2.75-3.44-3.6-2.08.92-3.71,2.11-5.46,2.33-3.98.48-4.97,2.57-3.8,7.44Z"/>
  <path class="st4" d="M291.84,245.51c.48.44.96.87,1.44,1.31,3.88-1.88,7.77-3.75,11.89-5.75-4.03-7.03-7.47-.28-10.92-.59-.65-.06-1.6,3.27-2.41,5.03Z"/>
  <path class="st4" d="M314.85,267.2c4.97,6,7.1,7,9.74,5.49-.79-2.47-1.32-4.94-2.41-7.13-.46-.93-2.4-2.01-3.16-1.72-1.51.59-2.68,2.08-4.17,3.35Z"/>
  <path class="st4" d="M315.5,270.82c-2.69-1.75-5.16-3.51-7.8-4.96-.5-.27-1.66.68-2.52,1.06,1.31,2.49,2.1,5.56,4.06,7.34,3.27,2.97,4.34-.62,6.27-3.44Z"/>
  <path class="st4" d="M324.92,276.36c4.7,5.69,8.18-.35,11.81.48.22.05,1.05-2.58,1.59-3.97l-1.15-1.21c-3.86,1.48-7.72,2.96-12.25,4.7Z"/>
  <path class="st4" d="M311.16,256.16c1.99-2.55,3.02-3.87,4.16-5.32-2.69-3.22-5.08-6.38-10.45-5.59,2.19,3.79,3.97,6.88,6.29,10.91Z"/>
  <path class="st4" d="M315.44,260.96c-1.73-1.57-3.09-3.28-4.85-4.27-1.4-.78-3.29-.67-4.96-.96.63,1.28,1.24,2.56,1.89,3.83.25.49.91,1.11.78,1.42-1.63,3.87,2.17,2.95,3.57,4.57,1.23-1.58,2.26-2.89,3.58-4.58Z"/>
  <path class="st4" d="M319.73,242.35c-.66.11-1.32.21-1.98.32-.64,1.69-2.29,4.28-1.73,4.9,1.9,2.11,4.53,3.6,7,5.12.31.19,2-1.14,1.97-1.19-1.69-3.09-3.48-6.12-5.26-9.15Z"/>
  <path class="st4" d="M324.98,241.78c-1.23-3.09-1.91-5.73-3.33-7.88-.48-.73-3.15-.77-4.25-.14-1.57.9-2.76,2.79-.59,4.5,1.86,1.47,3.83,2.85,5.9,3.98.59.32,1.71-.33,2.27-.46Z"/>
  <path class="st4" d="M318.59,253.02c-3.89,4.26-3.04,7.08,2.58,9.4,1.03.42,2.31.23,3.48.33-.36-1.06-.64-2.16-1.12-3.16-.36-.74-1.57-1.57-1.41-1.98,1.37-3.54-1.67-3.42-3.53-4.59Z"/>
  <path class="st4" d="M305.73,234.63c.9,3.06,1.51,5.42,2.31,7.71.6,1.72,4.23,2.28,5.28.71.71-1.07,1.43-3.17.9-3.87-2.08-2.76-4.68-5.06-8.49-4.55Z"/>
  <path class="st4" d="M315.32,277.08c2.75,2.98,5.48,5.14,9.94,3.59-.73-1.39-2.38-1.93-2.95-3.03-2.5-4.75-3.45-4.97-6.98-.56Z"/>
  <path class="st4" d="M314.83,280.29c-3.98-4.44-6.14-5.33-9.77-3.99,1.03,1.21,2.3,2.22,2.9,3.53,2.04,4.42,3.26,4.6,6.86.47Z"/>
  <path class="st4" d="M26.42,272.14c-3.42-4.13-5.05-4.22-11.64-.35-1.2.71-1.23,3.43-1.8,5.22.47.42.94.85,1.41,1.27,3.87-1.97,7.73-3.94,12.03-6.14Z"/>
  <path class="st4" d="M22.81,237.07c-2.24,1.1-3.95,2.53-5.79,2.73-4.51.47-4.24,3.1-3.33,7.55,4.35-2.25,8.24-4.26,12.65-6.54-1.75-1.86-2.6-2.75-3.53-3.74Z"/>
  <path class="st4" d="M13.32,258.05c4.81-2.52,8.66-4.53,13.14-6.88-5.51-6.47-8.88,1.67-13.14-.75v7.63Z"/>
  <path class="st4" d="M13.4,237.11c3.86-2.01,7.13-3.52,10.15-5.43.72-.46.62-2.22.9-3.38-1.31-.16-2.66-.59-3.91-.4-1.2.19-2.28,1.42-3.46,1.49-4.36.27-4.4,2.93-3.67,7.71Z"/>
  <path class="st4" d="M25.97,262c-1.71-3.75-3.18-4.8-5.74-2.76-.86.68-2.01,1.33-3.06,1.38-4.57.19-4.27,2.96-3.39,7.43,4.31-2.14,8.16-4.05,12.19-6.05Z"/>
  <path class="st4" d="M45.82,235.34c1.45,1.72,2.37,2.81,3.2,3.8,2.31-.99,4.18-2.21,6.2-2.57,4.41-.78,3.86-3.43,3.01-7.29-4.19,2.04-7.95,3.88-12.41,6.05Z"/>
  <path class="st4" d="M59.61,261.75c-.48-.4-.96-.8-1.45-1.2-3.91,1.95-7.81,3.91-11.86,5.93,4.09,7.07,7.49.12,11.02.44.6.05,1.52-3.36,2.29-5.18Z"/>
  <path class="st4" d="M59.78,251.62l-1.68-1.5c-3.92,1.98-7.83,3.95-11.88,5.99,3.84,6.93,7.19.58,10.49.55,1.04,0,2.05-3.27,3.07-5.05Z"/>
  <path class="st4" d="M58.38,239.54c-4.32,2.19-8.15,4.12-12.53,6.34,1.55,1.73,2.45,2.72,3.32,3.68,2.1-.95,3.84-2.21,5.73-2.48,4.18-.61,4.57-3.01,3.49-7.54Z"/>
  <path class="st4" d="M46.26,277.86c4.38,6.31,7.8.02,11.38.41.44.05,1.22-3.14,1.85-4.83-.42-.3-.85-.6-1.27-.9-3.81,1.69-7.61,3.39-11.96,5.32Z"/>
  <path class="st4" d="M45.7,252.01c-.98-2.88-1.53-5.51-2.74-7.77-1.54-2.88-4.47-1.76-6.78,2.6,2.53,2.84,4.89,6.01,9.52,5.17Z"/>
  <path class="st4" d="M45.87,272.14c-1.23-2.86-2.06-5.4-3.41-7.62-.45-.74-2.54-1.22-3.36-.8-1.12.57-2.16,2.02-2.46,3.27-.5,2.04,6.22,6.87,8.29,6.09.55-.21.91-.91.94-.94Z"/>
  <path class="st4" d="M35.81,257.68c2.66,1.69,5.18,3.41,7.85,4.84.41.22,2.28-1.2,2.23-1.33-1.01-2.4-1.7-5.27-3.49-6.93-3.35-3.1-4.71.19-6.58,3.42Z"/>
  <path class="st4" d="M40.02,231.09c-1.6,1.78-2.21,2.38-2.71,3.05-.48.66-.85,1.4-1.24,2.03,4.83,5.7,6.66,6.53,9.9,4.52-1.88-3.03-3.74-6.03-5.96-9.61Z"/>
  <path class="st4" d="M35.99,271.46c-3.28-5.2-6.31-6.77-9.39-5.2.91,2.47,1.54,5.04,2.76,7.28,1.45,2.67,4.08,1.79,6.62-2.09Z"/>
  <path class="st4" d="M36.36,239.66c-2.39-1.78-4.3-3.44-6.45-4.69-.91-.53-2.32-.23-3.5-.3.41,1.05.75,2.13,1.25,3.13.38.74,1.53,1.54,1.38,2.02-1.23,3.89,1.9,3.41,3.91,4.44,1.08-1.45,1.98-2.68,3.41-4.6Z"/>
  <path class="st4" d="M31.62,255.02c.54-.2,1.08-.39,1.62-.59.94-1.33,1.89-2.66,2.82-3.97-2.88-3.26-5.27-6.39-10.52-5.29,1.5,2.18,2.66,3.72,3.66,5.36.89,1.45,1.61,2.99,2.41,4.5Z"/>
  <path class="st4" d="M32,265.98c4.57-5.23,4.11-7.39-.92-9.84-1.28-.62-2.88-.59-4.33-.86.5,1.27.97,2.55,1.52,3.8.28.63.75,1.17,1.08,1.78.79,1.49,1.55,3,2.64,5.12Z"/>
  <path class="st4" d="M36.09,277.86c4.57,5.31,6.91,6.32,10.19,4.55-1-1.21-2.8-2.4-2.79-3.57.03-2.42-1-3.82-2.99-3.63-1.51.15-2.89,1.68-4.41,2.65Z"/>
  <path class="st5" d="M91.61,115.49c9.45-.02,17.33,7.68,17.44,17.05.12,9.97-7.56,17.87-17.44,17.92-9.75.05-17.58-7.61-17.66-17.27-.07-9.95,7.63-17.67,17.66-17.7Z"/>
  <path class="st5" d="M276.9,133.26c-.07,9.61-8.03,17.38-17.66,17.22-9.73-.16-17.34-7.85-17.38-17.58-.04-9.61,7.8-17.4,17.51-17.41,9.95,0,17.6,7.75,17.53,17.77Z"/>
  <path class="st5" d="M205.95,144.3c0-5.72-.08-11.43.02-17.15.07-4.3,2.51-6.94,6.03-6.82,3.34.11,5.62,2.65,5.65,6.74.08,11.57.08,23.15,0,34.73-.03,4.4-2.41,6.9-6,6.79-3.39-.1-5.6-2.58-5.67-6.71-.1-5.86-.03-11.72-.03-17.58Z"/>
  <path class="st5" d="M235.9,144.37c0,5.57.05,11.15-.02,16.72-.06,4.98-1.96,7.36-5.76,7.47-3.78.11-6.03-2.37-6.06-7.21-.07-11.29-.05-22.58.06-33.87.04-4.55,2.21-7.05,5.74-7.14,3.64-.1,5.93,2.61,5.99,7.3.07,5.57.02,11.15.02,16.72h.03Z"/>
  <path class="st5" d="M187.79,144.69c0-5.86-.07-11.72.02-17.58.06-4.1,2.28-6.64,5.63-6.78,3.47-.15,6.02,2.52,6.05,6.79.09,11.58.09,23.16.01,34.73-.03,4.16-2.26,6.63-5.65,6.73-3.64.11-5.96-2.36-6.04-6.74-.1-5.72-.02-11.43-.02-17.15Z"/>
  <path class="st5" d="M144.86,144.43c0,5.86.09,11.72-.03,17.58-.08,4.25-2.2,6.55-5.71,6.6-3.4.05-5.89-2.4-5.93-6.48-.12-11.72-.11-23.44,0-35.15.04-4.06,2.46-6.58,5.81-6.64,3.53-.06,5.81,2.52,5.88,6.94.09,5.71.02,11.43.02,17.15-.01,0-.02,0-.04,0Z"/>
  <path class="st5" d="M181.38,144.65c0,5.57.03,11.15,0,16.72-.03,4.6-2.34,7.32-6.07,7.25-3.49-.07-5.69-2.69-5.71-7.14-.06-11.15-.06-22.3,0-33.45.02-5.04,2.31-7.84,6.05-7.72,3.52.11,5.67,2.93,5.7,7.62.03,5.57,0,11.15,0,16.73h.03Z"/>
  <path class="st5" d="M126.72,144.64c0,5.71.05,11.43-.01,17.14-.05,4.12-2.18,6.65-5.55,6.81-3.55.16-5.99-2.33-6.04-6.72-.12-11.57-.12-23.14-.04-34.71.03-4.32,2.51-6.96,6.01-6.85,3.33.11,5.54,2.66,5.6,6.76.08,5.86.02,11.71.03,17.57Z"/>
  <path class="st5" d="M151.47,144.67c0-5.86-.07-11.72.02-17.57.07-4.29,2.52-6.91,6.04-6.77,3.4.14,5.48,2.57,5.51,6.82.06,11.57.06,23.14-.02,34.71-.03,4.14-2.26,6.67-5.58,6.77-3.59.11-5.89-2.39-5.98-6.82-.11-5.71-.03-11.43-.03-17.14h.03Z"/>
  <path class="st5" d="M273.17,164.83c-.12,4.45-3.88,7.98-8.39,7.88-4.59-.1-7.99-3.69-7.87-8.31.11-4.47,3.88-8.06,8.32-7.92,4.44.14,8.06,3.95,7.94,8.35Z"/>
  <path class="st5" d="M84.54,156.45c4.5-.11,8.18,3.42,8.32,7.99.14,4.58-3.34,8.22-7.92,8.29-4.58.07-8.24-3.39-8.36-7.9-.11-4.4,3.57-8.27,7.96-8.37Z"/>
  <path class="st5" d="M45.51,214.92c-5.05-.04-9.04-4.07-8.96-9.06.08-5.04,4.13-9.06,9.09-9,4.96.06,9.06,4.17,9.05,9.1-.01,4.87-4.23,9-9.17,8.96Z"/>
  <path class="st5" d="M313.74,205.96c0,4.99-4.03,8.98-9.08,8.96-5.05-.01-9.02-3.99-9.03-9.05,0-4.87,4.19-9.03,9.11-9.01,4.96.02,9.01,4.1,9.01,9.09Z"/>
  <path class="st5" d="M337.61,260.37c.68,4.83.82,7.46-3.68,7.76-1.84.12-3.59,1.58-5.7,2.59-.84-.91-1.75-1.89-3.48-3.75,4.41-2.26,8.25-4.24,12.86-6.6Z"/>
  <path class="st5" d="M292.58,236.11c-1.12-4.9-.19-7.02,3.83-7.48,1.75-.2,3.37-1.45,5.81-2.58.75.75,1.71,1.72,3.58,3.6-4.95,2.42-8.88,4.34-13.22,6.46Z"/>
  <path class="st5" d="M325.78,257.04c3.08-3.76,7.12-5.43,11.72-5.9.42.33.84.67,1.26,1-.9,1.69-1.41,4.38-2.77,4.91-8.15,3.19-8.21,3.02-10.21,0Z"/>
  <path class="st5" d="M325.59,234.69c4.13-2.06,7.99-3.98,11.85-5.9.5.42,1.01.84,1.51,1.26-.69,1.82-1.37,3.65-2.06,5.47-3.52-1.54-7,6.57-11.31-.83Z"/>
  <path class="st5" d="M292.6,278.18c-1.01-4.75-.15-6.92,3.81-7.45,1.86-.25,3.59-1.5,5.65-2.42.87,1.02,1.75,2.05,3.22,3.77-4.4,2.12-8.33,4.01-12.68,6.1Z"/>
  <path class="st5" d="M292.07,257.77c.26-3.32.38-4.97.58-7.44,4.17,2.17,7.65-5.77,12.73.94-4.35,2.12-8.25,4.03-13.3,6.5Z"/>
  <path class="st5" d="M337.64,239.84c1.06,4.9.34,6.98-3.49,7.52-2,.29-3.85,1.65-5.96,2.61-.8-.95-1.6-1.89-3.22-3.8,4.38-2.19,8.3-4.15,12.67-6.34Z"/>
  <path class="st5" d="M292.75,267.77c-1.17-4.87-.18-6.96,3.8-7.44,1.75-.21,3.38-1.4,5.46-2.33.81.84,1.73,1.81,3.44,3.6-4.49,2.18-8.41,4.09-12.69,6.17Z"/>
  <path class="st5" d="M291.84,245.51c.81-1.76,1.76-5.09,2.41-5.03,3.45.31,6.9-6.44,10.92.59-4.12,1.99-8.01,3.87-11.89,5.75-.48-.44-.96-.87-1.44-1.31Z"/>
  <path class="st5" d="M314.85,267.2c1.49-1.28,2.65-2.77,4.17-3.35.76-.29,2.7.79,3.16,1.72,1.09,2.19,1.62,4.66,2.41,7.13-2.64,1.51-4.77.51-9.74-5.49Z"/>
  <path class="st5" d="M315.5,270.82c-1.93,2.82-3,6.41-6.27,3.44-1.96-1.78-2.74-4.85-4.06-7.34.86-.39,2.03-1.33,2.52-1.06,2.64,1.45,5.11,3.21,7.8,4.96Z"/>
  <path class="st5" d="M324.92,276.36c4.53-1.74,8.39-3.22,12.25-4.7l1.15,1.21c-.54,1.39-1.38,4.02-1.59,3.97-3.64-.83-7.11,5.21-11.81-.48Z"/>
  <path class="st5" d="M311.16,256.16c-2.33-4.04-4.11-7.12-6.29-10.91,5.37-.8,7.76,2.37,10.45,5.59-1.14,1.46-2.16,2.77-4.16,5.32Z"/>
  <path class="st5" d="M315.44,260.96c-1.32,1.69-2.34,3-3.58,4.58-1.41-1.61-5.2-.7-3.57-4.57.13-.31-.53-.92-.78-1.42-.64-1.27-1.26-2.55-1.89-3.83,1.67.29,3.56.18,4.96.96,1.76.99,3.12,2.7,4.85,4.27Z"/>
  <path class="st5" d="M319.73,242.35c1.79,3.03,3.58,6.06,5.26,9.15.02.04-1.66,1.38-1.97,1.19-2.47-1.53-5.1-3.01-7-5.12-.55-.61,1.09-3.21,1.73-4.9.66-.11,1.32-.21,1.98-.32Z"/>
  <path class="st5" d="M324.98,241.78c-.56.13-1.68.78-2.27.46-2.07-1.14-4.04-2.52-5.9-3.98-2.17-1.71-.98-3.59.59-4.5,1.1-.63,3.77-.58,4.25.14,1.42,2.15,2.1,4.79,3.33,7.88Z"/>
  <path class="st5" d="M318.59,253.02c1.86,1.16,4.9,1.05,3.53,4.59-.16.41,1.05,1.24,1.41,1.98.48,1,.76,2.1,1.12,3.16-1.17-.09-2.45.1-3.48-.33-5.62-2.32-6.47-5.15-2.58-9.4Z"/>
  <path class="st5" d="M305.73,234.63c3.8-.51,6.41,1.8,8.49,4.55.53.7-.18,2.79-.9,3.87-1.05,1.58-4.68,1.01-5.28-.71-.8-2.29-1.41-4.65-2.31-7.71Z"/>
  <path class="st5" d="M315.32,277.08c3.53-4.4,4.49-4.19,6.98.56.58,1.1,2.22,1.63,2.95,3.03-4.46,1.56-7.18-.61-9.94-3.59Z"/>
  <path class="st5" d="M314.83,280.29c-3.6,4.13-4.83,3.95-6.86-.47-.6-1.31-1.88-2.31-2.9-3.53,3.63-1.34,5.78-.44,9.77,3.99Z"/>
  <path class="st5" d="M27.16,282.39c.32-.35.85-.93,1.38-1.5-.77-1.1-1.54-2.2-2.57-3.68,3.78-1.16,6.36.44,8.14,2.69,1.19,1.5,1.18,1.44,1.37,3.47.06.65-1.91.71-2.76.72-1.22.02-2.92.63-3.85-.22-1.07-.96-.75.03-1.71-1.48Z"/>
  <path class="st5" d="M26.42,272.14c-4.3,2.19-8.16,4.17-12.03,6.14-.47-.42-.94-.85-1.41-1.27.57-1.79.59-4.51,1.8-5.22,6.59-3.87,8.22-3.78,11.64.35Z"/>
  <path class="st5" d="M22.81,237.07c.93.99,1.78,1.88,3.53,3.74-4.41,2.28-8.3,4.29-12.65,6.54-.91-4.46-1.19-7.08,3.33-7.55,1.84-.19,3.55-1.62,5.79-2.73Z"/>
  <path class="st5" d="M13.32,258.05v-7.63c4.25,2.41,7.63-5.72,13.14.75-4.48,2.35-8.32,4.36-13.14,6.88Z"/>
  <path class="st5" d="M13.4,237.11c-.73-4.78-.69-7.44,3.67-7.71,1.18-.07,2.26-1.31,3.46-1.49,1.25-.19,2.6.24,3.91.4-.28,1.16-.17,2.92-.9,3.38-3.02,1.9-6.28,3.41-10.15,5.43Z"/>
  <path class="st5" d="M25.97,262c-4.04,2-7.88,3.91-12.19,6.05-.88-4.47-1.18-7.23,3.39-7.43,1.05-.04,2.2-.7,3.06-1.38,2.56-2.04,4.03-.99,5.74,2.76Z"/>
  <path class="st5" d="M45.82,235.34c4.46-2.17,8.22-4.01,12.41-6.05.86,3.86,1.41,6.51-3.01,7.29-2.02.36-3.9,1.58-6.2,2.57-.83-.99-1.76-2.09-3.2-3.8Z"/>
  <path class="st5" d="M59.61,261.75c-.77,1.81-1.69,5.23-2.29,5.18-3.53-.32-6.93,6.63-11.02-.44,4.05-2.03,7.96-3.98,11.86-5.93.48.4.96.8,1.45,1.2Z"/>
  <path class="st5" d="M59.78,251.62c-1.02,1.78-2.03,5.04-3.07,5.05-3.3.02-6.65,6.38-10.49-.55,4.05-2.04,7.97-4.02,11.88-5.99l1.68,1.5Z"/>
  <path class="st5" d="M58.38,239.54c1.08,4.53.69,6.93-3.49,7.54-1.88.27-3.62,1.54-5.73,2.48-.86-.96-1.76-1.96-3.32-3.68,4.38-2.21,8.21-4.15,12.53-6.34Z"/>
  <path class="st5" d="M46.26,277.86c4.35-1.93,8.15-3.63,11.96-5.32.42.3.85.6,1.27.9-.62,1.69-1.41,4.88-1.85,4.83-3.58-.38-7,5.91-11.38-.41Z"/>
  <path class="st5" d="M45.7,252.01c-4.63.83-6.99-2.34-9.52-5.17,2.31-4.36,5.24-5.48,6.78-2.6,1.21,2.27,1.76,4.89,2.74,7.77Z"/>
  <path class="st5" d="M45.87,272.14s-.39.74-.94.94c-2.07.78-8.79-4.05-8.29-6.09.31-1.26,1.35-2.7,2.46-3.27.82-.42,2.91.06,3.36.8,1.36,2.22,2.19,4.76,3.41,7.62Z"/>
  <path class="st5" d="M35.81,257.68c1.87-3.23,3.23-6.52,6.58-3.42,1.79,1.66,2.48,4.53,3.49,6.93.06.13-1.81,1.55-2.23,1.33-2.67-1.43-5.18-3.15-7.85-4.84Z"/>
  <path class="st5" d="M40.02,231.09c2.22,3.58,4.08,6.57,5.96,9.61-3.25,2.01-5.07,1.18-9.9-4.52.38-.64.75-1.38,1.24-2.03.5-.68,1.11-1.27,2.71-3.05Z"/>
  <path class="st5" d="M35.99,271.46c-2.54,3.88-5.17,4.76-6.62,2.09-1.22-2.25-1.85-4.81-2.76-7.28,3.08-1.57,6.11,0,9.39,5.2Z"/>
  <path class="st5" d="M36.36,239.66c-1.42,1.92-2.33,3.15-3.41,4.6-2.01-1.03-5.13-.56-3.91-4.44.15-.47-1.01-1.28-1.38-2.02-.51-1-.84-2.08-1.25-3.13,1.18.07,2.59-.23,3.5.3,2.15,1.25,4.05,2.91,6.45,4.69Z"/>
  <path class="st5" d="M31.62,255.02c-.8-1.5-1.52-3.05-2.41-4.5-1.01-1.64-2.16-3.18-3.66-5.36,5.25-1.1,7.64,2.03,10.52,5.29-.93,1.31-1.88,2.64-2.82,3.97-.54.2-1.08.39-1.62.59Z"/>
  <path class="st5" d="M32,265.98c-1.09-2.12-1.85-3.63-2.64-5.12-.33-.61-.8-1.15-1.08-1.78-.55-1.25-1.02-2.53-1.52-3.8,1.45.27,3.05.24,4.33.86,5.02,2.45,5.48,4.61.92,9.84Z"/>
  <path class="st5" d="M36.09,277.86c1.52-.97,2.9-2.5,4.41-2.65,1.99-.19,3.02,1.21,2.99,3.63-.01,1.17,1.78,2.36,2.79,3.57-3.28,1.77-5.61.76-10.19-4.55Z"/>
  <path class="st5" d="M24.51,175.49c-3.74,1.51-7.47,3.02-11.43,4.62-1.26-3.36-1.45-5.37,2.25-5.78,1.39-.16,2.69-1.05,4.08-1.24,1.57-.22,3.2-.04,4.8-.03.1.81.2,1.63.3,2.44Z"/>
  <path class="st5" d="M58.33,167.23c-.66,1.29-1.44,3.75-1.94,3.69-3.52-.39-6.87,5.13-11.3-.3,4.29-1.7,8.07-3.2,11.85-4.69.46.43.92.87,1.39,1.3Z"/>
  <path class="st5" d="M24.8,170.29c4.83-1.36,7.29,1.46,10.65,4.37-1.63,1.06-3.04,2.68-4.37,2.62-1.05-.04-2-2.17-3.02-3.34-.96-1.11-1.95-2.19-3.26-3.64Z"/>
  <path class="st5" d="M54.64,159.28c-5.86,1.3-11.73,3.35-18.68-1.08,2.14-.54,3.95-1.5,4.42-1.04,3.75,3.57,7.67.87,11.5.66.9-.05,1.82.11,2.73.17,0,.43.02.86.02,1.29Z"/>
  <path class="st5" d="M39.41,167.76c1.9,2.4,3.81,4.8,6.28,7.92-4.85.5-7.62-1.48-10.86-4.68,1.72-1.15,3.22-2.15,4.71-3.15l-.13-.09Z"/>
  <path class="st5" d="M55.78,161.73c-1.07,3.57-7.61,5.04-11.78,2.63,4.34-.97,7.85-1.75,11.78-2.63Z"/>
  <path class="st5" d="M12.64,167.42c3.5-.76,7.01-1.52,10.51-2.28.17.75.33,1.5.5,2.26-3.5.77-7.01,1.54-10.51,2.31-.17-.76-.33-1.52-.5-2.28Z"/>
  <path class="st5" d="M39.53,167.85c-1.51-.95-3.02-1.89-4.6-2.88,3.47-2.98,3.86-2.86,8.14,2.31-1.31.16-2.5.31-3.68.47.01,0,.14.1.14.1Z"/>
  <path class="st5" d="M34.45,166.29c-4.86,4.38-6.42.25-8.76-1.35l.38-1.24c2.59.8,5.18,1.6,8.38,2.59Z"/>
  <path class="st5" d="M35.28,160.21c-5.31,4.56-6.73.35-8.62-2.59,2.54.76,5.09,1.53,8.62,2.59Z"/>
  <path class="st5" d="M14.31,160.01c3.17-.44,6.34-.87,9.51-1.31.08.54.16,1.07.24,1.61-3.18.53-6.35,1.05-9.53,1.58-.07-.63-.14-1.25-.21-1.88Z"/>
  <path class="st5" d="M324.8,169.49c-.38.23-1.08.65-1.77,1.06.8,1.16,1.56,2.27,2.63,3.83-3.81.96-6.43-.5-8.17-2.8-1.16-1.53-1.41-3.92-1.56-5.96-.05-.65,1.56-1.99,2.39-1.99,1.22,0,2.66.71,3.6,1.56,1.07.97,1.69,2.44,2.88,4.28Z"/>
  <path class="st5" d="M304.84,173.59c-3.89,1.68-7.68,3.32-11.48,4.97-.46-.38-.91-.75-1.37-1.13.75-1.6,1.09-4.05,2.32-4.66,7.42-3.65,7.99-3.49,10.53.82Z"/>
  <path class="st5" d="M325.48,170.61c4.17-1.45,8-2.78,11.83-4.12.4.42.79.84,1.19,1.26-.67,1.22-1.06,3.12-2.07,3.55-6.51,2.81-8.11,2.7-10.95-.7Z"/>
  <path class="st5" d="M315.57,173.8c-1.91,1-3.28,2.28-4.68,2.31-1.9.04-3.01-1.1-2.77-3.6.11-1.14-1.85-2.48-3.57-4.59,5.33-.21,8.22,1.8,11.02,5.89Z"/>
  <path class="st5" d="M305.3,166.38c-4.49,1.26-8.05,2.25-11.61,3.25-.27-.3-.55-.59-.82-.89.45-.93.99-2.7,1.34-2.67,3.35.38,6.67-3.44,11.1.31Z"/>
  <path class="st5" d="M326.21,167.42c2.56-3.46,6.12-4.24,9.87-4.5.37-.03,1.02.57,1.11.97.09.41-.28,1.29-.58,1.36-3.45.79-6.93,1.47-10.4,2.17Z"/>
  <path class="st5" d="M305.45,162.01c2.9,1.35,5.8,2.71,8.7,4.06-.26.61-.52,1.22-.78,1.84-3.45.05-6.11-1.89-8.65-4.15.24-.58.49-1.17.73-1.75Z"/>
  <path class="st5" d="M325.42,160.17c3.29-.43,6.58-.86,9.86-1.29.08.68.17,1.35.25,2.03-3.3.4-6.59.8-9.89,1.2-.08-.65-.15-1.29-.23-1.94Z"/>
  <path class="st5" d="M304.52,160.57c-3.27.64-6.53,1.28-9.8,1.92-.14-.66-.28-1.33-.42-1.99,3.26-.68,6.53-1.36,9.79-2.04.14.7.29,1.41.43,2.11Z"/>
  <path class="st5" d="M323.07,162.82c-2.41-.8-4.81-1.6-7.59-2.53,3.68-2.92,3.95-2.85,7.59,2.53Z"/>
  <path class="st5" d="M307.22,158.16c2.43.86,4.86,1.73,7.55,2.68-3.52,2.87-3.62,2.84-7.55-2.68Z"/>
  <g>
    <path class="st5" d="M97,209.72c0,3.13-3.11,5.77-7.15,5.77-1.9,0-4.07-.53-6.71-2.43-.47-.32-.94-.67-1.46-.94-.09-.03-.15-.09-.15-.09-.09-.09-.15-.18-.15-.29,0-.09.06-.18.12-.26,1.05-.73,2.2-1.7,2.87-2.75v-.03c.09-.09.21-.15.32-.15s.21.06.29.12c.09.09.12.18.15.26.06.53.23,1.06.64,1.44.73.73,2.05,1.73,3.98,1.73h.06c1.46,0,3.16-.64,3.16-1.93,0-3.05-10.49-2.87-10.49-8.56,0-3.66,3.43-5.6,6.94-5.6,2.14,0,4.07.94,5.66,2.14.41.32.88.44,1.38.53.09,0,.15.03.23.12.09.09.12.18.12.29s-.06.24-.15.32c-.91.7-1.67,1.58-2.26,2.58l-.12.24c-.09.09-.23.15-.35.15s-.23-.06-.29-.15c-.09-.09-.12-.18-.12-.26-.06-.64-.32-1.29-.88-1.7-.7-.5-1.73-1.05-3.14-1.05-1.06,0-3.05.56-3.05,2.02,0,2.78,10.52,2.84,10.52,8.5Z"/>
    <path class="st5" d="M114.68,198.56v13.1c0,.47.21,2.31.41,2.99,0,.09.03.15.03.21,0,.23-.18.44-.41.44-.62-.09-1.26-.12-1.88-.12-.65,0-1.26.03-1.88.12-.23,0-.44-.21-.44-.44,0-.03,0-.09.03-.12.35-1.05.41-2.17.41-3.28v-3.13c0-.24-.18-.41-.41-.41-.03,0-.09,0-.15.03l-5.48,2.02c-.35.12-.56.47-.56.85v.15c.23,1.17.38,2.46.38,3.9,0,.12-.03.23-.12.32-.09.06-.18.12-.29.12-.64-.06-1.26-.12-1.88-.12s-1.26.06-1.88.12c-.12,0-.23-.06-.32-.12-.06-.09-.12-.21-.12-.32,0-.06,0-.09.03-.15.18-.5.35-1.06.35-1.58,0-3.87-.76-5.3-.76-7.97v-.15c.06-4.98,4.16-9,9.14-9h5.86c.2,0,.35.18.35.41v.03c0,.09,0,.15-.03.21-.26.53-.41,1.44-.41,1.9ZM103.89,206.35s.09,0,.15-.03l6.36-2.37c.35-.12.56-.44.56-.82v-2.87c0-.29-.23-.53-.53-.53h-1.29c-3.11,0-5.65,2.49-5.65,5.57v.12c0,.18,0,.38.03.56,0,.23.18.38.38.38Z"/>
    <path class="st5" d="M122.94,196.54c-.2,1.11-.47,2.23-.47,3.4v11.46c0,1.14.26,2.26.47,3.4v.06c0,.23-.2.44-.44.44-.62-.09-1.23-.12-1.88-.12s-1.23.03-1.88.12c-.23,0-.44-.21-.44-.44,0-.06.03-.09.03-.15.38-1.03.44-2.14.44-3.25v-11.51c0-1.17-.26-2.28-.44-3.4-.03-.03-.03-.06-.03-.09,0-.23.2-.41.44-.41h.06c.62.06,1.2.09,1.82.09s1.23-.03,1.82-.09l.06-.03h.06c.21,0,.38.18.38.41v.12Z"/>
    <path class="st5" d="M141.49,197.97v15.35c0,.47.18.91.41,1.32.03.06.03.15.03.21,0,.23-.18.44-.41.44h-3.49c-.38,0-.7-.29-.7-.67-.2-4.6-2.29-10.96-6.33-12.8-.06-.03-.12-.03-.18-.03-.29,0-.53.2-.53.5v9.11c0,1.14.23,2.26.44,3.4v.06c0,.12-.03.23-.12.32-.09.06-.18.12-.29.12-.64-.06-1.26-.12-1.88-.12s-1.26.06-1.88.12c-.12,0-.23-.06-.32-.12-.06-.09-.12-.21-.12-.32,0-.06,0-.09.03-.15.35-1.03.41-2.14.41-3.25v-11.6c0-1.11-.18-2.23-.44-3.31v-.09c0-.23.18-.44.44-.44h.03c.5,0,1,.06,1.47.12.91.12,1.79.32,2.64.64,2.73,1.03,5.1,3.05,6.8,5.68.03.03.09.06.12.06.09,0,.18-.06.18-.15v-2.46c0-1.14-.26-2.26-.47-3.37v-.09c0-.26.21-.44.47-.44.64.09,1.29.15,1.93.15.32,0,.64-.03.97-.06l.82-.09h.06c.21,0,.35.18.35.41v.03c0,.09,0,.15-.03.21-.23.41-.41.85-.41,1.32Z"/>
    <path class="st5" d="M145.13,196.48c0-.26.23-.47.47-.47h.03c2.34.15,4.69.23,7.03.23s4.45-.09,6.65-.21l.12-.03c.21,0,.38.18.38.41-.06.64-.09,1.32-.09,1.96,0,.59.03,1.2.09,1.79v.03c0,.23-.18.44-.44.44-.38,0-.7-.91-1.93-.91h-2.55c-.32,0-.56.24-.56.56v11.1c0,1.14.18,2.26.44,3.37v.09c0,.23-.18.44-.44.44-.62-.09-1.23-.12-1.85-.12s-1.26.03-1.88.12c-.23,0-.44-.21-.44-.44,0-.03,0-.09.03-.12.35-1.05.41-2.17.41-3.28v-11.16c0-.32-.23-.56-.56-.56h-2.55c-1.41,0-1.44.91-1.93.91-.23,0-.44-.21-.44-.44l.06-.47c.03-.47.06-.94.06-1.41,0-.59-.03-1.2-.12-1.79v-.06Z"/>
    <path class="st5" d="M173.7,206.44h-10.28c-.23,0-.41-.18-.41-.41v-.73c0-.21.18-.41.41-.41h10.28c.23,0,.41.2.41.41v.73c0,.23-.18.41-.41.41Z"/>
    <path class="st5" d="M195.32,196.54c-.26,1.11-.44,2.23-.44,3.34v11.51c0,1.14.24,2.26.44,3.4v.06c0,.12-.06.23-.12.32-.09.06-.2.12-.32.12-.61-.06-1.23-.12-1.88-.12s-1.23.06-1.88.12c-.12,0-.2-.06-.29-.12-.09-.09-.12-.21-.12-.32v-.15c.38-1.03.44-2.14.44-3.25v-9.43c0-.23-.18-.38-.38-.38-.09,0-.18.03-.23.09-1.73,1.49-3.11,4.89-3.63,6.91-.09.32-.35.47-.62.47s-.53-.15-.61-.47c-.56-2.14-1.96-5.45-3.63-6.48-.06-.03-.12-.06-.18-.06-.21,0-.41.18-.41.41v8.88c0,1.14.26,2.26.47,3.4v.06c0,.12-.06.23-.12.32-.09.06-.21.12-.32.12-.62-.06-1.26-.12-1.88-.12s-1.26.06-1.88.12c-.12,0-.21-.06-.29-.12-.09-.09-.15-.21-.15-.32,0-.06.03-.09.03-.15.38-1.03.44-2.14.44-3.25v-11.57c0-1.14-.21-2.23-.44-3.34,0-.03-.03-.06-.03-.09,0-.23.21-.44.44-.44h.2c4.16,0,7.38,2.99,8.2,4.81.03.06.09.12.18.12.06,0,.12-.06.15-.12.88-1.85,4.01-4.81,8.23-4.81h.18c.24,0,.44.18.44.41v.12Z"/>
    <path class="st5" d="M213.43,198.56v13.1c0,.47.21,2.31.41,2.99,0,.09.03.15.03.21,0,.23-.18.44-.41.44-.61-.09-1.26-.12-1.88-.12s-1.26.03-1.88.12c-.23,0-.44-.21-.44-.44,0-.03,0-.09.03-.12.35-1.05.41-2.17.41-3.28v-3.13c0-.24-.18-.41-.41-.41-.03,0-.09,0-.15.03l-5.48,2.02c-.35.12-.56.47-.56.85v.15c.24,1.17.38,2.46.38,3.9,0,.12-.03.23-.12.32-.09.06-.18.12-.29.12-.64-.06-1.26-.12-1.88-.12s-1.26.06-1.88.12c-.12,0-.24-.06-.32-.12-.06-.09-.12-.21-.12-.32,0-.06,0-.09.03-.15.18-.5.35-1.06.35-1.58,0-3.87-.76-5.3-.76-7.97v-.15c.06-4.98,4.16-9,9.14-9h5.86c.21,0,.35.18.35.41v.03c0,.09,0,.15-.03.21-.26.53-.41,1.44-.41,1.9ZM202.65,206.35s.09,0,.15-.03l6.36-2.37c.35-.12.56-.44.56-.82v-2.87c0-.29-.23-.53-.53-.53h-1.29c-3.11,0-5.65,2.49-5.65,5.57v.12c0,.18,0,.38.03.56,0,.23.18.38.38.38Z"/>
    <path class="st5" d="M231.81,214.56c0,.41-.32.73-.73.73h-3.55c-.47,0-.82-.38-.82-.82v-.15c.12-.7.18-1.38.18-1.96,0-1.76-.47-3.08-.97-3.98-.12-.18-.26-.26-.44-.26-.09,0-.18.03-.23.06-1.61.79-3.08,1.35-3.75,1.58-.15.06-.26.21-.26.38v1.26c0,1.14.23,2.26.44,3.4v.06c0,.12-.03.23-.12.32-.09.06-.18.12-.32.12-.61-.06-1.23-.12-1.85-.12s-1.26.06-1.88.12c-.12,0-.24-.06-.32-.12-.09-.09-.12-.21-.12-.32,0-.06,0-.09.03-.15.35-1.03.41-2.14.41-3.25v-11.57c0-1.14-.18-2.23-.44-3.34v-.09c0-.23.18-.44.41-.44h.06c.29.03.94.06,1.7.06,1.52,0,3.46-.06,3.96-.06h3.16c1.44,0,2.73.47,3.66,1.32.97.88,1.55,2.08,1.55,3.78,0,1.96-1.29,3.63-2.96,4.95-.15.09-.21.24-.21.41,0,.09.03.21.12.29,2.34,2.84,3.08,6.09,3.28,7.7v.09ZM221.23,205.44c0,.23.18.41.41.41.03,0,.09,0,.15-.03,1.88-.76,5.86-2.67,5.86-4.6,0-.82-.44-1.49-2.49-1.49h-3.52c-.24,0-.41.18-.41.41v5.3Z"/>
    <path class="st5" d="M249.8,198.41c0,.59.03,1.17.09,1.76l.03.03c0,.26-.21.44-.44.44-.41,0-.73-.91-1.93-.91h-3.66c-.29,0-.56.26-.56.59v11.08c0,1.14.18,2.29.44,3.37.03.06.03.09.03.12,0,.23-.21.41-.44.41-.62-.06-1.26-.09-1.88-.09s-1.23.03-1.88.09c-.24,0-.44-.18-.44-.41,0-.06.03-.09.03-.15.35-1.05.44-2.17.44-3.28v-11.13c0-.32-.26-.59-.56-.59h-2.58c-1.41,0-1.44.91-1.93.91-.24,0-.44-.18-.44-.44l.06-.44c.06-.44.06-.91.06-1.35,0-.62-.03-1.23-.12-1.88v-.06c0-.24.21-.44.44-.44h.09c2.29.12,4.83.21,7.38.21s5.1-.09,7.35-.21h.12c.24,0,.41.18.41.38-.09.67-.12,1.32-.12,1.99ZM249.48,201.81c.21,0,.35.18.35.38v.12c-.2,1.14-.44,2.26-.44,3.4v5.68c0,1.14.24,2.29.44,3.4v.09c0,.23-.18.41-.41.41-.62-.06-1.26-.09-1.88-.09s-1.26.03-1.88.09c-.24,0-.44-.18-.44-.41,0-.06,0-.12.03-.15.38-1.03.41-2.17.41-3.28v-5.74c0-1.14-.24-2.26-.44-3.4v-.06c0-.26.18-.44.41-.44h.06c.62.06,1.23.09,1.85.09s1.23-.03,1.82-.09h.12Z"/>
    <path class="st5" d="M268.47,197.97v15.35c0,.47.18.91.41,1.32.03.06.03.15.03.21,0,.23-.18.44-.41.44h-3.49c-.38,0-.7-.29-.7-.67-.21-4.6-2.28-10.96-6.33-12.8-.06-.03-.12-.03-.18-.03-.29,0-.53.2-.53.5v9.11c0,1.14.23,2.26.44,3.4v.06c0,.12-.03.23-.12.32-.09.06-.18.12-.29.12-.64-.06-1.26-.12-1.88-.12s-1.26.06-1.88.12c-.12,0-.24-.06-.32-.12-.06-.09-.12-.21-.12-.32,0-.06,0-.09.03-.15.35-1.03.41-2.14.41-3.25v-11.6c0-1.11-.18-2.23-.44-3.31v-.09c0-.23.18-.44.44-.44h.03c.5,0,1,.06,1.46.12.91.12,1.79.32,2.64.64,2.73,1.03,5.1,3.05,6.8,5.68.03.03.09.06.12.06.09,0,.18-.06.18-.15v-2.46c0-1.14-.26-2.26-.47-3.37v-.09c0-.26.21-.44.47-.44.64.09,1.29.15,1.93.15.32,0,.64-.03.97-.06l.82-.09h.06c.2,0,.35.18.35.41v.03c0,.09,0,.15-.03.21-.24.41-.41.85-.41,1.32Z"/>
  </g>
  <g>
    <path class="st5" d="M93.75,234.01h5.54v1.91h-3.43v2.01h3.43v1.92h-3.42v4.01h-2.12v-9.84Z"/>
    <path class="st5" d="M102.61,234.01h3.24c.99,0,1.76.26,2.34.78s.86,1.22.86,2.11c0,.5-.13,1.03-.39,1.57-.26.55-.75.97-1.45,1.28l2.75,4.1h-2.44l-2.55-3.81h-.24v3.81h-2.12v-9.84ZM104.74,235.76v2.56h.46c1.11,0,1.66-.45,1.66-1.36,0-.37-.14-.66-.43-.88-.29-.22-.69-.33-1.2-.33h-.49Z"/>
    <path class="st5" d="M113.13,234.01h5.54v1.95h-3.42v1.99h3.42v1.92h-3.42v2.04h3.42v1.95h-5.54v-9.84Z"/>
    <path class="st5" d="M128.51,234.01h2.08v9.84h-2.07l-4.5-6.37v6.37h-2.12v-9.84h2.1l4.51,6.33v-6.33Z"/>
    <path class="st5" d="M141.46,234.53v2.4c-1.06-.64-2-.96-2.8-.96s-1.44.27-1.92.82c-.48.55-.72,1.29-.72,2.22,0,.88.25,1.58.76,2.11s1.18.79,2.02.79c.74,0,1.62-.3,2.65-.89v2.39c-1.15.38-2.12.58-2.89.58-1.32,0-2.45-.49-3.37-1.46s-1.39-2.16-1.39-3.56.47-2.63,1.41-3.62c.94-.99,2.09-1.48,3.44-1.48.87,0,1.8.22,2.8.66Z"/>
    <path class="st5" d="M144.57,234.01h2.12v3.79h3.49v-3.79h2.12v9.84h-2.12v-3.91h-3.49v3.91h-2.12v-9.84Z"/>
    <path class="st5" d="M160.75,234.01h1.89l1.59,6.71,1.65-6.71h1.35l1.63,6.74,1.62-6.74h1.89l-2.38,9.84h-2l-1.44-6.04-1.44,6.04h-1.99l-2.36-9.84Z"/>
    <path class="st5" d="M175.2,234.01h5.54v1.95h-3.42v1.99h3.42v1.92h-3.42v2.04h3.42v1.95h-5.54v-9.84Z"/>
    <path class="st5" d="M189.61,234.9l-1.32,1.45c-.7-.41-1.19-.61-1.5-.61-.23,0-.44.09-.61.27-.17.18-.26.39-.26.63,0,.49.44.91,1.32,1.26.65.28,1.13.52,1.46.75s.61.53.83.93.33.82.33,1.28c0,.85-.34,1.58-1.02,2.21-.68.62-1.49.94-2.42.94-1.02,0-2.03-.48-3.02-1.44l1.4-1.63c.62.64,1.21.97,1.75.97.26,0,.5-.11.74-.34.23-.23.35-.46.35-.71,0-.51-.54-.97-1.63-1.36-.62-.23-1.06-.44-1.32-.64-.26-.2-.48-.48-.66-.86s-.27-.76-.27-1.16c0-.88.28-1.58.85-2.13s1.31-.82,2.23-.82c1.09,0,2,.34,2.74,1.03Z"/>
    <path class="st5" d="M192.25,234.01h6.62v2.09h-2.26v7.75h-2.12v-7.75h-2.24v-2.09Z"/>
    <path class="st5" d="M207.33,234.01h2.12v9.84h-2.12v-9.84Z"/>
    <path class="st5" d="M219.47,234.01h2.08v9.84h-2.07l-4.5-6.37v6.37h-2.12v-9.84h2.1l4.51,6.33v-6.33Z"/>
    <path class="st5" d="M225.01,234.01h3.36c1.44,0,2.59.45,3.47,1.36.87.91,1.31,2.1,1.31,3.58s-.45,2.67-1.35,3.57c-.9.89-2.1,1.34-3.6,1.34h-3.18v-9.84ZM227.15,235.87v6.08h.84c.87,0,1.58-.24,2.14-.71.56-.47.84-1.27.84-2.38,0-.64-.13-1.22-.4-1.71s-.66-.83-1.17-1.01-1-.27-1.47-.27h-.78Z"/>
    <path class="st5" d="M236.24,234.01h2.12v9.84h-2.12v-9.84Z"/>
    <path class="st5" d="M241.88,234.01h5.54v1.95h-3.42v1.99h3.42v1.92h-3.42v2.04h3.42v1.95h-5.54v-9.84Z"/>
    <path class="st5" d="M256.28,234.9l-1.32,1.45c-.7-.41-1.19-.61-1.5-.61-.23,0-.44.09-.61.27-.17.18-.26.39-.26.63,0,.49.44.91,1.32,1.26.65.28,1.13.52,1.46.75s.61.53.83.93.33.82.33,1.28c0,.85-.34,1.58-1.02,2.21-.68.62-1.49.94-2.42.94-1.02,0-2.03-.48-3.02-1.44l1.4-1.63c.62.64,1.21.97,1.75.97.26,0,.5-.11.74-.34.23-.23.35-.46.35-.71,0-.51-.54-.97-1.63-1.36-.62-.23-1.06-.44-1.32-.64-.26-.2-.48-.48-.66-.86s-.27-.76-.27-1.16c0-.88.28-1.58.85-2.13s1.31-.82,2.23-.82c1.09,0,2,.34,2.74,1.03Z"/>
  </g>
  <path class="st5" d="M96.26,184.8c3.81,0,7.62.05,11.42.17,1.78.06,3.48,1.78,5.26,2.64,1.43.69,2.93,1.77,4.4,1.78,20.38.05,40.77.08,61.15.08,17.85,0,35.71-.02,53.56-.05,1.31,0,3.47-.44,3.77-1.23,1.17-3.04,3.33-3.35,5.65-3.35.61,0,1.23.02,1.85.02,0,0,.02,0,.02,0,4.06,0,8.11-.03,12.17-.03,3.39,0,6.78.02,10.17.08,1.6.03,4.15.39,4.6,1.37,1.27,2.79,3.31,3.09,5.5,3.09.58,0,1.17-.02,1.76-.02,20.05-.04,40.1-.11,60.14-.17.56,0,1.12,0,1.73,0,1.07,0,2.3,0,3.94,0-2.28,8.59.4,22.51-5.23,29.77-1.05,1.35-3.15,2.58-4.83,2.66-30.89,1.38-61.79,2.61-92.68,3.74-.04,0-.08,0-.11,0-1.58,0-3.18-1.19-4.82-1.64-1.61-.44-3.28-.92-4.92-.92-16.02-.02-32.05-.03-48.06-.03-21.36,0-42.71.03-64.07.1-2.04,0-4.04,1.4-6.11,1.94-1.35.35-2.79.61-4.19.61-.14,0-.28,0-.42,0-30.75-1.2-61.51-2.46-92.26-3.69-4.96-.2-6.62-4.35-7.37-7.71-1.38-6.2-1.43-17.79-2.08-24.59,1.93-.1,3.44-.24,4.95-.24.02,0,.03,0,.05,0,20.33.04,40.67.09,61,.18.41,0,.81,0,1.2,0,2.14,0,4.07-.23,5.24-2.92.41-.93,2.68-1.44,4.12-1.47,4.5-.08,9-.14,13.49-.14M96.26,180.8c-4.64,0-9.26.07-13.56.14-1.01.02-6.15.29-7.71,3.87-.11.25-.19.37-.23.41-.13.04-.46.1-1.34.1-.2,0-.41,0-.62,0h-.57c-17.66-.08-36.48-.13-61.01-.18,0,0-.05,0-.06,0-1.13,0-2.22.07-3.38.14-.56.04-1.14.07-1.77.1-1.09.06-2.11.55-2.82,1.38-.71.83-1.06,1.91-.96,2.99.21,2.26.36,5.11.52,8.14.32,6.17.66,12.55,1.64,16.95,1.93,8.67,7.11,10.68,11.12,10.84,11.04.44,22.07.89,33.11,1.33,19.39.78,39.44,1.59,59.16,2.36.19,0,.39.01.58.01,1.58,0,3.28-.24,5.2-.74,1.08-.28,2.06-.7,2.93-1.07.78-.33,1.74-.74,2.19-.74,19.47-.07,40.42-.1,64.05-.1,16.02,0,32.04.01,48.06.03,1.04,0,2.32.35,3.67.72l.2.06c.33.09.8.31,1.3.53,1.22.56,2.74,1.25,4.57,1.25.09,0,.17,0,.26,0,33.32-1.21,63.65-2.44,92.72-3.74,2.78-.12,5.99-1.85,7.81-4.2,4.29-5.54,4.61-13.62,4.89-20.75.15-3.93.3-7.64,1.04-10.45.32-1.2.06-2.48-.7-3.46-.76-.98-1.93-1.56-3.17-1.56h-2.39s-1.55,0-1.55,0h-1.74s-16.06.05-16.06.05c-14.69.04-29.39.09-44.08.12-.31,0-.62,0-.93.01-.28,0-.55.01-.83.01-1.52,0-1.55-.07-1.86-.75-1.35-2.96-5.19-3.65-8.16-3.7-2.99-.05-6.25-.08-10.24-.08-2.2,0-4.4,0-6.61.01-1.85,0-3.71.01-5.56.01-.31,0-.59,0-.88-.01-.33,0-.66-.01-.99-.01-1.78,0-6.25,0-8.74,4.52-.23.04-.48.06-.69.06-19.1.03-36.61.05-53.55.05-21.55,0-41.53-.02-61.07-.08-.3-.08-1.01-.46-1.49-.72-.4-.22-.81-.44-1.26-.66-.38-.18-.86-.5-1.37-.84-1.43-.94-3.21-2.12-5.5-2.19-3.56-.12-7.34-.18-11.55-.18h0Z"/>
  <path class="st5" d="M307.39,225.17c2.92-.39,4.92,1.38,6.51,3.49.41.54-.14,2.14-.69,2.97-.8,1.21-3.59.78-4.05-.54-.62-1.76-1.08-3.57-1.77-5.92Z"/>
  <path class="st5" d="M326.16,231.79c-.56.13-1.68.78-2.27.46-2.07-1.14-4.04-2.52-5.9-3.98-2.17-1.71-.98-3.59.59-4.5,1.1-.63,3.77-.58,4.25.14,1.42,2.15,2.1,4.79,3.33,7.88Z"/>
  <path class="st5" d="M326.95,226.21c3.29-1.64,6.37-3.17,9.45-4.7.4.33.8.67,1.2,1-.55,1.45-1.09,2.91-1.64,4.36-2.8-1.23-5.58,5.24-9.01-.67Z"/>
  <path class="st5" d="M36.36,228.07c-1.42,1.92-2.33,3.15-3.41,4.6-2.01-1.03-5.13-.56-3.91-4.44.15-.47-1.01-1.28-1.38-2.02-.51-1-.84-2.08-1.25-3.13,1.18.07,2.59-.23,3.5.3,2.15,1.25,4.05,2.91,6.45,4.69Z"/>
  <path class="st5" d="M45,223.69c1.51,2.44,2.78,4.48,4.06,6.55-2.21,1.37-3.46.8-6.75-3.08.26-.43.51-.94.84-1.39.34-.46.76-.86,1.84-2.08Z"/>
  <line class="st3" x1="8.57" y1="149.75" x2="60.79" y2="146.83"/>
  <line class="st3" x1="287.56" y1="149.44" x2="342.7" y2="152.02"/>
  <path class="st5" d="M59.99,175.97c-.66,1.29-1.44,3.75-1.94,3.69-3.52-.39-6.87,5.13-11.3-.3,4.29-1.7,8.07-3.2,11.85-4.69.46.43.92.87,1.39,1.3Z"/>
  <path class="st5" d="M41.67,183.27c-1.51-.95-3.02-1.89-4.6-2.88,3.47-2.98,3.86-2.86,8.14,2.31-1.31.16-2.5.31-3.68.47.01,0,.14.1.14.1Z"/>
  <path class="st5" d="M36.58,181.71c-4.86,4.38-6.42.25-8.76-1.35l.38-1.24c2.59.8,5.18,1.6,8.38,2.59Z"/>
  <path class="st5" d="M14.68,182.51c3.5-.76,7.01-1.52,10.51-2.28.17.75.33,1.5.5,2.26-3.5.77-7.01,1.54-10.51,2.31-.17-.76-.33-1.52-.5-2.28Z"/>
  <path class="st5" d="M325.48,180.46c4.17-1.45,8-2.78,11.83-4.12.4.42.79.84,1.19,1.26-.67,1.22-1.06,3.12-2.07,3.55-6.51,2.81-8.11,2.7-10.95-.7Z"/>
  <path class="st5" d="M315.57,185.71c-1.91,1-3.28,2.28-4.68,2.31-1.9.04-3.01-1.1-2.77-3.6.11-1.14-1.85-2.48-3.57-4.59,5.33-.21,8.22,1.8,11.02,5.89Z"/>
  <path class="st5" d="M303.45,182.36c-3.89,1.68-7.68,3.32-11.48,4.97-.46-.38-.91-.75-1.37-1.13.75-1.6,1.09-4.05,2.32-4.66,7.42-3.65,7.99-3.49,10.53.82Z"/>
  <path class="st5" d="M323.41,181.4c-.25.15-.71.43-1.16.7.52.76,1.02,1.48,1.72,2.51-2.49.63-4.21-.32-5.35-1.83-.76-1-.92-2.56-1.02-3.9-.03-.42,1.02-1.3,1.57-1.3.8,0,1.74.46,2.35,1.02.7.64,1.1,1.59,1.89,2.8Z"/>
  <path class="st2" d="M283.17,83.63c.02.62,0,1.23,0,2-.77.04-2.66.11-3.27.11-12.09,0-13.59-.02-25.68.04-1.46,0-2.08-.35-2.33-1.89-1.77-10.62-3.63-28.18-5.49-38.77-.24-1.34-.53-2.67-.96-3.96-2.22-6.7-5.88-8.85-13.64-8.47-3.21.16-6.43.09-9.64-.03-7.71-.28-11.65,2.12-13.33,9.26-1.65,7.01-2.78,14.14-4.07,21.23-.83,4.6-1.58,16.18-2.24,20.82-.27,1.86-.96,2.09-4.28,1.57-7.11-1.13-28.36-1.42-35.52-.65-7.55.81-9.19,1.85-9.63-.86-1.64-9.98-3.29-26.92-5.09-36.87-.51-2.84-1.31-5.68-2.38-8.36-1.54-3.89-4.7-5.95-8.85-6.07-5.5-.15-11.01-.16-16.52-.02-4.47.11-7.93,2.3-9.25,6.6-1.48,4.81-2.52,9.78-3.44,14.74-1.43,7.64-2.63,22.29-3.85,29.97-.25,1.54-.86,1.89-2.81,1.73-11.6-.99-16.89-1.18-28.47-.03-2.37.24-2.82-.19-2.75-1.82.71-17.57,1.86-38.99,4.14-55.84.33-7.84,5.26-11.32,13.13-11.33,14.31-.02,21.85,0,36.15,0,15.89,0,27.27.03,43.15-.04,1.75,0,2.49.54,2.77,2.21.32,1.92.87,3.8,1.35,5.86-3.44.16-2.21.27-5.47.48-3.47.22-6.26,4.57-4.89,7.82.26.61,1.51,1.11,2.31,1.12,8.73.13,17.46.17,26.19.2,1.33,0,2.65-.12,3.98-.2,1.33-.08,2-.82,1.81-2.12-.22-1.5-.52-2.99-.91-4.45-.38-1.41-1.34-2.22-2.89-2.28-3.03-.12-1.56-.29-4.59-.43-.61-.03-1.23-.06-2.09-.09.63-2.55,1.15-4.88,1.81-7.18.11-.38.76-.68,1.23-.85.39-.14.88-.03,1.32-.03,28.86,0,46.45-.02,75.32.04,1.99,0,4.11.22,5.93.95,4.77,1.89,8.44,6,8.63,10.8.99,6.48,2.63,22.5,4.27,36.61l.84,18.52Z"/>
  <g>
    <path class="st5" d="M128.13,54.88c3.33,0,6.65,0,9.98,0,1.29,0,2.59-.12,2.61-1.77.02-1.59-1.29-1.63-2.46-1.63-6.65-.01-13.3-.01-19.95,0-1.2,0-2.41.14-2.37,1.73.04,1.55,1.24,1.68,2.44,1.68,3.25,0,6.5,0,9.75,0Z"/>
    <path class="st5" d="M128.13,63.08c5.35,0,10.7,0,16.05,0,1.16,0,2.44,0,2.47-1.66.04-1.79-1.26-1.85-2.52-1.85-10.56.01-21.13.01-31.69,0-1.16,0-2.41-.02-2.45,1.67-.05,1.85,1.26,1.84,2.5,1.84,5.21-.02,10.43,0,15.64,0Z"/>
    <path class="st5" d="M128.18,46.63c2.46,0,4.92,0,7.38,0,.95,0,1.92-.12,1.93-1.77.01-1.59-.95-1.63-1.82-1.63-4.92-.01-9.84-.01-14.76,0-.89,0-1.78.14-1.75,1.73.03,1.55.92,1.68,1.81,1.68,2.4,0,4.81,0,7.21,0Z"/>
  </g>
  <g>
    <path class="st5" d="M226.44,54.88c3.33,0,6.65,0,9.98,0,1.29,0,2.59-.12,2.61-1.77.02-1.59-1.29-1.63-2.46-1.63-6.65-.01-13.3-.01-19.95,0-1.2,0-2.41.14-2.37,1.73.04,1.55,1.24,1.68,2.44,1.68,3.25,0,6.5,0,9.75,0Z"/>
    <path class="st5" d="M226.44,63.08c5.35,0,10.7,0,16.05,0,1.16,0,2.44,0,2.47-1.66.04-1.79-1.26-1.85-2.52-1.85-10.56.01-21.13.01-31.69,0-1.16,0-2.41-.02-2.45,1.67-.05,1.85,1.26,1.84,2.5,1.84,5.21-.02,10.43,0,15.64,0Z"/>
    <path class="st5" d="M226.49,46.63c2.46,0,4.92,0,7.38,0,.95,0,1.92-.12,1.93-1.77.01-1.59-.95-1.63-1.82-1.63-4.92-.01-9.84-.01-14.76,0-.89,0-1.78.14-1.75,1.73.03,1.55.92,1.68,1.81,1.68,2.4,0,4.81,0,7.21,0Z"/>
  </g>
  <path class="st1" d="M62.34,226.01l1.09,18.95c.2,3.41,3.21,6.08,6.86,6.08h211.51c3.69,0,6.72-2.73,6.86-6.18l.79-19.11"/>
  <circle class="st4" cx="91.5" cy="132.99" r="10.84"/>
  <circle class="st4" cx="259.38" cy="132.97" r="10.84"/>
</svg>